<svg width="24" height="25" viewBox="0 0 24 25" fill="none" xmlns="http://www.w3.org/2000/svg">
<g clip-path="url(#clip0_4403_31183)">
<path d="M12.9231 16.8334C12.9231 17.0159 12.8689 17.1944 12.7675 17.3462C12.6661 17.498 12.5219 17.6163 12.3532 17.6862C12.1846 17.756 11.999 17.7743 11.8199 17.7387C11.6409 17.7031 11.4764 17.6152 11.3473 17.4861C11.2182 17.357 11.1303 17.1925 11.0947 17.0135C11.059 16.8344 11.0773 16.6488 11.1472 16.4801C11.2171 16.3115 11.3354 16.1673 11.4872 16.0659C11.639 15.9644 11.8174 15.9103 12 15.9103C12.2448 15.9103 12.4796 16.0075 12.6527 16.1807C12.8258 16.3538 12.9231 16.5886 12.9231 16.8334ZM12 8.52568C10.3031 8.52568 8.92308 9.76799 8.92308 11.2949V11.6026C8.92308 11.7658 8.98791 11.9223 9.10332 12.0377C9.21873 12.1532 9.37525 12.218 9.53846 12.218C9.70167 12.218 9.8582 12.1532 9.97361 12.0377C10.089 11.9223 10.1538 11.7658 10.1538 11.6026V11.2949C10.1538 10.4488 10.9823 9.75645 12 9.75645C13.0177 9.75645 13.8462 10.4488 13.8462 11.2949C13.8462 12.1411 13.0177 12.8334 12 12.8334C11.8368 12.8334 11.6803 12.8982 11.5649 13.0136C11.4495 13.129 11.3846 13.2855 11.3846 13.4488V14.0641C11.3846 14.2274 11.4495 14.3839 11.5649 14.4993C11.6803 14.6147 11.8368 14.6795 12 14.6795C12.1632 14.6795 12.3197 14.6147 12.4351 14.4993C12.5506 14.3839 12.6154 14.2274 12.6154 14.0641V14.0088C14.0185 13.7511 15.0769 12.6318 15.0769 11.2949C15.0769 9.76799 13.6969 8.52568 12 8.52568ZM20 12.8334C20 14.4156 19.5308 15.9623 18.6518 17.2779C17.7727 18.5935 16.5233 19.6189 15.0615 20.2244C13.5997 20.8299 11.9911 20.9883 10.4393 20.6797C8.88743 20.371 7.46197 19.609 6.34315 18.4902C5.22433 17.3714 4.4624 15.9459 4.15372 14.3941C3.84504 12.8422 4.00347 11.2337 4.60897 9.7719C5.21447 8.3101 6.23985 7.06067 7.55544 6.18162C8.87103 5.30257 10.4178 4.83337 12 4.83337C14.121 4.83561 16.1546 5.67919 17.6544 7.17899C19.1542 8.6788 19.9978 10.7123 20 12.8334ZM18.7692 12.8334C18.7692 11.4945 18.3722 10.1858 17.6284 9.07259C16.8846 7.9594 15.8274 7.09177 14.5905 6.57942C13.3536 6.06707 11.9925 5.93302 10.6794 6.19421C9.36629 6.4554 8.16013 7.10011 7.21343 8.0468C6.26674 8.9935 5.62203 10.1997 5.36084 11.5128C5.09965 12.8259 5.2337 14.1869 5.74605 15.4238C6.2584 16.6608 7.12603 17.718 8.23922 18.4618C9.35241 19.2056 10.6612 19.6026 12 19.6026C13.7947 19.6006 15.5153 18.8867 16.7843 17.6177C18.0534 16.3487 18.7672 14.6281 18.7692 12.8334Z" fill="#D5172A"/>
</g>
<defs>
<clipPath id="clip0_4403_31183">
<rect width="16" height="16" fill="white" transform="translate(4 4.83337)"/>
</clipPath>
</defs>
</svg>
