<svg width="24" height="25" viewBox="0 0 24 25" fill="none" xmlns="http://www.w3.org/2000/svg">
<path fill-rule="evenodd" clip-rule="evenodd" d="M12 10.1438C10.4449 10.1438 9.18416 11.4045 9.18416 12.9596C9.18416 14.5148 10.4449 15.7755 12 15.7755C13.5551 15.7755 14.8158 14.5148 14.8158 12.9596C14.8158 11.4045 13.5551 10.1438 12 10.1438ZM10.195 12.9596C10.195 11.9627 11.0031 11.1546 12 11.1546C12.9969 11.1546 13.805 11.9627 13.805 12.9596C13.805 13.9565 12.9969 14.7646 12 14.7646C11.0031 14.7646 10.195 13.9565 10.195 12.9596Z" fill="#485C72"/>
<path fill-rule="evenodd" clip-rule="evenodd" d="M12 7.83337C10.2568 7.83337 8.66556 8.51926 7.37484 9.34729C6.08149 10.177 5.05549 11.1715 4.43279 11.8416L4.42784 11.847C4.15244 12.1522 4 12.5486 4 12.9596C4 13.3707 4.15244 13.7671 4.42784 14.0722L4.43279 14.0776C5.05549 14.7478 6.08149 15.7422 7.37484 16.572C8.66556 17.4 10.2568 18.0859 12 18.0859C13.7432 18.0859 15.3344 17.4 16.6252 16.572C17.9185 15.7422 18.9445 14.7478 19.5672 14.0776L19.5722 14.0722C19.8476 13.7671 20 13.3707 20 12.9596C20 12.5486 19.8476 12.1522 19.5722 11.847L19.5672 11.8416C18.9445 11.1715 17.9185 10.177 16.6252 9.34729C15.3344 8.51926 13.7432 7.83337 12 7.83337ZM5.01081 12.9596C5.01081 12.7998 5.06968 12.6457 5.1761 12.5266C5.76662 11.8914 6.72642 10.9642 7.92064 10.1981C9.11941 9.42903 10.5201 8.84418 12 8.84418C13.4799 8.84418 14.8806 9.42903 16.0794 10.1981C17.2736 10.9642 18.2334 11.8915 18.8239 12.5266C18.9303 12.6457 18.9892 12.7998 18.9892 12.9596C18.9892 13.1194 18.9303 13.2735 18.8239 13.3926C18.2334 14.0278 17.2736 14.955 16.0794 15.7212C14.8806 16.4902 13.4799 17.0751 12 17.0751C10.5201 17.0751 9.11941 16.4902 7.92064 15.7212C6.72642 14.955 5.76662 14.0278 5.1761 13.3926C5.06968 13.2735 5.01081 13.1194 5.01081 12.9596Z" fill="#485C72"/>
</svg>
