<svg width="24" height="25" viewBox="0 0 24 25" fill="none" xmlns="http://www.w3.org/2000/svg">
<path d="M17.7675 14.2982C17.7104 14.3308 17.6475 14.3517 17.5822 14.3599C17.517 14.3681 17.4508 14.3634 17.3874 14.346C17.324 14.3286 17.2647 14.2988 17.2128 14.2584C17.1609 14.2181 17.1175 14.1679 17.085 14.1107L15.8975 12.0357C15.2072 12.5025 14.4456 12.8541 13.6425 13.0769L14.0094 15.2782C14.0202 15.343 14.0182 15.4093 14.0034 15.4733C13.9886 15.5373 13.9613 15.5978 13.9231 15.6512C13.8849 15.7047 13.8365 15.7501 13.7808 15.7849C13.725 15.8196 13.663 15.843 13.5982 15.8538C13.5715 15.8582 13.5446 15.8605 13.5175 15.8607C13.3993 15.8605 13.2849 15.8184 13.1947 15.7418C13.1045 15.6653 13.0444 15.5593 13.025 15.4426L12.6644 13.2813C11.9039 13.3871 11.1324 13.3871 10.3719 13.2813L10.0113 15.4426C9.99189 15.5595 9.9316 15.6657 9.84117 15.7423C9.75074 15.8188 9.63605 15.8608 9.51755 15.8607C9.48991 15.8606 9.46232 15.8583 9.43505 15.8538C9.37023 15.843 9.30818 15.8196 9.25243 15.7849C9.19667 15.7501 9.14832 15.7047 9.11013 15.6512C9.07193 15.5978 9.04465 15.5373 9.02984 15.4733C9.01502 15.4093 9.01297 15.343 9.0238 15.2782L9.39255 13.0769C8.58981 12.8534 7.82867 12.5011 7.1388 12.0338L5.95505 14.1107C5.88874 14.2262 5.77926 14.3107 5.65068 14.3455C5.5221 14.3803 5.38496 14.3626 5.26942 14.2963C5.15389 14.23 5.06942 14.1205 5.03461 13.9919C4.9998 13.8634 5.01749 13.7262 5.0838 13.6107L6.3338 11.4232C5.89473 11.0439 5.49099 10.6255 5.12755 10.1732C5.08222 10.1226 5.04768 10.0633 5.02604 9.99887C5.0044 9.93447 4.99611 9.86634 5.00168 9.79863C5.00725 9.73092 5.02656 9.66505 5.05843 9.60506C5.0903 9.54506 5.13406 9.49218 5.18704 9.44966C5.24003 9.40714 5.30112 9.37586 5.36659 9.35773C5.43207 9.3396 5.50055 9.33501 5.56786 9.34423C5.63517 9.35345 5.69989 9.37629 5.75808 9.41136C5.81627 9.44643 5.8667 9.49298 5.9063 9.54819C6.9438 10.8319 8.7588 12.3607 11.5175 12.3607C14.2763 12.3607 16.0913 10.8301 17.1288 9.54819C17.1679 9.49185 17.2183 9.44417 17.2766 9.40812C17.335 9.37207 17.4001 9.34841 17.468 9.33862C17.5359 9.32882 17.6051 9.33311 17.6713 9.3512C17.7375 9.3693 17.7992 9.40082 17.8527 9.4438C17.9061 9.48678 17.9502 9.5403 17.9821 9.60103C18.014 9.66177 18.033 9.72842 18.0381 9.79683C18.0431 9.86525 18.034 9.93397 18.0113 9.99871C17.9887 10.0635 17.9529 10.1229 17.9063 10.1732C17.5428 10.6255 17.1391 11.0439 16.7 11.4232L17.95 13.6107C17.9836 13.6677 18.0055 13.7308 18.0145 13.7964C18.0235 13.8619 18.0194 13.9286 18.0024 13.9926C17.9854 14.0565 17.9559 14.1164 17.9156 14.1689C17.8753 14.2214 17.825 14.2653 17.7675 14.2982Z" fill="black"/>
</svg>
