<svg width="121" height="25" viewBox="0 0 121 25" fill="none" xmlns="http://www.w3.org/2000/svg">
<g clip-path="url(#clip0_4142_123592)">
<path d="M19.45 10.1352C19.3894 9.94855 19.2753 9.78386 19.1218 9.66161C18.9684 9.53936 18.7823 9.46497 18.5869 9.44769L14.875 9.12769L13.42 5.66769C13.3442 5.48614 13.2165 5.33106 13.0528 5.22197C12.889 5.11289 12.6967 5.05469 12.5 5.05469C12.3033 5.05469 12.111 5.11289 11.9472 5.22197C11.7835 5.33106 11.6558 5.48614 11.58 5.66769L10.1294 9.12769L6.41313 9.44956C6.2169 9.46605 6.02991 9.54011 5.8756 9.66245C5.72129 9.78479 5.60654 9.94996 5.54573 10.1373C5.48493 10.3246 5.48077 10.5256 5.53379 10.7153C5.5868 10.9049 5.69463 11.0747 5.84375 11.2033L8.66313 13.6671L7.81813 17.3258C7.77344 17.5173 7.78619 17.7177 7.85478 17.9019C7.92337 18.0862 8.04475 18.2461 8.20375 18.3618C8.36275 18.4774 8.55231 18.5436 8.74873 18.5521C8.94516 18.5606 9.13973 18.511 9.30813 18.4096L12.4956 16.4721L15.69 18.4096C15.8584 18.511 16.053 18.5606 16.2494 18.5521C16.4458 18.5436 16.6354 18.4774 16.7944 18.3618C16.9534 18.2461 17.0748 18.0862 17.1433 17.9019C17.2119 17.7177 17.2247 17.5173 17.18 17.3258L16.3356 13.6633L19.1544 11.2033C19.3035 11.0743 19.4111 10.904 19.4637 10.714C19.5163 10.5239 19.5115 10.3225 19.45 10.1352Z" fill="#FFD000"/>
</g>
<g clip-path="url(#clip1_4142_123592)">
<path d="M43.45 10.1352C43.3894 9.94855 43.2753 9.78386 43.1218 9.66161C42.9684 9.53936 42.7823 9.46497 42.5869 9.44769L38.875 9.12769L37.42 5.66769C37.3442 5.48614 37.2165 5.33106 37.0528 5.22197C36.889 5.11289 36.6967 5.05469 36.5 5.05469C36.3033 5.05469 36.111 5.11289 35.9472 5.22197C35.7835 5.33106 35.6558 5.48614 35.58 5.66769L34.1294 9.12769L30.4131 9.44956C30.2169 9.46605 30.0299 9.54011 29.8756 9.66245C29.7213 9.78479 29.6065 9.94996 29.5457 10.1373C29.4849 10.3246 29.4808 10.5256 29.5338 10.7153C29.5868 10.9049 29.6946 11.0747 29.8438 11.2033L32.6631 13.6671L31.8181 17.3258C31.7734 17.5173 31.7862 17.7177 31.8548 17.9019C31.9234 18.0862 32.0447 18.2461 32.2037 18.3618C32.3627 18.4774 32.5523 18.5436 32.7487 18.5521C32.9452 18.5606 33.1397 18.511 33.3081 18.4096L36.4956 16.4721L39.69 18.4096C39.8584 18.511 40.053 18.5606 40.2494 18.5521C40.4458 18.5436 40.6354 18.4774 40.7944 18.3618C40.9534 18.2461 41.0748 18.0862 41.1433 17.9019C41.2119 17.7177 41.2247 17.5173 41.18 17.3258L40.3356 13.6633L43.1544 11.2033C43.3035 11.0743 43.4111 10.904 43.4637 10.714C43.5163 10.5239 43.5115 10.3225 43.45 10.1352Z" fill="#FFD000"/>
</g>
<g clip-path="url(#clip2_4142_123592)">
<path d="M67.45 10.1352C67.3894 9.94855 67.2753 9.78386 67.1218 9.66161C66.9684 9.53936 66.7823 9.46497 66.5869 9.44769L62.875 9.12769L61.42 5.66769C61.3442 5.48614 61.2165 5.33106 61.0528 5.22197C60.889 5.11289 60.6967 5.05469 60.5 5.05469C60.3033 5.05469 60.111 5.11289 59.9472 5.22197C59.7835 5.33106 59.6558 5.48614 59.58 5.66769L58.1294 9.12769L54.4131 9.44956C54.2169 9.46605 54.0299 9.54011 53.8756 9.66245C53.7213 9.78479 53.6065 9.94996 53.5457 10.1373C53.4849 10.3246 53.4808 10.5256 53.5338 10.7153C53.5868 10.9049 53.6946 11.0747 53.8437 11.2033L56.6631 13.6671L55.8181 17.3258C55.7734 17.5173 55.7862 17.7177 55.8548 17.9019C55.9234 18.0862 56.0447 18.2461 56.2037 18.3618C56.3627 18.4774 56.5523 18.5436 56.7487 18.5521C56.9452 18.5606 57.1397 18.511 57.3081 18.4096L60.4956 16.4721L63.69 18.4096C63.8584 18.511 64.053 18.5606 64.2494 18.5521C64.4458 18.5436 64.6354 18.4774 64.7944 18.3618C64.9534 18.2461 65.0748 18.0862 65.1433 17.9019C65.2119 17.7177 65.2247 17.5173 65.18 17.3258L64.3356 13.6633L67.1544 11.2033C67.3035 11.0743 67.4111 10.904 67.4637 10.714C67.5163 10.5239 67.5115 10.3225 67.45 10.1352Z" fill="#FFD000"/>
</g>
<g clip-path="url(#clip3_4142_123592)">
<path d="M91.45 10.1352C91.3894 9.94855 91.2753 9.78386 91.1218 9.66161C90.9684 9.53936 90.7823 9.46497 90.5869 9.44769L86.875 9.12769L85.42 5.66769C85.3442 5.48614 85.2165 5.33106 85.0528 5.22197C84.889 5.11289 84.6967 5.05469 84.5 5.05469C84.3033 5.05469 84.111 5.11289 83.9472 5.22197C83.7835 5.33106 83.6558 5.48614 83.58 5.66769L82.1294 9.12769L78.4131 9.44956C78.2169 9.46605 78.0299 9.54011 77.8756 9.66245C77.7213 9.78479 77.6065 9.94996 77.5457 10.1373C77.4849 10.3246 77.4808 10.5256 77.5338 10.7153C77.5868 10.9049 77.6946 11.0747 77.8437 11.2033L80.6631 13.6671L79.8181 17.3258C79.7734 17.5173 79.7862 17.7177 79.8548 17.9019C79.9234 18.0862 80.0447 18.2461 80.2037 18.3618C80.3627 18.4774 80.5523 18.5436 80.7487 18.5521C80.9452 18.5606 81.1397 18.511 81.3081 18.4096L84.4956 16.4721L87.69 18.4096C87.8584 18.511 88.053 18.5606 88.2494 18.5521C88.4458 18.5436 88.6354 18.4774 88.7944 18.3618C88.9534 18.2461 89.0748 18.0862 89.1433 17.9019C89.2119 17.7177 89.2247 17.5173 89.18 17.3258L88.3356 13.6633L91.1544 11.2033C91.3035 11.0743 91.4111 10.904 91.4637 10.714C91.5163 10.5239 91.5115 10.3225 91.45 10.1352Z" fill="#FFD000"/>
</g>
<g clip-path="url(#clip4_4142_123592)">
<path d="M115.45 10.1352C115.389 9.94855 115.275 9.78386 115.122 9.66161C114.968 9.53936 114.782 9.46497 114.587 9.44769L110.875 9.12769L109.42 5.66769C109.344 5.48614 109.216 5.33106 109.053 5.22197C108.889 5.11289 108.697 5.05469 108.5 5.05469C108.303 5.05469 108.111 5.11289 107.947 5.22197C107.784 5.33106 107.656 5.48614 107.58 5.66769L106.129 9.12769L102.413 9.44956C102.217 9.46605 102.03 9.54011 101.876 9.66245C101.721 9.78479 101.607 9.94996 101.546 10.1373C101.485 10.3246 101.481 10.5256 101.534 10.7153C101.587 10.9049 101.695 11.0747 101.844 11.2033L104.663 13.6671L103.818 17.3258C103.773 17.5173 103.786 17.7177 103.855 17.9019C103.923 18.0862 104.045 18.2461 104.204 18.3618C104.363 18.4774 104.552 18.5436 104.749 18.5521C104.945 18.5606 105.14 18.511 105.308 18.4096L108.496 16.4721L111.69 18.4096C111.858 18.511 112.053 18.5606 112.249 18.5521C112.446 18.5436 112.635 18.4774 112.794 18.3618C112.953 18.2461 113.075 18.0862 113.143 17.9019C113.212 17.7177 113.225 17.5173 113.18 17.3258L112.336 13.6633L115.154 11.2033C115.303 11.0743 115.411 10.904 115.464 10.714C115.516 10.5239 115.512 10.3225 115.45 10.1352Z" fill="#FFD000"/>
</g>
<defs>
<clipPath id="clip0_4142_123592">
<rect width="24" height="24" fill="white" transform="translate(0.5 0.0546875)"/>
</clipPath>
<clipPath id="clip1_4142_123592">
<rect width="24" height="24" fill="white" transform="translate(24.5 0.0546875)"/>
</clipPath>
<clipPath id="clip2_4142_123592">
<rect width="24" height="24" fill="white" transform="translate(48.5 0.0546875)"/>
</clipPath>
<clipPath id="clip3_4142_123592">
<rect width="24" height="24" fill="white" transform="translate(72.5 0.0546875)"/>
</clipPath>
<clipPath id="clip4_4142_123592">
<rect width="24" height="24" fill="white" transform="translate(96.5 0.0546875)"/>
</clipPath>
</defs>
</svg>
