<svg width="36" height="36" viewBox="0 0 36 36" fill="none" xmlns="http://www.w3.org/2000/svg">
<path d="M27 10.5H9C8.60218 10.5 8.22064 10.658 7.93934 10.9393C7.65804 11.2206 7.5 11.6022 7.5 12V24C7.5 24.3978 7.65804 24.7794 7.93934 25.0607C8.22064 25.342 8.60218 25.5 9 25.5H27C27.3978 25.5 27.7794 25.342 28.0607 25.0607C28.342 24.7794 28.5 24.3978 28.5 24V12C28.5 11.6022 28.342 11.2206 28.0607 10.9393C27.7794 10.658 27.3978 10.5 27 10.5ZM27 12V14.25H9V12H27ZM27 24H9V15.75H27V24ZM25.5 21.75C25.5 21.9489 25.421 22.1397 25.2803 22.2803C25.1397 22.421 24.9489 22.5 24.75 22.5H21.75C21.5511 22.5 21.3603 22.421 21.2197 22.2803C21.079 22.1397 21 21.9489 21 21.75C21 21.5511 21.079 21.3603 21.2197 21.2197C21.3603 21.079 21.5511 21 21.75 21H24.75C24.9489 21 25.1397 21.079 25.2803 21.2197C25.421 21.3603 25.5 21.5511 25.5 21.75ZM19.5 21.75C19.5 21.9489 19.421 22.1397 19.2803 22.2803C19.1397 22.421 18.9489 22.5 18.75 22.5H17.25C17.0511 22.5 16.8603 22.421 16.7197 22.2803C16.579 22.1397 16.5 21.9489 16.5 21.75C16.5 21.5511 16.579 21.3603 16.7197 21.2197C16.8603 21.079 17.0511 21 17.25 21H18.75C18.9489 21 19.1397 21.079 19.2803 21.2197C19.421 21.3603 19.5 21.5511 19.5 21.75Z" fill="#A6B9DC"/>
</svg>
