<svg width="26" height="26" viewBox="0 0 26 26" fill="none" xmlns="http://www.w3.org/2000/svg">
<path d="M13.0007 4.33301C11.2865 4.33301 9.61094 4.8413 8.18571 5.7936C6.76049 6.74591 5.64966 8.09946 4.9937 9.68308C4.33774 11.2667 4.16611 13.0093 4.50052 14.6905C4.83492 16.3716 5.66034 17.9159 6.8724 19.1279C8.08445 20.34 9.6287 21.1654 11.3099 21.4998C12.991 21.8342 14.7336 21.6626 16.3172 21.0066C17.9009 20.3507 19.2544 19.2398 20.2067 17.8146C21.159 16.3894 21.6673 14.7138 21.6673 12.9997C21.6649 10.7019 20.751 8.49888 19.1262 6.87409C17.5014 5.24931 15.2984 4.33543 13.0007 4.33301ZM12.334 8.99967C12.334 8.82286 12.4042 8.65329 12.5292 8.52827C12.6543 8.40324 12.8238 8.33301 13.0007 8.33301C13.1775 8.33301 13.347 8.40324 13.4721 8.52827C13.5971 8.65329 13.6673 8.82286 13.6673 8.99967V13.6663C13.6673 13.8431 13.5971 14.0127 13.4721 14.1377C13.347 14.2628 13.1775 14.333 13.0007 14.333C12.8238 14.333 12.6543 14.2628 12.5292 14.1377C12.4042 14.0127 12.334 13.8431 12.334 13.6663V8.99967ZM13.0007 17.6663C12.8029 17.6663 12.6095 17.6077 12.4451 17.4978C12.2806 17.3879 12.1525 17.2317 12.0768 17.049C12.0011 16.8663 11.9813 16.6652 12.0199 16.4712C12.0585 16.2773 12.1537 16.0991 12.2935 15.9592C12.4334 15.8194 12.6116 15.7241 12.8056 15.6856C12.9995 15.647 13.2006 15.6668 13.3833 15.7425C13.5661 15.8181 13.7222 15.9463 13.8321 16.1108C13.942 16.2752 14.0007 16.4686 14.0007 16.6663C14.0007 16.9316 13.8953 17.1859 13.7078 17.3734C13.5202 17.561 13.2659 17.6663 13.0007 17.6663Z" fill="#E9A5A7"/>
</svg>
