<svg width="69" height="69" viewBox="0 0 69 69" fill="none" xmlns="http://www.w3.org/2000/svg">
<g id="aluminum-can">
<path id="Union" fill-rule="evenodd" clip-rule="evenodd" d="M40.733 11.7969C38.6466 11.7969 36.9552 13.4882 36.9552 15.5747V17.8413H21.8441C21.0096 17.8413 20.333 18.5179 20.333 19.3524C20.333 20.1868 21.0093 20.8632 21.8436 20.8635C20.8951 22.1263 20.333 23.696 20.333 25.3969V49.5747C20.333 53.7475 23.7157 57.1302 27.8886 57.1302H41.4886C45.6614 57.1302 49.0441 53.7475 49.0441 49.5747V25.3969C49.0441 23.696 48.4821 22.1263 47.5336 20.8635C48.3679 20.8632 49.0441 20.1868 49.0441 19.3524C49.0441 18.5179 48.3676 17.8413 47.533 17.8413H44.5108V15.5747C44.5108 13.4882 42.8194 11.7969 40.733 11.7969ZM41.4886 17.8413V15.5747C41.4886 15.1574 41.1503 14.8191 40.733 14.8191C40.3157 14.8191 39.9775 15.1574 39.9775 15.5747V17.8413H41.4886ZM46.0219 26.908V48.0635H23.3552V26.908H46.0219ZM45.7639 51.0858H23.6132C24.2355 52.8465 25.9147 54.108 27.8886 54.108H41.4886C43.4624 54.108 45.1416 52.8465 45.7639 51.0858ZM27.8886 20.8635C25.9147 20.8635 24.2355 22.125 23.6132 23.8858H45.7639C45.1416 22.125 43.4624 20.8635 41.4886 20.8635H27.8886Z" fill="#485C72"/>
</g>
</svg>
