<svg width="16" height="16" viewBox="0 0 16 16" fill="none" xmlns="http://www.w3.org/2000/svg">
<g id="Armchair" clip-path="url(#clip0_1999_123096)">
<path id="Vector" d="M13.8647 5.7854V4.66578C13.8647 3.95877 13.5838 3.28072 13.0839 2.78079C12.584 2.28086 11.9059 2 11.1989 2H4.80107C4.09406 2 3.41601 2.28086 2.91608 2.78079C2.41615 3.28072 2.13529 3.95877 2.13529 4.66578V5.7854C1.53267 5.90777 0.990889 6.23471 0.601737 6.71082C0.212586 7.18694 0 7.78294 0 8.39786C0 9.01278 0.212586 9.60879 0.601737 10.0849C0.990889 10.561 1.53267 10.888 2.13529 11.0103V13.1963C2.13529 13.4791 2.24764 13.7503 2.44761 13.9503C2.64758 14.1502 2.9188 14.2626 3.2016 14.2626H12.7984C13.0812 14.2626 13.3524 14.1502 13.5524 13.9503C13.7524 13.7503 13.8647 13.4791 13.8647 13.1963V11.0103C14.4673 10.888 15.0091 10.561 15.3983 10.0849C15.7874 9.60879 16 9.01278 16 8.39786C16 7.78294 15.7874 7.18694 15.3983 6.71082C15.0091 6.23471 14.4673 5.90777 13.8647 5.7854ZM4.80107 3.06631H11.1989C11.6231 3.06631 12.03 3.23483 12.3299 3.53478C12.6299 3.83474 12.7984 4.24157 12.7984 4.66578V5.7854C12.1967 5.90912 11.656 6.23652 11.2675 6.7124C10.8791 7.18828 10.6665 7.78355 10.6658 8.39786H5.33422C5.33347 7.78355 5.12095 7.18828 4.73247 6.7124C4.344 6.23652 3.80333 5.90912 3.2016 5.7854V4.66578C3.2016 4.24157 3.37012 3.83474 3.67008 3.53478C3.97003 3.23483 4.37686 3.06631 4.80107 3.06631ZM13.3575 9.99733H13.3316C13.1901 9.99733 13.0545 10.0535 12.9546 10.1535C12.8546 10.2535 12.7984 10.3891 12.7984 10.5305V13.1963H3.2016V10.5305C3.2016 10.3891 3.14543 10.2535 3.04545 10.1535C2.94546 10.0535 2.80985 9.99733 2.66845 9.99733H2.64246C2.32727 9.9922 2.02062 9.89406 1.76103 9.71523C1.50145 9.53639 1.30049 9.28483 1.1834 8.99216C1.06632 8.69948 1.03833 8.37873 1.10295 8.07019C1.16757 7.76166 1.32192 7.4791 1.54661 7.258C1.7713 7.03691 2.05631 6.88713 2.36584 6.82749C2.67538 6.76785 2.99564 6.80101 3.28639 6.9228C3.57714 7.04458 3.82543 7.24957 4.00006 7.51201C4.17468 7.77445 4.26787 8.08263 4.26791 8.39786V11.0636C4.26791 11.205 4.32409 11.3406 4.42407 11.4406C4.52406 11.5406 4.65967 11.5968 4.80107 11.5968C4.94247 11.5968 5.07808 11.5406 5.17807 11.4406C5.27805 11.3406 5.33422 11.205 5.33422 11.0636V9.46417H10.6658V11.0636C10.6658 11.205 10.7219 11.3406 10.8219 11.4406C10.9219 11.5406 11.0575 11.5968 11.1989 11.5968C11.3403 11.5968 11.4759 11.5406 11.5759 11.4406C11.6759 11.3406 11.7321 11.205 11.7321 11.0636V8.39786C11.7321 8.08263 11.8253 7.77445 11.9999 7.51201C12.1746 7.24957 12.4229 7.04458 12.7136 6.9228C13.0044 6.80101 13.3246 6.76785 13.6342 6.82749C13.9437 6.88713 14.2287 7.03691 14.4534 7.258C14.6781 7.4791 14.8324 7.76166 14.897 8.07019C14.9617 8.37873 14.9337 8.69948 14.8166 8.99216C14.6995 9.28483 14.4986 9.53639 14.239 9.71523C13.9794 9.89406 13.6727 9.9922 13.3575 9.99733Z" fill="#1A2736"/>
</g>
<defs>
<clipPath id="clip0_1999_123096">
<rect width="16" height="16" fill="white"/>
</clipPath>
</defs>
</svg>
