<svg width="24" height="25" viewBox="0 0 24 25" fill="none" xmlns="http://www.w3.org/2000/svg">
<g id="Armchair" clip-path="url(#clip0_3131_82350)">
<path id="Vector" d="M20.5533 9.27038V7.63759C20.5533 6.60654 20.1438 5.61771 19.4147 4.88865C18.6856 4.15958 17.6968 3.75 16.6658 3.75H7.33554C6.30449 3.75 5.31567 4.15958 4.5866 4.88865C3.85754 5.61771 3.44795 6.60654 3.44795 7.63759V9.27038C2.56913 9.44883 1.77903 9.92561 1.21152 10.6199C0.644005 11.3143 0.333984 12.1835 0.333984 13.0802C0.333984 13.977 0.644005 14.8462 1.21152 15.5405C1.77903 16.2348 2.56913 16.7116 3.44795 16.8901V20.0779C3.44795 20.4903 3.61179 20.8858 3.90341 21.1775C4.19504 21.4691 4.59057 21.6329 5.00299 21.6329H18.9983C19.4107 21.6329 19.8063 21.4691 20.0979 21.1775C20.3895 20.8858 20.5533 20.4903 20.5533 20.0779V16.8901C21.4322 16.7116 22.2223 16.2348 22.7898 15.5405C23.3573 14.8462 23.6673 13.977 23.6673 13.0802C23.6673 12.1835 23.3573 11.3143 22.7898 10.6199C22.2223 9.92561 21.4322 9.44883 20.5533 9.27038ZM7.33554 5.30504H16.6658C17.2844 5.30504 17.8777 5.55079 18.3151 5.98822C18.7526 6.42566 18.9983 7.01896 18.9983 7.63759V9.27038C18.1208 9.4508 17.3323 9.92825 16.7658 10.6223C16.1993 11.3162 15.8893 12.1843 15.8882 13.0802H8.11306C8.11197 12.1843 7.80203 11.3162 7.23551 10.6223C6.66898 9.92825 5.8805 9.4508 5.00299 9.27038V7.63759C5.00299 7.01896 5.24874 6.42566 5.68618 5.98822C6.12362 5.55079 6.71691 5.30504 7.33554 5.30504ZM19.8137 15.4128H19.7758C19.5696 15.4128 19.3719 15.4947 19.226 15.6405C19.0802 15.7863 18.9983 15.9841 18.9983 16.1903V20.0779H5.00299V16.1903C5.00299 15.9841 4.92107 15.7863 4.77526 15.6405C4.62945 15.4947 4.43168 15.4128 4.22547 15.4128H4.18757C3.72792 15.4053 3.28073 15.2622 2.90216 15.0014C2.52359 14.7406 2.23053 14.3737 2.05978 13.9469C1.88903 13.5201 1.84822 13.0523 1.94245 12.6024C2.03669 12.1524 2.26178 11.7404 2.58945 11.4179C2.91713 11.0955 3.33277 10.8771 3.78417 10.7901C4.23558 10.7031 4.70262 10.7515 5.12664 10.9291C5.55065 11.1067 5.91273 11.4056 6.1674 11.7883C6.42207 12.1711 6.55796 12.6205 6.55802 13.0802V16.9678C6.55802 17.174 6.63994 17.3718 6.78575 17.5176C6.93157 17.6634 7.12933 17.7453 7.33554 17.7453C7.54175 17.7453 7.73952 17.6634 7.88533 17.5176C8.03114 17.3718 8.11306 17.174 8.11306 16.9678V14.6353H15.8882V16.9678C15.8882 17.174 15.9702 17.3718 16.116 17.5176C16.2618 17.6634 16.4595 17.7453 16.6658 17.7453C16.872 17.7453 17.0697 17.6634 17.2155 17.5176C17.3614 17.3718 17.4433 17.174 17.4433 16.9678V13.0802C17.4433 12.6205 17.5792 12.1711 17.8339 11.7883C18.0886 11.4056 18.4507 11.1067 18.8747 10.9291C19.2987 10.7515 19.7657 10.7031 20.2171 10.7901C20.6685 10.8771 21.0842 11.0955 21.4118 11.4179C21.7395 11.7404 21.9646 12.1524 22.0588 12.6024C22.1531 13.0523 22.1123 13.5201 21.9415 13.9469C21.7708 14.3737 21.4777 14.7406 21.0991 15.0014C20.7206 15.2622 20.2734 15.4053 19.8137 15.4128Z" fill="#D5172A"/>
</g>
<defs>
<clipPath id="clip0_3131_82350">
<rect width="23.3333" height="23.3333" fill="white" transform="translate(0.333984 0.835938)"/>
</clipPath>
</defs>
</svg>
