<svg width="14" height="14" viewBox="0 0 14 14" fill="none" xmlns="http://www.w3.org/2000/svg">
<g id="Frame">
<path id="Vector" d="M12.354 5.35378L7.35403 10.3538C7.30759 10.4003 7.25245 10.4372 7.19175 10.4623C7.13105 10.4875 7.06599 10.5004 7.00028 10.5004C6.93457 10.5004 6.86951 10.4875 6.80881 10.4623C6.74811 10.4372 6.69296 10.4003 6.64653 10.3538L1.64653 5.35378C1.55271 5.25996 1.5 5.13272 1.5 5.00003C1.5 4.86735 1.55271 4.7401 1.64653 4.64628C1.74035 4.55246 1.8676 4.49976 2.00028 4.49976C2.13296 4.49976 2.26021 4.55246 2.35403 4.64628L7.00028 9.29316L11.6465 4.64628C11.693 4.59983 11.7481 4.56298 11.8088 4.53784C11.8695 4.5127 11.9346 4.49976 12.0003 4.49976C12.066 4.49976 12.131 4.5127 12.1917 4.53784C12.2524 4.56298 12.3076 4.59983 12.354 4.64628C12.4005 4.69274 12.4373 4.74789 12.4625 4.80859C12.4876 4.86928 12.5006 4.93434 12.5006 5.00003C12.5006 5.06573 12.4876 5.13079 12.4625 5.19148C12.4373 5.25218 12.4005 5.30733 12.354 5.35378Z" fill="#1A2736"/>
</g>
</svg>
