<svg width="93" height="28" viewBox="0 0 93 28" fill="none" xmlns="http://www.w3.org/2000/svg">
<g id="Athens_Logo_1-color-WHITE-stacked" clip-path="url(#clip0_413_47387)">
<path id="path12" d="M46.345 4.9811L45.0194 8.8978H47.677L46.345 4.9811ZM45.2013 3.1384H47.4753L50.9257 12.3398H48.8596L48.2098 10.447H44.4995L43.8693 12.3398H41.7969L45.2013 3.1384Z" fill="#D5172A"/>
<path id="path14" d="M54.4902 12.3882C54.317 12.3924 54.1099 12.3995 53.8695 12.4101C53.6294 12.4203 53.4766 12.4258 53.4116 12.4258C52.6881 12.4258 52.1935 12.2955 51.9269 12.0352C51.6606 11.775 51.5271 11.2616 51.5271 10.4953V6.82225H50.5918V5.54795H51.5271V3.69262H53.3987V5.54795H54.4902V6.82225H53.3987V10.5829C53.3987 10.7619 53.4398 10.8796 53.5219 10.9359C53.6044 10.9921 53.7733 11.0201 54.0289 11.0201H54.4902V12.3882Z" fill="#D5172A"/>
<path id="path16" d="M55.2227 12.3398V3.1384H57.1006V6.29923C57.356 5.99107 57.6602 5.75895 58.0135 5.60276C58.3665 5.44666 58.7615 5.36852 59.1992 5.36852C59.6151 5.36852 59.9909 5.43724 60.3263 5.5746C60.6621 5.71199 60.9339 5.90788 61.1418 6.16185C61.2849 6.33265 61.3857 6.52831 61.444 6.749C61.5026 6.96989 61.5319 7.32356 61.5319 7.81102V7.93591V12.3398H59.6539V8.78544C59.6539 7.94421 59.5735 7.41631 59.4135 7.2019C59.2532 6.98738 58.9651 6.8803 58.5492 6.8803C58.1031 6.8803 57.7504 7.00825 57.4904 7.26436C57.2305 7.52036 57.1006 7.86932 57.1006 8.31068V12.3398H55.2227Z" fill="#D5172A"/>
<path id="path18" d="M64.3933 8.22885H67.1741C67.1566 7.77078 67.0302 7.42192 66.7941 7.18254C66.5577 6.94313 66.219 6.82325 65.777 6.82325C65.3656 6.82325 65.0416 6.94425 64.8058 7.18555C64.5697 7.4272 64.4321 7.77503 64.3933 8.22885ZM67.1483 10.2779H69.0326C68.8418 10.9941 68.4575 11.5552 67.879 11.9614C67.3008 12.3674 66.5956 12.5703 65.764 12.5703C64.7417 12.5703 63.9317 12.2403 63.3343 11.5802C62.7362 10.9202 62.4375 10.0259 62.4375 8.89716C62.4375 7.78537 62.7319 6.9088 63.3211 6.26741C63.9102 5.62612 64.7159 5.3053 65.7382 5.3053C66.8211 5.3053 67.657 5.62072 68.2464 6.25183C68.8352 6.88256 69.1299 7.7812 69.1299 8.94728C69.1299 9.07634 69.1288 9.17311 69.1265 9.23781C69.1242 9.30229 69.119 9.36375 69.1104 9.42182H64.3933C64.4192 9.95524 64.5545 10.3569 64.7992 10.6276C65.0439 10.8983 65.3958 11.0336 65.8551 11.0336C66.18 11.0336 66.4465 10.9723 66.6542 10.8494C66.8622 10.7266 67.0267 10.536 67.1483 10.2779Z" fill="#D5172A"/>
<path id="path20" d="M69.9785 12.3398V5.5496H71.8304V6.35553C72.0946 6.02652 72.4063 5.77982 72.7656 5.61522C73.1252 5.45071 73.5259 5.36852 73.968 5.36852C74.7479 5.36852 75.3312 5.56329 75.7187 5.95252C76.1068 6.34195 76.301 6.92818 76.301 7.71097V12.3398H74.4101V8.23578C74.4101 7.74844 74.3239 7.40083 74.1533 7.1926C73.9821 6.98436 73.7035 6.8803 73.3183 6.8803C72.8719 6.8803 72.5189 7.00825 72.2589 7.26436C71.999 7.52036 71.8691 7.86932 71.8691 8.31068V12.3398H69.9785Z" fill="#D5172A"/>
<path id="path22" d="M77.1289 10.1279H79.0123C79.0299 10.4736 79.16 10.7308 79.4027 10.8993C79.6451 11.0679 80.0094 11.1524 80.4939 11.1524C80.8625 11.1524 81.1474 11.0928 81.3488 10.9743C81.5498 10.8556 81.6509 10.688 81.6509 10.4714C81.6509 10.1633 81.2741 9.93227 80.5201 9.77798C80.2122 9.7154 79.968 9.66169 79.7859 9.61559C78.8676 9.39087 78.2296 9.12422 77.8723 8.81586C77.515 8.50793 77.3363 8.09149 77.3363 7.56668C77.3363 6.87125 77.5971 6.32032 78.1193 5.91441C78.6412 5.50837 79.3484 5.3053 80.2409 5.3053C81.185 5.3053 81.9267 5.50736 82.4661 5.91125C83.0056 6.31541 83.2925 6.88368 83.327 7.6166H81.4884C81.4754 7.3292 81.3617 7.10661 81.1474 6.94827C80.9326 6.78995 80.6347 6.71078 80.2535 6.71078C79.8942 6.71078 79.6268 6.76302 79.4513 6.86708C79.276 6.97126 79.1881 7.12736 79.1881 7.3356C79.1881 7.60627 79.6581 7.84579 80.5982 8.05391C80.8148 8.0999 80.986 8.13722 81.1115 8.16638C82.0514 8.37875 82.6936 8.63498 83.038 8.93473C83.3821 9.23457 83.5548 9.65732 83.5548 10.2028C83.5548 10.9733 83.2718 11.5605 82.7068 11.9644C82.1415 12.3682 81.3195 12.5703 80.2409 12.5703C79.266 12.5703 78.5036 12.3601 77.9536 11.9395C77.4035 11.5188 77.1289 10.9399 77.1289 10.2028V10.1279Z" fill="#D5172A"/>
<path id="path24" d="M40.7168 22.1945H42.6597C42.7332 22.6987 42.9475 23.0723 43.3028 23.3159C43.6581 23.5594 44.1714 23.6813 44.8427 23.6813C45.4146 23.6813 45.8455 23.5835 46.1356 23.3876C46.426 23.192 46.5713 22.9025 46.5713 22.5194C46.5713 21.9613 45.7372 21.4991 44.0698 21.1327C44.0476 21.1285 44.0284 21.1244 44.0109 21.1201C43.9678 21.112 43.9006 21.0973 43.8098 21.0764C42.9173 20.8889 42.2805 20.6788 41.8994 20.4454C41.5616 20.2374 41.3036 19.9573 41.1261 19.6052C40.9483 19.2535 40.8596 18.838 40.8596 18.3591C40.8596 17.4638 41.1758 16.7778 41.8086 16.3008C42.4408 15.8241 43.3548 15.5856 44.5503 15.5856C45.668 15.5856 46.542 15.8395 47.1722 16.3477C47.8025 16.8557 48.1351 17.5719 48.1698 18.4964H46.2786C46.2442 18.0509 46.0664 17.7115 45.7461 17.4783C45.4255 17.2451 44.9682 17.1284 44.3748 17.1284C43.8595 17.1284 43.462 17.2253 43.1828 17.4188C42.9033 17.6126 42.7634 17.8885 42.7634 18.2466C42.7634 18.7339 43.3068 19.0984 44.3946 19.3399C44.689 19.4065 44.9186 19.4585 45.0831 19.4959C45.7806 19.6669 46.2755 19.8 46.5679 19.8958C46.86 19.9916 47.1145 20.0978 47.3314 20.2142C47.7214 20.4227 48.0136 20.6984 48.2086 21.042C48.4034 21.3854 48.5007 21.7969 48.5007 22.2757C48.5007 23.2336 48.1652 23.9761 47.4937 24.5026C46.8224 25.0297 45.8759 25.293 44.6543 25.293C43.4502 25.293 42.5057 25.0243 41.8215 24.4872C41.137 23.9498 40.7688 23.1857 40.7168 22.1945Z" fill="#D5172A"/>
<path id="path26" d="M51.0705 20.9279H53.8515C53.8346 20.4699 53.7074 20.1212 53.4715 19.8816C53.2354 19.6422 52.8968 19.5225 52.455 19.5225C52.0434 19.5225 51.7194 19.6433 51.4832 19.8848C51.2471 20.1264 51.1098 20.4743 51.0705 20.9279ZM53.8257 22.977H55.7103C55.5193 23.6933 55.1349 24.2544 54.5567 24.6605C53.9785 25.0664 53.2736 25.2695 52.4415 25.2695C51.4195 25.2695 50.6097 24.9395 50.0114 24.2794C49.414 23.6194 49.1152 22.7251 49.1152 21.5964C49.1152 20.4846 49.4097 19.608 49.9988 18.9666C50.5876 18.3253 51.3936 18.0045 52.4156 18.0045C53.4988 18.0045 54.3347 18.32 54.9238 18.951C55.5129 19.5818 55.8077 20.4804 55.8077 21.6465C55.8077 21.7756 55.8062 21.8723 55.8045 21.937C55.8019 22.0015 55.7967 22.063 55.7881 22.1211H51.0705C51.0969 22.6545 51.2322 23.0561 51.4769 23.3268C51.7217 23.5975 52.0735 23.7328 52.5325 23.7328C52.8577 23.7328 53.124 23.6715 53.3319 23.5486C53.5399 23.4258 53.7045 23.2352 53.8257 22.977Z" fill="#D5172A"/>
<path id="path28" d="M56.6562 25.0391V18.2488H58.4107V19.4106C58.6575 18.9443 58.9456 18.6018 59.2747 18.3831C59.6039 18.1645 59.996 18.0552 60.4507 18.0552C60.5242 18.0552 60.5817 18.0562 60.623 18.0583C60.6641 18.0603 60.6977 18.0636 60.7236 18.0677L60.7305 19.9105H60.1C59.5844 19.9105 59.1969 20.0395 58.9369 20.2977C58.677 20.5561 58.5469 20.939 58.5469 21.4472V25.0391H56.6562Z" fill="#D5172A"/>
<path id="path30" d="M63.7708 25.0391L61.2305 18.2488H63.3224L64.7716 23.1213L66.2336 18.2488H68.2279L65.7008 25.0391H63.7708Z" fill="#D5172A"/>
<path id="path32" d="M68.8516 25.0391V18.2488H70.7422V25.0391H68.8516ZM68.8516 17.4929V15.8376H70.7422V17.4929H68.8516Z" fill="#D5172A"/>
<path id="path34" d="M76.4349 22.4772H78.2997C78.2215 23.3393 77.8947 24.0201 77.3184 24.52C76.7425 25.0197 76.002 25.2695 75.0961 25.2695C74.0698 25.2695 73.2652 24.9478 72.6827 24.3045C72.0999 23.661 71.8086 22.7708 71.8086 21.6339C71.8086 20.5014 72.1065 19.613 72.7019 18.9697C73.2977 18.3261 74.1174 18.0045 75.1616 18.0045C76.0756 18.0045 76.8086 18.2377 77.3607 18.7042C77.913 19.1707 78.2215 19.8204 78.2867 20.6532H76.409C76.3571 20.2909 76.2249 20.0139 76.0127 19.8223C75.8004 19.6309 75.5209 19.5351 75.1745 19.5351C74.7066 19.5351 74.3564 19.7121 74.1249 20.066C73.8934 20.42 73.7776 20.9509 73.7776 21.6589C73.7776 22.3128 73.8977 22.8157 74.1378 23.1675C74.3785 23.5195 74.7235 23.6953 75.1745 23.6953C75.5252 23.6953 75.8067 23.5935 76.019 23.3892C76.2312 23.1852 76.3703 22.8813 76.4349 22.4772Z" fill="#D5172A"/>
<path id="path36" d="M80.6941 20.9279H83.4752C83.4576 20.4699 83.331 20.1212 83.0949 19.8816C82.859 19.6422 82.5201 19.5225 82.0783 19.5225C81.6667 19.5225 81.3427 19.6433 81.1066 19.8848C80.8705 20.1264 80.7332 20.4743 80.6941 20.9279ZM83.449 22.977H85.3336C85.1426 23.6933 84.7586 24.2544 84.1801 24.6605C83.6018 25.0664 82.897 25.2695 82.0648 25.2695C81.0431 25.2695 80.2328 24.9395 79.635 24.2794C79.0373 23.6194 78.7383 22.7251 78.7383 21.5964C78.7383 20.4846 79.033 19.608 79.6221 18.9666C80.211 18.3253 81.0167 18.0045 82.0393 18.0045C83.1222 18.0045 83.958 18.32 84.5471 18.951C85.1363 19.5818 85.431 20.4804 85.431 21.6465C85.431 21.7756 85.4296 21.8723 85.4278 21.937C85.4255 22.0015 85.4201 22.063 85.4115 22.1211H80.6941C80.7202 22.6545 80.8558 23.0561 81.1005 23.3268C81.345 23.5975 81.6969 23.7328 82.1564 23.7328C82.481 23.7328 82.7476 23.6715 82.9553 23.5486C83.1632 23.4258 83.3278 23.2352 83.449 22.977Z" fill="#D5172A"/>
<path id="path38" d="M85.8828 22.8271H87.7671C87.7846 23.1728 87.9145 23.43 88.1572 23.5985C88.3999 23.7672 88.7636 23.8516 89.2487 23.8516C89.6169 23.8516 89.9019 23.7921 90.103 23.6735C90.3046 23.5548 90.4051 23.3873 90.4051 23.1706C90.4051 22.8624 90.0286 22.6314 89.2746 22.4772C88.9669 22.4146 88.7225 22.3608 88.5404 22.3148C87.6221 22.09 86.9844 21.8235 86.6268 21.5151C86.2697 21.2072 86.0911 20.7907 86.0911 20.2659C86.0911 19.5703 86.3519 19.0196 86.8741 18.6136C87.3957 18.2076 88.1032 18.0045 88.9954 18.0045C89.9395 18.0045 90.6815 18.2066 91.2206 18.6105C91.7598 19.0145 92.047 19.5829 92.0815 20.3158H90.2428C90.2299 20.0284 90.1159 19.8058 89.9019 19.6475C89.6873 19.4892 89.3894 19.41 89.0083 19.41C88.6489 19.41 88.3812 19.4623 88.206 19.5663C88.0302 19.6705 87.9426 19.8266 87.9426 20.0348C87.9426 20.3055 88.4128 20.545 89.353 20.7531C89.5693 20.7991 89.7402 20.8365 89.866 20.8656C90.8058 21.078 91.4481 21.3342 91.7925 21.6339C92.1369 21.9338 92.309 22.3565 92.309 22.9021C92.309 23.6725 92.0266 24.2598 91.461 24.6636C90.896 25.0675 90.0737 25.2695 88.9954 25.2695C88.0205 25.2695 87.2581 25.0593 86.7083 24.6386C86.158 24.2181 85.8828 23.6391 85.8828 22.9021V22.8271Z" fill="#D5172A"/>
<path id="path40" d="M28.264 19.1607H22.5816L23.5698 21.2348H13.539V19.2595L9.28954 23.8026L13.6378 28V26.0248H26.0899L29.5982 22.4694L28.264 19.1607ZM12.8473 13.6793L10.8707 18.1237H31.8877V20.2472L36.3351 15.9509L31.7395 11.3091V13.6299L12.8473 13.6793ZM6.52238 25.5804L16.2073 4.14864L18.2333 9.08688H16.3062L22.5323 12.7411L26.0405 9.03745H23.5205L19.518 0.000600815H13.045L0.938806 25.5804H6.52238ZM0 18.1237V13.5804H5.58359L3.55774 18.0743L0 18.1237Z" fill="#D5172A"/>
</g>
<defs>
<clipPath id="clip0_413_47387">
<rect width="92.3077" height="28" fill="white"/>
</clipPath>
</defs>
</svg>
