<svg width="238" height="48" viewBox="0 0 238 48" fill="none" xmlns="http://www.w3.org/2000/svg">
<g clip-path="url(#clip0_1971_123857)">
<g clip-path="url(#clip1_1971_123857)">
<path d="M78.3177 21.9831L76.0443 28.6976H80.6019L78.3177 21.9831ZM76.3563 18.8243H80.2561L86.1734 34.5981H82.6299L81.5153 31.3533H75.1529L74.0721 34.5981H70.5176L76.3563 18.8243Z" fill="white"/>
<path d="M92.2857 34.684C91.9884 34.6911 91.6335 34.7034 91.2213 34.7217C90.8091 34.7391 90.5469 34.7485 90.4358 34.7485C89.1949 34.7485 88.3468 34.5251 87.8896 34.079C87.4328 33.6329 87.2041 32.7528 87.2041 31.4391V25.1424H85.5996V22.9579H87.2041V19.7774H90.4136V22.9579H92.2857V25.1424H90.4136V31.5891C90.4136 31.8961 90.4839 32.0976 90.6249 32.1941C90.7661 32.2906 91.0559 32.3386 91.4947 32.3386H92.2857V34.684Z" fill="white"/>
<path d="M93.5391 34.5981V18.8243H96.7597V24.2429C97.1974 23.7144 97.7195 23.3166 98.3251 23.0488C98.9307 22.7811 99.6082 22.6473 100.359 22.6473C101.072 22.6473 101.716 22.765 102.292 23.0005C102.868 23.2362 103.334 23.5718 103.691 24.0072C103.936 24.3001 104.108 24.6356 104.208 25.0138C104.309 25.3925 104.359 25.9988 104.359 26.8343V27.0484V34.5981H101.139V28.5049C101.139 27.0627 101.001 26.1578 100.726 25.7902C100.451 25.4225 99.9573 25.2388 99.2443 25.2388C98.4794 25.2388 97.8738 25.458 97.428 25.8972C96.9826 26.3362 96.7597 26.9344 96.7597 27.6909V34.5981H93.5391Z" fill="white"/>
<path d="M109.268 27.5514H114.037C114.007 26.7662 113.79 26.1682 113.385 25.7579C112.98 25.3475 112.399 25.1421 111.641 25.1421C110.936 25.1421 110.38 25.3493 109.976 25.7632C109.571 26.1774 109.335 26.7737 109.268 27.5514ZM113.993 31.0642H117.224C116.897 32.2919 116.238 33.2541 115.246 33.9503C114.255 34.6461 113.045 34.9941 111.619 34.9941C109.866 34.9941 108.477 34.4282 107.452 33.2968C106.427 32.1652 105.914 30.6322 105.914 28.6974C105.914 26.7913 106.419 25.2887 107.429 24.1891C108.44 23.0897 109.821 22.5399 111.575 22.5399C113.432 22.5399 114.865 23.0805 115.876 24.1624C116.886 25.2438 117.391 26.7843 117.391 28.7832C117.391 29.0047 117.389 29.1705 117.386 29.2814C117.382 29.3918 117.373 29.4972 117.358 29.5967H109.268C109.313 30.511 109.545 31.1997 109.965 31.6636C110.384 32.1278 110.988 32.3599 111.775 32.3599C112.332 32.3599 112.789 32.2547 113.146 32.0441C113.502 31.8333 113.784 31.5067 113.993 31.0642Z" fill="white"/>
<path d="M118.846 34.5981V22.9577H122.021V24.3393C122.475 23.7753 123.009 23.3524 123.626 23.0701C124.242 22.7883 124.93 22.6473 125.687 22.6473C127.025 22.6473 128.025 22.9811 128.69 23.6485C129.356 24.3161 129.688 25.321 129.688 26.663V34.5981H126.445V27.5626C126.445 26.7272 126.298 26.1312 126.006 25.7742C125.712 25.4172 125.234 25.2388 124.573 25.2388C123.808 25.2388 123.202 25.458 122.757 25.8972C122.311 26.3362 122.088 26.9344 122.088 27.6909V34.5981H118.846Z" fill="white"/>
<path d="M131.111 30.8072H134.342C134.372 31.3997 134.595 31.8406 135.011 32.1294C135.427 32.4186 136.051 32.5634 136.883 32.5634C137.514 32.5634 138.003 32.4613 138.348 32.2581C138.694 32.0546 138.867 31.7674 138.867 31.3961C138.867 30.8677 138.22 30.4717 136.927 30.2072C136.399 30.0999 135.98 30.0078 135.668 29.9287C134.093 29.5437 132.999 29.0864 132.386 28.558C131.774 28.0301 131.467 27.3161 131.467 26.4165C131.467 25.2242 131.915 24.2799 132.81 23.5839C133.705 22.888 134.918 22.5399 136.448 22.5399C138.067 22.5399 139.339 22.8862 140.265 23.5786C141.19 24.2714 141.682 25.2457 141.741 26.502H138.588C138.566 26.0095 138.371 25.6278 138.003 25.3564C137.635 25.085 137.124 24.9492 136.47 24.9492C135.854 24.9492 135.395 25.0387 135.094 25.2171C134.794 25.3957 134.643 25.6633 134.643 26.0203C134.643 26.4844 135.449 26.895 137.061 27.2517C137.433 27.3306 137.726 27.3946 137.941 27.4446C139.553 27.8086 140.655 28.2477 141.245 28.7617C141.836 29.2759 142.132 30.0003 142.132 30.9356C142.132 32.2565 141.646 33.2632 140.677 33.9553C139.708 34.6479 138.298 34.9941 136.448 34.9941C134.777 34.9941 133.469 34.6337 132.526 33.9126C131.582 33.1917 131.111 32.1991 131.111 30.9356V30.8072Z" fill="white"/>
<path d="M148.885 29.7255H152.217C152.343 30.5898 152.71 31.2304 153.319 31.6481C153.929 32.0654 154.81 32.2744 155.961 32.2744C156.941 32.2744 157.68 32.1068 158.178 31.771C158.676 31.4357 158.925 30.9394 158.925 30.2826C158.925 29.3258 157.494 28.5336 154.635 27.9053C154.597 27.8984 154.564 27.8911 154.534 27.884C154.46 27.8698 154.345 27.8446 154.189 27.8089C152.659 27.4875 151.567 27.1274 150.913 26.7273C150.333 26.3706 149.891 25.8905 149.587 25.2868C149.282 24.6838 149.13 23.9718 149.13 23.1507C149.13 21.6159 149.672 20.4398 150.757 19.6221C151.841 18.805 153.409 18.396 155.459 18.396C157.376 18.396 158.875 18.8316 159.956 19.7025C161.036 20.5734 161.607 21.8013 161.666 23.3862H158.423C158.364 22.6224 158.059 22.0406 157.51 21.6408C156.96 21.241 156.176 21.0409 155.158 21.0409C154.274 21.0409 153.593 21.2069 153.114 21.5388C152.635 21.8709 152.395 22.3439 152.395 22.9578C152.395 23.7933 153.327 24.4179 155.192 24.8321C155.697 24.9463 156.09 25.0354 156.373 25.0996C157.569 25.3926 158.417 25.6208 158.919 25.7849C159.42 25.9492 159.857 26.1313 160.228 26.331C160.897 26.6882 161.398 27.1609 161.733 27.75C162.067 28.3387 162.234 29.0441 162.234 29.8648C162.234 31.507 161.659 32.7797 160.507 33.6824C159.355 34.586 157.733 35.0371 155.637 35.0371C153.572 35.0371 151.953 34.5769 150.779 33.6558C149.606 32.7347 148.974 31.425 148.885 29.7255Z" fill="white"/>
<path d="M166.641 27.5514H171.41C171.381 26.7662 171.163 26.1682 170.758 25.7579C170.353 25.3475 169.772 25.1421 169.015 25.1421C168.309 25.1421 167.753 25.3493 167.349 25.7632C166.944 26.1774 166.708 26.7737 166.641 27.5514ZM171.366 31.0642H174.597C174.27 32.2919 173.611 33.2541 172.619 33.9503C171.628 34.6461 170.419 34.9941 168.992 34.9941C167.239 34.9941 165.85 34.4282 164.824 33.2968C163.8 32.1652 163.287 30.6322 163.287 28.6974C163.287 26.7913 163.792 25.2887 164.803 24.1891C165.813 23.0897 167.195 22.5399 168.948 22.5399C170.805 22.5399 172.239 23.0805 173.249 24.1624C174.259 25.2438 174.764 26.7843 174.764 28.7832C174.764 29.0047 174.762 29.1705 174.759 29.2814C174.755 29.3918 174.746 29.4972 174.731 29.5967H166.641C166.686 30.511 166.918 31.1997 167.338 31.6636C167.757 32.1278 168.361 32.3599 169.148 32.3599C169.705 32.3599 170.162 32.2547 170.519 32.0441C170.876 31.8333 171.158 31.5067 171.366 31.0642Z" fill="white"/>
<path d="M176.219 34.5981V22.9577H179.227V24.9493C179.65 24.15 180.145 23.5629 180.709 23.1881C181.274 22.8132 181.946 22.6258 182.726 22.6258C182.852 22.6258 182.951 22.6276 183.021 22.6311C183.092 22.6345 183.15 22.6401 183.194 22.6473L183.206 25.8064H182.124C181.24 25.8064 180.576 26.0275 180.13 26.4701C179.684 26.913 179.461 27.5696 179.461 28.4406V34.5981H176.219Z" fill="white"/>
<path d="M188.421 34.5981L184.064 22.9577H187.652L190.137 31.3106L192.644 22.9577H196.065L191.731 34.5981H188.421Z" fill="white"/>
<path d="M197.135 34.5981V22.9577H200.377V34.5981H197.135ZM197.135 21.6619V18.8243H200.377V21.6619H197.135Z" fill="white"/>
<path d="M210.139 30.2072H213.337C213.203 31.6849 212.642 32.8526 211.654 33.7093C210.667 34.5658 209.397 34.9941 207.843 34.9941C206.083 34.9941 204.703 34.4426 203.704 33.34C202.705 32.2364 202.205 30.7104 202.205 28.7617C202.205 26.82 202.716 25.2971 203.737 24.1943C204.759 23.0913 206.165 22.5399 207.955 22.5399C209.523 22.5399 210.78 22.9396 211.727 23.7394C212.674 24.539 213.203 25.6527 213.315 27.0804H210.095C210.006 26.4593 209.779 25.9845 209.415 25.6561C209.051 25.3278 208.572 25.1637 207.977 25.1637C207.175 25.1637 206.575 25.4671 206.178 26.0737C205.78 26.6806 205.582 27.591 205.582 28.8045C205.582 29.9255 205.788 30.7875 206.2 31.3906C206.612 31.9938 207.204 32.2953 207.977 32.2953C208.579 32.2953 209.062 32.1209 209.426 31.7707C209.79 31.421 210.028 30.9001 210.139 30.2072Z" fill="white"/>
<path d="M217.444 27.5514H222.213C222.183 26.7662 221.966 26.1682 221.561 25.7579C221.157 25.3475 220.576 25.1421 219.818 25.1421C219.112 25.1421 218.556 25.3493 218.151 25.7632C217.747 26.1774 217.511 26.7737 217.444 27.5514ZM222.169 31.0642H225.4C225.073 32.2919 224.414 33.2541 223.422 33.9503C222.431 34.6461 221.222 34.9941 219.795 34.9941C218.042 34.9941 216.653 34.4282 215.628 33.2968C214.603 32.1652 214.09 30.6322 214.09 28.6974C214.09 26.7913 214.595 25.2887 215.606 24.1891C216.616 23.0897 217.997 22.5399 219.751 22.5399C221.608 22.5399 223.041 23.0805 224.052 24.1624C225.062 25.2438 225.567 26.7843 225.567 28.7832C225.567 29.0047 225.565 29.1705 225.562 29.2814C225.558 29.3918 225.549 29.4972 225.534 29.5967H217.444C217.489 30.511 217.721 31.1997 218.141 31.6636C218.56 32.1278 219.164 32.3599 219.952 32.3599C220.508 32.3599 220.965 32.2547 221.322 32.0441C221.679 31.8333 221.96 31.5067 222.169 31.0642Z" fill="white"/>
<path d="M226.342 30.8072H229.573C229.603 31.3997 229.826 31.8406 230.242 32.1294C230.658 32.4186 231.282 32.5634 232.114 32.5634C232.746 32.5634 233.234 32.4613 233.579 32.2581C233.925 32.0546 234.098 31.7674 234.098 31.3961C234.098 30.8677 233.451 30.4717 232.158 30.2072C231.631 30.0999 231.211 30.0078 230.899 29.9287C229.324 29.5437 228.231 29.0864 227.617 28.558C227.005 28.0301 226.699 27.3161 226.699 26.4165C226.699 25.2242 227.146 24.2799 228.041 23.5839C228.936 22.888 230.149 22.5399 231.679 22.5399C233.299 22.5399 234.571 22.8862 235.496 23.5786C236.421 24.2714 236.913 25.2457 236.972 26.502H233.819C233.797 26.0095 233.601 25.6278 233.234 25.3564C232.866 25.085 232.355 24.9492 231.701 24.9492C231.085 24.9492 230.626 25.0387 230.326 25.2171C230.025 25.3957 229.874 25.6633 229.874 26.0203C229.874 26.4844 230.68 26.895 232.293 27.2517C232.664 27.3306 232.957 27.3946 233.173 27.4446C234.784 27.8086 235.886 28.2477 236.476 28.7617C237.067 29.2759 237.362 30.0003 237.362 30.9356C237.362 32.2565 236.878 33.2632 235.908 33.9553C234.939 34.6479 233.529 34.9941 231.679 34.9941C230.007 34.9941 228.7 34.6337 227.757 33.9126C226.814 33.1917 226.342 32.1991 226.342 30.9356V30.8072Z" fill="white"/>
<path d="M48.4717 32.8472H38.7265L40.4212 36.4026H23.2189V33.0164L15.9312 40.8044L23.3882 48V44.614H44.7431L50.7595 38.519L48.4717 32.8472ZM22.0326 23.4503L18.6428 31.0694H54.6862V34.7096L62.3129 27.3446L54.432 19.3872V23.3656L22.0326 23.4503ZM11.1856 43.8521L27.7948 7.11211L31.2694 15.5775H27.9644L38.6419 21.8419L44.6585 15.493H40.3365L33.4726 0.00111217H22.3715L1.60998 43.8521H11.1856ZM0 31.0694V23.2809H9.57566L6.10145 30.9845L0 31.0694Z" fill="white"/>
</g>
</g>
<defs>
<clipPath id="clip0_1971_123857">
<rect width="237.363" height="48" fill="white"/>
</clipPath>
<clipPath id="clip1_1971_123857">
<rect width="237.363" height="48" fill="white"/>
</clipPath>
</defs>
</svg>
