<svg width="106" height="32" viewBox="0 0 106 32" fill="none" xmlns="http://www.w3.org/2000/svg">
<g id="Athens_Logo_1-color-WHITE-stacked" clip-path="url(#clip0_668_61220)">
<path id="path12" d="M53.2174 5.69157L51.7024 10.1678H54.7397L53.2174 5.69157ZM51.9103 3.58562H54.5092L58.4524 14.1016H56.0912L55.3486 11.9384H51.1083L50.388 14.1016H48.0195L51.9103 3.58562Z" fill="white"/>
<path id="path14" d="M62.5276 14.1563C62.3297 14.161 62.093 14.1692 61.8182 14.1813C61.5438 14.193 61.3691 14.1992 61.2949 14.1992C60.468 14.1992 59.9027 14.0503 59.5981 13.7529C59.2938 13.4554 59.1411 12.8687 59.1411 11.9929V7.79518H58.0723V6.33884H59.1411V4.21846H61.2802V6.33884H62.5276V7.79518H61.2802V12.093C61.2802 12.2977 61.3271 12.4321 61.421 12.4965C61.5152 12.5607 61.7082 12.5927 62.0004 12.5927H62.5276V14.1563Z" fill="white"/>
<path id="path16" d="M63.3633 14.1016V3.58562H65.5095V7.19801C65.8014 6.84583 66.149 6.58055 66.5528 6.40204C66.9563 6.22364 67.4076 6.13434 67.9079 6.13434C68.3833 6.13434 68.8126 6.21288 69.1961 6.36986C69.5798 6.52687 69.8904 6.75075 70.128 7.04099C70.2915 7.2362 70.4068 7.45981 70.4734 7.71203C70.5404 7.96448 70.5738 8.36866 70.5738 8.92576V9.0685V14.1016H68.4276V10.0394C68.4276 9.07798 68.3357 8.47466 68.1528 8.22963C67.9696 7.98446 67.6404 7.86209 67.165 7.86209C66.6552 7.86209 66.2521 8.00831 65.955 8.30101C65.6579 8.59359 65.5095 8.99239 65.5095 9.4968V14.1016H63.3633Z" fill="white"/>
<path id="path18" d="M73.8446 9.40161H77.0226C77.0026 8.87811 76.8582 8.4794 76.5883 8.20582C76.3182 7.93221 75.9311 7.79521 75.4259 7.79521C74.9558 7.79521 74.5855 7.93349 74.316 8.20927C74.0462 8.48544 73.8889 8.88296 73.8446 9.40161ZM76.9931 11.7433H79.1466C78.9286 12.5618 78.4894 13.2031 77.8282 13.6674C77.1674 14.1313 76.3615 14.3633 75.4111 14.3633C74.2428 14.3633 73.3171 13.9861 72.6343 13.2317C71.9508 12.4774 71.6094 11.4554 71.6094 10.1654C71.6094 8.89477 71.9459 7.89298 72.6192 7.15997C73.2924 6.42706 74.2133 6.0604 75.3816 6.0604C76.6192 6.0604 77.5745 6.42089 78.2481 7.14215C78.9211 7.86299 79.2579 8.89001 79.2579 10.2227C79.2579 10.3702 79.2566 10.4808 79.2539 10.5547C79.2513 10.6284 79.2454 10.6986 79.2355 10.765H73.8446C73.8742 11.3746 74.0288 11.8337 74.3085 12.143C74.5881 12.4524 74.9903 12.6071 75.5152 12.6071C75.8865 12.6071 76.1911 12.537 76.4285 12.3965C76.6661 12.2562 76.8542 12.0383 76.9931 11.7433Z" fill="white"/>
<path id="path20" d="M80.2266 14.1016V6.34129H82.343V7.26234C82.645 6.88634 83.0011 6.6044 83.4118 6.41628C83.8228 6.22827 84.2808 6.13434 84.786 6.13434C85.6772 6.13434 86.344 6.35693 86.7868 6.80176C87.2303 7.24683 87.4522 7.91681 87.4522 8.81143V14.1016H85.2912V9.41121C85.2912 8.85424 85.1927 8.45698 84.9977 8.219C84.8021 7.98101 84.4836 7.86209 84.0434 7.86209C83.5333 7.86209 83.1298 8.00831 82.8327 8.30101C82.5357 8.59359 82.3873 8.99239 82.3873 9.4968V14.1016H80.2266Z" fill="white"/>
<path id="path22" d="M88.4004 11.572H90.5529C90.5729 11.9671 90.7216 12.2609 90.999 12.4535C91.2761 12.6463 91.6923 12.7428 92.2461 12.7428C92.6673 12.7428 92.993 12.6747 93.2231 12.5393C93.4529 12.4036 93.5684 12.2121 93.5684 11.9645C93.5684 11.6124 93.1377 11.3484 92.276 11.172C91.9241 11.1005 91.6451 11.0391 91.4369 10.9865C90.3874 10.7296 89.6583 10.4249 89.25 10.0725C88.8416 9.72056 88.6374 9.24463 88.6374 8.64485C88.6374 7.85006 88.9355 7.22043 89.5323 6.75654C90.1288 6.29248 90.937 6.0604 91.9569 6.0604C93.036 6.0604 93.8836 6.29133 94.5001 6.75293C95.1166 7.21482 95.4445 7.86427 95.4839 8.7019H93.3826C93.3679 8.37344 93.2379 8.11905 92.993 7.93808C92.7474 7.75715 92.407 7.66667 91.9714 7.66667C91.5607 7.66667 91.2551 7.72638 91.0545 7.84531C90.8543 7.96436 90.7538 8.14277 90.7538 8.38075C90.7538 8.69009 91.2909 8.96383 92.3653 9.20168C92.6128 9.25424 92.8085 9.29689 92.9519 9.33022C94.026 9.57293 94.7601 9.86576 95.1537 10.2083C95.5469 10.551 95.7442 11.0342 95.7442 11.6576C95.7442 12.5381 95.4209 13.2093 94.7752 13.6708C94.1291 14.1324 93.1896 14.3633 91.9569 14.3633C90.8428 14.3633 89.9715 14.123 89.3429 13.6423C88.7142 13.1616 88.4004 12.4999 88.4004 11.6576V11.572Z" fill="white"/>
<path id="path24" d="M46.7852 25.3651H49.0056C49.0896 25.9413 49.3345 26.3683 49.7406 26.6468C50.1467 26.925 50.7333 27.0643 51.5005 27.0643C52.1541 27.0643 52.6465 26.9526 52.9781 26.7287C53.31 26.5052 53.4761 26.1743 53.4761 25.7365C53.4761 25.0986 52.5227 24.5704 50.6171 24.1517C50.5918 24.1469 50.5698 24.1422 50.5498 24.1373C50.5006 24.1279 50.4238 24.1112 50.32 24.0873C49.3001 23.8731 48.5723 23.6329 48.1367 23.3662C47.7506 23.1285 47.4558 22.8084 47.2529 22.406C47.0497 22.004 46.9483 21.5291 46.9483 20.9818C46.9483 19.9586 47.3097 19.1746 48.0329 18.6295C48.7555 18.0847 49.8 17.8121 51.1663 17.8121C52.4436 17.8121 53.4426 18.1023 54.1628 18.6831C54.883 19.2637 55.2632 20.0822 55.3029 21.1388H53.1415C53.1022 20.6296 52.899 20.2417 52.5329 19.9752C52.1666 19.7087 51.644 19.5753 50.9657 19.5753C50.3768 19.5753 49.9225 19.6861 49.6034 19.9073C49.284 20.1287 49.1241 20.4439 49.1241 20.8533C49.1241 21.4102 49.7452 21.8267 50.9884 22.1028C51.3249 22.1789 51.5872 22.2383 51.7753 22.281C52.5723 22.4764 53.1379 22.6286 53.4721 22.738C53.806 22.8476 54.0968 22.9689 54.3447 23.102C54.7905 23.3402 55.1243 23.6553 55.3472 24.048C55.5698 24.4405 55.6811 24.9107 55.6811 25.4579C55.6811 26.5527 55.2977 27.4012 54.5301 28.003C53.763 28.6054 52.6813 28.9062 51.2851 28.9062C49.909 28.9062 48.8297 28.5992 48.0477 27.9853C47.2654 27.3712 46.8446 26.498 46.7852 25.3651Z" fill="white"/>
<path id="path26" d="M58.6174 23.9171H61.7957C61.7764 23.3936 61.631 22.995 61.3614 22.7213C61.0916 22.4477 60.7046 22.3108 60.1997 22.3108C59.7293 22.3108 59.359 22.449 59.0891 22.7249C58.8193 23.001 58.6624 23.3986 58.6174 23.9171ZM61.7662 26.2588H63.92C63.7017 27.0775 63.2625 27.7187 62.6017 28.1829C61.9408 28.6468 61.1353 28.8789 60.1842 28.8789C59.0162 28.8789 58.0908 28.5017 57.407 27.7473C56.7242 26.993 56.3828 25.971 56.3828 24.681C56.3828 23.4104 56.7193 22.4086 57.3926 21.6756C58.0656 20.9427 58.9867 20.576 60.1547 20.576C61.3926 20.576 62.3479 20.9365 63.0212 21.6578C63.6945 22.3786 64.0313 23.4056 64.0313 24.7383C64.0313 24.8858 64.0297 24.9964 64.0277 25.0704C64.0247 25.144 64.0188 25.2142 64.009 25.2806H58.6174C58.6476 25.8903 58.8022 26.3493 59.0819 26.6587C59.3616 26.968 59.7637 27.1227 60.2883 27.1227C60.6599 27.1227 60.9642 27.0526 61.2019 26.9121C61.4396 26.7718 61.6277 26.554 61.7662 26.2588Z" fill="white"/>
<path id="path28" d="M65.002 28.6133V20.853H67.0071V22.1808C67.289 21.6478 67.6183 21.2564 67.9945 21.0065C68.3707 20.7566 68.8188 20.6317 69.3385 20.6317C69.4225 20.6317 69.4882 20.6328 69.5354 20.6353C69.5824 20.6376 69.6208 20.6413 69.6503 20.646L69.6582 22.7521H68.9376C68.3484 22.7521 67.9055 22.8995 67.6085 23.1946C67.3114 23.4899 67.1627 23.9275 67.1627 24.5083V28.6133H65.002Z" fill="white"/>
<path id="path30" d="M73.1318 28.6133L70.2285 20.853H72.6193L74.2755 26.4216L75.9464 20.853H78.2256L75.3375 28.6133H73.1318Z" fill="white"/>
<path id="path32" d="M78.9395 28.6133V20.853H81.1002V28.6133H78.9395ZM78.9395 19.9891V18.0973H81.1002V19.9891H78.9395Z" fill="white"/>
<path id="path34" d="M87.6056 25.6876H89.7367C89.6474 26.6729 89.2738 27.451 88.6153 28.0223C87.9571 28.5934 87.1108 28.8789 86.0755 28.8789C84.9025 28.8789 83.983 28.5112 83.3173 27.776C82.6512 27.0405 82.3184 26.0232 82.3184 24.7239C82.3184 23.4296 82.6588 22.4143 83.3393 21.6791C84.0201 20.9436 84.957 20.576 86.1503 20.576C87.1949 20.576 88.0326 20.8426 88.6636 21.3757C89.2949 21.9088 89.6474 22.6513 89.7219 23.6031H87.576C87.5166 23.1891 87.3656 22.8725 87.123 22.6535C86.8804 22.4348 86.561 22.3253 86.1651 22.3253C85.6303 22.3253 85.2302 22.5275 84.9656 22.932C84.701 23.3366 84.5687 23.9434 84.5687 24.7525C84.5687 25.4998 84.7059 26.0745 84.9803 26.4766C85.2554 26.8788 85.6497 27.0798 86.1651 27.0798C86.5659 27.0798 86.8876 26.9634 87.1302 26.7299C87.3728 26.4968 87.5317 26.1495 87.6056 25.6876Z" fill="white"/>
<path id="path36" d="M92.4735 23.9171H95.6519C95.6318 23.3936 95.4871 22.995 95.2172 22.7213C94.9477 22.4477 94.5604 22.3108 94.0555 22.3108C93.585 22.3108 93.2148 22.449 92.9449 22.7249C92.6751 23.001 92.5182 23.3986 92.4735 23.9171ZM95.622 26.2588H97.7758C97.5575 27.0775 97.1186 27.7187 96.4575 28.1829C95.7966 28.6468 94.9911 28.8789 94.04 28.8789C92.8724 28.8789 91.9463 28.5017 91.2632 27.7473C90.58 26.993 90.2383 25.971 90.2383 24.681C90.2383 23.4104 90.5751 22.4086 91.2484 21.6756C91.9213 20.9427 92.8422 20.576 94.0108 20.576C95.2484 20.576 96.2037 20.9365 96.877 21.6578C97.5503 22.3786 97.8871 23.4056 97.8871 24.7383C97.8871 24.8858 97.8855 24.9964 97.8835 25.0704C97.8809 25.144 97.8746 25.2142 97.8648 25.2806H92.4735C92.5034 25.8903 92.6583 26.3493 92.938 26.6587C93.2174 26.968 93.6195 27.1227 94.1448 27.1227C94.5157 27.1227 94.8203 27.0526 95.0577 26.9121C95.2954 26.7718 95.4835 26.554 95.622 26.2588Z" fill="white"/>
<path id="path38" d="M98.4043 26.0876H100.558C100.578 26.4827 100.726 26.7765 101.004 26.9692C101.281 27.1619 101.697 27.2584 102.251 27.2584C102.672 27.2584 102.998 27.1904 103.227 27.0549C103.458 26.9192 103.573 26.7277 103.573 26.4801C103.573 26.1279 103.142 25.8639 102.281 25.6876C101.929 25.6161 101.65 25.5546 101.442 25.5021C100.392 25.2451 99.6632 24.9405 99.2545 24.5881C98.8465 24.2362 98.6423 23.7602 98.6423 23.1605C98.6423 22.3655 98.9404 21.7361 99.5372 21.2721C100.133 20.8081 100.942 20.576 101.961 20.576C103.041 20.576 103.888 20.8069 104.505 21.2686C105.121 21.7303 105.449 22.3799 105.488 23.2175H103.387C103.372 22.889 103.242 22.6347 102.998 22.4537C102.752 22.2728 102.412 22.1823 101.976 22.1823C101.566 22.1823 101.26 22.242 101.059 22.3609C100.858 22.48 100.758 22.6584 100.758 22.8964C100.758 23.2057 101.296 23.4794 102.37 23.7173C102.617 23.7698 102.813 23.8125 102.956 23.8458C104.031 24.0886 104.765 24.3814 105.158 24.7239C105.552 25.0666 105.748 25.5498 105.748 26.1732C105.748 27.0538 105.426 27.7249 104.779 28.1864C104.134 28.648 103.194 28.8789 101.961 28.8789C100.847 28.8789 99.9761 28.6386 99.3478 28.1578C98.7188 27.6772 98.4043 27.0156 98.4043 26.1732V26.0876Z" fill="white"/>
<path id="path40" d="M32.5537 21.898H26.0595L27.1889 24.2683H15.7251V22.0109L10.8686 27.203L15.838 32V29.7426H30.069L34.0784 25.6793L32.5537 21.898ZM14.9346 15.6335L12.6756 20.7128H36.6951V23.1397L41.7778 18.2296L36.5257 12.9246V15.577L14.9346 15.6335ZM7.7061 29.2347L18.7746 4.74131L21.09 10.385H18.8876L26.0031 14.5612L30.0125 10.3285H27.1326L22.5583 0.000688553H15.1605L1.32487 29.2347H7.7061ZM0.251953 20.7128V15.5205H6.6332L4.31794 20.6563L0.251953 20.7128Z" fill="white"/>
</g>
<defs>
<clipPath id="clip0_668_61220">
<rect width="105.495" height="32" fill="white" transform="translate(0.251953)"/>
</clipPath>
</defs>
</svg>
