<svg xmlns="http://www.w3.org/2000/svg" width="32" height="32" viewBox="0 0 32 32" fill="none">
  <path fill-rule="evenodd" clip-rule="evenodd" d="M7.72906 5.7418C7.83458 5.49558 8.07669 5.33594 8.34457 5.33594H23.651C23.9189 5.33594 24.161 5.49558 24.2665 5.7418L26.5567 11.0856C26.5901 11.159 26.6107 11.2395 26.6155 11.3242C26.6162 11.3364 26.6166 11.3487 26.6166 11.361L26.6166 12.8935C26.6166 13.883 26.2235 14.832 25.5238 15.5317C24.8242 16.2313 23.8752 16.6244 22.8857 16.6244H22.503C21.5135 16.6244 20.5645 16.2313 19.8648 15.5317C19.7081 15.3749 19.5667 15.2057 19.4417 15.0263C19.3168 15.2057 19.1754 15.3749 19.0187 15.5317C18.319 16.2313 17.37 16.6244 16.3805 16.6244H15.6152C14.6257 16.6244 13.6767 16.2313 12.977 15.5317C12.8202 15.3749 12.6789 15.2056 12.5538 15.0262C12.4288 15.2056 12.2875 15.3749 12.1307 15.5317C11.431 16.2313 10.482 16.6244 9.49253 16.6244H9.06395C8.07444 16.6244 7.12546 16.2313 6.42578 15.5317C5.72609 14.832 5.33301 13.883 5.33301 12.8935V11.3628C5.33301 11.1836 5.40345 11.0208 5.51816 10.9006L7.72906 5.7418ZM20.1114 12.0325H25.2773V12.8935C25.2773 13.5278 25.0253 14.1361 24.5768 14.5846C24.1283 15.0331 23.52 15.2851 22.8857 15.2851H22.503C21.8687 15.2851 21.2604 15.0331 20.8119 14.5846C20.3663 14.139 20.1147 13.5357 20.1114 12.9059L20.1114 12.8935V12.0325ZM7.06417 10.6932L8.78614 6.67525H23.2094L24.9314 10.6932H7.06417ZM18.7721 12.8935V12.0325H13.2235V12.8935C13.2235 13.5278 13.4755 14.1361 13.924 14.5846C14.3725 15.0331 14.9809 15.2851 15.6152 15.2851H16.3805C17.0148 15.2851 17.6231 15.0331 18.0716 14.5846C18.5172 14.139 18.7688 13.5357 18.7721 12.9059L18.7721 12.8935ZM11.8842 12.8935V12.0325H6.67232V12.8935C6.67232 13.5278 6.92429 14.1361 7.37281 14.5846C7.82133 15.0331 8.42965 15.2851 9.06395 15.2851H9.49253C10.1268 15.2851 10.7351 15.0331 11.1837 14.5846C11.6322 14.1361 11.8842 13.5278 11.8842 12.8935Z" fill="#1A2736"/>
  <path fill-rule="evenodd" clip-rule="evenodd" d="M7.29227 25.33C6.92243 25.33 6.62262 25.6298 6.62262 25.9996C6.62262 26.3695 6.92243 26.6693 7.29227 26.6693H24.7033C25.0732 26.6693 25.373 26.3695 25.373 25.9996C25.373 25.6298 25.0732 25.33 24.7033 25.33H23.364V17.9637C23.364 17.5939 23.0642 17.2941 22.6943 17.2941H17.3371C16.9672 17.2941 16.6674 17.5939 16.6674 17.9637V25.33H7.29227ZM18.0067 25.33H22.0247V18.6334H18.0067V25.33Z" fill="#1A2736"/>
  <path fill-rule="evenodd" clip-rule="evenodd" d="M8.63154 17.9637C8.63154 17.5939 8.93136 17.2941 9.3012 17.2941H14.6584C15.0283 17.2941 15.3281 17.5939 15.3281 17.9637V23.321C15.3281 23.6908 15.0283 23.9906 14.6584 23.9906H9.3012C8.93136 23.9906 8.63154 23.6908 8.63154 23.321V17.9637ZM9.97085 18.6334V22.6513H13.9888V18.6334H9.97085Z" fill="#1A2736"/>
</svg>