<svg width="25" height="25" viewBox="0 0 25 25" fill="none" xmlns="http://www.w3.org/2000/svg">
<g id="CloudArrowDown">
<path id="Vector" d="M23.7494 12.8718C23.7541 14.6579 23.1747 16.3966 22.0994 17.8228C22.0402 17.9016 21.9661 17.9679 21.8812 18.018C21.7963 18.0682 21.7024 18.1011 21.6048 18.1149C21.5072 18.1288 21.4079 18.1233 21.3124 18.0987C21.217 18.0742 21.1273 18.031 21.0485 17.9718C20.9697 17.9126 20.9033 17.8384 20.8532 17.7536C20.8031 17.6687 20.7701 17.5748 20.7563 17.4772C20.7425 17.3796 20.748 17.2803 20.7725 17.1848C20.7971 17.0894 20.8402 16.9997 20.8994 16.9209C21.7796 15.7549 22.2537 14.3327 22.2494 12.8718C22.2494 11.0816 21.5383 9.36472 20.2724 8.09885C19.0065 6.83298 17.2896 6.12182 15.4994 6.12182C13.7092 6.12182 11.9923 6.83298 10.7265 8.09885C9.46058 9.36472 8.74943 11.0816 8.74942 12.8718C8.74943 13.0707 8.67041 13.2615 8.52976 13.4022C8.3891 13.5428 8.19834 13.6218 7.99942 13.6218C7.80051 13.6218 7.60975 13.5428 7.4691 13.4022C7.32844 13.2615 7.24942 13.0707 7.24942 12.8718C7.24906 12.115 7.35284 11.3616 7.55786 10.6331C7.45568 10.6218 7.35255 10.6218 7.24942 10.6218C6.05595 10.6218 4.91136 11.0959 4.06744 11.9398C3.22353 12.7838 2.74943 13.9283 2.74943 15.1218C2.74943 16.3153 3.22353 17.4599 4.06744 18.3038C4.91136 19.1477 6.05595 19.6218 7.24942 19.6218H9.49942C9.69834 19.6218 9.8891 19.7008 10.0298 19.8415C10.1704 19.9821 10.2494 20.1729 10.2494 20.3718C10.2494 20.5707 10.1704 20.7615 10.0298 20.9022C9.8891 21.0428 9.69834 21.1218 9.49942 21.1218H7.24942C6.42459 21.122 5.60857 20.9521 4.85234 20.6228C4.09611 20.2934 3.41591 19.8117 2.85421 19.2077C2.29252 18.6036 1.8614 17.8903 1.58779 17.1122C1.31417 16.334 1.20393 15.5078 1.26396 14.6852C1.32398 13.8625 1.55298 13.0611 1.93665 12.3309C2.32032 11.6008 2.85042 10.9575 3.49385 10.4414C4.13727 9.92534 4.8802 9.54745 5.67623 9.33137C6.47226 9.11528 7.30429 9.06565 8.12036 9.18557C8.95136 7.52353 10.3191 6.1907 12.0021 5.40298C13.6851 4.61525 15.5847 4.41876 17.3933 4.84533C19.2019 5.2719 20.8135 6.29655 21.9671 7.75331C23.1207 9.21007 23.7487 11.0136 23.7494 12.8718ZM17.2188 16.8412L15.4994 18.5615V12.8718C15.4994 12.6729 15.4204 12.4821 15.2798 12.3415C15.1391 12.2008 14.9483 12.1218 14.7494 12.1218C14.5505 12.1218 14.3597 12.2008 14.2191 12.3415C14.0784 12.4821 13.9994 12.6729 13.9994 12.8718V18.5615L12.2801 16.8412C12.1393 16.7005 11.9484 16.6214 11.7494 16.6214C11.5504 16.6214 11.3595 16.7005 11.2188 16.8412C11.0781 16.9819 10.999 17.1728 10.999 17.3718C10.999 17.5708 11.0781 17.7617 11.2188 17.9024L14.2188 20.9024C14.2885 20.9722 14.3712 21.0275 14.4622 21.0652C14.5533 21.103 14.6509 21.1224 14.7494 21.1224C14.848 21.1224 14.9456 21.103 15.0366 21.0652C15.1277 21.0275 15.2104 20.9722 15.2801 20.9024L18.2801 17.9024C18.4208 17.7617 18.4998 17.5708 18.4998 17.3718C18.4998 17.1728 18.4208 16.9819 18.2801 16.8412C18.1393 16.7005 17.9484 16.6214 17.7494 16.6214C17.5504 16.6214 17.3595 16.7005 17.2188 16.8412Z" fill="#D5172A"/>
</g>
</svg>
