<svg width="16" height="16" viewBox="0 0 16 16" fill="none" xmlns="http://www.w3.org/2000/svg">
<g id="Frame">
<path id="Vector" d="M7.25 11C7.25 11.1326 7.19732 11.2598 7.10355 11.3536C7.00979 11.4473 6.88261 11.5 6.75 11.5H5C4.86739 11.5 4.74021 11.4473 4.64645 11.3536C4.55268 11.2598 4.5 11.1326 4.5 11C4.5 10.8674 4.55268 10.7402 4.64645 10.6464C4.74021 10.5527 4.86739 10.5 5 10.5H6.75C6.88261 10.5 7.00979 10.5527 7.10355 10.6464C7.19732 10.7402 7.25 10.8674 7.25 11ZM11 10.5H9.25C9.11739 10.5 8.99021 10.5527 8.89645 10.6464C8.80268 10.7402 8.75 10.8674 8.75 11C8.75 11.1326 8.80268 11.2598 8.89645 11.3536C8.99021 11.4473 9.11739 11.5 9.25 11.5H11C11.1326 11.5 11.2598 11.4473 11.3536 11.3536C11.4473 11.2598 11.5 11.1326 11.5 11C11.5 10.8674 11.4473 10.7402 11.3536 10.6464C11.2598 10.5527 11.1326 10.5 11 10.5ZM15.5 13.5C15.5 13.6326 15.4473 13.7598 15.3536 13.8536C15.2598 13.9473 15.1326 14 15 14H1C0.867392 14 0.740215 13.9473 0.646447 13.8536C0.552678 13.7598 0.5 13.6326 0.5 13.5C0.5 13.3674 0.552678 13.2402 0.646447 13.1464C0.740215 13.0527 0.867392 13 1 13H2V5.5C2 5.40714 2.02586 5.31612 2.07467 5.23713C2.12349 5.15815 2.19334 5.09431 2.27639 5.05279C2.35945 5.01126 2.45242 4.99368 2.5449 5.00202C2.63738 5.01036 2.72572 5.04429 2.8 5.1L6 7.5V5.5C6 5.40714 6.02586 5.31612 6.07467 5.23713C6.12349 5.15815 6.19334 5.09431 6.27639 5.05279C6.35945 5.01126 6.45242 4.99368 6.5449 5.00202C6.63738 5.01036 6.72572 5.04429 6.8 5.1L9.22125 6.91563L9.94375 1.85875C9.97874 1.62085 10.0979 1.40337 10.2795 1.24581C10.4612 1.08824 10.6933 1.00103 10.9338 1H12.0662C12.3067 1.00103 12.5388 1.08824 12.7205 1.24581C12.9021 1.40337 13.0213 1.62085 13.0562 1.85875L13.9937 8.42937C13.9937 8.42937 13.9987 8.47813 13.9987 8.5V13H14.9987C15.0645 12.9998 15.1297 13.0126 15.1905 13.0377C15.2513 13.0628 15.3065 13.0996 15.3531 13.146C15.3997 13.1924 15.4366 13.2476 15.4618 13.3084C15.487 13.3691 15.5 13.4342 15.5 13.5ZM10.1337 7.6L10.6669 8H12.9237L12.0662 2H10.9338L10.1337 7.6ZM3 13H13V9H10.5C10.3918 9 10.2865 8.96491 10.2 8.9L9.3 8.225L7 6.5V8.5C7 8.59286 6.97414 8.68388 6.92533 8.76287C6.87651 8.84185 6.80666 8.90569 6.72361 8.94721C6.64055 8.98874 6.54758 9.00632 6.4551 8.99798C6.36262 8.98964 6.27428 8.95571 6.2 8.9L3 6.5V13Z" fill="black"/>
</g>
</svg>
