<svg width="58" height="40" viewBox="0 0 58 40" fill="none" xmlns="http://www.w3.org/2000/svg">
<path fill-rule="evenodd" clip-rule="evenodd" d="M0.151846 0.182795C0.0684394 0.265911 0.000259771 8.9925 0.000259771 19.5751C0.000259771 39.9683 -0.0413296 39.0917 0.927958 39.0917C1.05114 39.0917 1.13659 35.4175 1.13659 30.1214V21.1512H14.6589H28.1812V30.5756V40.0001H28.7493H29.3175V30.5756V21.1512H42.8371H56.3569L56.4162 30.0647C56.4746 38.8069 56.4844 38.9781 56.9303 38.9781C57.3812 38.9781 57.3848 38.8267 57.3848 19.5615V0.14487L56.8735 0.0721993L56.3621 -0.000244141V10.0094V20.0193L42.8966 19.9607L29.4311 19.9022L29.3718 10.5345L29.3125 1.1668H28.7493H28.1862L28.1269 10.5345L28.0676 19.9022L14.6021 19.9607L1.13659 20.0193V10.0253C1.13659 0.485512 1.11772 0.0313221 0.72001 0.0313221C0.490699 0.0313221 0.235025 0.0994506 0.151846 0.182795ZM14.2044 3.76795C14.0794 3.81564 13.5876 3.91987 13.1112 3.99981C11.9749 4.19012 10.5349 5.49705 9.8529 6.95773C9.23315 8.28464 9.12452 10.7107 9.63064 11.9209C10.0781 12.9912 11.2844 14.2861 12.3646 14.8559C13.8228 15.625 16.1175 15.5558 17.674 14.696C19.2303 13.8364 19.4365 13.581 18.9583 13.1031C18.6188 12.7639 18.5372 12.7616 18.0983 13.0779C16.8636 13.9684 16.1982 14.2023 14.8675 14.2132C13.7173 14.223 13.3332 14.1194 12.5783 13.5971C11.2217 12.6587 10.5786 11.3668 10.5729 9.56932C10.567 7.73757 11.1345 6.54691 12.4592 5.61173C13.2512 5.05285 13.6301 4.9443 14.8418 4.93045C16.0498 4.91659 16.4356 5.01493 17.2272 5.53838C18.3165 6.2585 18.4776 6.28666 18.8633 5.82225C19.2256 5.38623 18.8797 4.93363 17.7397 4.35272C16.9675 3.95893 14.6902 3.58218 14.2044 3.76795ZM39.3415 3.89467C38.8224 4.11767 38.8043 4.19761 38.9422 5.6567C39.0218 6.49718 39.0874 8.94776 39.0883 11.1022L39.0899 15.0196H39.6495C40.1992 15.0196 40.2104 14.9821 40.2744 12.919L40.3399 10.8183L41.8171 10.7598C42.6296 10.7275 43.4025 10.7786 43.5346 10.8733C43.6668 10.968 44.4182 11.8955 45.2043 12.9346C46.7054 14.9181 46.9324 15.1018 47.7317 14.9808C48.1781 14.9131 48.0826 14.7226 46.7281 12.9757C45.9049 11.9141 45.235 10.8921 45.2393 10.7048C45.2438 10.5174 45.6654 10.1591 46.1765 9.90815C48.6165 8.71113 48.5096 5.42256 45.9949 4.31093C44.7904 3.77862 40.2697 3.49566 39.3415 3.89467ZM44.9547 5.16617C46.0622 5.38759 46.5897 6.03163 46.5897 7.16279C46.5897 9.03179 45.3154 9.67855 41.9308 9.52708L40.3399 9.45577L40.2749 7.24159L40.2099 5.02742H42.2351C43.3489 5.02742 44.5727 5.08987 44.9547 5.16617ZM13.5644 24.4779C13.373 24.6691 13.3746 34.0942 13.5662 35.0514C13.6626 35.5331 13.8235 35.6853 14.2366 35.6853H14.7805L14.7196 30.0647C14.6607 24.6023 14.6459 24.4422 14.195 24.3777C13.9398 24.3412 13.6562 24.3864 13.5644 24.4779ZM42.3871 25.0686C42.2046 25.4744 41.1246 27.8505 39.9869 30.3485C38.8495 32.8466 37.9009 35.0437 37.8793 35.2311C37.8568 35.4255 38.0554 35.6021 38.3425 35.643C38.7645 35.703 38.9531 35.4757 39.5213 34.2237L40.1979 32.733H43.1664C44.7993 32.733 46.212 32.7417 46.3056 32.7523C46.3992 32.7628 46.7242 33.3759 47.0276 34.1149C47.5169 35.3072 47.651 35.4582 48.2208 35.4582C48.5735 35.4582 48.8624 35.3676 48.8624 35.257C48.8624 35.1461 47.8881 32.9236 46.6972 30.3176C45.5065 27.7117 44.4077 25.2986 44.2555 24.955C43.8411 24.0198 42.8309 24.0812 42.3871 25.0686ZM44.4811 28.247C45.0088 29.3316 45.5059 30.4782 45.5854 30.7948L45.7299 31.3705H43.3189C41.993 31.3705 40.9081 31.3448 40.9083 31.3137C40.9083 31.2826 41.1203 30.6949 41.3794 30.0079C42.2723 27.6411 43.0228 26.1325 43.2718 26.2036C43.4093 26.2429 43.9534 27.1624 44.4811 28.247Z" fill="white"/>
</svg>
