<svg width="30" height="30" viewBox="0 0 30 30" fill="none" xmlns="http://www.w3.org/2000/svg">
<g id="Frame">
<path id="Vector" d="M25.9452 5.83203H4.05974C3.55841 5.83203 3.07758 6.03103 2.72287 6.38531C2.36816 6.73959 2.16858 7.22018 2.16797 7.72151V22.2736C2.16797 22.7749 2.36696 23.2558 2.72125 23.6105C3.07553 23.9652 3.55612 24.1648 4.05745 24.1654H25.9429C26.4442 24.1654 26.925 23.9664 27.2797 23.6121C27.6344 23.2578 27.834 22.7772 27.8346 22.2759V7.7238C27.8346 7.22247 27.6356 6.74164 27.2814 6.38693C26.9271 6.03222 26.4465 5.83264 25.9452 5.83203ZM26.0013 22.2759C26.0013 22.2833 25.9998 22.2906 25.997 22.2974C25.9942 22.3042 25.9901 22.3104 25.9849 22.3156C25.9796 22.3208 25.9735 22.3249 25.9666 22.3278C25.9598 22.3306 25.9525 22.332 25.9452 22.332H4.05974C4.05237 22.332 4.04507 22.3306 4.03825 22.3278C4.03144 22.3249 4.02525 22.3208 4.02004 22.3156C4.01482 22.3104 4.01069 22.3042 4.00787 22.2974C4.00505 22.2906 4.00359 22.2833 4.00359 22.2759V7.7238C4.00359 7.70891 4.00951 7.69463 4.02004 7.6841C4.03057 7.67357 4.04485 7.66766 4.05974 7.66766H25.9452C25.96 7.66766 25.9743 7.67357 25.9849 7.6841C25.9954 7.69463 26.0013 7.70891 26.0013 7.7238V22.2759ZM24.168 14.9987C24.168 15.2418 24.0714 15.475 23.8995 15.6469C23.7276 15.8188 23.4944 15.9154 23.2513 15.9154H6.7513C6.50819 15.9154 6.27503 15.8188 6.10312 15.6469C5.93121 15.475 5.83464 15.2418 5.83464 14.9987C5.83464 14.7556 5.93121 14.5224 6.10312 14.3505C6.27503 14.1786 6.50819 14.082 6.7513 14.082H23.2513C23.4944 14.082 23.7276 14.1786 23.8995 14.3505C24.0714 14.5224 24.168 14.7556 24.168 14.9987ZM24.168 11.332C24.168 11.5751 24.0714 11.8083 23.8995 11.9802C23.7276 12.1521 23.4944 12.2487 23.2513 12.2487H6.7513C6.50819 12.2487 6.27503 12.1521 6.10312 11.9802C5.93121 11.8083 5.83464 11.5751 5.83464 11.332C5.83464 11.0889 5.93121 10.8558 6.10312 10.6839C6.27503 10.5119 6.50819 10.4154 6.7513 10.4154H23.2513C23.4944 10.4154 23.7276 10.5119 23.8995 10.6839C24.0714 10.8558 24.168 11.0889 24.168 11.332ZM8.58464 18.6654C8.58464 18.9085 8.48806 19.1416 8.31615 19.3135C8.14424 19.4855 7.91108 19.582 7.66797 19.582H6.7513C6.50819 19.582 6.27503 19.4855 6.10312 19.3135C5.93121 19.1416 5.83464 18.9085 5.83464 18.6654C5.83464 18.4222 5.93121 18.1891 6.10312 18.0172C6.27503 17.8453 6.50819 17.7487 6.7513 17.7487H7.66797C7.91108 17.7487 8.14424 17.8453 8.31615 18.0172C8.48806 18.1891 8.58464 18.4222 8.58464 18.6654ZM19.5846 18.6654C19.5846 18.9085 19.4881 19.1416 19.3162 19.3135C19.1442 19.4855 18.9111 19.582 18.668 19.582H11.3346C11.0915 19.582 10.8584 19.4855 10.6865 19.3135C10.5145 19.1416 10.418 18.9085 10.418 18.6654C10.418 18.4222 10.5145 18.1891 10.6865 18.0172C10.8584 17.8453 11.0915 17.7487 11.3346 17.7487H18.668C18.9111 17.7487 19.1442 17.8453 19.3162 18.0172C19.4881 18.1891 19.5846 18.4222 19.5846 18.6654ZM24.168 18.6654C24.168 18.9085 24.0714 19.1416 23.8995 19.3135C23.7276 19.4855 23.4944 19.582 23.2513 19.582H22.3346C22.0915 19.582 21.8584 19.4855 21.6865 19.3135C21.5145 19.1416 21.418 18.9085 21.418 18.6654C21.418 18.4222 21.5145 18.1891 21.6865 18.0172C21.8584 17.8453 22.0915 17.7487 22.3346 17.7487H23.2513C23.4944 17.7487 23.7276 17.8453 23.8995 18.0172C24.0714 18.1891 24.168 18.4222 24.168 18.6654Z" fill="#1A2736"/>
</g>
</svg>
