<svg width="20" height="20" viewBox="0 0 20 20" fill="none" xmlns="http://www.w3.org/2000/svg">
<g id="headset">
<path id="Vector" d="M15.306 4.19C14.6225 3.49956 13.8094 2.95073 12.9135 2.57493C12.0175 2.19914 11.0562 2.00377 10.0846 2H10.0282C8.058 2 6.16852 2.78265 4.77539 4.17578C3.38226 5.56891 2.59961 7.45839 2.59961 9.42857V13.4286C2.59961 13.8832 2.78022 14.3193 3.10171 14.6408C3.4232 14.9622 3.85924 15.1429 4.3139 15.1429H5.45675C5.91141 15.1429 6.34744 14.9622 6.66894 14.6408C6.99043 14.3193 7.17104 13.8832 7.17104 13.4286V10.5714C7.17104 10.1168 6.99043 9.68074 6.66894 9.35925C6.34744 9.03775 5.91141 8.85714 5.45675 8.85714H3.76818C3.87838 7.66567 4.32592 6.53029 5.05834 5.58407C5.79076 4.63786 6.77772 3.92002 7.90354 3.51469C9.02935 3.10936 10.2474 3.03332 11.4149 3.29551C12.5824 3.55769 13.6509 4.14722 14.4953 4.995C15.5274 6.03236 16.1622 7.39933 16.2889 8.85714H14.5996C14.145 8.85714 13.7089 9.03775 13.3874 9.35925C13.0659 9.68074 12.8853 10.1168 12.8853 10.5714V13.4286C12.8853 13.8832 13.0659 14.3193 13.3874 14.6408C13.7089 14.9622 14.145 15.1429 14.5996 15.1429H16.3139C16.3139 15.5975 16.1333 16.0336 15.8118 16.355C15.4903 16.6765 15.0543 16.8571 14.5996 16.8571H10.5996C10.4481 16.8571 10.3027 16.9173 10.1955 17.0245C10.0884 17.1317 10.0282 17.277 10.0282 17.4286C10.0282 17.5801 10.0884 17.7255 10.1955 17.8326C10.3027 17.9398 10.4481 18 10.5996 18H14.5996C15.3574 18 16.0841 17.699 16.6199 17.1632C17.1557 16.6273 17.4568 15.9006 17.4568 15.1429V9.42857C17.4605 8.45684 17.2724 7.49392 16.9034 6.59499C16.5343 5.69606 15.9915 4.87879 15.306 4.19ZM5.45675 10C5.6083 10 5.75365 10.0602 5.86081 10.1674C5.96798 10.2745 6.02818 10.4199 6.02818 10.5714V13.4286C6.02818 13.5801 5.96798 13.7255 5.86081 13.8326C5.75365 13.9398 5.6083 14 5.45675 14H4.3139C4.16234 14 4.017 13.9398 3.90983 13.8326C3.80267 13.7255 3.74247 13.5801 3.74247 13.4286V10H5.45675ZM14.5996 14C14.4481 14 14.3027 13.9398 14.1955 13.8326C14.0884 13.7255 14.0282 13.5801 14.0282 13.4286V10.5714C14.0282 10.4199 14.0884 10.2745 14.1955 10.1674C14.3027 10.0602 14.4481 10 14.5996 10H16.3139V14H14.5996Z" fill="#1A2736"/>
</g>
</svg>
