<svg width="27" height="26" viewBox="0 0 27 26" fill="none" xmlns="http://www.w3.org/2000/svg">
<g id="headset">
<path id="Vector" d="M21.7372 4.02188C20.7404 3.01498 19.5547 2.2146 18.2481 1.66657C16.9414 1.11854 15.5395 0.833619 14.1227 0.828125H14.0404C11.1672 0.828125 8.41169 1.96949 6.38004 4.00114C4.3484 6.03278 3.20703 8.78828 3.20703 11.6615V17.4948C3.20703 18.1578 3.47042 18.7937 3.93926 19.2626C4.40811 19.7314 5.04399 19.9948 5.70703 19.9948H7.3737C8.03674 19.9948 8.67262 19.7314 9.14147 19.2626C9.61031 18.7937 9.8737 18.1578 9.8737 17.4948V13.3281C9.8737 12.6651 9.61031 12.0292 9.14147 11.5604C8.67262 11.0915 8.03674 10.8281 7.3737 10.8281H4.9112C5.07191 9.09056 5.72457 7.43479 6.79268 6.0549C7.8608 4.67501 9.30011 3.62816 10.9419 3.03705C12.5837 2.44594 14.36 2.33506 16.0626 2.7174C17.7652 3.09975 19.3235 3.95948 20.5549 5.19583C22.06 6.70865 22.9858 8.70215 23.1706 10.8281H20.707C20.044 10.8281 19.4081 11.0915 18.9393 11.5604C18.4704 12.0292 18.207 12.6651 18.207 13.3281V17.4948C18.207 18.1578 18.4704 18.7937 18.9393 19.2626C19.4081 19.7314 20.044 19.9948 20.707 19.9948H23.207C23.207 20.6578 22.9436 21.2937 22.4748 21.7626C22.006 22.2314 21.3701 22.4948 20.707 22.4948H14.8737C14.6527 22.4948 14.4407 22.5826 14.2844 22.7389C14.1282 22.8951 14.0404 23.1071 14.0404 23.3281C14.0404 23.5491 14.1282 23.7611 14.2844 23.9174C14.4407 24.0737 14.6527 24.1615 14.8737 24.1615H20.707C21.8121 24.1615 22.8719 23.7225 23.6533 22.9411C24.4347 22.1597 24.8737 21.0999 24.8737 19.9948V11.6615C24.8791 10.2443 24.6049 8.84009 24.0667 7.52916C23.5285 6.21822 22.7369 5.02636 21.7372 4.02188ZM7.3737 12.4948C7.59471 12.4948 7.80667 12.5826 7.96295 12.7389C8.11923 12.8951 8.20703 13.1071 8.20703 13.3281V17.4948C8.20703 17.7158 8.11923 17.9278 7.96295 18.084C7.80667 18.2403 7.59471 18.3281 7.3737 18.3281H5.70703C5.48602 18.3281 5.27406 18.2403 5.11778 18.084C4.9615 17.9278 4.8737 17.7158 4.8737 17.4948V12.4948H7.3737ZM20.707 18.3281C20.486 18.3281 20.2741 18.2403 20.1178 18.084C19.9615 17.9278 19.8737 17.7158 19.8737 17.4948V13.3281C19.8737 13.1071 19.9615 12.8951 20.1178 12.7389C20.2741 12.5826 20.486 12.4948 20.707 12.4948H23.207V18.3281H20.707Z" fill="#D5172A"/>
</g>
</svg>
