<svg width="17" height="17" viewBox="0 0 17 17" fill="none" xmlns="http://www.w3.org/2000/svg">
<g id="HouseLine" clip-path="url(#clip0_1999_122991)">
<path id="Vector" d="M15.6504 13.5536H14.6504V7.7755C14.6504 7.6371 14.6217 7.5002 14.5661 7.37347C14.5105 7.24674 14.4291 7.13293 14.3273 7.03925L9.32727 2.32175C9.32482 2.31962 9.32252 2.31732 9.32039 2.31487C9.1363 2.14746 8.89641 2.05469 8.64758 2.05469C8.39875 2.05469 8.15885 2.14746 7.97477 2.31487L7.96789 2.32175L2.97352 7.03925C2.87164 7.13293 2.79032 7.24674 2.7347 7.37347C2.67908 7.5002 2.65037 7.6371 2.65039 7.7755V13.5536H1.65039C1.51778 13.5536 1.39061 13.6063 1.29684 13.7001C1.20307 13.7938 1.15039 13.921 1.15039 14.0536C1.15039 14.1862 1.20307 14.3134 1.29684 14.4072C1.39061 14.5009 1.51778 14.5536 1.65039 14.5536H15.6504C15.783 14.5536 15.9102 14.5009 16.0039 14.4072C16.0977 14.3134 16.1504 14.1862 16.1504 14.0536C16.1504 13.921 16.0977 13.7938 16.0039 13.7001C15.9102 13.6063 15.783 13.5536 15.6504 13.5536ZM3.65039 7.7755L3.65727 7.76925L8.65039 3.05362L13.6441 7.768L13.651 7.77425V13.5536H10.6504V10.5536C10.6504 10.2884 10.545 10.0341 10.3575 9.84652C10.17 9.65898 9.91561 9.55362 9.65039 9.55362H7.65039C7.38517 9.55362 7.13082 9.65898 6.94328 9.84652C6.75575 10.0341 6.65039 10.2884 6.65039 10.5536V13.5536H3.65039V7.7755ZM9.65039 13.5536H7.65039V10.5536H9.65039V13.5536Z" fill="#1A2736"/>
</g>
<defs>
<clipPath id="clip0_1999_122991">
<rect width="16" height="16" fill="white" transform="translate(0.650391 0.554688)"/>
</clipPath>
</defs>
</svg>
