<svg width="24" height="25" viewBox="0 0 24 25" fill="none" xmlns="http://www.w3.org/2000/svg">
<g id="icon-download">
<path id="Vector" d="M19.0009 12.8885C19.0041 14.0792 18.6178 15.2383 17.9009 16.1891C17.8614 16.2417 17.812 16.2859 17.7554 16.3193C17.6989 16.3527 17.6362 16.3747 17.5712 16.3839C17.5061 16.3932 17.4399 16.3895 17.3763 16.3731C17.3126 16.3567 17.2528 16.328 17.2003 16.2885C17.1478 16.249 17.1035 16.1996 17.0701 16.143C17.0367 16.0864 17.0147 16.0238 17.0055 15.9588C16.9963 15.8937 17 15.8275 17.0163 15.7638C17.0327 15.7002 17.0614 15.6404 17.1009 15.5879C17.6877 14.8105 18.0038 13.8624 18.0009 12.8885C18.0009 11.695 17.5268 10.5504 16.6829 9.70653C15.839 8.86261 14.6944 8.38851 13.5009 8.38851C12.3074 8.38851 11.1629 8.86261 10.3189 9.70653C9.47502 10.5504 9.00092 11.695 9.00092 12.8885C9.00092 13.0211 8.94824 13.1483 8.85447 13.2421C8.7607 13.3358 8.63353 13.3885 8.50092 13.3885C8.36831 13.3885 8.24113 13.3358 8.14737 13.2421C8.0536 13.1483 8.00092 13.0211 8.00092 12.8885C8.00067 12.3839 8.06986 11.8817 8.20654 11.396C8.13842 11.3885 8.06967 11.3885 8.00092 11.3885C7.20527 11.3885 6.44221 11.7046 5.8796 12.2672C5.31699 12.8298 5.00092 13.5929 5.00092 14.3885C5.00092 15.1842 5.31699 15.9472 5.8796 16.5098C6.44221 17.0724 7.20527 17.3885 8.00092 17.3885H9.50092C9.63353 17.3885 9.7607 17.4412 9.85447 17.535C9.94824 17.6287 10.0009 17.7559 10.0009 17.8885C10.0009 18.0211 9.94824 18.1483 9.85447 18.2421C9.7607 18.3358 9.63353 18.3885 9.50092 18.3885H8.00092C7.45103 18.3886 6.90702 18.2754 6.40286 18.0558C5.89871 17.8363 5.44524 17.5151 5.07078 17.1124C4.69632 16.7097 4.4089 16.2342 4.22649 15.7154C4.04408 15.1966 3.97059 14.6458 4.01061 14.0974C4.05062 13.549 4.20329 13.0147 4.45907 12.5279C4.71485 12.0411 5.06825 11.6123 5.4972 11.2683C5.92615 10.9242 6.42144 10.6723 6.95212 10.5282C7.48281 10.3841 8.0375 10.3511 8.58154 10.431C9.13554 9.32298 10.0474 8.43443 11.1694 7.90928C12.2914 7.38412 13.5578 7.25313 14.7635 7.53751C15.9692 7.82189 17.0436 8.50499 17.8127 9.47616C18.5818 10.4473 19.0004 11.6497 19.0009 12.8885ZM14.6472 15.5348L13.5009 16.6816V12.8885C13.5009 12.7559 13.4482 12.6287 13.3545 12.535C13.2607 12.4412 13.1335 12.3885 13.0009 12.3885C12.8683 12.3885 12.7411 12.4412 12.6474 12.535C12.5536 12.6287 12.5009 12.7559 12.5009 12.8885V16.6816L11.3547 15.5348C11.2608 15.4409 11.1336 15.3882 11.0009 15.3882C10.8682 15.3882 10.741 15.4409 10.6472 15.5348C10.5533 15.6286 10.5006 15.7558 10.5006 15.8885C10.5006 16.0212 10.5533 16.1484 10.6472 16.2423L12.6472 18.2423C12.6936 18.2887 12.7487 18.3256 12.8094 18.3508C12.8701 18.3759 12.9352 18.3889 13.0009 18.3889C13.0666 18.3889 13.1317 18.3759 13.1924 18.3508C13.2531 18.3256 13.3082 18.2887 13.3547 18.2423L15.3547 16.2423C15.4485 16.1484 15.5012 16.0212 15.5012 15.8885C15.5012 15.7558 15.4485 15.6286 15.3547 15.5348C15.2608 15.4409 15.1336 15.3882 15.0009 15.3882C14.8682 15.3882 14.741 15.4409 14.6472 15.5348Z" fill="#D5172A"/>
</g>
</svg>
