<svg width="24" height="25" viewBox="0 0 24 25" fill="none" xmlns="http://www.w3.org/2000/svg">
<g id="icon-compostable-trash">
<g id="Union">
<path d="M10.1845 12.8354C10.4604 12.8354 10.6841 13.0591 10.6841 13.335V18.127C10.6841 18.4029 10.4604 18.6266 10.1845 18.6266C9.90855 18.6266 9.68486 18.4029 9.68486 18.127V13.335C9.68486 13.0591 9.90855 12.8354 10.1845 12.8354Z" fill="#1A2736"/>
<path d="M14.1102 13.335C14.1102 13.0591 13.8865 12.8354 13.6106 12.8354C13.3346 12.8354 13.1109 13.0591 13.1109 13.335V18.127C13.1109 18.4029 13.3346 18.6266 13.6106 18.6266C13.8865 18.6266 14.1102 18.4029 14.1102 18.127V13.335Z" fill="#1A2736"/>
<path fill-rule="evenodd" clip-rule="evenodd" d="M16.8151 4.83966C16.8263 4.83667 16.8376 4.83405 16.849 4.83185C17.23 4.7583 17.6247 4.83545 17.9499 5.04715C18.1449 5.17413 18.3058 5.3435 18.4221 5.54032C18.5189 5.54288 18.6156 5.55483 18.7108 5.5763C18.9567 5.63156 19.1847 5.74811 19.3737 5.91498C19.5626 6.08192 19.7063 6.2938 19.7915 6.53105C19.8767 6.7683 19.9006 7.02324 19.861 7.27221C19.8215 7.52117 19.7197 7.75611 19.5651 7.95524C19.4106 8.15438 19.2082 8.31124 18.9769 8.41139C18.7455 8.51148 18.4926 8.55155 18.2417 8.52788C18.168 8.52093 18.0953 8.50861 18.024 8.49105L17.3531 9.59174L17.5648 9.72117C17.7782 9.85162 17.8623 10.1199 17.7615 10.3488L17.538 10.8562V11.0929H18.143C18.4189 11.0929 18.6426 11.3166 18.6426 11.5925C18.6426 11.8685 18.4189 12.0922 18.143 12.0922H17.538V12.2695L17.5363 12.2712V19.4338C17.5363 19.8477 17.32 20.2069 17.0052 20.4471C16.6932 20.6851 16.2927 20.8047 15.8946 20.8047H7.90044C7.50237 20.8047 7.10183 20.6851 6.78987 20.4471C6.47503 20.2069 6.25879 19.8477 6.25879 19.4338V12.0922H5.6521C5.37616 12.0922 5.15247 11.8685 5.15247 11.5925C5.15247 11.3166 5.37616 11.0929 5.6521 11.0929H6.98938C6.95172 10.8733 6.88934 10.6344 6.79325 10.3778C6.49336 9.57686 6.05978 9.12266 5.71797 8.86961C5.54534 8.74178 5.393 8.6631 5.28828 8.61748C5.23596 8.59467 5.19575 8.58021 5.17119 8.5721C5.15892 8.56802 5.15059 8.56558 5.14666 8.56448L5.14458 8.56387C5.00895 8.52941 4.89702 8.43371 4.84192 8.30496C4.78628 8.17487 4.79506 8.02624 4.86566 7.90364C5.04572 7.59095 5.28907 7.31984 5.5803 7.1079C5.87155 6.89596 6.20405 6.74806 6.55639 6.67377C6.74307 6.63443 6.93304 6.61619 7.12284 6.61906C7.10244 6.59521 7.08123 6.57167 7.05932 6.54855C7.03334 6.52117 7.00638 6.49446 6.97862 6.4686C6.89265 6.38852 6.80853 6.326 6.73667 6.28416C6.66688 6.24354 6.62946 6.23451 6.62438 6.23329C6.3774 6.20713 6.19791 5.98561 6.22403 5.73866C6.25016 5.49171 6.47154 5.3127 6.71851 5.33881C6.89221 5.35716 7.05563 5.42925 7.18908 5.5069C7.32838 5.58801 7.4656 5.69316 7.59153 5.81045C7.74942 5.95749 7.90514 6.13827 8.02999 6.33789C8.18221 6.17346 8.35661 6.03038 8.54868 5.91315C8.84405 5.73281 9.17429 5.61765 9.51778 5.57521C9.86126 5.53276 10.21 5.56404 10.5411 5.66663C10.6757 5.70835 10.783 5.81075 10.8309 5.94328C10.8787 6.07557 10.8618 6.22268 10.7853 6.3407L10.7815 6.34698L10.7747 6.35826L10.7665 6.37211L10.7605 6.38254C10.7414 6.4159 10.7132 6.46786 10.6802 6.53611C10.6195 6.66169 10.544 6.84033 10.4804 7.05862C10.577 6.98025 10.6806 6.91224 10.79 6.85412C11.2081 6.63223 11.6598 6.58539 12.0308 6.59912C11.9498 6.48268 11.8741 6.41956 11.8179 6.40096C11.5559 6.31417 11.4139 6.03148 11.5007 5.76958C11.5875 5.50763 11.8702 5.36558 12.1321 5.45237C12.6439 5.62192 12.9291 6.11162 13.0702 6.41346C13.0953 6.46701 13.118 6.51958 13.1385 6.57015C13.1875 6.36753 13.2956 6.18225 13.4513 6.03904C13.6583 5.84857 13.9325 5.74811 14.2136 5.75976C14.2019 6.04087 14.079 6.30581 13.872 6.49629C13.7978 6.5646 13.7149 6.62132 13.6261 6.66547C13.9342 6.67865 14.2933 6.73769 14.6343 6.90151C15.0215 7.08747 15.3583 7.39614 15.5702 7.85967L15.9827 7.2C15.853 7.03502 15.759 6.84241 15.7095 6.63431C15.708 6.62772 15.7065 6.62107 15.7052 6.61442C15.6309 6.23305 15.7041 5.83759 15.9101 5.50812C16.1162 5.17864 16.4396 4.93974 16.8151 4.83966ZM12.3589 7.63437L12.6459 7.64633C12.7316 7.67652 12.8266 7.68365 12.9218 7.66206L12.9369 7.6584L13.2241 7.67036C13.2436 7.67115 13.2631 7.67084 13.2826 7.66938C13.5707 7.64754 13.9191 7.66651 14.2016 7.80222C14.3917 7.89352 14.578 8.0485 14.6929 8.35022C14.6569 8.37888 14.6244 8.41304 14.5965 8.45232L14.287 8.88901C14.2825 8.89535 14.2782 8.90182 14.274 8.90834C14.2695 8.91536 14.2652 8.92249 14.2611 8.92975C14.0683 9.26666 13.7473 9.51892 13.3661 9.62919C12.7553 9.77783 12.2035 10.098 11.7757 10.5467L11.769 10.5416C11.361 10.2434 10.9105 9.80491 10.6269 9.20238C10.643 9.15664 10.6527 9.10772 10.6548 9.05673C10.6908 8.19323 10.9978 7.87516 11.2586 7.73671C11.5677 7.57265 11.9698 7.57558 12.3008 7.62852C12.32 7.63163 12.3394 7.63358 12.3589 7.63437ZM16.5387 11.0929H12.6489C12.9212 10.8557 13.2505 10.6845 13.6099 10.5983L13.622 10.5952L13.6294 10.5931C14.2548 10.4163 14.7886 10.0061 15.1156 9.44811L15.1419 9.41103L16.6709 10.3458L16.5811 10.5497C16.5532 10.6131 16.5387 10.6817 16.5387 10.7514V11.0929ZM9.68992 9.29326C9.99381 10.1049 10.524 10.6924 11.0125 11.0929H7.89912C7.856 10.7744 7.77299 10.4296 7.6355 10.0625C7.27055 9.08778 6.72461 8.49586 6.2531 8.14681C6.15161 8.07167 6.05414 8.00818 5.96332 7.95469C6.00967 7.91218 6.05845 7.87223 6.10947 7.83509C6.29828 7.69768 6.51369 7.60192 6.74194 7.55374C6.9702 7.50562 7.20655 7.50617 7.43589 7.55563L7.4469 7.55783L7.45437 7.55923C7.65221 7.59326 7.85551 7.5743 8.04365 7.50385C8.23179 7.43341 8.39755 7.31423 8.52438 7.15858C8.53241 7.1487 8.54004 7.13852 8.54722 7.12797C8.67097 6.9467 8.83121 6.79435 9.01734 6.68072C9.20346 6.56703 9.41153 6.49452 9.62807 6.46774C9.66355 6.46335 9.69915 6.46024 9.73478 6.45835C9.71476 6.51025 9.69474 6.56514 9.67513 6.62278C9.64741 6.7042 9.62049 6.79118 9.59547 6.88321C9.42751 7.50068 9.34101 8.36132 9.68992 9.29326ZM7.25806 19.4338V12.0922H16.537V19.4338C16.537 19.482 16.5126 19.566 16.3991 19.6526C16.2827 19.7414 16.1023 19.8054 15.8946 19.8054H7.90044C7.69276 19.8054 7.51235 19.7414 7.39596 19.6526C7.28246 19.566 7.25806 19.482 7.25806 19.4338ZM16.1324 8.84534L16.5006 9.07046L17.3952 7.60259C17.4664 7.4858 17.5823 7.40334 17.716 7.37437C17.8496 7.34534 17.9893 7.37242 18.1025 7.44926C18.1718 7.49635 18.252 7.5252 18.3355 7.53307C18.419 7.54093 18.5031 7.52758 18.58 7.49428C18.657 7.46097 18.7243 7.40877 18.7757 7.34253C18.8271 7.27629 18.861 7.19817 18.8742 7.11534C18.8873 7.03252 18.8794 6.94774 18.851 6.86882C18.8227 6.78989 18.7749 6.71939 18.712 6.66389C18.6492 6.60833 18.5733 6.5696 18.4915 6.55118C18.4097 6.53276 18.3246 6.53532 18.244 6.55862C18.1121 6.59668 17.9703 6.57881 17.852 6.50922C17.7337 6.43956 17.6492 6.32429 17.6185 6.19048C17.5896 6.06472 17.5129 5.95505 17.4048 5.88461C17.3014 5.81734 17.177 5.79093 17.0556 5.81002C16.932 5.84735 16.826 5.92822 16.7574 6.03794C16.6875 6.14974 16.6615 6.28331 16.6841 6.41297C16.7141 6.52788 16.7872 6.62699 16.8884 6.68957C17.0014 6.75952 17.0819 6.87162 17.1121 7.00111C17.1423 7.13053 17.1196 7.26672 17.0491 7.37943L16.1324 8.84534Z" fill="#1A2736"/>
</g>
</g>
</svg>
