<svg width="24" height="24" viewBox="0 0 24 24" fill="none" xmlns="http://www.w3.org/2000/svg">
<g id="icon-eye">
<g id="Union">
<path fill-rule="evenodd" clip-rule="evenodd" d="M12 9.31042C10.4449 9.31042 9.18416 10.5711 9.18416 12.1262C9.18416 13.6814 10.4449 14.9421 12 14.9421C13.5551 14.9421 14.8158 13.6814 14.8158 12.1262C14.8158 10.5711 13.5551 9.31042 12 9.31042ZM10.195 12.1262C10.195 11.1294 11.0031 10.3212 12 10.3212C12.9969 10.3212 13.805 11.1294 13.805 12.1262C13.805 13.1231 12.9969 13.9313 12 13.9313C11.0031 13.9313 10.195 13.1231 10.195 12.1262Z" fill="#485C72"/>
<path fill-rule="evenodd" clip-rule="evenodd" d="M12 7C10.2568 7 8.66556 7.68588 7.37484 8.51392C6.08149 9.34364 5.05549 10.3381 4.43279 11.0082L4.42784 11.0136C4.15244 11.3188 4 11.7152 4 12.1263C4 12.5373 4.15244 12.9337 4.42784 13.2389L4.43279 13.2443C5.05549 13.9144 6.08149 14.9089 7.37484 15.7386C8.66556 16.5666 10.2568 17.2525 12 17.2525C13.7432 17.2525 15.3344 16.5666 16.6252 15.7386C17.9185 14.9089 18.9445 13.9144 19.5672 13.2443L19.5722 13.2389C19.8476 12.9337 20 12.5373 20 12.1263C20 11.7152 19.8476 11.3188 19.5722 11.0136L19.5672 11.0082C18.9445 10.3381 17.9185 9.34364 16.6252 8.51392C15.3344 7.68588 13.7432 7 12 7ZM5.01081 12.1263C5.01081 11.9665 5.06968 11.8123 5.1761 11.6932C5.76662 11.0581 6.72642 10.1308 7.92064 9.3647C9.11941 8.59566 10.5201 8.01081 12 8.01081C13.4799 8.01081 14.8806 8.59566 16.0794 9.3647C17.2736 10.1308 18.2334 11.0581 18.8239 11.6933C18.9303 11.8123 18.9892 11.9665 18.9892 12.1263C18.9892 12.286 18.9303 12.4402 18.8239 12.5592C18.2334 13.1944 17.2736 14.1217 16.0794 14.8878C14.8806 15.6568 13.4799 16.2417 12 16.2417C10.5201 16.2417 9.11941 15.6568 7.92064 14.8878C6.72642 14.1217 5.76662 13.1944 5.1761 12.5593C5.06968 12.4402 5.01081 12.286 5.01081 12.1263Z" fill="#485C72"/>
</g>
</g>
</svg>
