<svg width="69" height="69" viewBox="0 0 69 69" fill="none" xmlns="http://www.w3.org/2000/svg">
<g id="icon-mix-waste">
<g id="Union">
<path d="M30.4065 38.8983C31.0501 38.8983 31.5719 39.4201 31.5719 40.0637V49.3867C31.5719 50.0303 31.0501 50.5521 30.4065 50.5521C29.7629 50.5521 29.2411 50.0303 29.2411 49.3867V40.0637C29.2411 39.4201 29.7629 38.8983 30.4065 38.8983Z" fill="#B8980A"/>
<path d="M38.5641 40.0637C38.5641 39.4201 38.0424 38.8983 37.3987 38.8983C36.7551 38.8983 36.2334 39.4201 36.2334 40.0637V49.3867C36.2334 50.0303 36.7551 50.5521 37.3987 50.5521C38.0424 50.5521 38.5641 50.0303 38.5641 49.3867V40.0637Z" fill="#B8980A"/>
<path fill-rule="evenodd" clip-rule="evenodd" d="M34.2608 12.2742C33.7163 12.0765 33.1146 12.3576 32.9169 12.902C32.7192 13.4465 33.0003 14.0482 33.5447 14.2459C33.7905 14.3352 34.2174 14.6685 34.6047 15.2324C34.8512 15.5914 35.0222 15.958 35.1117 16.2806C34.6263 16.0757 34.1163 15.9314 33.593 15.8519C32.7057 15.7171 31.8004 15.7718 30.9355 16.0125C30.0706 16.2531 29.2659 16.6741 28.5725 17.2477C28.3186 17.4578 28.1782 17.7749 28.1934 18.1041C28.2084 18.4304 28.3745 18.7308 28.6424 18.9171L28.6483 18.9213C28.6575 18.9282 28.676 18.9421 28.7024 18.9634C28.7552 19.006 28.8395 19.0777 28.9451 19.1801C29.1565 19.3852 29.4515 19.7121 29.7507 20.1746C29.7876 20.2316 29.8246 20.2907 29.8616 20.3521C29.4132 20.055 28.9337 19.8042 28.4306 19.6037L27.006 14.5405C26.8486 13.981 26.4697 13.5172 25.9649 13.2452C25.4618 12.974 24.8745 12.9143 24.3309 13.0672L21.4118 13.8885C20.8681 14.0415 20.3981 14.3987 20.1102 14.8924C19.8213 15.3877 19.7399 15.9811 19.8973 16.5406L21.3218 21.6038C20.6779 22.4632 20.2162 23.4432 19.9704 24.4854C19.6746 25.7389 19.7008 27.0415 20.0489 28.2762L21.1102 31.9061H21.0034C20.3598 31.9061 19.838 32.4278 19.838 33.0714C19.838 33.7151 20.3598 34.2368 21.0034 34.2368H21.0835V56.3789C21.0835 57.0225 21.6052 57.5443 22.2489 57.5443H45.5564C46.2 57.5443 46.7218 57.0225 46.7218 56.3789V34.2368C47.3654 34.2368 47.8871 33.7151 47.8871 33.0714C47.8871 32.4278 47.3654 31.9061 46.7218 31.9061H45.7807C45.801 31.8095 45.8093 31.7086 45.804 31.6054C45.7801 31.14 45.8525 30.6748 46.0166 30.2387C46.1808 29.8026 46.4331 29.405 46.7579 29.0709C46.7867 29.0413 46.8138 29.0103 46.8393 28.9778L47.3726 28.2979C47.7512 27.8151 47.6907 27.1215 47.2342 26.7116L47.1927 26.6743L49.0318 24.5782C49.181 24.6429 49.335 24.6971 49.4929 24.7402C50.0518 24.893 50.6402 24.9022 51.2035 24.767C51.7669 24.6318 52.287 24.3565 52.7157 23.9667C53.1443 23.577 53.4676 23.0852 53.6556 22.5372C53.8436 21.9892 53.8902 21.4026 53.791 20.8318C53.6919 20.2609 53.4503 19.7244 53.0885 19.2718C52.7268 18.8193 52.2566 18.4654 51.7217 18.2429C51.519 18.1586 51.3095 18.0943 51.0962 18.0502C50.9103 17.5638 50.6148 17.1215 50.2269 16.7602C49.5743 16.1524 48.7112 15.8217 47.8195 15.8377C47.7924 15.8382 47.7654 15.8396 47.7385 15.842C46.8489 15.9202 46.0223 16.3332 45.4257 16.9976C44.8291 17.662 44.507 18.5282 44.5247 19.421C44.525 19.4368 44.5257 19.4526 44.5266 19.4684C44.556 19.9531 44.6896 20.4207 44.9132 20.8415L43.0311 22.9374L42.7008 22.6408C42.2746 22.2581 41.6407 22.2458 41.2017 22.5919C41.4881 21.65 41.9309 20.86 42.3808 20.2334C42.7605 19.7047 43.1398 19.3006 43.4207 19.0316C43.5608 18.8975 43.6751 18.7982 43.7511 18.7349C43.7891 18.7033 43.8174 18.6807 43.8343 18.6675L43.8503 18.6551C44.1137 18.4597 44.2706 18.1524 44.2744 17.8245C44.2781 17.4962 44.1279 17.1851 43.8685 16.9838C43.186 16.4543 42.4001 16.0761 41.562 15.8747C40.7238 15.6733 39.853 15.6534 39.0066 15.8165C38.3975 15.9338 37.8113 16.1439 37.2675 16.4382C37.1876 15.5712 36.7957 14.7174 36.3338 14.0448C35.8231 13.3012 35.0846 12.5734 34.2608 12.2742ZM43.4998 31.9061C43.4875 31.8473 43.4795 31.7868 43.4763 31.7249C43.436 30.9393 43.5582 30.1539 43.8353 29.4177C44.065 28.8074 44.397 28.2418 44.8162 27.7449C44.7938 27.7278 44.7718 27.7099 44.7502 27.691C44.6514 27.6043 44.5707 27.5046 44.5086 27.3966L42.357 25.4646L42.3409 25.4504L42.325 25.4358L41.9704 25.1174L41.9394 25.1488C40.9993 26.2808 39.653 27.001 38.1879 27.1537C38.172 27.1553 38.156 27.1567 38.1401 27.1577C36.9219 27.2341 35.7753 27.7597 34.9222 28.6326C34.714 28.8457 34.5269 29.0757 34.3623 29.3194L35.0214 31.5798C35.0531 31.6886 35.0682 31.7982 35.0683 31.9061H43.4998ZM32.6887 31.9061L30.7518 25.2635C30.5129 24.4125 30.0596 23.6339 29.4297 22.9974C28.7995 22.3607 28.0109 21.8846 27.1314 21.6155C26.7522 21.4994 26.458 21.1985 26.3506 20.8168L24.8133 15.3527L22.1918 16.0903L23.7291 21.5543C23.8365 21.9361 23.7424 22.3463 23.4794 22.643C22.8693 23.3312 22.4445 24.1487 22.2389 25.0205C22.0336 25.8904 22.0523 26.7893 22.2908 27.6385L23.5386 31.9061H32.6887ZM23.4142 34.2368V55.2135H44.391V34.2368H23.4142ZM33.5926 26.6799L33.0642 24.8675C33.0683 24.8298 33.0704 24.7915 33.0704 24.7527C33.0704 22.1376 32.3092 20.2674 31.5119 19.0351C31.3137 18.7287 31.1144 18.4635 30.9259 18.2373C31.1112 18.156 31.3023 18.0878 31.4978 18.0334C32.0775 17.8721 32.6837 17.8355 33.2779 17.9257C33.8721 18.016 34.4419 18.2313 34.9506 18.5586C34.963 18.5665 34.9755 18.5742 34.9881 18.5816C35.4127 18.8302 35.8955 18.9616 36.3878 18.9616C36.8801 18.9616 37.3629 18.8302 37.7875 18.5816C37.8132 18.5666 37.8382 18.5505 37.8625 18.5333C38.3257 18.2063 38.8508 17.9827 39.4034 17.8763C39.956 17.7698 40.5244 17.7828 41.0719 17.9143C41.2062 17.9466 41.3385 17.9858 41.4683 18.0318C41.2191 18.3059 40.948 18.6324 40.677 19.0098C39.7552 20.2934 38.8135 22.1977 38.784 24.6353C38.5234 24.735 38.2492 24.802 37.9673 24.8332C36.3392 24.9414 34.7995 25.5944 33.5926 26.6799ZM47.9412 22.2872L45.4584 25.1169L44.7653 24.4946L47.2893 21.6838C47.4964 21.4531 47.6031 21.1494 47.5857 20.8398C47.5683 20.5303 47.4283 20.2404 47.1966 20.0344C46.9989 19.8586 46.8767 19.6137 46.8548 19.3506C46.8549 19.0571 46.9634 18.7737 47.1599 18.5548C47.3526 18.3402 47.6163 18.2031 47.9017 18.1681C48.1751 18.1731 48.4376 18.2788 48.6384 18.4658C48.849 18.662 48.9753 18.9323 48.9905 19.2197C49.0075 19.5395 49.1554 19.8382 49.3993 20.0457C49.6433 20.2531 49.9619 20.351 50.2803 20.3164C50.4662 20.2962 50.6541 20.3232 50.8268 20.395C50.9995 20.4668 51.1512 20.581 51.2679 20.7271C51.3847 20.8731 51.4627 21.0463 51.4947 21.2305C51.5267 21.4148 51.5116 21.6041 51.4509 21.781C51.3903 21.9579 51.2859 22.1165 51.1476 22.2423C51.0092 22.3681 50.8414 22.457 50.6596 22.5006C50.4777 22.5443 50.2878 22.5413 50.1075 22.492C49.9271 22.4427 49.7621 22.3486 49.6278 22.2186C49.3986 21.9967 49.0885 21.8784 48.7697 21.8914C48.451 21.9044 48.1515 22.0474 47.9412 22.2872Z" fill="#B8980A"/>
</g>
</g>
</svg>
