<svg xmlns="http://www.w3.org/2000/svg" width="49" height="48" viewBox="0 0 49 48" fill="none">
  <path d="M27.31 30.4584C29.5843 30.4584 30.4729 29.039 30.7814 28.2972C30.8614 28.104 30.6357 27.9192 30.3814 27.9696C28.45 28.3252 26.4071 28.3447 24.23 27.9612C23.9786 27.9164 23.7557 28.1012 23.8357 28.2916C24.1414 29.0306 25.0271 30.4584 27.31 30.4584Z" fill="#D5172A"/>
  <path fill-rule="evenodd" clip-rule="evenodd" d="M24.75 44C35.7957 44 44.75 35.0457 44.75 24C44.75 12.9543 35.7957 4 24.75 4C13.7043 4 4.75 12.9543 4.75 24C4.75 35.0457 13.7043 44 24.75 44ZM14.75 23.7983C14.75 18.3868 19.2271 14 24.75 14C30.2729 14 34.75 18.3868 34.75 23.7983C34.75 27.6141 32.5214 30.9203 29.2729 32.5384C28.8843 32.7372 28.4786 32.9136 28.0614 33.0619L21.4957 35.2344C21.2786 35.3072 21.0671 35.114 21.1243 34.8956L21.5957 33.1179C21.1186 32.9584 20.6614 32.7624 20.2214 32.5356C16.9757 30.9175 14.75 27.6113 14.75 23.7983Z" fill="#D5172A"/>
</svg>