<svg width="35" height="36" viewBox="0 0 35 36" fill="none" xmlns="http://www.w3.org/2000/svg">
<g>
<path d="M16.0417 26.0208C16.0417 26.2142 15.9648 26.3997 15.8281 26.5364C15.6914 26.6732 15.5059 26.75 15.3125 26.75H10.2083C9.82156 26.75 9.45063 26.5964 9.17714 26.3229C8.90365 26.0494 8.75 25.6784 8.75 25.2917V10.7083C8.75 10.3216 8.90365 9.95063 9.17714 9.67714C9.45063 9.40365 9.82156 9.25 10.2083 9.25H15.3125C15.5059 9.25 15.6914 9.32682 15.8281 9.46357C15.9648 9.60031 16.0417 9.78578 16.0417 9.97917C16.0417 10.1726 15.9648 10.358 15.8281 10.4948C15.6914 10.6315 15.5059 10.7083 15.3125 10.7083H10.2083V25.2917H15.3125C15.5059 25.2917 15.6914 25.3685 15.8281 25.5052C15.9648 25.642 16.0417 25.8274 16.0417 26.0208ZM26.0367 17.4841L22.3909 13.8383C22.2541 13.7015 22.0685 13.6246 21.875 13.6246C21.6815 13.6246 21.4959 13.7015 21.3591 13.8383C21.2223 13.9751 21.1454 14.1607 21.1454 14.3542C21.1454 14.5477 21.2223 14.7332 21.3591 14.8701L23.7608 17.2708H15.3125C15.1191 17.2708 14.9336 17.3477 14.7969 17.4844C14.6602 17.6211 14.5833 17.8066 14.5833 18C14.5833 18.1934 14.6602 18.3789 14.7969 18.5156C14.9336 18.6523 15.1191 18.7292 15.3125 18.7292H23.7608L21.3591 21.1299C21.2223 21.2668 21.1454 21.4523 21.1454 21.6458C21.1454 21.8393 21.2223 22.0249 21.3591 22.1617C21.4959 22.2985 21.6815 22.3754 21.875 22.3754C22.0685 22.3754 22.2541 22.2985 22.3909 22.1617L26.0367 18.5159C26.1045 18.4482 26.1583 18.3677 26.195 18.2792C26.2317 18.1907 26.2506 18.0958 26.2506 18C26.2506 17.9042 26.2317 17.8093 26.195 17.7208C26.1583 17.6323 26.1045 17.5518 26.0367 17.4841Z" fill="white"/>
</g>
<defs>
<filter id="filter0_d_1295_55615" x="0" y="0.5" width="35" height="36" filterUnits="userSpaceOnUse" color-interpolation-filters="sRGB">
<feFlood flood-opacity="0" result="BackgroundImageFix"/>
<feColorMatrix in="SourceAlpha" type="matrix" values="0 0 0 0 0 0 0 0 0 0 0 0 0 0 0 0 0 0 127 0" result="hardAlpha"/>
<feOffset dy="1"/>
<feComposite in2="hardAlpha" operator="out"/>
<feColorMatrix type="matrix" values="0 0 0 0 0.541176 0 0 0 0 0.0588235 0 0 0 0 0.105882 0 0 0 1 0"/>
<feBlend mode="normal" in2="BackgroundImageFix" result="effect1_dropShadow_1295_55615"/>
<feBlend mode="normal" in="SourceGraphic" in2="effect1_dropShadow_1295_55615" result="shape"/>
</filter>
</defs>
</svg>
