<svg width="48" height="48" viewBox="0 0 48 48" fill="none" xmlns="http://www.w3.org/2000/svg">
<g id="icon-phone">
<path id="Vector" d="M38.4594 29.5135L30.9218 26.1359L30.901 26.1262C30.5097 25.9589 30.0828 25.8917 29.659 25.9308C29.2352 25.9699 28.8278 26.1141 28.4738 26.3503C28.4321 26.3778 28.392 26.4077 28.3538 26.4399L24.4593 29.7599C21.9921 28.5615 19.4449 26.0334 18.2465 23.5982L21.5713 19.6446C21.6033 19.6046 21.6337 19.5646 21.6625 19.5214C21.8936 19.1683 22.0338 18.7635 22.0707 18.3431C22.1075 17.9227 22.0398 17.4997 21.8737 17.1118V17.0926L18.4865 9.54209C18.2669 9.03531 17.8892 8.61315 17.41 8.33862C16.9307 8.0641 16.3755 7.95193 15.8273 8.01888C13.6592 8.30417 11.6691 9.36892 10.2287 11.0143C8.78832 12.6596 7.99609 14.773 8.00001 16.9598C8.00001 29.6639 18.3361 40 31.0402 40C33.2269 40.0039 35.3403 39.2117 36.9857 37.7713C38.631 36.3309 39.6957 34.3408 39.981 32.1727C40.0481 31.6246 39.9362 31.0696 39.662 30.5903C39.3877 30.1111 38.9659 29.7334 38.4594 29.5135ZM31.0402 37.44C25.6103 37.434 20.4046 35.2744 16.5651 31.4349C12.7256 27.5954 10.566 22.3896 10.56 16.9598C10.554 15.3973 11.1169 13.8861 12.1436 12.7084C13.1703 11.5306 14.5906 10.7668 16.1393 10.5597C16.1386 10.5661 16.1386 10.5725 16.1393 10.5789L19.4993 18.099L16.1921 22.0574C16.1585 22.096 16.128 22.1372 16.1009 22.1806C15.8601 22.5501 15.7188 22.9755 15.6908 23.4156C15.6628 23.8557 15.7489 24.2956 15.9409 24.6926C17.3905 27.6575 20.3777 30.6223 23.3745 32.0703C23.7745 32.2605 24.2169 32.3436 24.6586 32.3117C25.1003 32.2797 25.5261 32.1337 25.8945 31.8879C25.9356 31.8602 25.9751 31.8303 26.0129 31.7983L29.9026 28.4799L37.4226 31.8479C37.4226 31.8479 37.4354 31.8479 37.4402 31.8479C37.2356 33.3987 36.473 34.8219 35.295 35.8512C34.117 36.8804 32.6044 37.4452 31.0402 37.44Z" fill="#D5172A"/>
</g>
</svg>
