<svg width="23" height="22" viewBox="0 0 23 22" fill="none" xmlns="http://www.w3.org/2000/svg">
<path d="M11.1252 6.00003C10.1363 6.00003 9.1696 6.29327 8.34736 6.84268C7.52511 7.39209 6.88425 8.17298 6.50581 9.08661C6.12737 10.0002 6.02836 11.0056 6.22128 11.9755C6.41421 12.9454 6.89041 13.8363 7.58968 14.5356C8.28894 15.2348 9.17985 15.711 10.1498 15.904C11.1197 16.0969 12.125 15.9979 13.0386 15.6194C13.9523 15.241 14.7332 14.6001 15.2826 13.7779C15.832 12.9556 16.1252 11.9889 16.1252 11C16.1238 9.67437 15.5966 8.4034 14.6592 7.46602C13.7218 6.52863 12.4509 6.00141 11.1252 6.00003ZM11.1252 14.3334C10.4659 14.3334 9.82147 14.1379 9.27331 13.7716C8.72515 13.4053 8.2979 12.8847 8.04561 12.2756C7.79332 11.6666 7.72731 10.9963 7.85593 10.3497C7.98454 9.70312 8.30201 9.10918 8.76819 8.643C9.23436 8.17683 9.82831 7.85936 10.4749 7.73074C11.1215 7.60213 11.7917 7.66814 12.4008 7.92043C13.0099 8.17272 13.5305 8.59996 13.8968 9.14813C14.263 9.69629 14.4585 10.3408 14.4585 11C14.4585 11.8841 14.1074 12.7319 13.4822 13.357C12.8571 13.9822 12.0093 14.3334 11.1252 14.3334ZM20.2919 11.225C20.296 11.075 20.296 10.925 20.2919 10.775L21.846 8.83336C21.9275 8.73141 21.9839 8.61175 22.0107 8.48401C22.0375 8.35628 22.0339 8.22404 22.0002 8.09794C21.7454 7.14024 21.3643 6.2207 20.8669 5.36357C20.8017 5.2514 20.7113 5.15598 20.6028 5.08491C20.4943 5.01384 20.3707 4.96908 20.2419 4.95419L17.771 4.67919C17.6683 4.57086 17.5641 4.46669 17.4585 4.36669L17.1669 1.88961C17.1519 1.76067 17.107 1.63701 17.0357 1.5285C16.9644 1.41999 16.8688 1.32962 16.7565 1.26461C15.899 0.768097 14.9795 0.387355 14.0221 0.132319C13.8959 0.098774 13.7636 0.095343 13.6359 0.122303C13.5081 0.149262 13.3885 0.205858 13.2867 0.287527L11.3502 1.83336C11.2002 1.83336 11.0502 1.83336 10.9002 1.83336L8.95854 0.282319C8.8566 0.200828 8.73693 0.144421 8.6092 0.117643C8.48146 0.0908652 8.34922 0.0944648 8.22313 0.128152C7.26557 0.383389 6.3461 0.764489 5.48875 1.26149C5.37658 1.32662 5.28117 1.41703 5.2101 1.52554C5.13903 1.63404 5.09427 1.75764 5.07938 1.88649L4.80438 4.36149C4.69604 4.46496 4.59188 4.56912 4.49188 4.67399L2.01479 4.95836C1.88585 4.97336 1.76219 5.01828 1.65368 5.08954C1.54517 5.16079 1.45481 5.25641 1.38979 5.36878C0.89328 6.22624 0.512538 7.1457 0.257502 8.10315C0.223957 8.22932 0.220526 8.36161 0.247486 8.48935C0.274445 8.61709 0.331041 8.73671 0.41271 8.83857L1.95854 10.775C1.95854 10.925 1.95854 11.075 1.95854 11.225L0.407502 13.1667C0.326011 13.2686 0.269604 13.3883 0.242826 13.516C0.216048 13.6438 0.219648 13.776 0.253335 13.9021C0.508116 14.8598 0.889241 15.7794 1.38667 16.6365C1.4518 16.7487 1.54222 16.8441 1.65072 16.9151C1.75922 16.9862 1.88282 17.031 2.01167 17.0459L4.4825 17.3209C4.58597 17.4292 4.69014 17.5334 4.795 17.6334L5.08354 20.1104C5.09855 20.2394 5.14346 20.363 5.21472 20.4716C5.28598 20.5801 5.3816 20.6704 5.49396 20.7354C6.35142 21.232 7.27088 21.6127 8.22834 21.8677C8.35451 21.9013 8.48679 21.9047 8.61454 21.8778C8.74228 21.8508 8.8619 21.7942 8.96375 21.7125L10.9002 20.1667C11.0502 20.1709 11.2002 20.1709 11.3502 20.1667L13.2919 21.7209C13.3938 21.8024 13.5135 21.8588 13.6412 21.8855C13.769 21.9123 13.9012 21.9087 14.0273 21.875C14.985 21.6202 15.9045 21.2391 16.7617 20.7417C16.8738 20.6766 16.9693 20.5861 17.0403 20.4776C17.1114 20.3691 17.1562 20.2455 17.171 20.1167L17.446 17.6459C17.5544 17.5431 17.6585 17.4389 17.7585 17.3334L20.2356 17.0417C20.3646 17.0267 20.4882 16.9818 20.5967 16.9105C20.7053 16.8393 20.7956 16.7436 20.8606 16.6313C21.3571 15.7738 21.7379 14.8544 21.9929 13.8969C22.0265 13.7707 22.0299 13.6384 22.0029 13.5107C21.976 13.383 21.9194 13.2633 21.8377 13.1615L20.2919 11.225ZM18.6148 10.5479C18.6325 10.8491 18.6325 11.151 18.6148 11.4521C18.6024 11.6583 18.667 11.8617 18.796 12.0229L20.2742 13.8698C20.1046 14.4088 19.8874 14.9317 19.6252 15.4323L17.271 15.699C17.066 15.7217 16.8767 15.8197 16.7398 15.974C16.5393 16.1995 16.3257 16.4131 16.1002 16.6136C15.946 16.7505 15.848 16.9398 15.8252 17.1448L15.5638 19.4969C15.0632 19.7592 14.5403 19.9764 14.0013 20.1459L12.1533 18.6677C12.0055 18.5496 11.8218 18.4853 11.6325 18.4854H11.5825C11.2814 18.5032 10.9795 18.5032 10.6783 18.4854C10.4722 18.473 10.2687 18.5376 10.1075 18.6667L8.25542 20.1459C7.71639 19.9763 7.1935 19.7591 6.69292 19.4969L6.42625 17.1459C6.40349 16.9408 6.30551 16.7516 6.15125 16.6146C5.92574 16.4141 5.71218 16.2005 5.51167 15.975C5.37472 15.8208 5.18543 15.7228 4.98042 15.7L2.62834 15.4375C2.36604 14.937 2.14886 14.4141 1.97938 13.875L3.4575 12.0271C3.58657 11.8659 3.65116 11.6624 3.63875 11.4563C3.62104 11.1551 3.62104 10.8532 3.63875 10.5521C3.65116 10.3459 3.58657 10.1425 3.4575 9.98128L1.97938 8.13023C2.14899 7.59121 2.36616 7.06832 2.62834 6.56774L4.97938 6.30107C5.18439 6.27831 5.37368 6.18033 5.51063 6.02607C5.71114 5.80056 5.9247 5.587 6.15021 5.38649C6.30508 5.24945 6.40347 5.05973 6.42625 4.85419L6.68771 2.50315C7.18823 2.24085 7.71114 2.02367 8.25021 1.85419L10.0981 3.33232C10.2594 3.46139 10.4628 3.52598 10.669 3.51357C10.9701 3.49586 11.272 3.49586 11.5731 3.51357C11.7793 3.52598 11.9827 3.46139 12.144 3.33232L13.995 1.85419C14.534 2.0238 15.0569 2.24098 15.5575 2.50315L15.8242 4.85419C15.8469 5.05921 15.9449 5.2485 16.0992 5.38544C16.3247 5.58595 16.5382 5.79952 16.7388 6.02503C16.8757 6.17928 17.065 6.27727 17.27 6.30003L19.6221 6.56149C19.8844 7.06201 20.1016 7.58491 20.271 8.12399L18.7929 9.9719C18.6626 10.1345 18.5979 10.34 18.6117 10.5479H18.6148Z" fill="#91A0B0"/>
</svg>
