<svg width="26" height="26" viewBox="0 0 26 26" fill="none" xmlns="http://www.w3.org/2000/svg">
<g id="icon-radio-checked">
<path id="Exclude" fill-rule="evenodd" clip-rule="evenodd" d="M13.0003 23.8327C7.01724 23.8327 2.16699 18.9824 2.16699 12.9993C2.16699 7.01626 7.01724 2.16602 13.0003 2.16602C18.9834 2.16602 23.8337 7.01626 23.8337 12.9993C23.8337 18.9824 18.9834 23.8327 13.0003 23.8327ZM11.9507 17.0851L18.7266 10.3636C18.9114 10.1803 18.9125 9.88202 18.7293 9.69726L17.8445 8.80534C17.6613 8.62062 17.363 8.61944 17.1783 8.80267L11.6287 14.3076L9.28123 11.9411C9.098 11.7564 8.7997 11.7552 8.61498 11.9384L7.72301 12.8232C7.53825 13.0065 7.53708 13.3048 7.7203 13.4895L11.2844 17.0825C11.4677 17.2672 11.766 17.2684 11.9507 17.0851Z" fill="#229B52"/>
</g>
</svg>
