<svg width="23" height="19" viewBox="0 0 23 19" fill="none" xmlns="http://www.w3.org/2000/svg">
<path d="M5.5 7.33332C5.5 7.11231 5.5878 6.90035 5.74408 6.74407C5.90036 6.58779 6.11232 6.49999 6.33333 6.49999H16.3333C16.5543 6.49999 16.7663 6.58779 16.9226 6.74407C17.0789 6.90035 17.1667 7.11231 17.1667 7.33332C17.1667 7.55434 17.0789 7.7663 16.9226 7.92258C16.7663 8.07886 16.5543 8.16666 16.3333 8.16666H6.33333C6.11232 8.16666 5.90036 8.07886 5.74408 7.92258C5.5878 7.7663 5.5 7.55434 5.5 7.33332ZM6.33333 11.5H16.3333C16.5543 11.5 16.7663 11.4122 16.9226 11.2559C17.0789 11.0996 17.1667 10.8877 17.1667 10.6667C17.1667 10.4456 17.0789 10.2337 16.9226 10.0774C16.7663 9.92112 16.5543 9.83332 16.3333 9.83332H6.33333C6.11232 9.83332 5.90036 9.92112 5.74408 10.0774C5.5878 10.2337 5.5 10.4456 5.5 10.6667C5.5 10.8877 5.5878 11.0996 5.74408 11.2559C5.90036 11.4122 6.11232 11.5 6.33333 11.5ZM22.1667 2.33332V18.1667C22.1666 18.3087 22.1302 18.4483 22.061 18.5724C21.9918 18.6964 21.892 18.8007 21.7711 18.8753C21.6503 18.9499 21.5124 18.9924 21.3705 18.9987C21.2286 19.005 21.0874 18.975 20.9604 18.9114L18 17.4312L15.0396 18.9114C14.9238 18.9694 14.7961 18.9995 14.6667 18.9995C14.5372 18.9995 14.4095 18.9694 14.2937 18.9114L11.3333 17.4312L8.37292 18.9114C8.25714 18.9694 8.12946 18.9995 8 18.9995C7.87054 18.9995 7.74286 18.9694 7.62708 18.9114L4.66667 17.4312L1.70625 18.9114C1.57923 18.975 1.43808 19.005 1.29619 18.9987C1.1543 18.9924 1.01638 18.9499 0.895527 18.8753C0.774675 18.8007 0.674901 18.6964 0.605677 18.5724C0.536453 18.4483 0.500076 18.3087 0.5 18.1667V2.33332C0.5 1.8913 0.675595 1.46737 0.988155 1.15481C1.30072 0.842251 1.72464 0.666656 2.16667 0.666656H20.5C20.942 0.666656 21.3659 0.842251 21.6785 1.15481C21.9911 1.46737 22.1667 1.8913 22.1667 2.33332ZM20.5 2.33332H2.16667V16.8187L4.29375 15.7542C4.40952 15.6962 4.53721 15.6661 4.66667 15.6661C4.79613 15.6661 4.92381 15.6962 5.03958 15.7542L8 17.2354L10.9604 15.7542C11.0762 15.6962 11.2039 15.6661 11.3333 15.6661C11.4628 15.6661 11.5905 15.6962 11.7063 15.7542L14.6667 17.2354L17.6271 15.7542C17.7429 15.6962 17.8705 15.6661 18 15.6661C18.1295 15.6661 18.2571 15.6962 18.3729 15.7542L20.5 16.8187V2.33332Z" fill="#91A0B0"/>
</svg>
