<svg width="23" height="16" viewBox="0 0 23 16" fill="none" xmlns="http://www.w3.org/2000/svg">
<g id="Group 32">
<rect id="Rectangle 43" x="0.90918" y="0.5" width="21.8182" height="15" rx="1.02273" fill="#CD6928"/>
<path id="Rectangle 44" d="M1.59094 10.0459H22.0455V14.1368C22.0455 14.5134 21.7402 14.8186 21.3637 14.8186H2.27276C1.8962 14.8186 1.59094 14.5134 1.59094 14.1368V10.0459Z" fill="white"/>
<g id="ECHECK">
<path id="Vector" d="M20.6859 14.1351L19.4737 12.6508V14.1351H18.8055V10.8037H19.4737V12.2976L20.6859 10.8037H21.4925L20.118 12.4551L21.5307 14.1351H20.6859Z" fill="black"/>
<path id="Vector_2" d="M14.8364 12.4646C14.8364 12.1369 14.9096 11.8442 15.056 11.5864C15.2055 11.3255 15.4076 11.1235 15.6621 10.9803C15.9198 10.8339 16.2078 10.7607 16.526 10.7607C16.8982 10.7607 17.2244 10.8562 17.5044 11.0471C17.7844 11.238 17.9801 11.5021 18.0914 11.8394H17.323C17.2467 11.6803 17.1385 11.561 16.9985 11.4814C16.8617 11.4019 16.7026 11.3621 16.5212 11.3621C16.3271 11.3621 16.1537 11.4082 16.001 11.5005C15.8514 11.5896 15.7337 11.7169 15.6478 11.8823C15.5651 12.0478 15.5237 12.2419 15.5237 12.4646C15.5237 12.6842 15.5651 12.8782 15.6478 13.0469C15.7337 13.2123 15.8514 13.3412 16.001 13.4335C16.1537 13.5226 16.3271 13.5671 16.5212 13.5671C16.7026 13.5671 16.8617 13.5273 16.9985 13.4478C17.1385 13.3651 17.2467 13.2442 17.323 13.0851H18.0914C17.9801 13.4255 17.7844 13.6912 17.5044 13.8821C17.2276 14.0698 16.9014 14.1637 16.526 14.1637C16.2078 14.1637 15.9198 14.0921 15.6621 13.9489C15.4076 13.8026 15.2055 13.6005 15.056 13.3428C14.9096 13.0851 14.8364 12.7923 14.8364 12.4646Z" fill="black"/>
<path id="Vector_3" d="M12.9834 11.3439V12.1791H14.105V12.7089H12.9834V13.5919H14.2481V14.1359H12.3152V10.7998H14.2481V11.3439H12.9834Z" fill="black"/>
<path id="Vector_4" d="M11.5144 10.8037V14.1351H10.8462V12.7176H9.41916V14.1351H8.75098V10.8037H9.41916V12.1735H10.8462V10.8037H11.5144Z" fill="black"/>
<path id="Vector_5" d="M4.78223 12.4646C4.78223 12.1369 4.85541 11.8442 5.00177 11.5864C5.15132 11.3255 5.35336 11.1235 5.60791 10.9803C5.86564 10.8339 6.15359 10.7607 6.47177 10.7607C6.84404 10.7607 7.17018 10.8562 7.45018 11.0471C7.73018 11.238 7.92586 11.5021 8.03723 11.8394H7.26882C7.19245 11.6803 7.08427 11.561 6.94427 11.4814C6.80745 11.4019 6.64836 11.3621 6.467 11.3621C6.27291 11.3621 6.0995 11.4082 5.94677 11.5005C5.79723 11.5896 5.6795 11.7169 5.59359 11.8823C5.51086 12.0478 5.4695 12.2419 5.4695 12.4646C5.4695 12.6842 5.51086 12.8782 5.59359 13.0469C5.6795 13.2123 5.79723 13.3412 5.94677 13.4335C6.0995 13.5226 6.27291 13.5671 6.467 13.5671C6.64836 13.5671 6.80745 13.5273 6.94427 13.4478C7.08427 13.3651 7.19245 13.2442 7.26882 13.0851H8.03723C7.92586 13.4255 7.73018 13.6912 7.45018 13.8821C7.17336 14.0698 6.84723 14.1637 6.47177 14.1637C6.15359 14.1637 5.86564 14.0921 5.60791 13.9489C5.35336 13.8026 5.15132 13.6005 5.00177 13.3428C4.85541 13.0851 4.78223 12.7923 4.78223 12.4646Z" fill="black"/>
<path id="Vector_6" d="M2.92923 11.3439V12.1791H4.05082V12.7089H2.92923V13.5919H4.194V14.1359H2.26105V10.7998H4.194V11.3439H2.92923Z" fill="black"/>
</g>
<rect id="Rectangle 45" x="1.59094" y="2.2041" width="20.4545" height="6.13636" fill="#FCD7C4"/>
<rect id="Rectangle 46" x="15.2274" y="2.88672" width="5.11364" height="0.340909" fill="black"/>
<rect id="Rectangle 47" x="2.27277" y="4.59082" width="14.3182" height="0.340909" fill="black"/>
<rect id="Rectangle 48" x="2.27277" y="5.61328" width="17.0455" height="0.340909" fill="black"/>
<rect id="Rectangle 49" x="2.27277" y="7.31836" width="4.77273" height="0.340909" fill="black"/>
<rect id="Rectangle 50" x="2.27277" y="9.02246" width="10.2273" height="0.340909" fill="black"/>
<rect id="Rectangle 51" x="17.2728" y="4.25" width="4.09091" height="1.02273" fill="white"/>
</g>
</svg>
