<svg width="21" height="16" viewBox="0 0 21 16" fill="none" xmlns="http://www.w3.org/2000/svg">
    <path d="M20.0842 7.84613C20.0884 9.43378 19.5734 10.9793 18.6176 12.247C18.5649 12.317 18.499 12.376 18.4236 12.4206C18.3481 12.4651 18.2647 12.4944 18.1779 12.5067C18.0912 12.519 18.0029 12.5141 17.918 12.4923C17.8332 12.4704 17.7534 12.4321 17.6834 12.3795C17.6134 12.3268 17.5544 12.2609 17.5098 12.1855C17.4653 12.11 17.436 12.0266 17.4237 11.9398C17.4114 11.8531 17.4163 11.7648 17.4381 11.6799C17.4599 11.5951 17.4983 11.5153 17.5509 11.4453C18.3333 10.4088 18.7547 9.14472 18.7509 7.84613C18.7509 6.25483 18.1188 4.72871 16.9935 3.60349C15.8683 2.47827 14.3422 1.84613 12.7509 1.84613C11.1596 1.84613 9.63348 2.47827 8.50826 3.60349C7.38304 4.72871 6.7509 6.25483 6.7509 7.84613C6.7509 8.02294 6.68066 8.19251 6.55564 8.31754C6.43061 8.44256 6.26104 8.5128 6.08423 8.5128C5.90742 8.5128 5.73785 8.44256 5.61283 8.31754C5.4878 8.19251 5.41757 8.02294 5.41757 7.84613C5.41724 7.17336 5.50949 6.50375 5.69173 5.85613C5.6009 5.84613 5.50923 5.84613 5.41757 5.84613C4.3567 5.84613 3.33928 6.26756 2.58914 7.01771C1.83899 7.76785 1.41757 8.78527 1.41757 9.84613C1.41757 10.907 1.83899 11.9244 2.58914 12.6746C3.33928 13.4247 4.3567 13.8461 5.41757 13.8461H7.41757C7.59438 13.8461 7.76395 13.9164 7.88897 14.0414C8.014 14.1664 8.08423 14.336 8.08423 14.5128C8.08423 14.6896 8.014 14.8592 7.88897 14.9842C7.76395 15.1092 7.59438 15.1795 7.41757 15.1795H5.41757C4.68438 15.1796 3.95903 15.0286 3.28683 14.7359C2.61462 14.4431 2.00999 14.0149 1.51071 13.478C1.01143 12.9411 0.628213 12.307 0.384998 11.6153C0.141783 10.9237 0.0437934 10.1893 0.0971492 9.45802C0.150505 8.72677 0.35406 8.01438 0.695101 7.36534C1.03614 6.7163 1.50734 6.14455 2.07928 5.68579C2.65121 5.22704 3.31159 4.89113 4.01917 4.69906C4.72675 4.50699 5.46634 4.46287 6.19173 4.56947C6.9304 3.0921 8.14619 1.90736 9.64217 1.20716C11.1382 0.506958 12.8267 0.332298 14.4343 0.711471C16.042 1.09065 17.4745 2.00144 18.4999 3.29634C19.5254 4.59124 20.0836 6.19439 20.0842 7.84613ZM14.2792 11.3745L12.7509 12.9036V7.84613C12.7509 7.66932 12.6807 7.49975 12.5556 7.37473C12.4306 7.24971 12.261 7.17947 12.0842 7.17947C11.9074 7.17947 11.7379 7.24971 11.6128 7.37473C11.4878 7.49975 11.4176 7.66932 11.4176 7.84613V12.9036L9.88923 11.3745C9.76414 11.2494 9.59448 11.1791 9.41757 11.1791C9.24066 11.1791 9.07099 11.2494 8.9459 11.3745C8.82081 11.4996 8.75053 11.6692 8.75053 11.8461C8.75053 12.023 8.82081 12.1927 8.9459 12.3178L11.6126 14.9845C11.6745 15.0465 11.748 15.0956 11.8289 15.1292C11.9099 15.1627 11.9966 15.18 12.0842 15.18C12.1718 15.18 12.2586 15.1627 12.3395 15.1292C12.4205 15.0956 12.494 15.0465 12.5559 14.9845L15.2226 12.3178C15.3477 12.1927 15.4179 12.023 15.4179 11.8461C15.4179 11.6692 15.3477 11.4996 15.2226 11.3745C15.0975 11.2494 14.9278 11.1791 14.7509 11.1791C14.574 11.1791 14.4043 11.2494 14.2792 11.3745Z" fill="#D5172A"/>
    </svg>