<svg width="32" height="32" viewBox="0 0 32 32" fill="none" xmlns="http://www.w3.org/2000/svg">
<path d="M23.0752 8.25594C22.1638 7.33535 21.0797 6.60357 19.8851 6.10251C18.6905 5.60146 17.4087 5.34096 16.1133 5.33594H16.0381C13.4112 5.33594 10.8918 6.37947 9.03434 8.23698C7.17684 10.0945 6.1333 12.6138 6.1333 15.2407V20.574C6.1333 21.1802 6.37412 21.7616 6.80277 22.1903C7.23143 22.6189 7.81281 22.8597 8.41902 22.8597H9.94282C10.549 22.8597 11.1304 22.6189 11.5591 22.1903C11.9877 21.7616 12.2285 21.1802 12.2285 20.574V16.7645C12.2285 16.1583 11.9877 15.5769 11.5591 15.1483C11.1304 14.7196 10.549 14.4788 9.94282 14.4788H7.6914C7.83833 12.8902 8.43505 11.3763 9.41161 10.1147C10.3882 8.85309 11.7041 7.89597 13.2052 7.35552C14.7063 6.81508 16.3303 6.7137 17.887 7.06328C19.4436 7.41285 20.8684 8.19889 21.9943 9.32927C23.3703 10.7124 24.2168 12.535 24.3857 14.4788H22.1333C21.5271 14.4788 20.9457 14.7196 20.5171 15.1483C20.0884 15.5769 19.8476 16.1583 19.8476 16.7645V20.574C19.8476 21.1802 20.0884 21.7616 20.5171 22.1903C20.9457 22.6189 21.5271 22.8597 22.1333 22.8597H24.419C24.419 23.466 24.1782 24.0473 23.7495 24.476C23.3209 24.9046 22.7395 25.1455 22.1333 25.1455H16.8C16.5979 25.1455 16.4041 25.2257 16.2612 25.3686C16.1183 25.5115 16.0381 25.7053 16.0381 25.9074C16.0381 26.1094 16.1183 26.3032 16.2612 26.4461C16.4041 26.589 16.5979 26.6693 16.8 26.6693H22.1333C23.1437 26.6693 24.1126 26.2679 24.827 25.5535C25.5415 24.8391 25.9428 23.8701 25.9428 22.8597V15.2407C25.9478 13.9451 25.697 12.6612 25.205 11.4626C24.7129 10.264 23.9891 9.17432 23.0752 8.25594ZM9.94282 16.0026C10.1449 16.0026 10.3387 16.0829 10.4816 16.2258C10.6245 16.3686 10.7047 16.5624 10.7047 16.7645V20.574C10.7047 20.7761 10.6245 20.9699 10.4816 21.1128C10.3387 21.2557 10.1449 21.3359 9.94282 21.3359H8.41902C8.21695 21.3359 8.02315 21.2557 7.88027 21.1128C7.73738 20.9699 7.65711 20.7761 7.65711 20.574V16.0026H9.94282ZM22.1333 21.3359C21.9312 21.3359 21.7374 21.2557 21.5946 21.1128C21.4517 20.9699 21.3714 20.7761 21.3714 20.574V16.7645C21.3714 16.5624 21.4517 16.3686 21.5946 16.2258C21.7374 16.0829 21.9312 16.0026 22.1333 16.0026H24.419V21.3359H22.1333Z" fill="#1A2736"/>
</svg>
