<svg width="23" height="24" viewBox="0 0 23 24" fill="none" xmlns="http://www.w3.org/2000/svg">
<path id="Vector" d="M21.3999 5.37255L11.9689 0.212268C11.7169 0.0730339 11.4337 0 11.1458 0C10.8579 0 10.5747 0.0730339 10.3227 0.212268L0.891662 5.37469C0.622329 5.52206 0.397501 5.73903 0.240654 6.00295C0.0838079 6.26688 0.000696887 6.56807 0 6.87509V17.1249C0.000696887 17.4319 0.0838079 17.7331 0.240654 17.997C0.397501 18.261 0.622329 18.4779 0.891662 18.6253L10.3227 23.7877C10.5747 23.927 10.8579 24 11.1458 24C11.4337 24 11.7169 23.927 11.9689 23.7877L21.3999 18.6253C21.6692 18.4779 21.8941 18.261 22.0509 17.997C22.2077 17.7331 22.2909 17.4319 22.2916 17.1249V6.87616C22.2914 6.5686 22.2086 6.26673 22.0517 6.00219C21.8948 5.73765 21.6697 5.52018 21.3999 5.37255ZM11.1458 1.71266L19.7559 6.42818L16.5654 8.17507L7.95423 3.45955L11.1458 1.71266ZM11.1458 11.1437L2.53566 6.42818L6.16876 4.43909L14.7789 9.15461L11.1458 11.1437ZM1.71474 7.92858L10.2884 12.6205V21.8147L1.71474 17.126V7.92858ZM20.5768 17.1217L12.0031 21.8147V12.6248L15.4326 10.7482V14.5732C15.4326 14.8006 15.5229 15.0186 15.6837 15.1794C15.8445 15.3402 16.0626 15.4305 16.29 15.4305C16.5174 15.4305 16.7354 15.3402 16.8962 15.1794C17.057 15.0186 17.1474 14.8006 17.1474 14.5732V9.80943L20.5768 7.92858V17.1206V17.1217Z" fill="black"/>
</svg>
