<svg width="45" height="44" viewBox="0 0 45 44" fill="none" xmlns="http://www.w3.org/2000/svg">
<g id="icon-phone">
<path id="Vector" d="M35.7551 27.0527L28.8456 23.9566L28.8265 23.9478C28.4678 23.7943 28.0765 23.7328 27.6881 23.7686C27.2996 23.8045 26.9262 23.9366 26.6016 24.1531C26.5634 24.1783 26.5267 24.2058 26.4916 24.2352L22.9217 27.2786C20.6601 26.18 18.3251 23.8627 17.2266 21.6304L20.2744 18.0062C20.3037 17.9696 20.3316 17.9329 20.358 17.8933C20.5698 17.5696 20.6983 17.1986 20.7321 16.8132C20.7659 16.4278 20.7038 16.0401 20.5516 15.6845V15.6669L17.4466 8.74561C17.2453 8.28107 16.8991 7.89408 16.4598 7.64243C16.0205 7.39079 15.5115 7.28797 15.009 7.34933C13.0216 7.61085 11.1974 8.58687 9.87698 10.0951C8.55661 11.6033 7.8304 13.5406 7.834 15.5451C7.834 27.1906 17.3087 36.6654 28.9541 36.6654C30.9587 36.6689 32.896 35.9427 34.4042 34.6224C35.9124 33.302 36.8884 31.4777 37.1499 29.4903C37.2114 28.988 37.1088 28.4792 36.8574 28.0398C36.6061 27.6005 36.2194 27.2543 35.7551 27.0527ZM28.9541 34.3187C23.9768 34.3132 19.2048 32.3336 15.6853 28.814C12.1658 25.2945 10.1861 20.5225 10.1807 15.5451C10.1752 14.1129 10.6912 12.7276 11.6323 11.648C12.5735 10.5684 13.8754 9.86831 15.295 9.67842C15.2944 9.68428 15.2944 9.69017 15.295 9.69602L18.375 16.5894L15.3434 20.218C15.3126 20.2534 15.2847 20.2912 15.2598 20.3309C15.0391 20.6696 14.9096 21.0596 14.8839 21.463C14.8582 21.8664 14.9372 22.2697 15.1131 22.6336C16.4419 25.3514 19.1802 28.0691 21.9273 29.3965C22.2939 29.5708 22.6995 29.647 23.1044 29.6177C23.5093 29.5884 23.8996 29.4546 24.2373 29.2293C24.275 29.2039 24.3112 29.1765 24.3458 29.1471L27.9113 26.1053L34.8047 29.1926C34.8047 29.1926 34.8165 29.1926 34.8209 29.1926C34.6333 30.6142 33.9342 31.9188 32.8544 32.8623C31.7746 33.8057 30.3881 34.3235 28.9541 34.3187Z" fill="#1A2736"/>
</g>
</svg>
