<svg width="24" height="24" viewBox="0 0 24 24" fill="none" xmlns="http://www.w3.org/2000/svg">
<g clip-path="url(#clip0_1971_123849)">
<path d="M22 18.8011V5.19885C22 3.4414 20.5613 2 18.801 2H5.19885C3.43863 2 2 3.4414 2 5.19885V18.8011C2 20.5613 3.43863 22 5.19885 22H18.801C20.5613 22 22 20.5613 22 18.8011ZM5.93624 9.90021H8.5363V18.255H5.93624V9.90021ZM8.7442 7.25013C8.7442 8.08173 8.07069 8.75811 7.23909 8.75811C6.40194 8.75811 5.73105 8.08173 5.73105 7.25013C5.73105 6.4213 6.40194 5.74496 7.23909 5.74496C8.07069 5.74496 8.7442 6.4213 8.7442 7.25013ZM18.2688 18.255H15.6742V14.194C15.6742 13.2238 15.6549 11.9764 14.3216 11.9764C12.9688 11.9764 12.7636 13.0325 12.7636 14.1219V18.255H10.1691V9.90021H12.6584V11.0423H12.6943C13.0408 10.3853 13.8891 9.69231 15.1532 9.69231C17.7838 9.69231 18.2688 11.422 18.2688 13.6729V18.255Z" fill="#91A0B0"/>
</g>
<defs>
<clipPath id="clip0_1971_123849">
<rect width="24" height="24" fill="white"/>
</clipPath>
</defs>
</svg>
