<svg width="21" height="16" viewBox="0 0 21 16" fill="none" xmlns="http://www.w3.org/2000/svg">
<path d="M20.3342 7.9477C20.3384 9.53534 19.8234 11.0808 18.8676 12.3485C18.8149 12.4186 18.749 12.4776 18.6736 12.5221C18.5981 12.5667 18.5147 12.5959 18.4279 12.6083C18.3412 12.6206 18.2529 12.6157 18.168 12.5938C18.0832 12.572 18.0034 12.5337 17.9334 12.481C17.8634 12.4284 17.8044 12.3625 17.7598 12.287C17.7153 12.2116 17.686 12.1281 17.6737 12.0414C17.6614 11.9546 17.6663 11.8663 17.6881 11.7815C17.7099 11.6966 17.7483 11.6169 17.8009 11.5469C18.5833 10.5104 19.0047 9.24628 19.0009 7.9477C19.0009 6.3564 18.3688 4.83027 17.2435 3.70506C16.1183 2.57984 14.5922 1.9477 13.0009 1.9477C11.4096 1.9477 9.88348 2.57984 8.75826 3.70506C7.63304 4.83027 7.0009 6.3564 7.0009 7.9477C7.0009 8.12451 6.93066 8.29408 6.80564 8.4191C6.68061 8.54413 6.51104 8.61436 6.33423 8.61436C6.15742 8.61436 5.98785 8.54413 5.86283 8.4191C5.7378 8.29408 5.66757 8.12451 5.66757 7.9477C5.66724 7.27493 5.75949 6.60531 5.94173 5.9577C5.8509 5.9477 5.75923 5.9477 5.66757 5.9477C4.6067 5.9477 3.58928 6.36912 2.83914 7.11927C2.08899 7.86941 1.66757 8.88683 1.66757 9.9477C1.66757 11.0086 2.08899 12.026 2.83914 12.7761C3.58928 13.5263 4.6067 13.9477 5.66757 13.9477H7.66757C7.84438 13.9477 8.01395 14.0179 8.13897 14.143C8.264 14.268 8.33423 14.4376 8.33423 14.6144C8.33423 14.7912 8.264 14.9607 8.13897 15.0858C8.01395 15.2108 7.84438 15.281 7.66757 15.281H5.66757C4.93438 15.2812 4.20903 15.1302 3.53683 14.8374C2.86462 14.5447 2.25999 14.1165 1.76071 13.5796C1.26143 13.0427 0.878213 12.4086 0.634998 11.7169C0.391783 11.0252 0.293793 10.2908 0.347149 9.55958C0.400505 8.82833 0.60406 8.11595 0.945101 7.4669C1.28614 6.81786 1.75734 6.24611 2.32928 5.78736C2.90121 5.3286 3.56159 4.9927 4.26917 4.80062C4.97675 4.60855 5.71634 4.56443 6.44173 4.67103C7.1804 3.19366 8.39619 2.00893 9.89217 1.30872C11.3882 0.60852 13.0767 0.43386 14.6843 0.813034C16.292 1.19221 17.7245 2.10301 18.7499 3.3979C19.7754 4.6928 20.3336 6.29596 20.3342 7.9477ZM14.5292 11.476L13.0009 13.0052V7.9477C13.0009 7.77089 12.9307 7.60132 12.8056 7.47629C12.6806 7.35127 12.511 7.28103 12.3342 7.28103C12.1574 7.28103 11.9879 7.35127 11.8628 7.47629C11.7378 7.60132 11.6676 7.77089 11.6676 7.9477V13.0052L10.1392 11.476C10.0141 11.3509 9.84448 11.2807 9.66757 11.2807C9.49066 11.2807 9.32099 11.3509 9.1959 11.476C9.07081 11.6011 9.00053 11.7708 9.00053 11.9477C9.00053 12.1246 9.07081 12.2943 9.1959 12.4194L11.8626 15.086C11.9245 15.148 11.998 15.1972 12.0789 15.2307C12.1599 15.2643 12.2466 15.2816 12.3342 15.2816C12.4218 15.2816 12.5086 15.2643 12.5895 15.2307C12.6705 15.1972 12.744 15.148 12.8059 15.086L15.4726 12.4194C15.5977 12.2943 15.6679 12.1246 15.6679 11.9477C15.6679 11.7708 15.5977 11.6011 15.4726 11.476C15.3475 11.3509 15.1778 11.2807 15.0009 11.2807C14.824 11.2807 14.6543 11.3509 14.5292 11.476Z" fill="#939598"/>
</svg>
