<svg width="69" height="69" viewBox="0 0 69 69" fill="none" xmlns="http://www.w3.org/2000/svg">
<g id="icon-food-scraps">
<path id="Union" fill-rule="evenodd" clip-rule="evenodd" d="M46.2849 11.7978C46.2499 11.7966 46.2149 11.7966 46.1799 11.7977C44.5835 11.8519 43.0672 12.5103 41.9378 13.6398C40.8083 14.7693 40.1499 16.2855 40.0957 17.882C40.095 17.9024 40.0947 17.9229 40.0949 17.9434C40.1021 19.0073 40.3931 20.04 40.9253 20.9406L35.8182 26.0477L34.5706 24.8002C34.0013 24.2309 33.0853 24.2091 32.4895 24.7506C32.3304 24.8953 32.1744 25.0378 32.0209 25.178C29.7181 27.2813 27.9957 28.8545 25.3296 28.9883C24.8201 29.0138 24.3581 29.2951 24.1016 29.736C23.845 30.1768 23.8286 30.7175 24.0581 31.173C24.7346 32.5164 24.4872 34.0733 23.69 35.1076C22.9457 36.0732 21.7752 36.543 20.3331 35.8955C19.8061 35.6588 19.1902 35.7439 18.7472 36.1147C18.3042 36.4855 18.1119 37.0767 18.252 37.6372C18.7236 39.5233 18.2108 40.5114 17.5989 40.9904C16.9017 41.536 15.586 41.8177 13.7806 41.2802C13.3242 41.1443 12.8304 41.2319 12.4486 41.5166C12.0668 41.8012 11.8419 42.2495 11.8419 42.7257C11.8419 42.8433 11.8401 42.9756 11.8381 43.1209C11.8225 44.265 11.7958 46.2164 12.5538 48.1639C13.3691 50.2585 14.6744 52.1273 16.3603 53.6138C18.0462 55.1003 20.0637 56.1612 22.2439 56.7078C24.4233 57.2542 26.7018 57.2707 28.8888 56.756C32.0394 56.0248 34.8365 54.2181 36.7987 51.647C38.7546 49.084 39.7589 45.9214 39.6404 42.7003C39.6469 41.6442 39.8692 40.6006 40.2939 39.6334C40.7224 38.6573 41.3477 37.7802 42.1306 37.0569C42.1699 37.0207 42.2071 36.9824 42.2423 36.9422L43.3993 35.62C43.9221 35.0224 43.8922 34.1217 43.3307 33.5603L42.6486 32.8782L47.6685 27.7416C48.0875 28.0064 48.5387 28.2204 49.0129 28.3778C49.9933 28.7033 51.04 28.7761 52.056 28.5893C53.0721 28.4024 54.0244 27.9621 54.8249 27.3092C55.6255 26.6562 56.2481 25.8117 56.6353 24.854C57.0225 23.8962 57.1616 22.8562 57.0398 21.8304C56.9179 20.8046 56.5391 19.8261 55.9383 18.9857C55.3375 18.1453 54.5343 17.4702 53.6032 17.0229C53.1042 16.7833 52.5772 16.6132 52.0368 16.5156C51.7851 15.4535 51.2525 14.4689 50.4829 13.6708C49.3791 12.5261 47.8741 11.8546 46.2849 11.7978ZM39.0499 33.5454C39.1256 33.7307 39.2397 33.9039 39.3919 34.0527C39.5354 34.1929 39.6998 34.2988 39.8747 34.3703L40.1999 34.6955L40.0229 34.8978C38.9635 35.8918 38.116 37.0901 37.5318 38.4208C36.9365 39.7768 36.6273 41.2411 36.6238 42.7221C36.6238 42.743 36.6241 42.7639 36.625 42.7848C36.7242 45.3162 35.9377 47.803 34.4007 49.8169C32.8638 51.8308 30.6727 53.2458 28.2048 53.8181L28.1998 53.8193C26.481 54.2241 24.6903 54.2113 22.9775 53.7819C21.2647 53.3525 19.6798 52.519 18.3553 51.3511C17.0308 50.1833 16.0054 48.7152 15.3649 47.0697C15.0306 46.2109 14.9115 45.3573 14.8716 44.5503C16.578 44.7002 18.2056 44.3462 19.4582 43.3657C20.7271 42.3725 21.3915 40.916 21.4449 39.2107C23.3434 39.2707 24.9995 38.3497 26.0791 36.9491C27.1667 35.5381 27.695 33.6193 27.3752 31.7154C29.9055 31.0675 31.8046 29.4679 33.4597 27.9553L34.7442 29.2398C34.7467 29.2423 34.7491 29.2448 34.7516 29.2473C34.7541 29.2497 34.7566 29.2522 34.7591 29.2547L39.0499 33.5454ZM40.5155 30.7451L46.4747 24.6473C46.7632 24.352 47.1602 24.188 47.573 24.1933C47.9858 24.1987 48.3784 24.3731 48.6591 24.6758C49.0163 25.0608 49.4649 25.3495 49.9634 25.515C50.4618 25.6805 50.994 25.7174 51.5105 25.6225C52.0271 25.5275 52.5113 25.3036 52.9183 24.9717C53.3252 24.6397 53.6418 24.2103 53.8387 23.7234C54.0355 23.2365 54.1062 22.7077 54.0443 22.1862C53.9823 21.6647 53.7897 21.1672 53.4843 20.7399C53.1789 20.3127 52.7705 19.9694 52.2971 19.742C51.8237 19.5147 51.3005 19.4105 50.7761 19.4391C50.3622 19.4617 49.9573 19.3131 49.6564 19.028C49.3555 18.7429 49.1852 18.3466 49.1855 17.9321C49.186 17.1237 48.8727 16.3466 48.3115 15.7647C47.7624 15.1953 47.0181 14.8562 46.2295 14.8147C45.4167 14.8554 44.6471 15.1964 44.0708 15.7728C43.4893 16.3543 43.1473 17.1325 43.1117 17.9533C43.1249 18.7237 43.4386 19.4591 43.9867 20.0019C44.2718 20.2842 44.4327 20.6686 44.4336 21.0699C44.4346 21.4711 44.2756 21.8563 43.9919 22.14L37.9512 28.1807L40.5155 30.7451Z" fill="#B8980A"/>
</g>
</svg>
