<svg width="14" height="14" viewBox="0 0 14 14" fill="none" xmlns="http://www.w3.org/2000/svg">
<g id="icon-radio-checked">
<path id="Exclude" fill-rule="evenodd" clip-rule="evenodd" d="M7.00033 12.8307C3.77866 12.8307 1.16699 10.2191 1.16699 6.9974C1.16699 3.77573 3.77866 1.16406 7.00033 1.16406C10.222 1.16406 12.8337 3.77573 12.8337 6.9974C12.8337 10.2191 10.222 12.8307 7.00033 12.8307ZM6.43513 9.19743L10.0837 5.57812C10.1832 5.47946 10.1838 5.31883 10.0852 5.21935L9.60874 4.73908C9.51008 4.63962 9.34946 4.63898 9.24999 4.73764L6.26176 7.70186L4.99774 6.42758C4.89907 6.3281 4.73845 6.32746 4.63898 6.42612L4.1587 6.90254C4.05921 7.00123 4.05858 7.16185 4.15724 7.26132L6.07638 9.196C6.17504 9.29546 6.33567 9.2961 6.43513 9.19743Z" fill="#D5172A"/>
</g>
</svg>
