<svg width="69" height="69" viewBox="0 0 69 69" fill="none" xmlns="http://www.w3.org/2000/svg">
<g id="icon-water">
<path id="Vector" d="M44.6193 19.8411C42.1194 16.954 39.3058 14.3542 36.2305 12.0899C35.9583 11.8992 35.634 11.7969 35.3016 11.7969C34.9692 11.7969 34.6449 11.8992 34.3727 12.0899C31.303 14.3552 28.4949 16.9549 26.0001 19.8411C20.4366 26.2304 17.5 32.9657 17.5 39.3205C17.5 44.0439 19.3764 48.5739 22.7163 51.9139C26.0563 55.2538 30.5863 57.1302 35.3097 57.1302C40.0331 57.1302 44.5631 55.2538 47.9031 51.9139C51.243 48.5739 53.1194 44.0439 53.1194 39.3205C53.1194 32.9657 50.1828 26.2304 44.6193 19.8411ZM35.3097 53.8921C31.4464 53.8878 27.7425 52.3512 25.0108 49.6194C22.279 46.8877 20.7424 43.1838 20.7381 39.3205C20.7381 27.7381 31.9643 18.0703 35.3097 15.4393C38.6551 18.0703 49.8813 27.7341 49.8813 39.3205C49.877 43.1838 48.3404 46.8877 45.6086 49.6194C42.8769 52.3512 39.173 53.8878 35.3097 53.8921ZM46.6209 41.2108C46.2011 43.5558 45.0728 45.7159 43.3881 47.4002C41.7034 49.0846 39.543 50.2124 37.1979 50.6317C37.1089 50.646 37.0189 50.6534 36.9288 50.654C36.5226 50.6539 36.1314 50.5011 35.8326 50.226C35.5338 49.951 35.3493 49.5737 35.3157 49.1689C35.2821 48.7642 35.4018 48.3616 35.6511 48.041C35.9004 47.7204 36.2611 47.5052 36.6616 47.4381C40.0151 46.8734 42.8606 44.0279 43.4293 40.6684C43.5012 40.2449 43.7384 39.8673 44.0888 39.6187C44.4391 39.3701 44.8738 39.2708 45.2973 39.3428C45.7208 39.4147 46.0984 39.6519 46.347 40.0022C46.5956 40.3525 46.6948 40.7873 46.6229 41.2108H46.6209Z" fill="#1A428A"/>
</g>
</svg>
