<svg width="48" height="48" viewBox="0 0 48 48" fill="none" xmlns="http://www.w3.org/2000/svg">
<g id="icon-account-settings">
<path id="Vector" d="M36.5313 15.8837L35.9488 15.5475C36.0171 15.1857 36.0171 14.8143 35.9488 14.4525L36.5313 14.1162C36.761 13.9836 36.9287 13.7652 36.9974 13.509C37.0661 13.2528 37.0301 12.9797 36.8975 12.75C36.7649 12.5203 36.5465 12.3526 36.2903 12.2839C36.034 12.2152 35.761 12.2511 35.5313 12.3837L34.9475 12.7212C34.6682 12.4816 34.347 12.2955 34 12.1725V11.5C34 11.2348 33.8947 10.9804 33.7071 10.7929C33.5196 10.6054 33.2652 10.5 33 10.5C32.7348 10.5 32.4805 10.6054 32.2929 10.7929C32.1054 10.9804 32 11.2348 32 11.5V12.1725C31.6531 12.2955 31.3319 12.4816 31.0525 12.7212L30.4688 12.3837C30.355 12.3181 30.2294 12.2755 30.0992 12.2583C29.969 12.2412 29.8367 12.2499 29.7098 12.2839C29.5829 12.3179 29.464 12.3766 29.3598 12.4566C29.2556 12.5365 29.1682 12.6362 29.1025 12.75C29.0369 12.8638 28.9943 12.9893 28.9771 13.1196C28.96 13.2498 28.9687 13.3821 29.0027 13.509C29.0367 13.6358 29.0954 13.7548 29.1753 13.859C29.2553 13.9632 29.355 14.0506 29.4688 14.1162L30.0513 14.4525C29.9829 14.8143 29.9829 15.1857 30.0513 15.5475L29.4688 15.8837C29.278 15.9938 29.1289 16.1637 29.0446 16.3671C28.9603 16.5705 28.9455 16.7961 29.0025 17.0088C29.0594 17.2215 29.185 17.4094 29.3598 17.5435C29.5345 17.6775 29.7486 17.7501 29.9688 17.75C30.1444 17.7505 30.3169 17.7044 30.4688 17.6162L31.0525 17.2787C31.3319 17.5184 31.6531 17.7045 32 17.8275V18.5C32 18.7652 32.1054 19.0196 32.2929 19.2071C32.4805 19.3946 32.7348 19.5 33 19.5C33.2652 19.5 33.5196 19.3946 33.7071 19.2071C33.8947 19.0196 34 18.7652 34 18.5V17.8275C34.347 17.7045 34.6682 17.5184 34.9475 17.2787L35.5313 17.6162C35.6831 17.7044 35.8557 17.7505 36.0313 17.75C36.2515 17.7501 36.4656 17.6775 36.6403 17.5435C36.815 17.4094 36.9406 17.2215 36.9976 17.0088C37.0546 16.7961 37.0398 16.5705 36.9555 16.3671C36.8711 16.1637 36.722 15.9938 36.5313 15.8837ZM32 15C32 14.8022 32.0587 14.6089 32.1686 14.4444C32.2784 14.28 32.4346 14.1518 32.6173 14.0761C32.8001 14.0004 33.0011 13.9806 33.1951 14.0192C33.3891 14.0578 33.5673 14.153 33.7071 14.2929C33.847 14.4327 33.9422 14.6109 33.9808 14.8049C34.0194 14.9989 33.9996 15.2 33.9239 15.3827C33.8482 15.5654 33.7201 15.7216 33.5556 15.8315C33.3912 15.9414 33.1978 16 33 16C32.7348 16 32.4805 15.8946 32.2929 15.7071C32.1054 15.5196 32 15.2652 32 15ZM35.6688 21.0137C35.4072 21.0575 35.1738 21.2034 35.0197 21.4193C34.8657 21.6352 34.8038 21.9034 34.8475 22.165C34.9491 22.7714 35.0001 23.3852 35 24C35.0024 26.6927 34.0127 29.292 32.22 31.3012C31.1047 29.6851 29.5365 28.4348 27.7125 27.7075C28.6923 26.9358 29.4072 25.878 29.7579 24.6811C30.1086 23.4843 30.0777 22.2079 29.6693 21.0294C29.2609 19.851 28.4955 18.8291 27.4795 18.1059C26.4634 17.3826 25.2472 16.994 24 16.994C22.7529 16.994 21.5367 17.3826 20.5206 18.1059C19.5046 18.8291 18.7391 19.851 18.3308 21.0294C17.9224 22.2079 17.8914 23.4843 18.2421 24.6811C18.5928 25.878 19.3078 26.9358 20.2875 27.7075C18.4636 28.4348 16.8953 29.6851 15.78 31.3012C14.3734 29.7162 13.4546 27.7586 13.1341 25.6638C12.8136 23.569 13.1049 21.4262 13.9732 19.4931C14.8415 17.5599 16.2497 15.9188 18.0284 14.7669C19.8072 13.615 21.8809 13.0014 24 13C24.6149 12.9999 25.2286 13.0509 25.835 13.1525C26.0954 13.1936 26.3615 13.1302 26.5754 12.9761C26.7893 12.822 26.9337 12.5897 26.9772 12.3297C27.0207 12.0697 26.9598 11.8031 26.8077 11.5878C26.6556 11.3725 26.4246 11.2259 26.165 11.18C23.4493 10.7231 20.6587 11.1412 18.1961 12.3737C15.7334 13.6063 13.7262 15.5896 12.4643 18.0372C11.2023 20.4849 10.7509 23.2703 11.1751 25.9913C11.5994 28.7123 12.8774 31.228 14.8247 33.1753C16.772 35.1226 19.2877 36.4006 22.0087 36.8249C24.7297 37.2492 27.5151 36.7977 29.9628 35.5358C32.4105 34.2738 34.3938 32.2666 35.6263 29.804C36.8589 27.3413 37.2769 24.5507 36.82 21.835C36.7763 21.5734 36.6304 21.34 36.4145 21.186C36.1986 21.0319 35.9304 20.97 35.6688 21.0137ZM20 23C20 22.2089 20.2346 21.4355 20.6742 20.7777C21.1137 20.1199 21.7384 19.6072 22.4693 19.3045C23.2002 19.0017 24.0045 18.9225 24.7804 19.0769C25.5563 19.2312 26.269 19.6122 26.8285 20.1716C27.3879 20.731 27.7688 21.4437 27.9232 22.2196C28.0775 22.9956 27.9983 23.7998 27.6956 24.5307C27.3928 25.2616 26.8801 25.8864 26.2223 26.3259C25.5645 26.7654 24.7912 27 24 27C22.9392 27 21.9218 26.5786 21.1716 25.8284C20.4215 25.0783 20 24.0609 20 23ZM17.26 32.6875C17.9835 31.5561 18.98 30.625 20.1579 29.9801C21.3358 29.3351 22.6571 28.9971 24 28.9971C25.3429 28.9971 26.6642 29.3351 27.8421 29.9801C29.02 30.625 30.0166 31.5561 30.74 32.6875C28.813 34.1862 26.4413 34.9999 24 34.9999C21.5588 34.9999 19.1871 34.1862 17.26 32.6875Z" fill="#D5172A"/>
</g>
</svg>
