<svg width="24" height="24" viewBox="0 0 24 24" fill="none" xmlns="http://www.w3.org/2000/svg">
<g id="icon-food-donation">
<g id="Union">
<path d="M7.27414 7.31452C7.02785 7.18963 6.72695 7.28804 6.60206 7.53433C6.47717 7.78061 6.57558 8.08151 6.82187 8.2064L8.26469 8.93805C8.51098 9.06294 8.81188 8.96453 8.93677 8.71824C9.06166 8.47196 8.96325 8.17106 8.71696 8.04617L7.27414 7.31452Z" fill="#1A2736"/>
<path d="M7.39414 10.004C7.15045 9.87407 6.84761 9.96632 6.71772 10.21C6.58782 10.4537 6.68007 10.7565 6.92376 10.8864L8.34152 11.6421C8.58521 11.772 8.88805 11.6798 9.01795 11.4361C9.14784 11.1924 9.05559 10.8896 8.81191 10.7597L7.39414 10.004Z" fill="#1A2736"/>
<path fill-rule="evenodd" clip-rule="evenodd" d="M13.7588 5C13.7588 4.44771 14.2065 4 14.7588 4H17.577C18.1292 4 18.577 4.44772 18.577 5V6.15C18.577 6.42614 18.3531 6.65 18.077 6.65H17.7835V6.91685C18.1911 7.40385 18.515 8.01792 18.7418 8.70597C18.9933 9.46884 19.1227 10.3137 19.1224 11.1666V13.8622H19.4994C19.4995 13.8622 19.5 13.8622 19.5 14.3622V13.8622C19.7761 13.8622 20 14.086 20 14.3622V18.1588C20 18.6129 19.836 19.0566 19.5315 19.3905C19.2257 19.7259 18.8005 19.9243 18.3462 19.9243H5.65385C5.19953 19.9243 4.7743 19.7259 4.46847 19.3905C4.16405 19.0566 4 18.6129 4 18.1588V14.3622C4 14.086 4.22386 13.8622 4.5 13.8622H5.06335L5.0634 7.59255C5.07094 6.11596 6.2984 4.94367 7.78101 4.95001C9.26347 4.95634 10.4791 6.13883 10.4723 7.61513V9.00882H13.4845C13.4884 8.98916 13.4936 8.96952 13.5 8.95C13.7268 8.26195 14.1446 7.40385 14.5521 6.91685V6.65H14.2588C13.9826 6.65 13.7588 6.42614 13.7588 6.15V5ZM9.47228 9.01139V7.6114C9.47689 6.70853 8.72877 5.95407 7.77673 5.95C6.8248 5.94593 6.06867 6.69381 6.0634 7.59648L6.06339 7.59767L6.06335 13.8622H7.38745L6.86908 13.5993C6.6228 13.4744 6.52439 13.1735 6.64928 12.9272C6.77417 12.6809 7.07507 12.5825 7.32136 12.7074L8.76418 13.4391C8.93059 13.5235 9.02949 13.6882 9.03761 13.8622H9.31274V11.0088C9.31274 10.6445 9.41014 10.303 9.58031 10.0088H9.52332C9.24717 10.0088 9.02332 9.78496 9.02332 9.50882C9.02332 9.24991 9.22011 9.03696 9.47228 9.01139ZM10.3127 13.8622V12.2441H14.2338V13.8622H10.3127ZM15.2338 13.8622V11.0088C15.2338 10.6445 15.1364 10.303 14.9662 10.0088H15.0233C15.2995 10.0088 15.5233 9.78496 15.5233 9.50882C15.5233 9.23268 15.2995 9.00882 15.0233 9.00882H14.5403C14.7665 8.41584 15.1104 7.77829 15.419 7.44494C15.5046 7.35252 15.5521 7.23121 15.5521 7.10526V6.65H16.7836V7.10526C16.7836 7.23121 16.8311 7.35252 16.9166 7.44494C17.27 7.82667 17.5759 8.36325 17.7921 9.01906C18.0078 9.67331 18.1226 10.4115 18.1224 11.1663V13.8622H15.2338ZM17.577 5V5.65H14.7588V5L17.577 5ZM19 14.8622V18.1588C19 18.3759 18.9209 18.576 18.7926 18.7168C18.6656 18.856 18.5039 18.9243 18.3462 18.9243H5.65385C5.49613 18.9243 5.33438 18.856 5.20743 18.7168C5.07908 18.576 5 18.3759 5 18.1588V14.8622H19ZM11.3127 10.0088C10.7605 10.0088 10.3127 10.4565 10.3127 11.0088V11.2441H14.2338V11.0088C14.2338 10.4565 13.7861 10.0088 13.2338 10.0088H11.3127Z" fill="#1A2736"/>
</g>
</g>
</svg>
