<svg width="40" height="40" viewBox="0 0 40 40" fill="none" xmlns="http://www.w3.org/2000/svg">
<g id="icon-request-service">
<g id="Union">
<path d="M22.6845 12.5652C23.1501 12.5652 23.5275 12.1878 23.5275 11.7222C23.5275 11.2566 23.1501 10.8792 22.6845 10.8792C22.2189 10.8792 21.8414 11.2566 21.8414 11.7222C21.8414 12.1878 22.2189 12.5652 22.6845 12.5652Z" fill="#D5172A"/>
<path d="M27.1321 11.7222C27.1321 12.1878 26.7547 12.5652 26.2891 12.5652C25.8235 12.5652 25.4461 12.1878 25.4461 11.7222C25.4461 11.2566 25.8235 10.8792 26.2891 10.8792C26.7547 10.8792 27.1321 11.2566 27.1321 11.7222Z" fill="#D5172A"/>
<path d="M29.8937 12.5652C30.3593 12.5652 30.7367 12.1878 30.7367 11.7222C30.7367 11.2566 30.3593 10.8792 29.8937 10.8792C29.4281 10.8792 29.0507 11.2566 29.0507 11.7222C29.0507 12.1878 29.4281 12.5652 29.8937 12.5652Z" fill="#D5172A"/>
<path fill-rule="evenodd" clip-rule="evenodd" d="M18.4694 9.19312C18.4694 7.79636 19.6017 6.66406 20.9984 6.66406H31.1147C32.5114 6.66406 33.6437 7.79636 33.6437 9.19312V13.8297C33.6437 15.2265 32.5114 16.3588 31.1147 16.3588H26.5546C26.3966 16.3588 26.2418 16.4032 26.1078 16.4869L22.9132 18.4835C22.6534 18.646 22.3258 18.6546 22.0578 18.506C21.7897 18.3574 21.6234 18.0751 21.6234 17.7687V16.3588H20.9984C19.6017 16.3588 18.4694 15.2265 18.4694 13.8297V9.19312ZM20.9984 8.3501C20.5328 8.3501 20.1554 8.72753 20.1554 9.19312V13.8297C20.1554 14.2953 20.5328 14.6727 20.9984 14.6727H22.4664C22.932 14.6727 23.3095 15.0502 23.3095 15.5158V16.2476L25.2142 15.0572C25.6162 14.8059 26.0806 14.6727 26.5546 14.6727H31.1147C31.5802 14.6727 31.9577 14.2953 31.9577 13.8297V9.19312C31.9577 8.72753 31.5802 8.3501 31.1147 8.3501H20.9984Z" fill="#D5172A"/>
<path fill-rule="evenodd" clip-rule="evenodd" d="M15.0972 15.8307C12.1783 15.8307 9.81208 18.197 9.81208 21.1159C9.81208 24.0348 12.1783 26.401 15.0972 26.401C18.0161 26.401 20.3824 24.0348 20.3824 21.1159C20.3824 18.197 18.0161 15.8307 15.0972 15.8307ZM11.4981 21.1159C11.4981 19.1281 13.1095 17.5168 15.0972 17.5168C17.085 17.5168 18.6963 19.1281 18.6963 21.1159C18.6963 23.1036 17.085 24.715 15.0972 24.715C13.1095 24.715 11.4981 23.1036 11.4981 21.1159Z" fill="#D5172A"/>
<path d="M11.159 30.099C12.3617 29.4234 13.7179 29.0686 15.0973 29.0686C16.4767 29.0686 17.8329 29.4234 19.0356 30.099C20.2382 30.7746 21.2469 31.7482 21.9645 32.9262C22.2068 33.3238 22.7255 33.4498 23.1231 33.2075C23.5207 32.9653 23.6466 32.4466 23.4044 32.049C22.5363 30.624 21.3161 29.4462 19.8613 28.629C18.4065 27.8118 16.7659 27.3825 15.0973 27.3825C13.4287 27.3825 11.7881 27.8118 10.3333 28.629C8.87846 29.4462 7.65834 30.624 6.79019 32.049C6.54796 32.4466 6.67392 32.9653 7.07153 33.2075C7.46914 33.4498 7.98784 33.3238 8.23007 32.9262C8.94774 31.7482 9.95638 30.7746 11.159 30.099Z" fill="#D5172A"/>
</g>
</g>
</svg>
