<svg width="24" height="24" viewBox="0 0 24 24" fill="none" xmlns="http://www.w3.org/2000/svg">
<path d="M18.4324 16.6739C17.4805 15.0998 16.0137 13.9711 14.3018 13.4361C15.1486 12.9539 15.8065 12.2192 16.1744 11.3448C16.5424 10.4703 16.6001 9.50455 16.3387 8.5957C16.0773 7.68686 15.5112 6.88523 14.7274 6.3139C13.9436 5.74258 12.9854 5.43316 11.9999 5.43316C11.0145 5.43316 10.0563 5.74258 9.27244 6.3139C8.48863 6.88523 7.92255 7.68686 7.66114 8.5957C7.39973 9.50455 7.45744 10.4703 7.82542 11.3448C8.19339 12.2192 8.85128 12.9539 9.69805 13.4361C7.98618 13.9705 6.5193 15.0992 5.56743 16.6739C5.53252 16.7284 5.50936 16.7889 5.49933 16.8521C5.4893 16.9152 5.49259 16.9796 5.509 17.0415C5.52542 17.1035 5.55463 17.1616 5.59492 17.2125C5.63521 17.2634 5.68575 17.3061 5.74357 17.3381C5.80138 17.37 5.8653 17.3906 5.93155 17.3985C5.99781 17.4064 6.06505 17.4016 6.12931 17.3843C6.19358 17.3669 6.25356 17.3375 6.30573 17.2976C6.3579 17.2578 6.40119 17.2083 6.43305 17.1522C7.61055 15.2057 9.6918 14.0435 11.9999 14.0435C14.3081 14.0435 16.3893 15.2057 17.5668 17.1522C17.5987 17.2083 17.642 17.2578 17.6941 17.2976C17.7463 17.3375 17.8063 17.3669 17.8705 17.3843C17.9348 17.4016 18.002 17.4064 18.0683 17.3985C18.1345 17.3906 18.1985 17.37 18.2563 17.3381C18.3141 17.3061 18.3646 17.2634 18.4049 17.2125C18.4452 17.1616 18.4744 17.1035 18.4908 17.0415C18.5073 16.9796 18.5106 16.9152 18.5005 16.8521C18.4905 16.7889 18.4673 16.7284 18.4324 16.6739ZM8.49993 9.73913C8.49993 9.077 8.7052 8.42973 9.08978 7.87918C9.47437 7.32863 10.021 6.89953 10.6605 6.64614C11.3001 6.39276 12.0038 6.32646 12.6827 6.45563C13.3617 6.58481 13.9853 6.90366 14.4748 7.37186C14.9643 7.84006 15.2976 8.43659 15.4327 9.086C15.5677 9.73542 15.4984 10.4086 15.2335 11.0203C14.9686 11.632 14.52 12.1549 13.9444 12.5227C13.3688 12.8906 12.6922 13.087 11.9999 13.087C11.072 13.086 10.1823 12.733 9.52615 12.1054C8.86999 11.4777 8.50092 10.6267 8.49993 9.73913Z" fill="white"/>
</svg>
