<svg width="24" height="24" viewBox="0 0 24 24" fill="none" xmlns="http://www.w3.org/2000/svg">
<g id="icon-card-discover">
<path id="Vector" d="M22.5 17.5C22.5 18.6 21.6 19.5 20.5 19.5H3.5C2.4 19.5 1.5 18.6 1.5 17.5V6.5C1.5 5.4 2.4 4.5 3.5 4.5H20.5C21.6 4.5 22.5 5.4 22.5 6.5V17.5Z" fill="#E1E7EA"/>
<path id="Vector_2" d="M22.5 17.5C22.5 18.6 21.6 19.5 20.5 19.5H8C8 19.5 19.8 17.6 22.5 12V17.5ZM11 12C11 12.85 11.65 13.5 12.5 13.5C13.35 13.5 14 12.85 14 12C14 11.15 13.35 10.5 12.5 10.5C11.65 10.5 11 11.15 11 12Z" fill="#FF6D00"/>
<path id="Vector_3" d="M5.6 10.5002H6.15V13.5002H5.6V10.5002ZM8.6 12.0002C8.6 12.8502 9.25 13.5002 10.1 13.5002C10.35 13.5002 10.55 13.4502 10.8 13.3502V12.7002C10.6 12.9002 10.4 13.0002 10.1 13.0002C9.55 13.0002 9.15 12.6002 9.15 12.0002C9.15 11.4502 9.55 11.0002 10.1 11.0002C10.35 11.0002 10.55 11.1002 10.8 11.3002V10.6502C10.55 10.5502 10.35 10.4502 10.1 10.4502C9.25 10.5002 8.6 11.2002 8.6 12.0002ZM15.3 12.4502L14.5 10.5002H13.9L15.15 13.5002H15.45L16.7 10.5002H16.1L15.3 12.4502ZM16.95 13.5002H18.55V13.0002H17.5V12.2002H18.5V11.7002H17.5V11.0002H18.55V10.5002H16.95V13.5002ZM20.75 11.4002C20.75 10.8502 20.4 10.5002 19.75 10.5002H18.9V13.5002H19.45V12.3002H19.5L20.3 13.5002H21L20.1 12.2502C20.5 12.1502 20.75 11.8502 20.75 11.4002ZM19.6 11.9002H19.45V11.0002H19.6C19.95 11.0002 20.15 11.1502 20.15 11.4502C20.15 11.7002 20 11.9002 19.6 11.9002ZM3.85 10.5002H3V13.5002H3.8C5.05 13.5002 5.35 12.4502 5.35 12.0002C5.4 11.1002 4.75 10.5002 3.85 10.5002ZM3.7 13.0002H3.55V11.0002H3.75C4.5 11.0002 4.8 11.5002 4.8 12.0002C4.8 12.2002 4.75 13.0002 3.7 13.0002ZM7.65 11.6502C7.3 11.5002 7.2 11.4502 7.2 11.3002C7.2 11.1002 7.4 11.0002 7.6 11.0002C7.75 11.0002 7.9 11.0502 8.05 11.2502L8.35 10.8502C8.1 10.6002 7.85 10.5002 7.5 10.5002C7 10.5002 6.6 10.8502 6.6 11.3502C6.6 11.7502 6.8 11.9502 7.3 12.1502C7.6 12.2502 7.85 12.3502 7.85 12.6002C7.85 12.8502 7.65 13.0002 7.4 13.0002C7.15 13.0002 6.9 12.8502 6.8 12.6002L6.45 12.9502C6.7 13.3502 7 13.5002 7.45 13.5002C8.05 13.5002 8.45 13.1002 8.45 12.5502C8.45 12.1002 8.25 11.9002 7.65 11.6502Z" fill="#1E0F00"/>
</g>
</svg>
