<svg width="24" height="24" viewBox="0 0 24 24" fill="none" xmlns="http://www.w3.org/2000/svg">
<g clip-path="url(#clip0_1996_54985)">
<path d="M17.8538 12.354L13.3538 16.854C13.2599 16.9478 13.1327 17.0006 13 17.0006C12.8673 17.0006 12.7401 16.9478 12.6462 16.854C12.5524 16.7602 12.4997 16.633 12.4997 16.5003C12.4997 16.3676 12.5524 16.2403 12.6462 16.1465L16.2931 12.5003H6.5C6.36739 12.5003 6.24021 12.4476 6.14645 12.3538C6.05268 12.2601 6 12.1329 6 12.0003C6 11.8677 6.05268 11.7405 6.14645 11.6467C6.24021 11.553 6.36739 11.5003 6.5 11.5003H16.2931L12.6462 7.85403C12.5524 7.76021 12.4997 7.63296 12.4997 7.50028C12.4997 7.3676 12.5524 7.24035 12.6462 7.14653C12.7401 7.05271 12.8673 7 13 7C13.1327 7 13.2599 7.05271 13.3538 7.14653L17.8538 11.6465C17.9002 11.693 17.9371 11.7481 17.9623 11.8088C17.9874 11.8695 18.0004 11.9346 18.0004 12.0003C18.0004 12.066 17.9874 12.131 17.9623 12.1917C17.9371 12.2524 17.9002 12.3076 17.8538 12.354Z" fill="#D5172A"/>
</g>
<defs>
<clipPath id="clip0_1996_54985">
<rect width="24" height="24" fill="white"/>
</clipPath>
</defs>
</svg>
