<svg width="24" height="24" viewBox="0 0 24 24" fill="none" xmlns="http://www.w3.org/2000/svg">
<g id="icon-external">
<path id="Vector" d="M20 10C20 10.1768 19.9298 10.3464 19.8047 10.4714C19.6797 10.5964 19.5101 10.6667 19.3333 10.6667C19.1565 10.6667 18.987 10.5964 18.8619 10.4714C18.7369 10.3464 18.6667 10.1768 18.6667 10V6.27667L13.1392 11.805C13.0141 11.9301 12.8444 12.0004 12.6675 12.0004C12.4906 12.0004 12.3209 11.9301 12.1958 11.805C12.0707 11.6799 12.0005 11.5102 12.0005 11.3333C12.0005 11.1564 12.0707 10.9868 12.1958 10.8617L17.7233 5.33333H14C13.8232 5.33333 13.6536 5.2631 13.5286 5.13807C13.4036 5.01305 13.3333 4.84348 13.3333 4.66667C13.3333 4.48986 13.4036 4.32029 13.5286 4.19526C13.6536 4.07024 13.8232 4 14 4L19.3333 4C19.5101 4 19.6797 4.07024 19.8047 4.19526C19.9298 4.32029 20 4.48986 20 4.66667V10ZM16.6667 12C16.4899 12 16.3203 12.0702 16.1953 12.1953C16.0702 12.3203 16 12.4899 16 12.6667V18.6667H5.33333L5.33333 8H11.3333C11.5101 8 11.6797 7.92976 11.8047 7.80474C11.9298 7.67971 12 7.51014 12 7.33333C12 7.15652 11.9298 6.98695 11.8047 6.86193C11.6797 6.7369 11.5101 6.66667 11.3333 6.66667L5.33333 6.66667C4.97971 6.66667 4.64057 6.80714 4.39052 7.05719C4.14048 7.30724 4 7.64638 4 8L4 18.6667C4 19.0203 4.14048 19.3594 4.39052 19.6095C4.64057 19.8595 4.97971 20 5.33333 20H16C16.3536 20 16.6928 19.8595 16.9428 19.6095C17.1929 19.3594 17.3333 19.0203 17.3333 18.6667V12.6667C17.3333 12.4899 17.2631 12.3203 17.1381 12.1953C17.013 12.0702 16.8435 12 16.6667 12Z" fill="white"/>
</g>
</svg>
