<svg xmlns="http://www.w3.org/2000/svg" width="26" height="27" viewBox="0 0 26 27" fill="none">
  <path d="M12.9997 4.66675C11.2856 4.66675 9.60996 5.17504 8.18474 6.12734C6.75951 7.07965 5.64868 8.4332 4.99272 10.0168C4.33676 11.6004 4.16513 13.343 4.49954 15.0242C4.83394 16.7054 5.65936 18.2496 6.87142 19.4617C8.08347 20.6737 9.62773 21.4991 11.3089 21.8335C12.9901 22.168 14.7326 21.9963 16.3163 21.3404C17.8999 20.6844 19.2534 19.5736 20.2057 18.1484C21.158 16.7231 21.6663 15.0475 21.6663 13.3334C21.6639 11.0356 20.75 8.83262 19.1253 7.20783C17.5005 5.58305 15.2975 4.66917 12.9997 4.66675ZM16.138 15.5284C16.1999 15.5904 16.2491 15.6639 16.2826 15.7448C16.3161 15.8257 16.3334 15.9125 16.3334 16.0001C16.3334 16.0877 16.3161 16.1744 16.2826 16.2553C16.2491 16.3363 16.1999 16.4098 16.138 16.4717C16.0761 16.5337 16.0025 16.5828 15.9216 16.6163C15.8407 16.6499 15.7539 16.6671 15.6663 16.6671C15.5787 16.6671 15.492 16.6499 15.4111 16.6163C15.3301 16.5828 15.2566 16.5337 15.1947 16.4717L12.9997 14.2759L10.8047 16.4717C10.7427 16.5337 10.6692 16.5828 10.5883 16.6163C10.5073 16.6499 10.4206 16.6671 10.333 16.6671C10.2454 16.6671 10.1587 16.6499 10.0777 16.6163C9.99682 16.5828 9.92328 16.5337 9.86134 16.4717C9.7994 16.4098 9.75027 16.3363 9.71675 16.2553C9.68323 16.1744 9.66597 16.0877 9.66597 16.0001C9.66597 15.9125 9.68323 15.8257 9.71675 15.7448C9.75027 15.6639 9.7994 15.5904 9.86134 15.5284L12.0572 13.3334L9.86134 11.1384C9.73625 11.0133 9.66597 10.8437 9.66597 10.6667C9.66597 10.4898 9.73625 10.3202 9.86134 10.1951C9.98644 10.07 10.1561 9.99971 10.333 9.99971C10.5099 9.99971 10.6796 10.07 10.8047 10.1951L12.9997 12.3909L15.1947 10.1951C15.2566 10.1331 15.3301 10.084 15.4111 10.0505C15.492 10.017 15.5787 9.99971 15.6663 9.99971C15.7539 9.99971 15.8407 10.017 15.9216 10.0505C16.0025 10.084 16.0761 10.1331 16.138 10.1951C16.1999 10.257 16.2491 10.3306 16.2826 10.4115C16.3161 10.4924 16.3334 10.5791 16.3334 10.6667C16.3334 10.7543 16.3161 10.8411 16.2826 10.922C16.2491 11.0029 16.1999 11.0765 16.138 11.1384L13.9422 13.3334L16.138 15.5284Z" fill="#D5172A"/>
</svg>