<svg width="26" height="26" viewBox="0 0 26 26" fill="none" xmlns="http://www.w3.org/2000/svg">
<g clip-path="url(#clip0_2463_115258)">
<g>
<path d="M12.0417 20.5208C12.0417 20.7142 11.9648 20.8997 11.8281 21.0364C11.6914 21.1732 11.5059 21.25 11.3125 21.25H6.20833C5.82156 21.25 5.45063 21.0964 5.17714 20.8229C4.90365 20.5494 4.75 20.1784 4.75 19.7917V5.20833C4.75 4.82156 4.90365 4.45063 5.17714 4.17714C5.45063 3.90365 5.82156 3.75 6.20833 3.75H11.3125C11.5059 3.75 11.6914 3.82682 11.8281 3.96357C11.9648 4.10031 12.0417 4.28578 12.0417 4.47917C12.0417 4.67255 11.9648 4.85802 11.8281 4.99477C11.6914 5.13151 11.5059 5.20833 11.3125 5.20833H6.20833V19.7917H11.3125C11.5059 19.7917 11.6914 19.8685 11.8281 20.0052C11.9648 20.142 12.0417 20.3274 12.0417 20.5208ZM22.0367 11.9841L18.3909 8.33828C18.2541 8.20146 18.0685 8.12459 17.875 8.12459C17.6815 8.12459 17.4959 8.20146 17.3591 8.33828C17.2223 8.4751 17.1454 8.66067 17.1454 8.85417C17.1454 9.04766 17.2223 9.23323 17.3591 9.37005L19.7608 11.7708H11.3125C11.1191 11.7708 10.9336 11.8477 10.7969 11.9844C10.6602 12.1211 10.5833 12.3066 10.5833 12.5C10.5833 12.6934 10.6602 12.8789 10.7969 13.0156C10.9336 13.1523 11.1191 13.2292 11.3125 13.2292H19.7608L17.3591 15.6299C17.2223 15.7668 17.1454 15.9523 17.1454 16.1458C17.1454 16.3393 17.2223 16.5249 17.3591 16.6617C17.4959 16.7985 17.6815 16.8754 17.875 16.8754C18.0685 16.8754 18.2541 16.7985 18.3909 16.6617L22.0367 13.0159C22.1045 12.9482 22.1583 12.8677 22.195 12.7792C22.2317 12.6907 22.2506 12.5958 22.2506 12.5C22.2506 12.4042 22.2317 12.3093 22.195 12.2208C22.1583 12.1323 22.1045 12.0518 22.0367 11.9841Z" fill="#1A2736"/>
</g>
</g>
<defs>
<filter id="filter0_d_2463_115258" x="-4" y="-5" width="35" height="36" filterUnits="userSpaceOnUse" color-interpolation-filters="sRGB">
<feFlood flood-opacity="0" result="BackgroundImageFix"/>
<feColorMatrix in="SourceAlpha" type="matrix" values="0 0 0 0 0 0 0 0 0 0 0 0 0 0 0 0 0 0 127 0" result="hardAlpha"/>
<feOffset dy="1"/>
<feComposite in2="hardAlpha" operator="out"/>
<feColorMatrix type="matrix" values="0 0 0 0 0.541176 0 0 0 0 0.0588235 0 0 0 0 0.105882 0 0 0 1 0"/>
<feBlend mode="normal" in2="BackgroundImageFix" result="effect1_dropShadow_2463_115258"/>
<feBlend mode="normal" in="SourceGraphic" in2="effect1_dropShadow_2463_115258" result="shape"/>
</filter>
<clipPath id="clip0_2463_115258">
<rect width="26" height="26" fill="white"/>
</clipPath>
</defs>
</svg>
