<svg width="49" height="48" viewBox="0 0 49 48" fill="none" xmlns="http://www.w3.org/2000/svg">
<g id="icon-bill-wettings">
<g id="Vector">
<path fill-rule="evenodd" clip-rule="evenodd" d="M41.0329 17.3837L40.4504 17.0475C40.5187 16.6857 40.5187 16.3143 40.4504 15.9525L41.0329 15.6162C41.2626 15.4836 41.4303 15.2652 41.499 15.009C41.5677 14.7528 41.5317 14.4797 41.3991 14.25C41.2665 14.0203 41.0481 13.8526 40.7919 13.7839C40.5356 13.7152 40.2626 13.7511 40.0329 13.8837L39.4491 14.2212C39.1698 13.9816 38.8486 13.7955 38.5016 13.6725V13C38.5016 12.7348 38.3963 12.4804 38.2087 12.2929C38.0212 12.1054 37.7669 12 37.5016 12C37.2364 12 36.9821 12.1054 36.7945 12.2929C36.607 12.4804 36.5016 12.7348 36.5016 13V13.6725C36.1547 13.7955 35.8335 13.9816 35.5541 14.2212L34.9704 13.8837C34.8566 13.8181 34.7311 13.7755 34.6008 13.7583C34.4706 13.7412 34.3383 13.7499 34.2114 13.7839C34.0845 13.8179 33.9656 13.8766 33.8614 13.9566C33.7572 14.0365 33.6698 14.1362 33.6041 14.25C33.5385 14.3638 33.4959 14.4893 33.4787 14.6196C33.4616 14.7498 33.4703 14.8821 33.5043 15.009C33.5383 15.1358 33.597 15.2548 33.677 15.359C33.7569 15.4632 33.8566 15.5506 33.9704 15.6162L34.5529 15.9525C34.4846 16.3143 34.4846 16.6857 34.5529 17.0475L33.9704 17.3837C33.7796 17.4938 33.6305 17.6637 33.5462 17.8671C33.4619 18.0705 33.4471 18.2961 33.5041 18.5088C33.5611 18.7215 33.6867 18.9094 33.8614 19.0435C34.0361 19.1775 34.2502 19.2501 34.4704 19.25C34.646 19.2505 34.8185 19.2044 34.9704 19.1162L35.5541 18.7787C35.8335 19.0184 36.1547 19.2045 36.5016 19.3275V20C36.5016 20.2652 36.607 20.5196 36.7945 20.7071C36.9821 20.8946 37.2364 21 37.5016 21C37.7669 21 38.0212 20.8946 38.2087 20.7071C38.3963 20.5196 38.5016 20.2652 38.5016 20V19.3275C38.8486 19.2045 39.1698 19.0184 39.4491 18.7787L40.0329 19.1162C40.1847 19.2044 40.3573 19.2505 40.5329 19.25C40.7531 19.2501 40.9672 19.1775 41.1419 19.0435C41.3166 18.9094 41.4422 18.7215 41.4992 18.5088C41.5562 18.2961 41.5414 18.0705 41.4571 17.8671C41.3727 17.6637 41.2236 17.4938 41.0329 17.3837ZM36.5017 16.5C36.5017 16.3022 36.5604 16.1089 36.6703 15.9444C36.7801 15.78 36.9363 15.6518 37.1191 15.5761C37.3018 15.5004 37.5028 15.4806 37.6968 15.5192C37.8908 15.5578 38.069 15.653 38.2088 15.7929C38.3487 15.9327 38.4439 16.1109 38.4825 16.3049C38.5211 16.4989 38.5013 16.7 38.4256 16.8827C38.3499 17.0654 38.2218 17.2216 38.0573 17.3315C37.8929 17.4414 37.6995 17.5 37.5017 17.5C37.2365 17.5 36.9822 17.3946 36.7946 17.2071C36.6071 17.0196 36.5017 16.7652 36.5017 16.5Z" fill="#D5172A"/>
<path d="M36.5 25V33.3825L33.9475 32.105C33.8086 32.0355 33.6554 31.9993 33.5 31.9993C33.3446 31.9993 33.1914 32.0355 33.0525 32.105L29.5 33.8825L25.9475 32.105C25.8086 32.0355 25.6554 31.9993 25.5 31.9993C25.3446 31.9993 25.1914 32.0355 25.0525 32.105L21.5 33.8825L17.9475 32.105C17.8086 32.0355 17.6554 31.9993 17.5 31.9993C17.3446 31.9993 17.1914 32.0355 17.0525 32.105L14.5 33.3825V16H29.5C29.5 16 30.5 16 30.5 15C30.5 14 29.5 14 29.5 14H14.5C13.9696 14 13.4609 14.2107 13.0858 14.5858C12.7107 14.9609 12.5 15.4696 12.5 16V35C12.5001 35.1704 12.5437 35.338 12.6268 35.4868C12.7099 35.6357 12.8296 35.7608 12.9746 35.8503C13.1197 35.9399 13.2852 35.9909 13.4554 35.9985C13.6257 36.0061 13.7951 35.97 13.9475 35.8937L17.5 34.1175L21.0525 35.8937C21.1914 35.9633 21.3446 35.9995 21.5 35.9995C21.6554 35.9995 21.8086 35.9633 21.9475 35.8937L25.5 34.1175L29.0525 35.8937C29.1914 35.9633 29.3446 35.9995 29.5 35.9995C29.6554 35.9995 29.8086 35.9633 29.9475 35.8937L33.5 34.1175L37.0525 35.8937C37.2049 35.97 37.3743 36.0061 37.5446 35.9985C37.7148 35.9909 37.8803 35.9399 38.0254 35.8503C38.1704 35.7608 38.2901 35.6357 38.3732 35.4868C38.4563 35.338 38.4999 35.1704 38.5 35V25C38.5 25 38.5 24 37.5 24C36.5 24 36.5 25 36.5 25Z" fill="#D5172A"/>
<path d="M18.5 22C18.5 21.7348 18.6054 21.4804 18.7929 21.2929C18.9804 21.1054 19.2348 21 19.5 21H31.5C31.7652 21 32.0196 21.1054 32.2071 21.2929C32.3946 21.4804 32.5 21.7348 32.5 22C32.5 22.2652 32.3946 22.5196 32.2071 22.7071C32.0196 22.8946 31.7652 23 31.5 23H19.5C19.2348 23 18.9804 22.8946 18.7929 22.7071C18.6054 22.5196 18.5 22.2652 18.5 22Z" fill="#D5172A"/>
<path d="M19.5 27H31.5C31.7652 27 32.0196 26.8946 32.2071 26.7071C32.3946 26.5196 32.5 26.2652 32.5 26C32.5 25.7348 32.3946 25.4804 32.2071 25.2929C32.0196 25.1054 31.7652 25 31.5 25H19.5C19.2348 25 18.9804 25.1054 18.7929 25.2929C18.6054 25.4804 18.5 25.7348 18.5 26C18.5 26.2652 18.6054 26.5196 18.7929 26.7071C18.9804 26.8946 19.2348 27 19.5 27Z" fill="#D5172A"/>
</g>
</g>
</svg>
