<svg width="24" height="24" viewBox="0 0 24 24" fill="none" xmlns="http://www.w3.org/2000/svg">
<g id="icon-office-ideas">
<g id="Union">
<path fill-rule="evenodd" clip-rule="evenodd" d="M7.99997 6C7.17155 6 6.49998 6.67157 6.49998 7.49999V7.99999H5.36166C5.06073 7.99999 4.76349 8.06183 4.52317 8.18579C4.3085 8.29651 4 8.53844 4 8.94442V12.0555C4 12.2914 4.16485 12.4952 4.39552 12.5445L4.53197 12.5736C4.5113 12.6285 4.5 12.6879 4.5 12.7499V15.4783C4.5 16.2303 5.10963 16.8399 5.86165 16.8399H12.4999C12.7761 16.8399 12.9999 16.6161 12.9999 16.3399C12.9999 16.0638 12.7761 15.8399 12.4999 15.8399H5.86165C5.66191 15.8399 5.49999 15.678 5.49999 15.4783V12.7805L7.64549 13.2389C7.91554 13.2966 8.18123 13.1245 8.23893 12.8544C8.29663 12.5844 8.1245 12.3187 7.85445 12.261L4.99999 11.6511V9.06564C5.07483 9.03182 5.20075 8.99998 5.36166 8.99998H13.4999C13.7761 8.99998 13.9999 8.77612 13.9999 8.49998C13.9999 8.22384 13.7761 7.99999 13.4999 7.99999V7.49999C13.4999 6.67157 12.8284 6 11.9999 6H7.99997ZM12.4999 7.99999V7.49999C12.4999 7.22385 12.2761 6.99999 11.9999 6.99999H7.99997C7.72383 6.99999 7.49997 7.22385 7.49997 7.49999V7.99999H12.4999Z" fill="#1A2736"/>
<path d="M15.4329 7.24999C15.179 7.24999 14.993 7.46429 15.0022 7.70225L15.0261 8.32042C15.0348 8.54536 15.223 8.70821 15.4329 8.70821C15.6428 8.70821 15.831 8.54536 15.8397 8.32042L15.8636 7.70225C15.8728 7.46429 15.6868 7.24999 15.4329 7.24999Z" fill="#1A2736"/>
<path d="M18.6858 8.75207C18.4996 8.54361 18.1835 8.56733 18.0171 8.76874L17.6643 9.19573C17.5301 9.35825 17.5443 9.58868 17.679 9.73681C17.833 9.90619 18.1083 9.92712 18.2809 9.75159L18.6691 9.35659C18.8286 9.19424 18.8446 8.92994 18.6858 8.75207Z" fill="#1A2736"/>
<path d="M20 12.2911C20 12.0269 19.7765 11.8305 19.5254 11.8425L19.039 11.8657C18.8068 11.8768 18.6366 12.071 18.6366 12.2911C18.6366 12.5112 18.8068 12.7055 19.039 12.7165L19.5254 12.7397C19.7765 12.7517 20 12.5553 20 12.2911Z" fill="#1A2736"/>
<path fill-rule="evenodd" clip-rule="evenodd" d="M8.99996 11.5C8.72382 11.5 8.49997 11.7238 8.49997 12V13.9999C8.49997 14.2761 8.72382 14.4999 8.99996 14.4999H10.9999C11.2761 14.4999 11.4999 14.2761 11.4999 13.9999V12C11.4999 11.7238 11.2761 11.5 10.9999 11.5H8.99996ZM9.49996 13.4999V12.5H10.5V13.4999H9.49996Z" fill="#1A2736"/>
<path fill-rule="evenodd" clip-rule="evenodd" d="M15.4438 9.36421C15.9632 9.35321 16.4729 9.49505 16.9194 9.77072C17.3655 10.0461 17.7304 10.4436 17.981 10.9173C18.2314 11.3907 18.3602 11.9256 18.3569 12.4672C18.3547 13.0294 18.2096 13.5824 17.9346 14.0647C17.7115 14.4559 17.4087 14.7899 17.0474 15.0399V16.0538C17.0474 16.2485 16.9773 16.4434 16.8401 16.5938C16.7015 16.7457 16.5031 16.8408 16.2855 16.8408H14.7141C14.4965 16.8408 14.2982 16.7457 14.1596 16.5938C14.0224 16.4434 13.9522 16.2485 13.9522 16.0538V15.039C13.6074 14.7994 13.3157 14.4832 13.0958 14.1136C12.8224 13.6542 12.6681 13.1265 12.6456 12.5852C12.6231 12.0439 12.733 11.5041 12.9663 11.021C13.1997 10.5377 13.5498 10.1258 13.9849 9.83228C14.4206 9.53847 14.9244 9.37521 15.4438 9.36421ZM16.3941 10.6216C16.1075 10.4446 15.7868 10.3572 15.4649 10.364C15.143 10.3708 14.8251 10.4718 14.5441 10.6614C14.2626 10.8512 14.0271 11.124 13.8668 11.4559C13.7065 11.7878 13.629 12.1637 13.6448 12.5437C13.6606 12.9237 13.7689 13.2892 13.9552 13.6023C14.1413 13.9151 14.3969 14.1617 14.6911 14.3217C14.852 14.4092 14.9522 14.5777 14.9522 14.7609V15.8408H16.0474V14.7609C16.0474 14.5772 16.1482 14.4082 16.3099 14.321C16.615 14.1562 16.8785 13.8979 17.0659 13.5693C17.2535 13.2404 17.3554 12.8571 17.3569 12.4628L17.357 12.4615C17.3594 12.0811 17.2686 11.7092 17.0971 11.385C16.9256 11.0608 16.6813 10.7989 16.3941 10.6216Z" fill="#1A2736"/>
<path d="M14.5178 17.1483C14.2416 17.1483 14.0178 17.3721 14.0178 17.6483C14.0178 17.9244 14.2416 18.1483 14.5178 18.1483H16.482C16.7582 18.1483 16.982 17.9244 16.982 17.6483C16.982 17.3721 16.7582 17.1483 16.482 17.1483H14.5178Z" fill="#1A2736"/>
</g>
</g>
</svg>
