<svg width="69" height="69" viewBox="0 0 69 69" fill="none" xmlns="http://www.w3.org/2000/svg">
<g id="icon-compostable">
<g id="Union">
<path fill-rule="evenodd" clip-rule="evenodd" d="M32.119 17.9968C31.5502 17.7124 30.8585 17.943 30.5741 18.5118C30.2897 19.0806 30.5203 19.7723 31.0891 20.0567C31.206 20.1152 31.4189 20.2779 31.688 20.607C31.9461 20.9227 32.2101 21.3353 32.4474 21.811C32.8343 22.5866 33.1107 23.4491 33.205 24.2267C32.1397 23.6161 30.9708 23.2076 29.7561 23.0234C28.3766 22.8143 26.9692 22.8992 25.6244 23.2726C24.2795 23.6459 23.0275 24.2993 21.9484 25.1901C21.6691 25.4207 21.5145 25.7693 21.5312 26.1311C21.5478 26.4908 21.7323 26.8224 22.0286 27.0267L22.0487 27.0413C22.07 27.057 22.1066 27.0847 22.1564 27.1248C22.2561 27.2049 22.4081 27.3342 22.5954 27.5155C22.9701 27.8784 23.4843 28.4479 24.003 29.248C25.0344 30.8387 26.1053 33.372 26.1053 37.0739C26.1053 40.7762 25.0341 43.3374 23.999 44.9566C23.4786 45.7706 22.9627 46.3536 22.5861 46.7265C22.3979 46.9129 22.245 47.0463 22.1446 47.1293C22.0944 47.1708 22.0574 47.1996 22.0357 47.2161L22.0156 47.2311L22.0141 47.2322C21.5672 47.5501 21.4062 48.1394 21.6303 48.6406L21.6317 48.6439L21.6343 48.6496L21.6726 48.7328C21.6981 48.7873 21.7347 48.8643 21.7813 48.9591C21.8742 49.1482 22.0083 49.4104 22.1746 49.7074C22.4986 50.2857 22.9801 51.0595 23.5527 51.6725C23.567 51.6878 23.5817 51.7027 23.5968 51.7172C24.8224 52.8937 26.4235 53.5935 28.1152 53.6886C29.8046 53.7836 31.4708 53.2691 32.8176 52.2394C33.2689 51.9032 33.8129 51.7229 34.3702 51.7229C34.9223 51.7229 35.4614 51.8998 35.9102 52.2301C37.2028 53.2783 38.8215 53.8339 40.4822 53.796C42.1522 53.7579 43.7527 53.1222 45 52.0049C45.0104 51.9956 45.0206 51.9861 45.0307 51.9764C45.0387 51.9686 45.0467 51.9607 45.0546 51.9527C45.4298 51.5694 45.8329 51.0552 46.1237 50.6669C46.2736 50.4668 46.4022 50.2885 46.4936 50.1599L46.5597 50.0664L46.6016 50.0066L46.6313 49.9638L46.6395 49.9519L46.643 49.9468C46.9717 49.4679 46.8918 48.8188 46.4574 48.4333L46.4514 48.4278L46.415 48.3944C46.381 48.3628 46.3283 48.313 46.2594 48.2455C46.1215 48.1105 45.9194 47.9053 45.6743 47.6349C45.1835 47.0934 44.5252 46.296 43.8669 45.2839C42.5449 43.2514 41.2611 40.4138 41.2611 37.0739C41.2611 33.7448 42.5372 31.1266 43.8363 29.3216C44.4853 28.4198 45.134 27.7301 45.6166 27.269C45.8575 27.0389 46.0556 26.8671 46.1898 26.7555C46.2569 26.6997 46.3079 26.6591 46.3401 26.6339L46.374 26.6078L46.3783 26.6045L46.3796 26.6035C46.6687 26.3891 46.841 26.0518 46.8451 25.6918C46.8492 25.3309 46.6839 24.989 46.3986 24.7681C45.3395 23.9482 44.1207 23.3631 42.8214 23.0515C41.522 22.74 40.1722 22.7093 38.8603 22.9614C38.5699 23.0172 38.2829 23.0866 38.0001 23.1692L38.8603 22.9614L37.9976 23.1699C37.1248 23.425 36.2921 23.8057 35.5255 24.3009C35.5129 24.1282 35.4938 23.9542 35.4689 23.7805C35.3188 22.733 34.9559 21.6805 34.5082 20.783C34.2085 20.1821 33.8555 19.6196 33.4709 19.1492C33.0973 18.6923 32.6419 18.2582 32.119 17.9968ZM26.2404 25.4917C26.1456 25.518 26.0513 25.5462 25.9576 25.5761C26.2098 25.6766 26.451 25.7855 26.6823 25.9027L26.6846 25.9039C27.1726 26.1512 27.6162 26.4351 28.0239 26.7521C28.9185 27.4476 29.5999 28.2726 30.1847 29.1268C31.4817 28.7768 32.6051 28.5901 33.7274 28.5924C34.8897 28.5948 35.9945 28.7998 37.2346 29.1697C37.3471 29.0647 37.4584 28.9603 37.5689 28.8566C39.0888 27.4312 40.4585 26.1467 42.7174 25.4095C42.5745 25.3655 42.4301 25.326 42.2844 25.2911C41.3036 25.0559 40.285 25.0328 39.295 25.2231C38.3048 25.4134 37.3647 25.813 36.5361 26.3966C36.5095 26.4154 36.482 26.433 36.4539 26.4495C35.843 26.8064 35.149 26.9948 34.4418 26.9948C33.7345 26.9948 33.0405 26.8064 32.4296 26.4495C32.4158 26.4414 32.4021 26.433 32.3885 26.4243C31.4835 25.8435 30.4692 25.4609 29.4109 25.3004C29.3628 25.2931 29.3146 25.2863 29.2664 25.2799L29.2627 25.2795C28.2519 25.1465 27.2246 25.2184 26.2404 25.4917ZM37.1657 31.562C37.5604 31.6919 37.9944 31.5992 38.3014 31.3193C38.6079 31.04 38.8933 30.7739 39.1643 30.5213C40.0646 29.6818 40.8063 28.9903 41.6375 28.4508C40.259 30.509 38.9581 33.4207 38.9581 37.0739C38.9581 41.0068 40.4664 44.2797 41.9364 46.5397C42.1265 46.832 42.3167 47.1084 42.5037 47.3682C42.0498 47.2326 41.6403 47.0799 41.2558 46.905C40.2145 46.4313 39.2887 45.764 38.1296 44.7077C37.8226 44.4278 37.3886 44.3351 36.9939 44.465C35.6036 44.9226 34.5777 45.1295 33.5508 45.1316C32.518 45.1337 31.407 44.9289 29.8467 44.4566C29.3491 44.306 28.8123 44.5075 28.5367 44.9483C27.9156 45.9417 27.3958 46.5227 26.7017 46.9397C26.2464 47.2132 25.6737 47.4416 24.8779 47.6369C25.2135 47.242 25.5772 46.7636 25.9394 46.197C27.192 44.2376 28.4084 41.2504 28.4084 37.0739C28.4084 33.0345 27.2704 30.129 26.0593 28.1897C26.2562 28.3098 26.439 28.437 26.6103 28.5702C27.4386 29.2143 28.0644 30.0485 28.7085 31.0787C28.9841 31.5195 29.5209 31.721 30.0185 31.5704C31.5788 31.0981 32.6898 30.8933 33.7226 30.8954C34.7495 30.8975 35.7754 31.1044 37.1657 31.562ZM25.1016 49.9496C25.1391 49.9938 25.1768 50.0366 25.2146 50.0777C26.0429 50.8624 27.1156 51.3258 28.2445 51.3892C29.3837 51.4533 30.5101 51.1061 31.4228 50.4068L31.433 50.399C32.2817 49.7638 33.3113 49.4198 34.3702 49.4198C35.4291 49.4198 36.4587 49.7638 37.3073 50.3991L37.3252 50.4127L37.3461 50.4294C38.2191 51.1431 39.3117 51.5191 40.4297 51.4935C41.5351 51.4683 42.5985 51.052 43.4349 50.3147C43.52 50.2262 43.6113 50.1238 43.7051 50.0133C42.4033 49.7733 41.3114 49.4604 40.3023 49.0013C39.14 48.4727 38.1388 47.7736 37.0766 46.8532C35.8309 47.2257 34.7222 47.4322 33.5556 47.4346C32.4307 47.437 31.3046 47.2493 30.0037 46.8978C29.421 47.7098 28.7692 48.3842 27.8877 48.9138C27.1105 49.3808 26.2048 49.7047 25.1016 49.9496Z" fill="#229B52"/>
<path d="M49.0689 27.1689C48.7726 27.243 48.5178 27.4317 48.3607 27.6936C48.2036 27.9555 48.1569 28.269 48.231 28.5653L49.1401 32.2017C49.2943 32.8187 49.9195 33.1938 50.5365 33.0395C51.1535 32.8853 51.5286 32.2601 51.3744 31.6431L51.17 30.8256C51.9845 31.4295 52.7735 32.4012 53.429 33.6303C54.3336 35.3267 54.8633 37.2938 54.8633 38.8921C54.8633 40.5263 54.4211 42.4116 53.6515 43.995C52.8654 45.6123 51.8457 46.7025 50.8335 47.0705C50.2358 47.2878 49.9274 47.9485 50.1447 48.5462C50.362 49.1439 51.0227 49.4522 51.6204 49.2349C53.4515 48.5692 54.8257 46.8474 55.7228 45.0018C56.6362 43.1225 57.1663 40.8944 57.1663 38.8921C57.1663 36.854 56.512 34.5173 55.4611 32.5466C54.6656 31.0549 53.5699 29.6396 52.2255 28.7537L53.2638 28.4941C53.8808 28.3398 54.2559 27.7146 54.1016 27.0977C53.9474 26.4807 53.3222 26.1056 52.7052 26.2598L49.0689 27.1689Z" fill="#229B52"/>
<path d="M17.2069 45.3782L17.0188 44.6259C16.8646 44.009 17.2397 43.3838 17.8567 43.2295C18.4737 43.0753 19.0989 43.4504 19.2531 44.0674L20.1622 47.7037C20.2363 48 20.1896 48.3136 20.0325 48.5755C19.8754 48.8373 19.6206 49.0261 19.3243 49.1001L15.688 50.0092C15.071 50.1635 14.4458 49.7884 14.2916 49.1714C14.1373 48.5544 14.5124 47.9292 15.1294 47.775L16.1444 47.5212C15.0846 46.6447 14.2058 45.4468 13.5383 44.1952C12.4873 42.2245 11.833 39.8878 11.833 37.8497C11.833 35.8474 12.3631 33.6193 13.2766 31.7399C14.1736 29.8944 15.5478 28.1725 17.379 27.5068C17.9767 27.2895 18.6373 27.5979 18.8546 28.1956C19.0719 28.7933 18.7635 29.454 18.1658 29.6713C17.1537 30.0392 16.134 31.1295 15.3479 32.7467C14.5782 34.3302 14.136 36.2155 14.136 37.8497C14.136 39.4479 14.6657 41.4151 15.5704 43.1115C16.057 44.024 16.6173 44.7946 17.2069 45.3782Z" fill="#229B52"/>
</g>
</g>
</svg>
