<svg width="69" height="69" viewBox="0 0 69 69" fill="none" xmlns="http://www.w3.org/2000/svg">
<g id="icon-reusable">
<g id="Union">
<path d="M38.427 12.1896C38.9183 12.7036 38.9021 13.526 38.3908 14.0265L37.6422 14.7592C39.9551 14.7567 42.3915 15.28 44.6274 16.241C47.6141 17.5247 50.3615 19.6416 51.9907 22.5063L51.9924 22.5093C53.5107 25.196 54.2029 28.2817 53.9685 31.3469C53.734 34.4128 52.5832 37.3119 50.6635 39.6416C50.2079 40.1944 49.398 40.272 48.8544 39.8149C48.3108 39.3578 48.2393 38.5391 48.6949 37.9863C50.2623 36.0841 51.2135 33.7027 51.4077 31.1634C51.602 28.6238 51.0288 26.0545 49.7613 23.811C48.4729 21.5463 46.2201 19.7547 43.6098 18.6327C41.5088 17.7297 39.2529 17.2942 37.2139 17.3642L38.304 18.5055C38.7951 19.0197 38.7786 19.8421 38.267 20.3424C37.7555 20.8427 36.9426 20.8314 36.4515 20.3172L33.3935 17.1157C32.9025 16.6017 32.9189 15.7796 33.4301 15.2792L36.6115 12.1652C37.1228 11.6647 37.9356 11.6756 38.427 12.1896Z" fill="#D5172A"/>
<path d="M24.2793 52.3326C26.5178 53.3971 28.9219 53.9407 31.3187 53.9288L30.3259 54.9006C29.8145 55.4011 29.7983 56.2235 30.2896 56.7375C30.781 57.2515 31.5938 57.2624 32.1052 56.7618L35.2865 53.6479C35.7977 53.1475 35.8141 52.3254 35.3231 51.8114L32.2651 48.6098C31.774 48.0957 30.9612 48.0844 30.4496 48.5847C29.9381 49.085 29.9215 49.9074 30.4126 50.4216L31.2816 51.3313C29.2904 51.3349 27.277 50.8805 25.3846 49.9805C22.8441 48.7724 20.6415 46.8174 19.0615 44.3545C17.7438 42.0258 17.1161 39.3786 17.2541 36.7757C17.3926 34.1633 18.2944 31.7309 19.8165 29.7988C20.2599 29.236 20.1705 28.4192 19.617 27.9745C19.0634 27.5297 18.2552 27.6254 17.8118 28.1882C15.9382 30.5665 14.8552 33.5255 14.6894 36.6535C14.5236 39.7802 15.2811 42.9329 16.8494 45.6896C16.8603 45.7087 16.8717 45.7275 16.8835 45.746C18.7156 48.615 21.2857 50.9089 24.2793 52.3326Z" fill="#D5172A"/>
</g>
<path id="Vector (Stroke)" fill-rule="evenodd" clip-rule="evenodd" d="M30.318 22.4433C30.7117 21.9991 31.285 21.7109 31.9246 21.7109H37.0761C37.7157 21.7109 38.2889 21.9991 38.6826 22.4433C39.0714 22.8819 39.2655 23.4439 39.2655 23.9994V25.7398C39.9124 26.3471 40.4424 27.0826 40.8313 27.9016C41.3282 28.9481 41.5841 30.1077 41.5837 31.2789C41.5837 31.2787 41.5837 31.2791 41.5837 31.2789V44.0507C41.5837 44.8374 41.3082 45.6211 40.7745 46.2233C40.2359 46.831 39.4661 47.2109 38.6215 47.2109H30.3791C29.5346 47.2109 28.7648 46.831 28.2262 46.2233C27.6924 45.6211 27.417 44.8374 27.417 44.0507L27.417 31.2796C27.417 31.2793 27.417 31.2798 27.417 31.2796C27.4165 30.1084 27.6725 28.9481 28.1694 27.9016C28.5583 27.0826 29.0883 26.3471 29.7352 25.7398V23.9994C29.7352 23.4439 29.9292 22.8819 30.318 22.4433ZM32.5685 24.5443V26.3968C32.5685 26.8428 32.3585 27.2627 32.0018 27.5302C31.4828 27.9194 31.0406 28.4603 30.7288 29.1169C30.4169 29.7739 30.25 30.5169 30.2503 31.2782V44.0507C30.2503 44.1889 30.3005 44.2921 30.3465 44.3439C30.3662 44.3661 30.3811 44.3749 30.3864 44.3776H38.6142C38.6196 44.3749 38.6345 44.3661 38.6542 44.3439C38.7001 44.2921 38.7503 44.1889 38.7503 44.0507V31.2789C38.7507 30.5176 38.5838 29.7739 38.2718 29.1169C37.96 28.4603 37.5178 27.9194 36.9989 27.5302C36.6421 27.2627 36.4321 26.8428 36.4321 26.3968V24.5443H32.5685Z" fill="#D5172A"/>
</g>
</svg>
