<svg width="20" height="20" viewBox="0 0 20 20" fill="none" xmlns="http://www.w3.org/2000/svg">
<g clip-path="url(#clip0_2456_124271)">
<path d="M19.5832 13.3333C19.5832 13.5543 19.4954 13.7663 19.3391 13.9226C19.1828 14.0789 18.9709 14.1667 18.7498 14.1667H16.2498V15.8333H17.9165C18.1375 15.8333 18.3495 15.9211 18.5058 16.0774C18.662 16.2337 18.7498 16.4457 18.7498 16.6667C18.7498 16.8877 18.662 17.0996 18.5058 17.2559C18.3495 17.4122 18.1375 17.5 17.9165 17.5H16.2498V19.1667C16.2498 19.3877 16.162 19.5996 16.0058 19.7559C15.8495 19.9122 15.6375 20 15.4165 20C15.1955 20 14.9835 19.9122 14.8272 19.7559C14.671 19.5996 14.5832 19.3877 14.5832 19.1667V13.3333C14.5832 13.1123 14.671 12.9004 14.8272 12.7441C14.9835 12.5878 15.1955 12.5 15.4165 12.5H18.7498C18.9709 12.5 19.1828 12.5878 19.3391 12.7441C19.4954 12.9004 19.5832 13.1123 19.5832 13.3333ZM5.83317 15.4167C5.83317 16.1902 5.52588 16.9321 4.9789 17.4791C4.43192 18.026 3.69005 18.3333 2.9165 18.3333H2.08317V19.1667C2.08317 19.3877 1.99537 19.5996 1.83909 19.7559C1.68281 19.9122 1.47085 20 1.24984 20C1.02882 20 0.816862 19.9122 0.660582 19.7559C0.504301 19.5996 0.416504 19.3877 0.416504 19.1667V13.3333C0.416504 13.1123 0.504301 12.9004 0.660582 12.7441C0.816862 12.5878 1.02882 12.5 1.24984 12.5H2.9165C3.69005 12.5 4.43192 12.8073 4.9789 13.3543C5.52588 13.9013 5.83317 14.6431 5.83317 15.4167ZM4.1665 15.4167C4.1665 15.0851 4.03481 14.7672 3.80039 14.5328C3.56597 14.2984 3.24802 14.1667 2.9165 14.1667H2.08317V16.6667H2.9165C3.24802 16.6667 3.56597 16.535 3.80039 16.3005C4.03481 16.0661 4.1665 15.7482 4.1665 15.4167ZM13.3332 16.25C13.3332 17.2446 12.9381 18.1984 12.2348 18.9017C11.5316 19.6049 10.5777 20 9.58317 20H7.9165C7.69549 20 7.48353 19.9122 7.32725 19.7559C7.17097 19.5996 7.08317 19.3877 7.08317 19.1667V13.3333C7.08317 13.1123 7.17097 12.9004 7.32725 12.7441C7.48353 12.5878 7.69549 12.5 7.9165 12.5H9.58317C10.5777 12.5 11.5316 12.8951 12.2348 13.5983C12.9381 14.3016 13.3332 15.2554 13.3332 16.25ZM11.6665 16.25C11.6665 15.6975 11.447 15.1676 11.0563 14.7769C10.6656 14.3862 10.1357 14.1667 9.58317 14.1667H8.74984V18.3333H9.58317C10.1357 18.3333 10.6656 18.1138 11.0563 17.7231C11.447 17.3324 11.6665 16.8025 11.6665 16.25Z" fill="#1A2736"/>
<path d="M0.416504 9.16667V1.66667C0.416504 1.22464 0.592099 0.800716 0.904659 0.488156C1.21722 0.175595 1.64114 2.57665e-07 2.08317 2.57665e-07H12.0832C12.1926 -8.58215e-05 12.3011 0.0213965 12.4022 0.0632199C12.5034 0.105043 12.5953 0.166388 12.6728 0.24375L18.5061 6.07708C18.5835 6.15453 18.6448 6.24646 18.6866 6.34763C18.7284 6.44879 18.7499 6.5572 18.7498 6.66667V9.16667C18.7498 9.38768 18.662 9.59964 18.5058 9.75592C18.3495 9.9122 18.1375 10 17.9165 10C17.6955 10 17.4835 9.9122 17.3272 9.75592C17.171 9.59964 17.0832 9.38768 17.0832 9.16667V7.5H12.0832C11.8622 7.5 11.6502 7.4122 11.4939 7.25592C11.3376 7.09964 11.2498 6.88768 11.2498 6.66667V1.66667H2.08317V9.16667C2.08317 9.38768 1.99537 9.59964 1.83909 9.75592C1.68281 9.9122 1.47085 10 1.24984 10C1.02882 10 0.816862 9.9122 0.660582 9.75592C0.504301 9.59964 0.416504 9.38768 0.416504 9.16667ZM12.9165 5.83333H15.905L12.9165 2.84479V5.83333Z" fill="#D5172A"/>
</g>
<defs>
<clipPath id="clip0_2456_124271">
<rect width="20" height="20" fill="white"/>
</clipPath>
</defs>
</svg>
