<svg width="28" height="24" viewBox="0 0 28 24" fill="none" xmlns="http://www.w3.org/2000/svg">
<path id="Union" fill-rule="evenodd" clip-rule="evenodd" d="M3.90949 0.153592C3.55094 -0.107169 3.0489 -0.0278982 2.78814 0.330648C2.52737 0.689195 2.60664 1.19124 2.96519 1.452L3.37892 1.7529L0.122034 6.96392C-0.0760802 7.2809 -0.0291838 7.69267 0.235134 7.95699L3.52843 11.2503C3.84192 11.5638 4.35019 11.5638 4.66368 11.2503L5.9851 9.92887L7.92437 12.5146H4.75479C3.84314 12.5146 2.96883 12.8767 2.32419 13.5214C1.67956 14.166 1.31741 15.0403 1.31741 15.952V21.2212C1.31741 21.6646 1.67681 22.024 2.12015 22.024H3.6185C4.16775 23.1917 5.35481 24 6.73067 24C8.10653 24 9.29358 23.1917 9.84284 22.024L12.1812 22.024C12.7304 23.1917 13.9175 24 15.2933 24C16.556 24 17.6597 23.3192 18.2572 22.3046C18.8548 23.3192 19.9585 24 21.2212 24C22.8543 24 24.2214 22.8611 24.5716 21.3342C24.7242 21.2905 24.8653 21.2013 24.9729 21.0688L27.1136 18.4342C27.2298 18.2911 27.2933 18.1123 27.2933 17.928V11.3414C27.2933 10.6193 26.8303 10.0622 26.2843 9.72621C25.7326 9.38672 25.0357 9.22129 24.3499 9.22129H11.506C10.8203 9.22129 10.1233 9.38672 9.57166 9.72621C9.1689 9.97406 8.8113 10.3422 8.65139 10.8081L7.13187 8.7821L8.61564 7.29833C8.92913 6.98484 8.92913 6.47657 8.61564 6.16308C8.30215 5.84959 7.79388 5.84959 7.48039 6.16308L5.5142 8.12928C5.50699 8.13622 5.49994 8.14327 5.49304 8.15043L4.09606 9.54742L1.82193 7.2733L4.68054 2.69953L10.2104 6.72128C10.569 6.98204 11.071 6.90277 11.3318 6.54423C11.5926 6.18568 11.5133 5.68363 11.1547 5.42287L3.90949 0.153592ZM10.1681 15.5063L11.3577 17.0923C11.6237 17.447 12.1268 17.5189 12.4815 17.2529C12.8362 16.9868 12.9081 16.4837 12.6421 16.129L10.1681 12.8305V11.3414L10.1684 11.339C10.1684 11.339 10.1691 11.3351 10.1704 11.3312C10.1729 11.3233 10.1792 11.3079 10.1943 11.2855C10.2254 11.2393 10.2908 11.1688 10.4131 11.0935C10.6643 10.9389 11.0563 10.8268 11.506 10.8268H24.3499C24.7996 10.8268 25.1916 10.9389 25.4429 11.0935C25.5652 11.1688 25.6306 11.2393 25.6617 11.2855C25.6767 11.3079 25.683 11.3233 25.6856 11.3312C25.6869 11.3351 25.6876 11.339 25.6876 11.339L25.6878 11.3414V17.6429L24.3933 19.2362C23.8742 17.9963 22.6494 17.1252 21.2212 17.1252C19.9585 17.1252 18.8548 17.8061 18.2572 18.8207C17.6597 17.8061 16.556 17.1252 15.2933 17.1252C13.4432 17.1252 11.9344 18.5869 11.8589 20.4185H10.1681V15.5063ZM8.56266 14.1201V17.6536C8.03233 17.3189 7.40412 17.1252 6.73067 17.1252C4.88054 17.1252 3.37181 18.5869 3.29626 20.4185H2.92289V15.952C2.92289 15.4661 3.11589 15.0002 3.45944 14.6566C3.80299 14.3131 4.26894 14.1201 4.75479 14.1201H8.56266ZM6.73067 18.7307C5.71895 18.7307 4.89878 19.5509 4.89878 20.5626C4.89878 21.5743 5.71895 22.3945 6.73067 22.3945C7.7424 22.3945 8.56257 21.5743 8.56257 20.5626C8.56257 19.5509 7.7424 18.7307 6.73067 18.7307ZM13.4614 20.5626C13.4614 19.5509 14.2816 18.7307 15.2933 18.7307C16.305 18.7307 17.1252 19.5509 17.1252 20.5626C17.1252 21.5743 16.305 22.3945 15.2933 22.3945C14.2816 22.3945 13.4614 21.5743 13.4614 20.5626ZM21.2212 18.7307C20.2094 18.7307 19.3893 19.5509 19.3893 20.5626C19.3893 21.5743 20.2094 22.3945 21.2212 22.3945C22.2329 22.3945 23.0531 21.5743 23.0531 20.5626C23.0531 19.5509 22.2329 18.7307 21.2212 18.7307Z" fill="#030507"/>
</svg>
