<svg width="24" height="24" viewBox="0 0 24 24" fill="none" xmlns="http://www.w3.org/2000/svg">
<g id="icon-chevron-left">
<path id="Vector" d="M14.1466 7.14653L9.14658 12.1465C9.10009 12.193 9.06321 12.2481 9.03805 12.3088C9.01289 12.3695 8.99994 12.4346 8.99994 12.5003C8.99994 12.566 9.01289 12.631 9.03805 12.6917C9.06321 12.7524 9.10009 12.8076 9.14658 12.854L14.1466 17.854C14.2404 17.9478 14.3676 18.0006 14.5003 18.0006C14.633 18.0006 14.7603 17.9478 14.8541 17.854C14.9479 17.7602 15.0006 17.633 15.0006 17.5003C15.0006 17.3676 14.9479 17.2403 14.8541 17.1465L10.2072 12.5003L14.8541 7.85403C14.9005 7.80757 14.9374 7.75242 14.9625 7.69173C14.9877 7.63103 15.0006 7.56598 15.0006 7.50028C15.0006 7.43458 14.9877 7.36953 14.9625 7.30883C14.9374 7.24813 14.9005 7.19298 14.8541 7.14653C14.8076 7.10007 14.7525 7.06322 14.6918 7.03808C14.6311 7.01294 14.566 7 14.5003 7C14.4346 7 14.3696 7.01294 14.3089 7.03808C14.2482 7.06322 14.193 7.10007 14.1466 7.14653Z" fill="#D5172A"/>
</g>
</svg>
