<svg width="24" height="24" viewBox="0 0 24 24" fill="none" xmlns="http://www.w3.org/2000/svg">
<path d="M17.7675 13.9647C17.7104 13.9973 17.6475 14.0182 17.5822 14.0264C17.517 14.0346 17.4508 14.0299 17.3874 14.0125C17.324 13.9951 17.2647 13.9653 17.2128 13.9249C17.1609 13.8846 17.1175 13.8344 17.085 13.7772L15.8975 11.7022C15.2072 12.169 14.4456 12.5206 13.6425 12.7434L14.0094 14.9447C14.0202 15.0095 14.0182 15.0758 14.0034 15.1398C13.9886 15.2038 13.9613 15.2643 13.9231 15.3177C13.8849 15.3712 13.8365 15.4166 13.7808 15.4514C13.725 15.4861 13.663 15.5096 13.5982 15.5203C13.5715 15.5247 13.5446 15.527 13.5175 15.5272C13.3993 15.527 13.2849 15.4849 13.1947 15.4084C13.1045 15.3318 13.0444 15.2258 13.025 15.1091L12.6644 12.9478C11.9039 13.0536 11.1324 13.0536 10.3719 12.9478L10.0113 15.1091C9.99189 15.226 9.9316 15.3322 9.84117 15.4088C9.75074 15.4853 9.63605 15.5273 9.51755 15.5272C9.48991 15.5271 9.46232 15.5248 9.43505 15.5203C9.37023 15.5096 9.30818 15.4861 9.25243 15.4514C9.19667 15.4166 9.14832 15.3712 9.11013 15.3177C9.07193 15.2643 9.04465 15.2038 9.02984 15.1398C9.01502 15.0758 9.01297 15.0095 9.0238 14.9447L9.39255 12.7434C8.58981 12.5199 7.82867 12.1677 7.1388 11.7003L5.95505 13.7772C5.88874 13.8927 5.77926 13.9772 5.65068 14.012C5.5221 14.0468 5.38496 14.0291 5.26942 13.9628C5.15389 13.8965 5.06942 13.787 5.03461 13.6584C4.9998 13.5299 5.01749 13.3927 5.0838 13.2772L6.3338 11.0897C5.89473 10.7104 5.49099 10.292 5.12755 9.83969C5.08222 9.78908 5.04768 9.72977 5.02604 9.66537C5.0044 9.60097 4.99611 9.53284 5.00168 9.46513C5.00725 9.39742 5.02656 9.33156 5.05843 9.27156C5.0903 9.21156 5.13406 9.15869 5.18704 9.11616C5.24003 9.07364 5.30112 9.04236 5.36659 9.02423C5.43207 9.00611 5.50055 9.00151 5.56786 9.01073C5.63517 9.01995 5.69989 9.0428 5.75808 9.07786C5.81627 9.11293 5.8667 9.15949 5.9063 9.21469C6.9438 10.4984 8.7588 12.0272 11.5175 12.0272C14.2763 12.0272 16.0913 10.4966 17.1288 9.21469C17.1679 9.15836 17.2183 9.11068 17.2766 9.07462C17.335 9.03857 17.4001 9.01491 17.468 9.00512C17.5359 8.99533 17.6051 8.99961 17.6713 9.01771C17.7375 9.0358 17.7992 9.06732 17.8527 9.1103C17.9061 9.15328 17.9502 9.2068 17.9821 9.26754C18.014 9.32827 18.033 9.39492 18.0381 9.46334C18.0431 9.53175 18.034 9.60047 18.0113 9.66522C17.9887 9.72996 17.9529 9.78935 17.9063 9.83969C17.5428 10.292 17.1391 10.7104 16.7 11.0897L17.95 13.2772C17.9836 13.3342 18.0055 13.3973 18.0145 13.4629C18.0235 13.5284 18.0194 13.5951 18.0024 13.6591C17.9854 13.723 17.9559 13.7829 17.9156 13.8354C17.8753 13.8879 17.825 13.9318 17.7675 13.9647Z" fill="black"/>
</svg>
