<svg width="33" height="32" viewBox="0 0 33 32" fill="none" xmlns="http://www.w3.org/2000/svg">
<path fill-rule="evenodd" clip-rule="evenodd" d="M19.0758 2.45654L22.6397 11.2451H28.7122C29.0959 11.2438 29.4711 11.3577 29.7893 11.5721C30.1075 11.7865 30.3539 12.0916 30.4967 12.4476L32.1802 16.6564C32.2266 16.771 32.2503 16.8935 32.25 17.0172V24.7132C32.25 25.2235 32.0473 25.7128 31.6865 26.0737C31.3256 26.4345 30.8363 26.6372 30.326 26.6372H28.2817C28.0698 27.4649 27.5884 28.1986 26.9135 28.7225C26.2385 29.2464 25.4084 29.5308 24.5539 29.5308C23.6995 29.5308 22.8694 29.2464 22.1944 28.7225C21.5195 28.1986 21.0381 27.4649 20.8262 26.6372H14.8136C14.6017 27.4649 14.1203 28.1986 13.4454 28.7225C12.7704 29.2464 11.9403 29.5308 11.0859 29.5308C10.2314 29.5308 9.40132 29.2464 8.72637 28.7225C8.05141 28.1986 7.57002 27.4649 7.35809 26.6372H5.31383C4.80355 26.6372 4.31417 26.4345 3.95335 26.0737C3.59253 25.7128 3.38982 25.2235 3.38982 24.7132V19.2403L0.39102 11.8452C0.199263 11.3724 0.203209 10.8427 0.401992 10.3727C0.600775 9.90274 0.97811 9.53099 1.45099 9.33923L18.3894 2.47053C18.6093 2.38138 18.8537 2.37683 19.0758 2.45654ZM20.9049 13.5615L22.6299 12.862V17.874L20.9049 13.5615ZM19.1219 14.2845L7.63852 18.9412H20.9846L19.1219 14.2845ZM18.2209 4.61503L2.17401 11.1222L5.0661 18.2542L21.113 11.747L18.2209 4.61503ZM24.5539 13.1692H28.7122L29.8666 16.0552H24.5539V13.1692ZM10.0169 27.2749C9.70054 27.0635 9.45394 26.763 9.30831 26.4115C9.16269 26.0599 9.12459 25.6731 9.19882 25.2998C9.27306 24.9266 9.45631 24.5838 9.72539 24.3147C9.99446 24.0456 10.3373 23.8624 10.7105 23.7882C11.0837 23.7139 11.4706 23.752 11.8222 23.8976C12.1737 24.0433 12.4742 24.2899 12.6856 24.6063C12.897 24.9227 13.0099 25.2947 13.0099 25.6752C13.0099 26.1855 12.8072 26.6749 12.4463 27.0357C12.0855 27.3965 11.5961 27.5992 11.0859 27.5992C10.7053 27.5992 10.3333 27.4864 10.0169 27.2749ZM14.8136 24.7132C14.6017 23.8855 14.1203 23.1518 13.4454 22.6279C12.7704 22.104 11.9403 21.8196 11.0859 21.8196C10.2314 21.8196 9.40132 22.104 8.72637 22.6279C8.05141 23.1518 7.57002 23.8855 7.35809 24.7132H5.31383V20.8652H22.6299V22.3455C22.1876 22.6012 21.8004 22.9421 21.4907 23.3485C21.1811 23.755 20.9552 24.2188 20.8262 24.7132H14.8136ZM24.5539 27.5992C24.1734 27.5992 23.8014 27.4864 23.485 27.2749C23.1686 27.0635 22.922 26.763 22.7764 26.4115C22.6308 26.0599 22.5927 25.6731 22.6669 25.2998C22.7411 24.9266 22.9244 24.5838 23.1935 24.3147C23.4625 24.0456 23.8054 23.8624 24.1786 23.7882C24.5518 23.7139 24.9387 23.752 25.2902 23.8976C25.6418 24.0433 25.9423 24.2899 26.1537 24.6063C26.3651 24.9227 26.478 25.2947 26.478 25.6752C26.478 26.1855 26.2753 26.6749 25.9144 27.0357C25.5536 27.3965 25.0642 27.5992 24.5539 27.5992ZM30.326 24.7132H28.2817C28.0672 23.8875 27.585 23.1562 26.9104 22.634C26.2358 22.1117 25.4071 21.828 24.5539 21.8272V17.9792H30.326V24.7132Z" fill="#D5172A"/>
</svg>
