<svg width="69" height="69" viewBox="0 0 69 69" fill="none" xmlns="http://www.w3.org/2000/svg">
<g id="icon-recycle">
<path id="Vector" d="M28.8329 49.0469C28.8329 49.4227 28.6836 49.7831 28.4179 50.0488C28.1522 50.3145 27.7918 50.4638 27.4161 50.4638H18.915C18.1691 50.4633 17.4364 50.2666 16.7906 49.8933C16.1448 49.5201 15.6086 48.9835 15.2358 48.3374C14.8631 47.6913 14.6669 46.9585 14.667 46.2126C14.6671 45.4667 14.8635 44.7339 15.2365 44.0879L21.3094 33.5943L18.8211 34.2585C18.6408 34.3066 18.4529 34.3188 18.2679 34.2943C18.083 34.2698 17.9047 34.2091 17.7432 34.1157C17.417 33.9271 17.1791 33.6166 17.0819 33.2525C16.9847 32.8885 17.036 32.5008 17.2247 32.1746C17.4133 31.8484 17.7238 31.6106 18.0879 31.5133L23.8916 29.9601C24.0714 29.9119 24.259 29.8996 24.4435 29.9239C24.628 29.9482 24.806 30.0086 24.9672 30.1017C25.1283 30.1948 25.2696 30.3187 25.3829 30.4664C25.4961 30.6142 25.5792 30.7827 25.6273 30.9625L27.1841 36.7663C27.2332 36.9469 27.2461 37.1355 27.222 37.3211C27.1979 37.5068 27.1372 37.6858 27.0435 37.8478C26.9498 38.0098 26.8249 38.1517 26.6761 38.2652C26.5272 38.3787 26.3574 38.4616 26.1763 38.5091C26.056 38.5404 25.9323 38.5565 25.8079 38.5569C25.4963 38.5566 25.1934 38.4535 24.9462 38.2637C24.699 38.0738 24.5213 37.8077 24.4407 37.5066L23.7677 35.0006L17.6947 45.5048C17.5706 45.7197 17.5052 45.9634 17.5049 46.2115C17.5046 46.4597 17.5694 46.7035 17.693 46.9187C17.8166 47.1339 17.9945 47.3129 18.2089 47.4377C18.4234 47.5626 18.6668 47.6289 18.915 47.6301H27.4161C27.7918 47.6301 28.1522 47.7793 28.4179 48.0451C28.6836 48.3108 28.8329 48.6712 28.8329 49.0469ZM53.7571 44.0879L49.6589 37.0037C49.4628 36.6953 49.1552 36.4745 48.8002 36.3876C48.4453 36.3006 48.0705 36.3542 47.7541 36.5371C47.4377 36.72 47.2042 37.018 47.1024 37.369C47.0006 37.72 47.0383 38.0967 47.2077 38.4205L51.306 45.5048C51.43 45.7197 51.4955 45.9634 51.4958 46.2115C51.4961 46.4597 51.4312 46.7035 51.3077 46.9187C51.1841 47.1339 51.0062 47.3129 50.7917 47.4377C50.5773 47.5626 50.3338 47.6289 50.0857 47.6301H37.9202L39.7515 45.7988C40.0174 45.5332 40.1668 45.1728 40.167 44.797C40.1672 44.4212 40.018 44.0607 39.7524 43.7948C39.4868 43.529 39.1264 43.3795 38.7506 43.3793C38.3748 43.3792 38.0143 43.5283 37.7485 43.7939L33.4979 48.0445C33.3662 48.1761 33.2617 48.3324 33.1904 48.5044C33.1191 48.6764 33.0824 48.8607 33.0824 49.0469C33.0824 49.2331 33.1191 49.4175 33.1904 49.5895C33.2617 49.7615 33.3662 49.9178 33.4979 50.0494L37.7485 54.2999C37.8801 54.4314 38.0364 54.5357 38.2083 54.6069C38.3803 54.678 38.5645 54.7146 38.7506 54.7145C38.9367 54.7144 39.121 54.6777 39.2928 54.6064C39.4647 54.5351 39.6209 54.4307 39.7524 54.299C39.8839 54.1674 39.9882 54.0111 40.0594 53.8392C40.1305 53.6672 40.1671 53.4829 40.167 53.2969C40.1669 53.1108 40.1302 52.9265 40.0589 52.7546C39.9876 52.5828 39.8832 52.4266 39.7515 52.2951L37.9202 50.4638H50.0857C50.8316 50.4633 51.5643 50.2666 52.2101 49.8933C52.8559 49.5201 53.3921 48.9835 53.7648 48.3374C54.1376 47.6913 54.3338 46.9585 54.3337 46.2126C54.3335 45.4667 54.1371 44.7339 53.7642 44.0879H53.7571ZM34.5003 17.8761C34.7493 17.8736 34.9944 17.938 35.21 18.0627C35.4256 18.1873 35.6038 18.3675 35.7259 18.5845L41.7989 29.0781L39.3052 28.4087C38.9467 28.3245 38.5695 28.3832 38.2536 28.5724C37.9376 28.7616 37.7078 29.0664 37.6127 29.4221C37.5176 29.7779 37.5647 30.1567 37.7441 30.4783C37.9235 30.7999 38.2211 31.039 38.5738 31.145L44.3793 32.7017C44.499 32.7332 44.6222 32.7492 44.7459 32.7495C45.0576 32.7493 45.3605 32.6462 45.6077 32.4563C45.8549 32.2665 46.0325 32.0004 46.1132 31.6993L47.67 25.892C47.7234 25.7107 47.74 25.5205 47.7188 25.3326C47.6977 25.1448 47.6391 24.9631 47.5467 24.7982C47.4542 24.6334 47.3297 24.4887 47.1804 24.3727C47.0312 24.2567 46.8602 24.1717 46.6776 24.1228C46.4951 24.0739 46.3045 24.062 46.1173 24.0878C45.93 24.1136 45.7498 24.1767 45.5873 24.2732C45.4248 24.3698 45.2833 24.4978 45.171 24.6499C45.0587 24.802 44.978 24.975 44.9337 25.1587L44.2607 27.6684L38.1788 17.1677C37.8054 16.5227 37.269 15.9873 36.6234 15.6151C35.9777 15.2428 35.2456 15.0469 34.5003 15.0469C33.7551 15.0469 33.0229 15.2428 32.3773 15.6151C31.7317 15.9873 31.1952 16.5227 30.8218 17.1677L26.72 24.252C26.5438 24.5765 26.5013 24.957 26.6015 25.3125C26.7017 25.668 26.9367 25.9703 27.2565 26.155C27.5763 26.3397 27.9556 26.3922 28.3135 26.3014C28.6715 26.2106 28.9799 25.9836 29.173 25.6688L33.2747 18.5845C33.3969 18.3675 33.575 18.1873 33.7906 18.0627C34.0062 17.938 34.2513 17.8736 34.5003 17.8761Z" fill="#1A428A"/>
</g>
</svg>
