<svg width="24" height="24" viewBox="0 0 24 24" fill="none" xmlns="http://www.w3.org/2000/svg">
<g id="icon-reusable">
<g id="Union">
<path d="M13.3859 4.13861C13.5593 4.32001 13.5536 4.61027 13.3731 4.78692L13.1089 5.04553C13.9252 5.04465 14.7851 5.22934 15.5743 5.56851C16.6284 6.02159 17.5981 6.76874 18.1731 7.7798L18.1737 7.78087C18.7095 8.72911 18.9538 9.81818 18.8711 10.9C18.7884 11.9821 18.3822 13.0053 17.7046 13.8276C17.5439 14.0227 17.258 14.05 17.0661 13.8887C16.8743 13.7274 16.8491 13.4384 17.0098 13.2433C17.5631 12.572 17.8988 11.7315 17.9673 10.8352C18.0359 9.93893 17.8336 9.03212 17.3862 8.24028C16.9315 7.44097 16.1364 6.80863 15.2151 6.41265C14.4736 6.09393 13.6774 5.94025 12.9577 5.96494L13.3425 6.36776C13.5158 6.54923 13.51 6.83949 13.3294 7.01606C13.1489 7.19264 12.862 7.18867 12.6887 7.00719L11.6094 5.87723C11.4361 5.69581 11.4419 5.40566 11.6223 5.22906L12.7451 4.13001C12.9256 3.95336 13.2125 3.95721 13.3859 4.13861Z" fill="#1A2736"/>
<path d="M8.39258 18.3067C9.18265 18.6824 10.0312 18.8743 10.8771 18.8701L10.5267 19.2131C10.3462 19.3897 10.3405 19.68 10.5139 19.8614C10.6873 20.0428 10.9742 20.0466 11.1547 19.87L12.2775 18.7709C12.4579 18.5943 12.4637 18.3042 12.2904 18.1228L11.2111 16.9928C11.0378 16.8113 10.7509 16.8074 10.5703 16.9839C10.3898 17.1605 10.3839 17.4508 10.5573 17.6322L10.864 17.9533C10.1612 17.9546 9.45058 17.7942 8.78269 17.4766C7.88603 17.0502 7.10864 16.3602 6.551 15.4909C6.08592 14.669 5.86439 13.7347 5.9131 12.816C5.96199 11.894 6.28028 11.0355 6.81748 10.3536C6.97396 10.155 6.94243 9.86672 6.74705 9.70975C6.55167 9.55278 6.26642 9.58655 6.10994 9.78519C5.44867 10.6246 5.06644 11.6689 5.00791 12.7729C4.9494 13.8765 5.21674 14.9892 5.77028 15.9621C5.77411 15.9689 5.77812 15.9755 5.78229 15.982C6.42893 16.9946 7.33603 17.8043 8.39258 18.3067Z" fill="#1A2736"/>
</g>
<path id="Vector (Stroke)" fill-rule="evenodd" clip-rule="evenodd" d="M10.5239 7.75847C10.6628 7.60169 10.8652 7.5 11.0909 7.5H12.9091C13.1348 7.5 13.3372 7.60169 13.4761 7.75847C13.6133 7.91328 13.6818 8.11165 13.6818 8.30769V8.92194C13.9101 9.13628 14.0972 9.39587 14.2345 9.68495C14.4098 10.0543 14.5002 10.4636 14.5 10.8769C14.5 10.8768 14.5 10.877 14.5 10.8769V15.3846C14.5 15.6623 14.4028 15.9389 14.2144 16.1514C14.0243 16.3659 13.7526 16.5 13.4545 16.5H10.5455C10.2474 16.5 9.97569 16.3659 9.78559 16.1514C9.59722 15.9389 9.5 15.6623 9.5 15.3846L9.5 10.8772C9.5 10.8771 9.5 10.8772 9.5 10.8772C9.49984 10.4638 9.59016 10.0543 9.76555 9.68495C9.90281 9.39587 10.0899 9.13628 10.3182 8.92194V8.30769C10.3182 8.11165 10.3867 7.91328 10.5239 7.75847ZM11.3182 8.5V9.15385C11.3182 9.31123 11.2441 9.45943 11.1182 9.55386C10.935 9.69122 10.7789 9.88213 10.6689 10.1139C10.5588 10.3457 10.4999 10.608 10.5 10.8767V15.3846C10.5 15.4334 10.5177 15.4698 10.5339 15.4881C10.5409 15.496 10.5462 15.4991 10.548 15.5H13.452C13.4538 15.4991 13.4591 15.496 13.4661 15.4881C13.4823 15.4698 13.5 15.4334 13.5 15.3846V10.8769C13.5001 10.6082 13.4412 10.3457 13.3311 10.1139C13.2211 9.88213 13.065 9.69122 12.8818 9.55386C12.7559 9.45943 12.6818 9.31123 12.6818 9.15385V8.5H11.3182Z" fill="#1A2736"/>
</g>
</svg>
