<svg width="16" height="16" viewBox="0 0 16 16" fill="none" xmlns="http://www.w3.org/2000/svg">
<g id="Icon">
<path id="Vector" d="M15.4998 9.0025C15.4998 9.13511 15.4472 9.26229 15.3534 9.35605C15.2596 9.44982 15.1324 9.5025 14.9998 9.5025H13.9998V10.5025C13.9998 10.6351 13.9472 10.7623 13.8534 10.8561C13.7596 10.9498 13.6324 11.0025 13.4998 11.0025C13.3672 11.0025 13.24 10.9498 13.1463 10.8561C13.0525 10.7623 12.9998 10.6351 12.9998 10.5025V9.5025H11.9998C11.8672 9.5025 11.74 9.44982 11.6463 9.35605C11.5525 9.26229 11.4998 9.13511 11.4998 9.0025C11.4998 8.86989 11.5525 8.74272 11.6463 8.64895C11.74 8.55518 11.8672 8.5025 11.9998 8.5025H12.9998V7.5025C12.9998 7.36989 13.0525 7.24272 13.1463 7.14895C13.24 7.05518 13.3672 7.0025 13.4998 7.0025C13.6324 7.0025 13.7596 7.05518 13.8534 7.14895C13.9472 7.24272 13.9998 7.36989 13.9998 7.5025V8.5025H14.9998C15.1324 8.5025 15.2596 8.55518 15.3534 8.64895C15.4472 8.74272 15.4998 8.86989 15.4998 9.0025ZM11.883 12.6806C11.9683 12.7822 12.0098 12.9136 11.9983 13.0458C11.9869 13.178 11.9233 13.3003 11.8217 13.3856C11.7201 13.471 11.5887 13.5125 11.4565 13.501C11.3243 13.4895 11.2021 13.426 11.1167 13.3244C9.85921 11.8269 8.13046 11.0025 6.24984 11.0025C4.36921 11.0025 2.64046 11.8269 1.38296 13.3244C1.2976 13.4259 1.17539 13.4894 1.04324 13.5008C0.911085 13.5122 0.779803 13.4707 0.678275 13.3853C0.576747 13.2999 0.513289 13.1777 0.501861 13.0456C0.490433 12.9134 0.531971 12.7822 0.617338 12.6806C1.55109 11.5694 2.71234 10.78 4.00296 10.3575C3.21915 9.86932 2.61566 9.13913 2.2838 8.27742C1.95193 7.41571 1.90974 6.46936 2.16362 5.58153C2.41749 4.69371 2.95362 3.91273 3.69088 3.35674C4.42814 2.80075 5.32643 2.5 6.24984 2.5C7.17324 2.5 8.07153 2.80075 8.80879 3.35674C9.54606 3.91273 10.0822 4.69371 10.3361 5.58153C10.5899 6.46936 10.5477 7.41571 10.2159 8.27742C9.88401 9.13913 9.28052 9.86932 8.49671 10.3575C9.78734 10.78 10.9486 11.5694 11.883 12.6806ZM6.24984 10.0025C6.89263 10.0025 7.52098 9.81189 8.05544 9.45478C8.5899 9.09766 9.00646 8.59008 9.25244 7.99622C9.49843 7.40236 9.56279 6.7489 9.43739 6.11846C9.31199 5.48802 9.00245 4.90892 8.54793 4.4544C8.09341 3.99988 7.51432 3.69035 6.88388 3.56495C6.25344 3.43955 5.59998 3.50391 5.00612 3.74989C4.41226 3.99588 3.90468 4.41244 3.54756 4.9469C3.19045 5.48136 2.99984 6.10971 2.99984 6.7525C3.00083 7.61415 3.34356 8.44022 3.95284 9.0495C4.56211 9.65878 5.38819 10.0015 6.24984 10.0025Z" fill="#1A2736"/>
</g>
</svg>
