<svg width="25" height="17" viewBox="0 0 25 17" fill="none" xmlns="http://www.w3.org/2000/svg">
<path d="M20.7351 4.06986C19.6549 2.9872 18.371 2.12909 16.9576 1.54501C15.5441 0.960934 14.029 0.662436 12.4997 0.666733H12.458C6.04863 0.688608 0.833008 5.97923 0.833008 12.4511V14.8334C0.833008 15.2754 1.0086 15.6993 1.32116 16.0119C1.63372 16.3245 2.05765 16.5001 2.49967 16.5001H22.4997C22.9417 16.5001 23.3656 16.3245 23.6782 16.0119C23.9907 15.6993 24.1663 15.2754 24.1663 14.8334V12.3334C24.1706 10.7973 23.8695 9.27575 23.2804 7.85711C22.6914 6.43848 21.8262 5.15111 20.7351 4.06986ZM22.4997 14.8334H11.6361L17.3403 6.98965C17.4704 6.8109 17.5242 6.58779 17.4898 6.36939C17.4554 6.15099 17.3357 5.95519 17.157 5.82507C16.9782 5.69494 16.7551 5.64116 16.5367 5.67554C16.3183 5.70992 16.1225 5.82965 15.9924 6.0084L9.57467 14.8334H2.49967V12.4511C2.49967 12.1303 2.5153 11.8136 2.54447 11.5001H4.99967C5.22069 11.5001 5.43265 11.4123 5.58893 11.256C5.74521 11.0997 5.83301 10.8877 5.83301 10.6667C5.83301 10.4457 5.74521 10.2338 5.58893 10.0775C5.43265 9.9212 5.22069 9.8334 4.99967 9.8334H2.8403C3.9153 5.78548 7.42363 2.72507 11.6663 2.36882V4.8334C11.6663 5.05441 11.7541 5.26637 11.9104 5.42265C12.0667 5.57894 12.2787 5.66673 12.4997 5.66673C12.7207 5.66673 12.9327 5.57894 13.0889 5.42265C13.2452 5.26637 13.333 5.05441 13.333 4.8334V2.36777C15.4004 2.54175 17.3626 3.3535 18.9487 4.69086C20.5348 6.02821 21.6664 7.82516 22.1872 9.8334H19.9997C19.7787 9.8334 19.5667 9.9212 19.4104 10.0775C19.2541 10.2338 19.1663 10.4457 19.1663 10.6667C19.1663 10.8877 19.2541 11.0997 19.4104 11.256C19.5667 11.4123 19.7787 11.5001 19.9997 11.5001H22.4653C22.4872 11.7761 22.4997 12.0532 22.4997 12.3334V14.8334Z" fill="white"/>
</svg>
