<svg width="32" height="32" viewBox="0 0 32 32" fill="none" xmlns="http://www.w3.org/2000/svg">
<g id="icon-account-switch">
<path id="Vector" d="M26.4717 16.4741L24.4717 18.4741C24.4098 18.536 24.3363 18.5852 24.2553 18.6188C24.1744 18.6523 24.0877 18.6696 24 18.6696C23.9124 18.6696 23.8257 18.6523 23.7448 18.6188C23.6638 18.5852 23.5903 18.536 23.5284 18.4741L21.5284 16.4741C21.4033 16.349 21.333 16.1793 21.333 16.0024C21.333 15.8255 21.4033 15.6558 21.5284 15.5307C21.6535 15.4056 21.8231 15.3354 22 15.3354C22.177 15.3354 22.3466 15.4056 22.4717 15.5307L23.3334 16.3932V16.0024C23.3341 14.4496 22.842 12.9366 21.9278 11.6814C21.0136 10.4262 19.7246 9.49365 18.2465 9.01798C16.7683 8.54231 15.1773 8.54813 13.7027 9.03459C12.228 9.52106 10.9459 10.4631 10.0409 11.7249C9.93767 11.8685 9.78161 11.9653 9.60705 11.9939C9.43248 12.0225 9.2537 11.9806 9.11005 11.8774C8.96639 11.7742 8.86961 11.6181 8.84101 11.4436C8.81241 11.269 8.85433 11.0902 8.95755 10.9466C10.0271 9.45532 11.5424 8.34209 13.2852 7.76724C15.028 7.19238 16.9083 7.18557 18.6552 7.7478C20.4021 8.31002 21.9255 9.41225 23.0058 10.8957C24.0861 12.3791 24.6677 14.1672 24.6667 16.0024V16.3932L25.5284 15.5307C25.6535 15.4056 25.8231 15.3354 26 15.3354C26.177 15.3354 26.3466 15.4056 26.4717 15.5307C26.5968 15.6558 26.6671 15.8255 26.6671 16.0024C26.6671 16.1793 26.5968 16.349 26.4717 16.4741ZM23.04 21.0574C21.9702 22.5475 20.4551 23.6597 18.7128 24.2339C16.9706 24.8081 15.0911 24.8147 13.3449 24.2527C11.5987 23.6907 10.0759 22.5891 8.99558 21.1065C7.9153 19.6239 7.3333 17.8368 7.33338 16.0024V15.6116L6.47171 16.4741C6.34662 16.5991 6.17695 16.6694 6.00005 16.6694C5.82314 16.6694 5.65347 16.5991 5.52838 16.4741C5.40328 16.349 5.33301 16.1793 5.33301 16.0024C5.33301 15.8255 5.40328 15.6558 5.52838 15.5307L7.52838 13.5307C7.59029 13.4687 7.66382 13.4196 7.74475 13.386C7.82568 13.3525 7.91243 13.3352 8.00005 13.3352C8.08766 13.3352 8.17441 13.3525 8.25534 13.386C8.33627 13.4196 8.4098 13.4687 8.47171 13.5307L10.4717 15.5307C10.5968 15.6558 10.6671 15.8255 10.6671 16.0024C10.6671 16.1793 10.5968 16.349 10.4717 16.4741C10.3466 16.5991 10.177 16.6694 10 16.6694C9.82314 16.6694 9.65347 16.5991 9.52838 16.4741L8.66671 15.6116V16.0024C8.66513 17.7975 9.32492 19.5304 10.52 20.8699C11.2636 19.7925 12.3091 18.9589 13.525 18.4741C12.8719 17.9596 12.3952 17.2544 12.1614 16.4565C11.9276 15.6586 11.9483 14.8076 12.2205 14.022C12.4928 13.2364 13.0031 12.5551 13.6804 12.073C14.3578 11.5908 15.1686 11.3317 16 11.3317C16.8315 11.3317 17.6423 11.5908 18.3197 12.073C18.997 12.5551 19.5073 13.2364 19.7796 14.022C20.0518 14.8076 20.0725 15.6586 19.8387 16.4565C19.6049 17.2544 19.1282 17.9596 18.475 18.4741C19.6921 18.959 20.7384 19.7935 21.4817 20.8724C21.6503 20.6831 21.8091 20.4853 21.9575 20.2799C22.0608 20.1362 22.2168 20.0395 22.3914 20.0109C22.5659 19.9823 22.7447 20.0242 22.8884 20.1274C23.032 20.2306 23.1288 20.3867 23.1574 20.5612C23.186 20.7358 23.1441 20.9146 23.0409 21.0582L23.04 21.0574ZM16 18.0024C16.5275 18.0024 17.043 17.846 17.4816 17.553C17.9201 17.26 18.2619 16.8435 18.4637 16.3562C18.6656 15.8689 18.7184 15.3328 18.6155 14.8155C18.5126 14.2982 18.2586 13.823 17.8857 13.4501C17.5127 13.0772 17.0376 12.8232 16.5203 12.7203C16.003 12.6174 15.4668 12.6702 14.9796 12.872C14.4923 13.0739 14.0758 13.4157 13.7828 13.8542C13.4898 14.2927 13.3334 14.8083 13.3334 15.3357C13.3334 16.043 13.6143 16.7212 14.1144 17.2213C14.6145 17.7214 15.2928 18.0024 16 18.0024ZM16 23.3357C17.6271 23.3336 19.2074 22.7917 20.4934 21.7949C20.0111 21.0406 19.3467 20.4199 18.5614 19.9899C17.7762 19.56 16.8953 19.3346 16 19.3346C15.1048 19.3346 14.2239 19.56 13.4386 19.9899C12.6534 20.4199 11.989 21.0406 11.5067 21.7949C12.7907 22.7952 14.3723 23.3376 16 23.3357Z" fill="#D5172A"/>
</g>
</svg>
