<svg width="25" height="24" viewBox="0 0 25 24" fill="none" xmlns="http://www.w3.org/2000/svg">
<path d="M10.2656 18.732C10.2656 18.9105 10.1947 19.0818 10.0684 19.208C9.94217 19.3342 9.77094 19.4052 9.59241 19.4052H5.55342C5.19903 19.4049 4.85094 19.3115 4.5441 19.1341C4.23727 18.9568 3.98251 18.7018 3.80541 18.3949C3.62831 18.0879 3.5351 17.7397 3.53516 17.3854C3.53521 17.031 3.62852 16.6828 3.80572 16.3759L6.69107 11.3903L5.50882 11.7058C5.42319 11.7287 5.33388 11.7345 5.24601 11.7228C5.15813 11.7112 5.07341 11.6824 4.99668 11.638C4.84172 11.5483 4.72871 11.4008 4.68251 11.2279C4.63632 11.0549 4.66072 10.8707 4.75035 10.7157C4.83999 10.5608 4.98751 10.4478 5.16046 10.4016L7.91791 9.6636C8.00333 9.6407 8.09242 9.63485 8.1801 9.6464C8.26778 9.65794 8.35232 9.68665 8.4289 9.73088C8.50548 9.7751 8.5726 9.83399 8.62641 9.90417C8.68023 9.97434 8.71969 10.0544 8.74254 10.1399L9.48218 12.8973C9.50554 12.9831 9.51167 13.0727 9.50021 13.1609C9.48875 13.2491 9.45993 13.3342 9.41541 13.4111C9.37089 13.4881 9.31156 13.5555 9.24084 13.6095C9.17012 13.6634 9.08942 13.7028 9.00339 13.7253C8.94623 13.7402 8.88743 13.7478 8.82837 13.748C8.68028 13.7479 8.53637 13.6989 8.41893 13.6087C8.3015 13.5185 8.21708 13.3921 8.17876 13.2491L7.85901 12.0584L4.97366 17.0491C4.91471 17.1512 4.88361 17.267 4.88347 17.3849C4.88333 17.5028 4.91415 17.6186 4.97285 17.7209C5.03155 17.8231 5.11608 17.9081 5.21796 17.9674C5.31985 18.0268 5.43553 18.0583 5.55342 18.0588H9.59241C9.77094 18.0588 9.94217 18.1298 10.0684 18.256C10.1947 18.3822 10.2656 18.5535 10.2656 18.732ZM22.1074 16.3759L20.1603 13.0101C20.0671 12.8636 19.921 12.7587 19.7523 12.7174C19.5837 12.6761 19.4056 12.7015 19.2553 12.7884C19.105 12.8753 18.994 13.0169 18.9457 13.1837C18.8973 13.3504 18.9152 13.5294 18.9957 13.6832L20.9428 17.0491C21.0018 17.1512 21.0329 17.267 21.033 17.3849C21.0331 17.5028 21.0023 17.6186 20.9436 17.7209C20.8849 17.8231 20.8004 17.9081 20.6985 17.9674C20.5966 18.0268 20.4809 18.0583 20.363 18.0588H14.5831L15.4531 17.1888C15.5795 17.0626 15.6505 16.8913 15.6505 16.7128C15.6506 16.5342 15.5798 16.363 15.4536 16.2367C15.3274 16.1103 15.1562 16.0393 14.9776 16.0393C14.799 16.0392 14.6278 16.11 14.5015 16.2362L12.482 18.2557C12.4194 18.3182 12.3697 18.3925 12.3359 18.4742C12.302 18.5559 12.2845 18.6435 12.2845 18.732C12.2845 18.8205 12.302 18.9081 12.3359 18.9898C12.3697 19.0715 12.4194 19.1457 12.482 19.2083L14.5015 21.2278C14.564 21.2902 14.6382 21.3398 14.7199 21.3736C14.8016 21.4074 14.8892 21.4248 14.9776 21.4247C15.066 21.4247 15.1536 21.4072 15.2352 21.3734C15.3169 21.3395 15.3911 21.2899 15.4536 21.2273C15.5161 21.1648 15.5656 21.0906 15.5994 21.0089C15.6332 20.9272 15.6506 20.8396 15.6505 20.7512C15.6505 20.6628 15.6331 20.5752 15.5992 20.4936C15.5653 20.4119 15.5157 20.3377 15.4531 20.2752L14.5831 19.4052H20.363C20.7174 19.4049 21.0655 19.3115 21.3724 19.1341C21.6792 18.9568 21.934 18.7018 22.1111 18.3949C22.2882 18.0879 22.3814 17.7397 22.3813 17.3854C22.3813 17.031 22.2879 16.6828 22.1107 16.3759H22.1074ZM12.9582 3.92233C13.0765 3.92115 13.193 3.95176 13.2954 4.01096C13.3979 4.07017 13.4825 4.15581 13.5405 4.25892L16.4259 9.24455L15.2411 8.92648C15.0708 8.8865 14.8916 8.91441 14.7415 9.00429C14.5913 9.09418 14.4821 9.23897 14.4369 9.408C14.3918 9.57702 14.4142 9.757 14.4994 9.90979C14.5846 10.0626 14.726 10.1762 14.8936 10.2265L17.6519 10.9662C17.7087 10.9811 17.7673 10.9887 17.8261 10.9889C17.9741 10.9888 18.118 10.9398 18.2355 10.8496C18.3529 10.7594 18.4373 10.633 18.4757 10.4899L19.2153 7.73077C19.2407 7.64463 19.2486 7.55427 19.2385 7.46503C19.2285 7.37579 19.2007 7.28946 19.1567 7.21113C19.1128 7.1328 19.0536 7.06406 18.9827 7.00894C18.9118 6.95383 18.8306 6.91346 18.7438 6.89021C18.6571 6.86697 18.5666 6.86132 18.4776 6.87359C18.3886 6.88586 18.303 6.91582 18.2258 6.96168C18.1486 7.00755 18.0813 7.0684 18.028 7.14066C17.9747 7.21291 17.9363 7.29511 17.9152 7.38241L17.5955 8.57475L14.7059 3.58575C14.5285 3.27932 14.2737 3.02493 13.9669 2.84807C13.6602 2.67122 13.3123 2.57813 12.9582 2.57812C12.6042 2.57812 12.2563 2.67122 11.9495 2.84807C11.6428 3.02493 11.3879 3.27932 11.2105 3.58575L9.26172 6.95158C9.17799 7.10578 9.15777 7.28658 9.20538 7.45546C9.25299 7.62434 9.36465 7.76796 9.51659 7.85573C9.66853 7.94349 9.84873 7.96846 10.0188 7.92532C10.1889 7.88217 10.3354 7.77432 10.4271 7.62475L12.3759 4.25892C12.434 4.15581 12.5186 4.07017 12.621 4.01096C12.7235 3.95176 12.8399 3.92115 12.9582 3.92233Z" fill="#D5172A"/>
</svg>
