<svg width="46" height="47" viewBox="0 0 46 47" fill="none" xmlns="http://www.w3.org/2000/svg">
<g id="Leaf">
<path id="Vector" d="M40.1837 8.00739C40.1634 7.66081 40.0166 7.33373 39.7711 7.08825C39.5257 6.84276 39.1986 6.69597 38.852 6.67573C25.3706 5.88416 14.5721 9.94291 9.96794 17.5575C8.372 20.1622 7.58556 23.1823 7.70835 26.2346C7.80929 29.0537 8.63096 31.9012 10.1503 34.708L6.69544 38.1611C6.42961 38.427 6.28027 38.7875 6.28027 39.1634C6.28027 39.5394 6.42961 39.8999 6.69544 40.1657C6.96126 40.4315 7.3218 40.5809 7.69773 40.5809C8.07366 40.5809 8.4342 40.4315 8.70002 40.1657L12.1531 36.7108C14.9581 38.2284 17.8074 39.0501 20.6248 39.151C20.822 39.1581 21.0185 39.1617 21.2145 39.1617C24.0686 39.1693 26.8687 38.3833 29.3019 36.8915C36.9165 32.2873 40.977 21.4905 40.1837 8.00739ZM27.841 34.469C23.8123 36.9092 19.0435 36.9481 14.2569 34.6053L29.9518 18.9122C30.0834 18.7806 30.1878 18.6243 30.2591 18.4523C30.3303 18.2804 30.367 18.096 30.367 17.9099C30.367 17.7237 30.3303 17.5394 30.2591 17.3675C30.1878 17.1955 30.0834 17.0392 29.9518 16.9076C29.8202 16.776 29.6639 16.6716 29.4919 16.6003C29.32 16.5291 29.1356 16.4924 28.9495 16.4924C28.7634 16.4924 28.579 16.5291 28.4071 16.6003C28.2351 16.6716 28.0788 16.776 27.9472 16.9076L12.2541 32.6096C9.91835 27.8283 9.952 23.0471 12.3904 19.0255C16.3022 12.5673 25.6009 9.03093 37.4141 9.45239C37.8373 21.2568 34.2992 30.5572 27.841 34.469Z" fill="#1A5632"/>
</g>
</svg>
