<svg width="33" height="32" viewBox="0 0 33 32" fill="none" xmlns="http://www.w3.org/2000/svg">
<g id="Lock">
<path id="Vector" d="M26.75 10H22.75V7C22.75 5.4087 22.1179 3.88258 20.9926 2.75736C19.8674 1.63214 18.3413 1 16.75 1C15.1587 1 13.6326 1.63214 12.5074 2.75736C11.3821 3.88258 10.75 5.4087 10.75 7V10H6.75C6.21957 10 5.71086 10.2107 5.33579 10.5858C4.96071 10.9609 4.75 11.4696 4.75 12V26C4.75 26.5304 4.96071 27.0391 5.33579 27.4142C5.71086 27.7893 6.21957 28 6.75 28H26.75C27.2804 28 27.7891 27.7893 28.1642 27.4142C28.5393 27.0391 28.75 26.5304 28.75 26V12C28.75 11.4696 28.5393 10.9609 28.1642 10.5858C27.7891 10.2107 27.2804 10 26.75 10ZM12.75 7C12.75 5.93913 13.1714 4.92172 13.9216 4.17157C14.6717 3.42143 15.6891 3 16.75 3C17.8109 3 18.8283 3.42143 19.5784 4.17157C20.3286 4.92172 20.75 5.93913 20.75 7V10H12.75V7ZM26.75 26H6.75V12H26.75V26ZM18.25 19C18.25 19.2967 18.162 19.5867 17.9972 19.8334C17.8324 20.08 17.5981 20.2723 17.324 20.3858C17.0499 20.4993 16.7483 20.5291 16.4574 20.4712C16.1664 20.4133 15.8991 20.2704 15.6893 20.0607C15.4796 19.8509 15.3367 19.5836 15.2788 19.2926C15.2209 19.0017 15.2506 18.7001 15.3642 18.426C15.4777 18.1519 15.67 17.9176 15.9166 17.7528C16.1633 17.588 16.4533 17.5 16.75 17.5C17.1478 17.5 17.5294 17.658 17.8107 17.9393C18.092 18.2206 18.25 18.6022 18.25 19Z" fill="#D5172A"/>
</g>
</svg>
