<svg width="31" height="30" viewBox="0 0 31 30" fill="none" xmlns="http://www.w3.org/2000/svg">
<g id="MapPinLine" clip-path="url(#clip0_1316_58665)">
<path id="Vector" d="M24.9289 27.5701H18.452C19.5401 26.5986 20.5661 25.5599 21.5242 24.46C25.1188 20.3258 27.0242 15.9677 27.0242 11.8558C27.0242 8.79954 25.8101 5.86841 23.6489 3.70728C21.4878 1.54614 18.5567 0.332031 15.5004 0.332031C12.4441 0.332031 9.51294 1.54614 7.35181 3.70728C5.19067 5.86841 3.97656 8.79954 3.97656 11.8558C3.97656 15.9677 5.87668 20.3258 9.47656 24.46C10.4346 25.5599 11.4607 26.5986 12.5487 27.5701H6.0718C5.79395 27.5701 5.52749 27.6805 5.33102 27.877C5.13456 28.0734 5.02418 28.3399 5.02418 28.6177C5.02418 28.8956 5.13456 29.1621 5.33102 29.3585C5.52749 29.555 5.79395 29.6654 6.0718 29.6654H24.9289C25.2068 29.6654 25.4733 29.555 25.6697 29.3585C25.8662 29.1621 25.9766 28.8956 25.9766 28.6177C25.9766 28.3399 25.8662 28.0734 25.6697 27.877C25.4733 27.6805 25.2068 27.5701 24.9289 27.5701ZM6.0718 11.8558C6.0718 9.35523 7.06516 6.95703 8.83336 5.18883C10.6016 3.42063 12.9998 2.42727 15.5004 2.42727C18.001 2.42727 20.3992 3.42063 22.1674 5.18883C23.9356 6.95703 24.9289 9.35523 24.9289 11.8558C24.9289 19.3502 17.665 25.6058 15.5004 27.3082C13.3357 25.6058 6.0718 19.3502 6.0718 11.8558ZM20.7385 11.8558C20.7385 10.8198 20.4313 9.80711 19.8557 8.94571C19.2801 8.08431 18.462 7.41293 17.5049 7.01647C16.5478 6.62001 15.4946 6.51628 14.4785 6.71839C13.4624 6.92051 12.529 7.41939 11.7965 8.15195C11.0639 8.88451 10.565 9.81785 10.3629 10.8339C10.1608 11.85 10.2645 12.9032 10.661 13.8604C11.0575 14.8175 11.7288 15.6356 12.5902 16.2112C13.4516 16.7867 14.4644 17.0939 15.5004 17.0939C16.8896 17.0939 18.2219 16.5421 19.2043 15.5597C20.1866 14.5774 20.7385 13.2451 20.7385 11.8558ZM12.3575 11.8558C12.3575 11.2342 12.5418 10.6266 12.8872 10.1098C13.2325 9.59292 13.7234 9.19009 14.2977 8.95222C14.8719 8.71434 15.5039 8.65211 16.1135 8.77337C16.7232 8.89464 17.2832 9.19397 17.7227 9.6335C18.1622 10.073 18.4616 10.633 18.5828 11.2427C18.7041 11.8524 18.6419 12.4843 18.404 13.0586C18.1661 13.6328 17.7633 14.1237 17.2464 14.469C16.7296 14.8144 16.122 14.9987 15.5004 14.9987C14.6668 14.9987 13.8674 14.6676 13.278 14.0782C12.6886 13.4888 12.3575 12.6894 12.3575 11.8558Z" fill="#1A2736"/>
</g>
<defs>
<clipPath id="clip0_1316_58665">
<rect width="29.3333" height="29.3333" fill="white" transform="translate(0.833984 0.332031)"/>
</clipPath>
</defs>
</svg>
