<svg width="24" height="24" viewBox="0 0 24 24" fill="none" xmlns="http://www.w3.org/2000/svg">
<path d="M22.5 17.5C22.5 18.6045 21.6045 19.5 20.5 19.5H3.5C2.3955 19.5 1.5 18.6045 1.5 17.5V6.5C1.5 5.3955 2.3955 4.5 3.5 4.5H20.5C21.6045 4.5 22.5 5.3955 22.5 6.5V17.5Z" fill="#3F51B5"/>
<path d="M15 17C17.7614 17 20 14.7614 20 12C20 9.23858 17.7614 7 15 7C12.2386 7 10 9.23858 10 12C10 14.7614 12.2386 17 15 17Z" fill="#FFC107"/>
<path d="M11.007 15C10.775 14.6915 10.5755 14.358 10.419 14H13.0815C13.2205 13.682 13.3295 13.348 13.4 13H10.101C10.035 12.677 10 12.343 10 12H13.5C13.5 11.657 13.465 11.323 13.3995 11H10.1005C10.1715 10.652 10.28 10.318 10.419 10H13.0815C12.925 9.642 12.726 9.3085 12.4935 9H11.007C11.2255 8.71 11.472 8.439 11.7475 8.2025C10.8735 7.4545 9.7405 7 8.5 7C5.7385 7 3.5 9.2385 3.5 12C3.5 14.7615 5.7385 17 8.5 17C10.1345 17 11.581 16.2125 12.493 15H11.007Z" fill="#FF3D00"/>
</svg>
