<svg width="34" height="34" viewBox="0 0 34 34" fill="none" xmlns="http://www.w3.org/2000/svg">
<path d="M25.8434 7.31675C24.7041 6.16601 23.349 5.25129 21.8558 4.62497C20.3625 3.99865 18.7603 3.67303 17.141 3.66675H17.047C13.7633 3.66675 10.6142 4.97117 8.29231 7.29305C5.97043 9.61492 4.66602 12.7641 4.66602 16.0477V22.7144C4.66602 23.4721 4.96704 24.1989 5.50285 24.7347C6.03867 25.2705 6.7654 25.5715 7.52316 25.5715H9.42792C10.1857 25.5715 10.9124 25.2705 11.4482 24.7347C11.984 24.1989 12.2851 23.4721 12.2851 22.7144V17.9525C12.2851 17.1947 11.984 16.468 11.4482 15.9322C10.9124 15.3963 10.1857 15.0953 9.42792 15.0953H6.61363C6.7973 13.1095 7.5432 11.2172 8.7639 9.64021C9.9846 8.06319 11.6295 6.86679 13.5059 6.19123C15.3823 5.51567 17.4123 5.38895 19.3581 5.82592C21.3039 6.26289 23.0849 7.24544 24.4922 8.65841C26.2123 10.3873 27.2703 12.6656 27.4815 15.0953H24.666C23.9083 15.0953 23.1815 15.3963 22.6457 15.9322C22.1099 16.468 21.8089 17.1947 21.8089 17.9525V22.7144C21.8089 23.4721 22.1099 24.1989 22.6457 24.7347C23.1815 25.2705 23.9083 25.5715 24.666 25.5715H27.5232C27.5232 26.3293 27.2221 27.056 26.6863 27.5918C26.1505 28.1276 25.4238 28.4287 24.666 28.4287H17.9993C17.7468 28.4287 17.5045 28.529 17.3259 28.7076C17.1473 28.8862 17.047 29.1284 17.047 29.381C17.047 29.6336 17.1473 29.8759 17.3259 30.0545C17.5045 30.2331 17.7468 30.3334 17.9993 30.3334H24.666C25.929 30.3334 27.1402 29.8317 28.0332 28.9387C28.9262 28.0457 29.4279 26.8344 29.4279 25.5715V16.0477C29.4341 14.4281 29.1207 12.8233 28.5056 11.3251C27.8905 9.82685 26.9858 8.46473 25.8434 7.31675ZM9.42792 17.0001C9.68051 17.0001 9.92275 17.1004 10.1014 17.279C10.28 17.4576 10.3803 17.6999 10.3803 17.9525V22.7144C10.3803 22.967 10.28 23.2092 10.1014 23.3878C9.92275 23.5664 9.68051 23.6667 9.42792 23.6667H7.52316C7.27057 23.6667 7.02833 23.5664 6.84972 23.3878C6.67112 23.2092 6.57078 22.967 6.57078 22.7144V17.0001H9.42792ZM24.666 23.6667C24.4134 23.6667 24.1712 23.5664 23.9926 23.3878C23.814 23.2092 23.7136 22.967 23.7136 22.7144V17.9525C23.7136 17.6999 23.814 17.4576 23.9926 17.279C24.1712 17.1004 24.4134 17.0001 24.666 17.0001H27.5232V23.6667H24.666Z" fill="#D5172A"/>
</svg>
