<svg width="33" height="32" viewBox="0 0 33 32" fill="none" xmlns="http://www.w3.org/2000/svg">
<g clip-path="url(#clip0_2614_3894)">
<path d="M28.4794 11.5708V9.33155C28.4794 7.91754 27.9177 6.56143 26.9178 5.56158C25.918 4.56172 24.5619 4 23.1479 4H10.3521C8.93812 4 7.58202 4.56172 6.58216 5.56158C5.5823 6.56143 5.02059 7.91754 5.02059 9.33155V11.5708C3.81535 11.8155 2.73178 12.4694 1.95347 13.4216C1.17517 14.3739 0.75 15.5659 0.75 16.7957C0.75 18.0256 1.17517 19.2176 1.95347 20.1698C2.73178 21.122 3.81535 21.7759 5.02059 22.0206V26.3925C5.02059 26.9581 5.24527 27.5006 5.64522 27.9005C6.04516 28.3004 6.5876 28.5251 7.15321 28.5251H26.3468C26.9124 28.5251 27.4548 28.3004 27.8548 27.9005C28.2547 27.5006 28.4794 26.9581 28.4794 26.3925V22.0206C29.6847 21.7759 30.7682 21.122 31.5465 20.1698C32.3248 19.2176 32.75 18.0256 32.75 16.7957C32.75 15.5659 32.3248 14.3739 31.5465 13.4216C30.7682 12.4694 29.6847 11.8155 28.4794 11.5708ZM10.3521 6.13262H23.1479C23.9963 6.13262 24.8099 6.46965 25.4098 7.06957C26.0098 7.66948 26.3468 8.48314 26.3468 9.33155V11.5708C25.1433 11.8182 24.062 12.473 23.2851 13.4248C22.5081 14.3766 22.0831 15.5671 22.0816 16.7957H11.4184C11.4169 15.5671 10.9919 14.3766 10.2149 13.4248C9.43799 12.473 8.35665 11.8182 7.15321 11.5708V9.33155C7.15321 8.48314 7.49024 7.66948 8.09015 7.06957C8.69007 6.46965 9.50373 6.13262 10.3521 6.13262ZM27.4651 19.9947H27.4131C27.1303 19.9947 26.8591 20.107 26.6591 20.307C26.4591 20.5069 26.3468 20.7782 26.3468 21.061V26.3925H7.15321V21.061C7.15321 20.7782 7.04086 20.5069 6.84089 20.307C6.64092 20.107 6.3697 19.9947 6.0869 19.9947H6.03491C5.40454 19.9844 4.79125 19.7881 4.27207 19.4304C3.75289 19.0728 3.35098 18.5697 3.11681 17.9843C2.88264 17.399 2.82666 16.7575 2.9559 16.1404C3.08514 15.5233 3.39384 14.9582 3.84321 14.516C4.29259 14.0738 4.86262 13.7743 5.48169 13.655C6.10076 13.5357 6.74127 13.602 7.32278 13.8456C7.90428 14.0892 8.40085 14.4991 8.75011 15.024C9.09937 15.5489 9.28574 16.1653 9.28583 16.7957V22.1273C9.28583 22.4101 9.39817 22.6813 9.59814 22.8813C9.79811 23.0812 10.0693 23.1936 10.3521 23.1936C10.6349 23.1936 10.9062 23.0812 11.1061 22.8813C11.3061 22.6813 11.4184 22.4101 11.4184 22.1273V18.9283H22.0816V22.1273C22.0816 22.4101 22.1939 22.6813 22.3939 22.8813C22.5938 23.0812 22.8651 23.1936 23.1479 23.1936C23.4307 23.1936 23.7019 23.0812 23.9019 22.8813C24.1018 22.6813 24.2142 22.4101 24.2142 22.1273V16.7957C24.2143 16.1653 24.4006 15.5489 24.7499 15.024C25.0991 14.4991 25.5957 14.0892 26.1772 13.8456C26.7587 13.602 27.3992 13.5357 28.0183 13.655C28.6374 13.7743 29.2074 14.0738 29.6568 14.516C30.1062 14.9582 30.4149 15.5233 30.5441 16.1404C30.6733 16.7575 30.6174 17.399 30.3832 17.9843C30.149 18.5697 29.7471 19.0728 29.2279 19.4304C28.7087 19.7881 28.0955 19.9844 27.4651 19.9947Z" fill="#D5172A"/>
</g>
<defs>
<clipPath id="clip0_2614_3894">
<rect width="32" height="32" fill="white" transform="translate(0.75)"/>
</clipPath>
</defs>
</svg>
