<svg width="32" height="32" viewBox="0 0 32 32" fill="none" xmlns="http://www.w3.org/2000/svg">
<path d="M24.8675 22.0741H23.5342V14.3699C23.5342 14.1854 23.4959 14.0029 23.4218 13.8339C23.3476 13.6649 23.2392 13.5132 23.1033 13.3883L16.4367 7.09827C16.4334 7.09543 16.4304 7.09236 16.4275 7.0891C16.1821 6.86588 15.8622 6.74219 15.5304 6.74219C15.1987 6.74219 14.8788 6.86588 14.6333 7.0891L14.6242 7.09827L7.96501 13.3883C7.82918 13.5132 7.72075 13.6649 7.64659 13.8339C7.57243 14.0029 7.53415 14.1854 7.53418 14.3699V22.0741H6.20085C6.02404 22.0741 5.85447 22.1443 5.72944 22.2694C5.60442 22.3944 5.53418 22.564 5.53418 22.7408C5.53418 22.9176 5.60442 23.0872 5.72944 23.2122C5.85447 23.3372 6.02404 23.4074 6.20085 23.4074H24.8675C25.0443 23.4074 25.2139 23.3372 25.3389 23.2122C25.4639 23.0872 25.5342 22.9176 25.5342 22.7408C25.5342 22.564 25.4639 22.3944 25.3389 22.2694C25.2139 22.1443 25.0443 22.0741 24.8675 22.0741ZM8.86751 14.3699L8.87668 14.3616L15.5342 8.0741L22.1925 14.3599L22.2017 14.3683V22.0741H18.2008V18.0741C18.2008 17.7205 18.0604 17.3813 17.8103 17.1313C17.5603 16.8812 17.2211 16.7408 16.8675 16.7408H14.2008C13.8472 16.7408 13.5081 16.8812 13.258 17.1313C13.008 17.3813 12.8675 17.7205 12.8675 18.0741V22.0741H8.86751V14.3699ZM16.8675 22.0741H14.2008V18.0741H16.8675V22.0741Z" fill="#1A2736"/>
</svg>
