<svg width="373" height="448" viewBox="0 0 373 448" fill="none" xmlns="http://www.w3.org/2000/svg">
<g opacity="0.1">
<path d="M40.9316 65.5439V11.3203" stroke="#1A2736" stroke-width="20" stroke-linecap="round" stroke-linejoin="round"/>
<path d="M119.641 65.5439V11.3203" stroke="#1A2736" stroke-width="20" stroke-linecap="round" stroke-linejoin="round"/>
<path d="M154.762 10.8945H352.536C358.059 10.8945 362.536 15.3717 362.536 20.8945V282.18C362.536 287.702 358.059 292.18 352.536 292.18H127.523C122.001 292.18 117.523 287.702 117.523 282.18V226.942" stroke="#1A2736" stroke-width="20" stroke-linecap="round" stroke-linejoin="round"/>
<path d="M10.4629 76.0612C10.4629 70.7203 14.7925 66.3906 20.1335 66.3906H141.283C146.624 66.3906 150.954 70.7203 150.954 76.0612V91.8838C150.954 130.679 119.504 162.129 80.7083 162.129V162.129C41.9128 162.129 10.4629 130.679 10.4629 91.8838V76.0612Z" stroke="#1A2736" stroke-width="20" stroke-linejoin="round"/>
<path d="M49.3945 157.895V180.937C49.3945 186.46 53.8717 190.937 59.3945 190.937H102.023C107.546 190.937 112.023 186.46 112.023 180.937V157.895" stroke="#1A2736" stroke-width="20" stroke-linejoin="round"/>
<path d="M80.7065 195.172C80.7065 195.172 64.6309 390.038 187.345 390.038C310.06 390.038 324.028 382.413 350.687 418.844C377.347 455.276 344.763 531.104 344.763 531.104" stroke="#1A2736" stroke-width="20" stroke-linecap="round" stroke-linejoin="round"/>
<path d="M197.079 71.0142C208.71 65.34 221.777 62.1562 235.587 62.1562C284.198 62.1562 323.605 101.606 323.605 150.27C323.605 198.933 284.198 238.383 235.587 238.383C197.336 238.383 164.785 213.958 152.646 179.837" stroke="#1A2736" stroke-width="20" stroke-linecap="round"/>
<ellipse cx="195.809" cy="150.267" rx="13.5413" ry="13.5559" fill="#1A2736"/>
<ellipse cx="275.366" cy="150.267" rx="13.5413" ry="13.5559" fill="#1A2736"/>
</g>
</svg>
