<svg width="19" height="20" viewBox="0 0 19 20" fill="none" xmlns="http://www.w3.org/2000/svg">
<g id="sustainable-environment">
<path id="path2056" d="M1.231 3.60502C1.231 3.60502 1.089 4.80026 1.82919 6.23192C1.8378 6.23411 1.84205 6.23633 1.84205 6.23633C4.35528 3.16286 1.77969 0.201 1.77969 0.201C1.27833 1.34808 -0.479598 2.35288 0.125039 4.4128C0.331606 5.11769 0.781251 5.64086 1.22881 5.90574C1.12983 5.6934 0.686608 4.67986 1.231 3.60502Z" fill="#1A2736"/>
<path id="path2058" d="M6.72021 4.52892C6.7654 4.56176 6.81057 4.60769 6.8536 4.66899C7.00207 4.87914 7.20645 4.72154 7.38935 4.65368C7.48618 4.61866 7.53136 4.71715 7.4539 4.78939C7.31834 4.91198 7.16126 4.91419 6.94824 4.91419C6.85357 4.91419 7.29686 5.50743 7.45609 5.10026C7.50773 4.96673 7.62609 5.02801 7.72077 4.98204C7.81544 4.94045 7.78745 4.82662 7.73581 4.81786C7.68632 4.80911 7.6669 4.7084 7.74867 4.64492C7.85195 4.5683 8.00049 4.5705 8.15111 4.58801C8.2544 4.60114 8.25655 4.6471 8.18339 4.72372C8.05428 4.85287 8.05639 5.0083 8.20701 5.07179C8.30383 5.11338 8.35553 5.01928 8.36629 4.91201C8.39426 4.60992 8.82455 4.51359 9.12149 4.55299C9.32591 4.57926 9.57337 4.75656 9.76273 4.84193C9.89613 4.90104 9.80788 5.02365 9.86813 5.10903C9.92838 5.1944 10.0274 5.28632 9.94781 5.35637C9.89186 5.40453 9.81654 5.40015 9.69389 5.40015C9.56478 5.40015 9.5863 5.52493 9.56478 5.59717C10.49 5.2097 11.2776 4.68435 11.9274 4.13489C11.2044 3.88752 10.4341 3.75398 9.62934 3.75398C8.59435 3.75398 7.60888 3.97508 6.72021 4.37569C6.62338 4.41947 6.63629 4.46544 6.72021 4.52892Z" fill="#1A2736"/>
<path id="path2060" d="M8.2956 5.83383C8.2956 5.54925 8.92177 5.50109 9.0229 5.80099C9.16707 5.75283 9.30691 5.7003 9.44678 5.64558C9.30691 5.63682 9.13688 5.57771 8.98626 5.52736C8.88728 5.49452 8.88087 5.43105 8.9734 5.38289C9.04871 5.34129 9.12397 5.29968 9.20143 5.25808C9.29395 5.20773 9.32196 5.0917 9.23589 5.03041C8.97338 4.84653 8.69584 5.12676 8.43118 5.22965C8.33435 5.26905 8.2719 5.30845 8.29341 5.36318C8.31493 5.4179 8.2784 5.51204 8.18373 5.55801C8.11272 5.59304 8.0503 5.59961 8.00512 5.55801C7.92765 5.48796 7.84802 5.40259 7.75119 5.43761C7.43919 5.54707 6.92925 5.78346 6.97228 5.94764C7.00241 6.06367 7.06262 6.13592 7.13148 6.18408C7.53816 6.15343 7.9276 6.09211 8.2977 6.00455C8.2977 5.95639 8.2956 5.90169 8.2956 5.83383Z" fill="#1A2736"/>
<path id="path2062" d="M16.1294 8.85019C16.1036 8.77576 16.0777 8.70134 16.0498 8.6291C16.0132 8.53497 15.8949 8.45834 15.811 8.40143C15.7142 8.33576 15.6496 8.22194 15.6281 8.0906C15.6109 7.99209 15.5419 7.93519 15.4731 8.00962C15.415 8.07091 15.3763 8.1475 15.3547 8.23507C15.3311 8.33358 15.2622 8.37297 15.1998 8.29197C14.9868 8.00958 14.9503 7.51707 14.5608 7.49518C14.4597 7.4908 14.3844 7.60023 14.4339 7.6878C14.5049 7.81695 14.6339 7.88043 14.763 7.96143C14.8491 8.01397 14.89 8.14969 14.8362 8.23507C14.7609 8.35547 14.6426 8.44524 14.5242 8.37082C14.4382 8.31609 14.4833 8.246 14.5673 8.21536C14.6555 8.18471 14.6555 8.1103 14.5673 8.05776C14.4339 7.97676 14.2983 7.89575 14.21 7.77754C14.1498 7.69873 14.0896 7.69435 14.0035 7.7447C13.8529 7.83446 13.7001 7.74473 13.556 7.93518C13.4527 8.0709 13.3021 8.40582 13.1536 8.42114C12.9836 8.43646 12.6458 8.49558 12.5188 8.34016C12.4091 8.20444 12.4306 7.77757 12.6178 7.73598C12.8329 7.68782 12.9169 7.6922 13.1342 7.73598C13.2396 7.75787 13.2461 7.73597 13.2439 7.69438C13.2396 7.61119 13.188 7.55207 13.1492 7.45794C13.1083 7.35287 13.1105 7.20621 13.2676 7.17995C13.713 7.10771 13.7604 6.74431 14.2015 6.74431C14.3026 6.74212 14.3886 6.68084 14.3757 6.58671C14.3628 6.49039 14.2724 6.45318 14.1885 6.47726C14.1068 6.49915 14.0143 6.45537 13.9497 6.37875C13.8163 6.22114 13.6549 6.14669 13.8808 5.9234C13.9109 5.89713 13.9454 5.87964 13.9798 5.86432C14.0401 5.84024 14.0293 5.77016 13.9518 5.70668C13.4247 5.27324 12.833 4.91643 12.1961 4.65156C11.5376 5.36957 10.6877 6.09195 9.6398 6.60638C9.73663 6.79245 9.82051 6.96322 9.69141 7.03984C9.60534 7.09237 9.58165 7.13615 9.65266 7.2062C9.8248 7.37038 9.95607 7.55207 9.55154 7.42511C9.2503 7.33098 9.39015 7.25216 9.41597 7.15365C9.44179 7.05514 9.32775 7.07704 9.23307 7.10769C9.14055 7.13834 8.99641 7.16024 8.96629 7.10333C8.95338 7.07706 8.94047 7.04639 8.89098 7.02231C8.66935 6.9238 8.57037 7.12083 8.71884 7.21496C8.80491 7.2675 8.84791 7.27845 8.81348 7.32442C8.7769 7.37039 8.66718 7.35945 8.5725 7.38791C8.26696 7.48204 7.74624 8.00522 7.56119 8.20005C7.46006 8.30731 7.45145 8.49118 7.37829 8.56561C7.25995 8.6882 7.05555 8.72981 6.94366 8.85677C6.7457 9.08444 5.20504 9.02097 5.00063 9.69521C4.7747 10.4483 5.36212 10.2556 5.77525 10.0148C5.86347 9.96446 5.96032 9.99727 5.95386 10.098C5.95171 10.1549 5.93668 10.2118 5.91301 10.2644C5.87213 10.3563 5.89363 10.4088 5.99261 10.4241C6.29385 10.4723 6.23788 10.7065 6.25939 11.0677C6.27445 11.2954 6.82962 11.2297 6.95442 11.0831C7.15668 10.8444 7.45362 10.665 7.69677 11.0087C7.78499 11.1334 7.96577 11.1597 8.08626 11.1006C8.17664 11.0546 8.28636 10.9846 8.35952 11.0524C8.49938 11.1794 8.51231 11.3874 8.68875 11.4924C8.84152 11.5822 9.07389 11.3873 9.17718 11.5734C9.26324 11.7245 9.28478 12.1338 9.39882 12.1776C9.62906 12.2673 9.79254 12.3396 10.0357 12.3418C10.4165 12.3462 10.9114 12.6154 10.8426 12.992C10.8125 13.1561 10.5543 13.2525 10.5371 13.4298C10.5112 13.6859 10.4833 13.942 10.4575 14.2003C10.4166 14.6119 9.79042 14.3207 9.6398 14.6929C9.54512 14.9271 9.81405 15.0453 9.62685 15.2905C9.50205 15.4503 9.35792 15.6057 9.26324 15.783C9.11262 16.0654 8.79845 16.107 8.58974 16.2274C8.50151 16.2777 8.55314 16.3215 8.59402 16.4135C8.61984 16.466 8.61337 16.5361 8.53376 16.6149C8.41756 16.7287 8.47998 16.7944 8.58326 16.8229C8.68009 16.8491 8.73604 16.917 8.71237 17.0155C8.67794 17.1775 8.68658 17.3066 8.8329 17.4292C9.13844 17.6919 8.80706 17.7838 8.52518 17.6919C7.84739 17.4686 7.89903 16.685 7.82587 16.1749C7.80866 16.0545 7.59137 15.9603 7.58061 15.8399C7.56339 15.6889 7.64296 15.4809 7.66878 15.3299C7.6946 15.1876 7.5332 15.3102 7.5332 15.1964V14.6141C7.5332 14.104 7.5935 14.0274 7.17606 13.7318C6.90925 13.5436 6.93719 13.5195 6.73277 13.2612C6.43153 12.8781 6.34333 12.8212 6.36269 12.3659C6.37991 11.9434 6.76507 11.9718 6.71773 11.5822C6.66393 11.1225 6.33901 11.534 6.10877 11.2669C5.85056 10.9692 5.71505 10.9342 5.42887 10.746C5.42457 10.7416 5.36856 10.6934 5.31692 10.6431C5.25667 10.5818 5.17278 10.5226 5.09317 10.5358C5.0114 10.5489 4.93608 10.5686 4.83925 10.5402C4.53585 10.4548 4.40458 10.4526 4.18726 10.1155C4.10334 9.98415 4.297 9.93816 4.21953 9.82433C4.10979 9.66015 3.99794 9.49379 3.8882 9.32961C3.79352 9.18951 3.85376 9.0122 3.79566 8.92245C3.74187 8.83707 3.64072 8.94653 3.67084 9.04285C3.77412 9.36683 4.03882 9.88566 3.81289 9.84845C3.45785 9.79372 3.41916 9.30334 3.417 8.95746C3.41485 8.85677 3.32443 8.76702 3.25773 8.69259C3.25342 8.68822 3.24917 8.68385 3.24487 8.67947C3.18462 8.60066 3.16305 8.58315 3.12862 8.67947C2.83814 9.4544 2.67676 10.2972 2.67676 11.1794C2.67676 15.0672 5.77744 18.2173 9.59676 18.2173C11.8001 18.2173 13.7603 17.1731 15.0277 15.5422C15.0901 15.4634 15.088 15.4612 15.0084 15.5247C14.9288 15.5904 14.8728 15.597 14.8728 15.4897C14.8728 15.1307 14.8534 15.0628 14.6447 14.7761C14.522 14.6075 14.6468 14.3382 14.6016 14.1434C14.5586 13.9464 14.2596 13.9267 14.4059 13.6443C14.5199 13.4232 14.6856 13.2722 14.563 13.0489C14.5178 12.9701 14.1627 12.1864 14.0982 11.8449C14.081 11.7442 14.053 11.6763 13.9583 11.6413C13.7926 11.58 13.6355 11.4793 13.515 11.4793C13.2439 11.4793 13.1557 11.6238 12.876 11.6238C12.2391 11.6238 12.2219 11.58 11.7313 11.0108C11.5247 10.7744 11.6043 10.4351 11.7097 10.1724C11.7485 10.0783 11.6947 10.0038 11.6151 9.94255C11.4193 9.79588 11.9227 9.49382 12.0949 9.36685C12.4219 9.12824 12.2154 8.8524 12.5339 8.6707C12.9061 8.46055 13.5645 8.42772 14.053 8.39489C14.1519 8.38832 14.2015 8.46273 14.2058 8.56343C14.2208 8.87647 14.6017 8.94436 14.918 9.00565C15.017 9.02535 15.0578 8.93777 15.1418 8.87867C15.2838 8.78016 15.6947 8.90057 16.011 8.98376C16.1079 9.00784 16.1616 8.94651 16.1294 8.85019Z" fill="#1A2736"/>
<path id="path2064" d="M17.4656 7.07484C17.4549 7.04857 17.442 7.0223 17.4291 6.99822C17.201 6.54508 16.9363 6.11166 16.6307 5.70012C15.9852 4.82448 15.1676 4.06048 14.1972 3.45849C13.9239 3.28774 13.6463 3.13886 13.3644 3.00314C13.2159 3.21986 13.046 3.44973 12.8566 3.68834C13.1665 3.82625 13.472 3.98824 13.7689 4.17212C14.9158 4.88357 15.8217 5.84678 16.4629 6.95008C16.6415 7.25436 16.7964 7.56957 16.932 7.89574C17.1106 8.31824 17.2526 8.75386 17.3559 9.19825C17.358 9.20481 17.358 9.21138 17.3623 9.22014C17.825 11.221 17.5495 13.3991 16.4156 15.2883C14.3176 18.7908 10.0013 20.0933 6.41002 18.4734C6.09802 18.3311 5.79034 18.1691 5.49125 17.9831C1.74723 15.6604 0.559442 10.6737 2.84243 6.86687C2.9285 6.7202 3.02319 6.57791 3.11787 6.44C3.26204 6.22985 3.41269 6.03063 3.57192 5.84018C3.59989 5.80735 3.62783 5.77455 3.6558 5.7439C7.88396 7.09675 10.8641 5.24039 12.5575 3.55918C12.5876 3.57012 13.2375 2.81489 13.274 2.77111C13.6979 2.26324 13.9798 1.83638 14.1197 1.60871C14.1907 1.49488 14.2251 1.42918 14.2251 1.42918C11.7764 1.23435 8.75539 -1.44726 5.35996 1.07457C4.19587 1.93925 3.53105 3.14544 3.3417 4.17212C3.60206 3.90724 4.66283 2.88275 6.27663 2.65071C6.47459 2.62006 6.68332 2.60253 6.89635 2.60034C6.89204 2.60253 6.8877 2.60474 6.8834 2.60693C6.81455 2.62882 6.74574 2.65291 6.67689 2.67918C6.55208 2.72296 6.42937 2.77112 6.30672 2.82147C4.63052 3.51541 3.1523 4.74126 2.13883 6.43124C2.08719 6.51442 2.03987 6.59761 1.99468 6.68298C1.96886 6.72895 1.94304 6.77275 1.91937 6.82091C1.88279 6.89096 1.84403 6.95881 1.8096 7.03105C1.08231 8.45177 0.716586 10.1242 0.824173 11.8142C0.828476 11.9127 0.837083 12.009 0.84569 12.1097C1.17275 14.7388 2.62948 17.2016 5.02005 18.6836C5.07169 18.7164 5.12332 18.747 5.17496 18.7777C5.9668 19.2461 6.79952 19.5767 7.64945 19.7737C7.74198 19.7956 7.83447 19.8153 7.92699 19.835C8.67364 19.9839 9.43104 20.0298 10.1798 19.9817C10.2702 19.9773 10.3628 19.9685 10.4553 19.9598C10.55 19.951 10.6425 19.9401 10.735 19.9269C10.7673 19.9247 10.7996 19.9204 10.8318 19.9138C10.976 19.8941 11.1202 19.8701 11.2644 19.8416C13.6162 19.3863 15.7765 17.9633 17.1192 15.7239C18.7502 13.0007 18.776 9.73457 17.4656 7.07484Z" fill="#1A2736"/>
<path id="path2066" d="M10.109 2.17349C11.3957 2.26543 13.3516 1.94146 14.2144 1.44673C14.2187 1.43797 14.2209 1.4336 14.2209 1.4336C11.7722 1.24315 8.75124 -1.4341 5.35795 1.08335C4.19602 1.94585 3.53115 3.14764 3.3418 4.17432C3.63443 3.8766 4.93408 2.62445 6.89216 2.60694C6.84267 2.62227 8.60063 2.06622 10.109 2.17349Z" fill="#1A2736"/>
</g>
</svg>
