<svg width="47" height="46" viewBox="0 0 47 46" fill="none" xmlns="http://www.w3.org/2000/svg">
<g id="Trash">
<path id="Vector" d="M39.0833 8.71354H32V7.29688C32 6.16971 31.5522 5.0887 30.7552 4.29167C29.9582 3.49464 28.8772 3.04688 27.75 3.04688H19.25C18.1228 3.04688 17.0418 3.49464 16.2448 4.29167C15.4478 5.0887 15 6.16971 15 7.29688V8.71354H7.91667C7.54094 8.71354 7.18061 8.8628 6.91493 9.12847C6.64926 9.39415 6.5 9.75449 6.5 10.1302C6.5 10.5059 6.64926 10.8663 6.91493 11.1319C7.18061 11.3976 7.54094 11.5469 7.91667 11.5469H9.33333V37.0469C9.33333 37.7983 9.63184 38.519 10.1632 39.0503C10.6946 39.5817 11.4152 39.8802 12.1667 39.8802H34.8333C35.5848 39.8802 36.3054 39.5817 36.8368 39.0503C37.3682 38.519 37.6667 37.7983 37.6667 37.0469V11.5469H39.0833C39.4591 11.5469 39.8194 11.3976 40.0851 11.1319C40.3507 10.8663 40.5 10.5059 40.5 10.1302C40.5 9.75449 40.3507 9.39415 40.0851 9.12847C39.8194 8.8628 39.4591 8.71354 39.0833 8.71354ZM17.8333 7.29688C17.8333 6.92115 17.9826 6.56082 18.2483 6.29514C18.5139 6.02946 18.8743 5.88021 19.25 5.88021H27.75C28.1257 5.88021 28.4861 6.02946 28.7517 6.29514C29.0174 6.56082 29.1667 6.92115 29.1667 7.29688V8.71354H17.8333V7.29688ZM34.8333 37.0469H12.1667V11.5469H34.8333V37.0469ZM20.6667 18.6302V29.9635C20.6667 30.3393 20.5174 30.6996 20.2517 30.9653C19.9861 31.231 19.6257 31.3802 19.25 31.3802C18.8743 31.3802 18.5139 31.231 18.2483 30.9653C17.9826 30.6996 17.8333 30.3393 17.8333 29.9635V18.6302C17.8333 18.2545 17.9826 17.8942 18.2483 17.6285C18.5139 17.3628 18.8743 17.2135 19.25 17.2135C19.6257 17.2135 19.9861 17.3628 20.2517 17.6285C20.5174 17.8942 20.6667 18.2545 20.6667 18.6302ZM29.1667 18.6302V29.9635C29.1667 30.3393 29.0174 30.6996 28.7517 30.9653C28.4861 31.231 28.1257 31.3802 27.75 31.3802C27.3743 31.3802 27.0139 31.231 26.7483 30.9653C26.4826 30.6996 26.3333 30.3393 26.3333 29.9635V18.6302C26.3333 18.2545 26.4826 17.8942 26.7483 17.6285C27.0139 17.3628 27.3743 17.2135 27.75 17.2135C28.1257 17.2135 28.4861 17.3628 28.7517 17.6285C29.0174 17.8942 29.1667 18.2545 29.1667 18.6302Z" fill="#485C72"/>
</g>
</svg>
