<svg xmlns="http://www.w3.org/2000/svg" width="161" height="227" viewBox="0 0 161 227" fill="none">
  <g opacity="0.42">
    <path d="M6 26C6 16.6112 13.6112 9 23 9H138C147.389 9 155 16.6112 155 26H6Z" fill="#D4DBE3"/>
    <path d="M50 9C50 4.02944 54.0294 0 59 0H102C106.971 0 111 4.02944 111 9H50Z" fill="#D4DBE3"/>
    <rect x="6" y="172" width="24" height="50" rx="6" fill="#91A0B0"/>
    <rect x="135" y="172" width="24" height="50" rx="6" fill="#91A0B0"/>
    <path d="M18.8151 221.191L13 38.5H149L143.185 221.191C143.082 224.429 140.427 227 137.188 227H24.8121C21.5727 227 18.9182 224.429 18.8151 221.191Z" fill="#D4DBE3"/>
    <path d="M40 55V38H35L40 55Z" fill="#91A0B0"/>
    <path d="M121 55V38H126L121 55Z" fill="#91A0B0"/>
    <path d="M81 55L83 38H78L81 55Z" fill="#91A0B0"/>
    <rect y="26" width="161" height="13" rx="6" fill="#E6EAEF"/>
    <path d="M70.3121 139.13C70.3121 137.162 70.9498 135.535 72.2253 134.249C73.5007 132.886 75.1138 132.205 77.0645 132.205C80.1406 132.205 82.9165 131.751 85.3924 130.843C87.8683 129.859 89.819 128.308 91.2445 126.189C92.745 124.07 93.4953 121.27 93.4953 117.789C93.4953 115.216 92.8575 112.946 91.5821 110.978C90.3817 109.011 88.6936 107.459 86.5178 106.324C84.4171 105.189 82.0162 104.622 79.3153 104.622C77.2145 104.622 75.2263 105 73.3507 105.757C71.55 106.514 69.8995 107.535 68.3989 108.822C67.1985 109.881 65.7355 110.676 64.0099 111.205C62.3593 111.659 60.6712 111.243 58.9456 109.957C57.145 108.595 56.1696 106.968 56.0196 105.076C55.8695 103.184 56.5823 101.443 58.1578 99.854C60.8588 97.054 64.0099 94.8973 67.6111 93.3838C71.2874 91.7946 75.1888 91 79.3153 91C84.4921 91 89.1437 92.2108 93.2702 94.6324C97.4716 96.9784 100.81 100.157 103.286 104.168C105.762 108.178 107 112.719 107 117.789C107 121.573 106.437 124.941 105.312 127.892C104.187 130.768 102.573 133.265 100.473 135.384C98.447 137.427 96.0462 139.092 93.2702 140.378C90.5692 141.589 87.6057 142.459 84.3795 142.989C84.2295 143.065 84.0794 143.141 83.9294 143.216C83.8544 143.292 83.8168 143.405 83.8168 143.557V147.757C83.8168 149.724 83.1791 151.389 81.9037 152.751C80.6282 154.038 79.0152 154.681 77.0645 154.681C75.1138 154.681 73.5007 154.038 72.2253 152.751C70.9498 151.389 70.3121 149.724 70.3121 147.757V139.13ZM76.5018 175C74.326 175 72.6379 174.432 71.4375 173.297C70.3121 172.086 69.7494 170.384 69.7494 168.189V166.259C69.7494 164.065 70.3121 162.4 71.4375 161.265C72.6379 160.054 74.326 159.449 76.5018 159.449H77.9648C80.1406 159.449 81.7911 160.054 82.9165 161.265C84.117 162.4 84.7172 164.065 84.7172 166.259V168.189C84.7172 170.384 84.117 172.086 82.9165 173.297C81.7911 174.432 80.1406 175 77.9648 175H76.5018Z" fill="#91A0B0"/>
  </g>
</svg>