<svg width="24" height="25" viewBox="0 0 24 25" fill="none" xmlns="http://www.w3.org/2000/svg">
<g id="Frame 995">
<path id="Union" fill-rule="evenodd" clip-rule="evenodd" d="M14.0611 2.62715L16.6598 9.03551H21.0877C21.3674 9.03454 21.641 9.11761 21.873 9.27394C22.105 9.43028 22.2848 9.65268 22.3889 9.91233L23.6165 12.9812C23.6503 13.0648 23.6676 13.1541 23.6673 13.2443V18.856C23.6673 19.228 23.5195 19.5849 23.2564 19.848C22.9933 20.1111 22.6365 20.2589 22.2644 20.2589H20.7738C20.6192 20.8624 20.2682 21.3974 19.7761 21.7794C19.2839 22.1614 18.6786 22.3688 18.0556 22.3688C17.4326 22.3688 16.8273 22.1614 16.3351 21.7794C15.843 21.3974 15.492 20.8624 15.3374 20.2589H10.9533C10.7988 20.8624 10.4478 21.3974 9.95561 21.7794C9.46346 22.1614 8.85816 22.3688 8.23514 22.3688C7.61212 22.3688 7.00682 22.1614 6.51467 21.7794C6.02252 21.3974 5.6715 20.8624 5.51697 20.2589H4.02636C3.65428 20.2589 3.29744 20.1111 3.03434 19.848C2.77125 19.5849 2.62344 19.228 2.62344 18.856V14.8653L0.436812 9.47307C0.296988 9.12827 0.299866 8.74204 0.444812 8.39935C0.589758 8.05667 0.864898 7.7856 1.20971 7.64578L13.5606 2.63735C13.7209 2.57234 13.8992 2.56903 14.0611 2.62715ZM15.3949 10.7245L16.6527 10.2145V13.8691L15.3949 10.7245ZM14.0948 11.2517L5.72145 14.6472H15.4529L14.0948 11.2517ZM13.4378 4.20105L1.73691 8.94587L3.84573 14.1462L15.5466 9.40142L13.4378 4.20105ZM18.0556 10.4384H21.0877L21.9294 12.5428H18.0556V10.4384ZM7.45571 20.7239C7.22501 20.5697 7.04519 20.3506 6.939 20.0943C6.83282 19.8379 6.80504 19.5559 6.85917 19.2837C6.9133 19.0116 7.04692 18.7616 7.24312 18.5654C7.43932 18.3692 7.6893 18.2356 7.96144 18.1815C8.23358 18.1273 8.51566 18.1551 8.77201 18.2613C9.02837 18.3675 9.24747 18.5473 9.40163 18.778C9.55578 19.0087 9.63806 19.2799 9.63806 19.5574C9.63806 19.9295 9.49026 20.2863 9.22716 20.5494C8.96406 20.8125 8.60722 20.9603 8.23514 20.9603C7.95767 20.9603 7.68642 20.8781 7.45571 20.7239ZM10.9533 18.856C10.7988 18.2524 10.4478 17.7175 9.95561 17.3354C9.46346 16.9534 8.85816 16.7461 8.23514 16.7461C7.61212 16.7461 7.00682 16.9534 6.51467 17.3354C6.02252 17.7175 5.6715 18.2524 5.51697 18.856H4.02636V16.0501H16.6527V17.1295C16.3301 17.3159 16.0478 17.5645 15.822 17.8609C15.5963 18.1573 15.4315 18.4955 15.3374 18.856H10.9533ZM18.0556 20.9603C17.7781 20.9603 17.5069 20.8781 17.2762 20.7239C17.0455 20.5697 16.8657 20.3506 16.7595 20.0943C16.6533 19.8379 16.6255 19.5559 16.6796 19.2837C16.7338 19.0116 16.8674 18.7616 17.0636 18.5654C17.2598 18.3692 17.5098 18.2356 17.7819 18.1815C18.0541 18.1273 18.3361 18.1551 18.5925 18.2613C18.8488 18.3675 19.068 18.5473 19.2221 18.778C19.3763 19.0087 19.4585 19.2799 19.4585 19.5574C19.4585 19.9295 19.3107 20.2863 19.0476 20.5494C18.7845 20.8125 18.4277 20.9603 18.0556 20.9603ZM22.2644 18.856H20.7738C20.6174 18.2539 20.2657 17.7207 19.7738 17.3399C19.282 16.9591 18.6777 16.7522 18.0556 16.7516V13.9457H22.2644V18.856Z" fill="#D5172A"/>
</g>
</svg>
