<svg width="16" height="16" viewBox="0 0 16 16" fill="none" xmlns="http://www.w3.org/2000/svg">
<g id="Frame 995">
<path id="Union" fill-rule="evenodd" clip-rule="evenodd" d="M9.4129 1.23138L11.1948 5.62569H14.2311C14.4229 5.62503 14.6106 5.68199 14.7696 5.78919C14.9287 5.89639 15.052 6.04889 15.1234 6.22694L15.9651 8.33132C15.9883 8.38862 16.0002 8.44988 16 8.5117V12.3597C16 12.6148 15.8986 12.8595 15.7182 13.0399C15.5378 13.2204 15.2931 13.3217 15.038 13.3217H14.0159C13.9099 13.7356 13.6692 14.1024 13.3317 14.3644C12.9943 14.6263 12.5792 14.7685 12.152 14.7685C11.7248 14.7685 11.3097 14.6263 10.9722 14.3644C10.6347 14.1024 10.3941 13.7356 10.2881 13.3217H7.28182C7.17586 13.7356 6.93516 14.1024 6.59769 14.3644C6.26021 14.6263 5.84515 14.7685 5.41793 14.7685C4.99072 14.7685 4.57566 14.6263 4.23818 14.3644C3.90071 14.1024 3.66001 13.7356 3.55405 13.3217H2.53192C2.27678 13.3217 2.03209 13.2204 1.85168 13.0399C1.67126 12.8595 1.56991 12.6148 1.56991 12.3597V9.62328L0.0705101 5.92573C-0.0253687 5.68929 -0.0233954 5.42445 0.075996 5.18947C0.175387 4.95448 0.364055 4.76861 0.600495 4.67273L9.06971 1.23838C9.17963 1.1938 9.30184 1.19153 9.4129 1.23138ZM10.3275 6.78387L11.19 6.43412V8.94013L10.3275 6.78387ZM9.43596 7.14539L3.69426 9.4737H10.3673L9.43596 7.14539ZM8.98547 2.31063L0.962006 5.56422L2.40805 9.1302L10.4315 5.8766L8.98547 2.31063ZM12.152 6.58769H14.2311L14.8083 8.03069H12.152V6.58769ZM4.88347 13.6406C4.72527 13.5349 4.60197 13.3846 4.52916 13.2089C4.45634 13.0331 4.43729 12.8396 4.47441 12.653C4.51153 12.4664 4.60315 12.295 4.73769 12.1605C4.87223 12.0259 5.04365 11.9343 5.23026 11.8972C5.41687 11.8601 5.61029 11.8791 5.78608 11.9519C5.96186 12.0247 6.11211 12.1481 6.21781 12.3063C6.32352 12.4645 6.37994 12.6504 6.37994 12.8407C6.37994 13.0959 6.27859 13.3405 6.09818 13.521C5.91776 13.7014 5.67307 13.8027 5.41793 13.8027C5.22767 13.8027 5.04167 13.7463 4.88347 13.6406ZM7.28182 12.3597C7.17586 11.9458 6.93516 11.579 6.59769 11.3171C6.26021 11.0551 5.84515 10.9129 5.41793 10.9129C4.99072 10.9129 4.57566 11.0551 4.23818 11.3171C3.90071 11.579 3.66001 11.9458 3.55405 12.3597H2.53192V10.4357H11.19V11.1758C10.9688 11.3037 10.7752 11.4742 10.6204 11.6774C10.4656 11.8806 10.3526 12.1125 10.2881 12.3597H7.28182ZM12.152 13.8027C11.9617 13.8027 11.7757 13.7463 11.6175 13.6406C11.4593 13.5349 11.336 13.3846 11.2632 13.2089C11.1904 13.0331 11.1713 12.8396 11.2085 12.653C11.2456 12.4664 11.3372 12.295 11.4717 12.1605C11.6063 12.0259 11.7777 11.9343 11.9643 11.8972C12.1509 11.8601 12.3443 11.8791 12.5201 11.9519C12.6959 12.0247 12.8461 12.1481 12.9519 12.3063C13.0576 12.4645 13.114 12.6504 13.114 12.8407C13.114 13.0959 13.0126 13.3405 12.8322 13.521C12.6518 13.7014 12.4071 13.8027 12.152 13.8027ZM15.038 12.3597H14.0159C13.9086 11.9469 13.6675 11.5812 13.3302 11.3201C12.9929 11.059 12.5785 10.9171 12.152 10.9167V8.9927H15.038V12.3597Z" fill="#1A2736"/>
</g>
</svg>
