<svg width="117" height="154" viewBox="0 0 117 154" fill="none" xmlns="http://www.w3.org/2000/svg">
<g id="unknown-container">
<path id="Rectangle 24" d="M109.609 27.8049V23.9697C109.609 15.3034 102.583 8.27819 93.9168 8.27889L80.0882 8.27999C80.0882 5.04464 77.4655 2.42188 74.2301 2.42188H42.2793C39.044 2.42188 36.4212 5.04464 36.4212 8.27999L21.9869 8.27884C13.654 8.27817 6.89844 15.0332 6.89844 23.3661V27.8049H14.1993L17.0192 115.581H13.32C11.3202 115.581 9.69901 117.202 9.69901 119.202V144.505C9.69901 146.505 11.3202 148.126 13.32 148.126H18.0757C18.2596 149.961 19.8073 151.383 21.6784 151.383H95.4803C97.3514 151.383 98.8991 149.961 99.083 148.126H105.796C107.795 148.126 109.417 146.505 109.417 144.505V119.202C109.417 117.202 107.795 115.581 105.796 115.581H100.292H100.125L102.912 27.8049H109.609Z" stroke="#D4DBE3" stroke-width="3.62095" stroke-linejoin="round" stroke-dasharray="7.24 7.24"/>
</g>
</svg>
