<svg width="114" height="149" viewBox="0 0 114 149" fill="none" xmlns="http://www.w3.org/2000/svg">
<g id="unknown-container">
<rect id="Rectangle 26" x="4.71289" y="112.602" width="16.8228" height="32.5673" rx="3.62095" fill="#D4DBE3"/>
<rect id="Rectangle 27" x="95.1367" y="112.602" width="16.8228" height="32.5673" rx="3.62095" fill="#D4DBE3"/>
<path id="Vector 369" d="M13.707 144.93L9.62109 25.6484H104.95L100.864 144.93C100.798 146.88 99.197 148.427 97.2455 148.427H17.3258C15.3743 148.427 13.7738 146.88 13.707 144.93Z" fill="#E6EAEF"/>
<path id="Vector 370" d="M28.5458 36.3932V25.3203H25.041L28.5458 36.3932Z" fill="#D4DBE3"/>
<path id="Vector 372" d="M85.3234 36.3932V25.3203H88.8281L85.3234 36.3932Z" fill="#D4DBE3"/>
<path id="Vector 371" d="M57.2845 36.3932L58.6864 25.3203H55.1816L57.2845 36.3932Z" fill="#D4DBE3"/>
<path id="Rectangle 24" d="M4.71289 17.5026C4.71289 11.3872 9.67038 6.42969 15.7858 6.42969H98.0815C104.197 6.42969 109.154 11.3872 109.154 17.5026H4.71289Z" fill="#E6EAEF"/>
<path id="Rectangle 25" d="M35.5547 6.43242C35.5547 3.19487 38.1792 0.570312 41.4168 0.570312H72.4505C75.688 0.570312 78.3126 3.19487 78.3126 6.43242H35.5547Z" fill="#E6EAEF"/>
<rect id="Rectangle 23" x="0.507812" y="17.5078" width="112.853" height="8.46749" rx="3.62095" fill="#F6F7F9"/>
</g>
</svg>
