<svg width="33" height="31" viewBox="0 0 33 31" fill="none" xmlns="http://www.w3.org/2000/svg">
<g id="User">
<path id="Vector" d="M29.1148 25.3477C27.2111 22.1996 24.2773 19.9422 20.8536 18.8721C22.5471 17.9077 23.8629 16.4383 24.5989 14.6894C25.3348 12.9406 25.4502 11.009 24.9274 9.1913C24.4046 7.37362 23.2724 5.77035 21.7048 4.6277C20.1372 3.48505 18.2208 2.86621 16.2498 2.86621C14.2789 2.86621 12.3625 3.48505 10.7949 4.6277C9.22725 5.77035 8.09509 7.37362 7.57228 9.1913C7.04946 11.009 7.16488 12.9406 7.90083 14.6894C8.63678 16.4383 9.95256 17.9077 11.6461 18.8721C8.22235 19.941 5.2886 22.1984 3.38485 25.3477C3.31504 25.4566 3.26873 25.5778 3.24866 25.704C3.22859 25.8303 3.23517 25.9592 3.26801 26.083C3.30084 26.2068 3.35927 26.3231 3.43984 26.4249C3.52041 26.5268 3.6215 26.6122 3.73713 26.6761C3.85277 26.74 3.98061 26.781 4.11311 26.7969C4.24561 26.8128 4.3801 26.8031 4.50863 26.7684C4.63716 26.7338 4.75713 26.6748 4.86146 26.5951C4.96579 26.5154 5.05238 26.4165 5.1161 26.3042C7.4711 22.4112 11.6336 20.0869 16.2498 20.0869C20.8661 20.0869 25.0286 22.4112 27.3836 26.3042C27.4473 26.4165 27.5339 26.5154 27.6382 26.5951C27.7426 26.6748 27.8625 26.7338 27.9911 26.7684C28.1196 26.8031 28.2541 26.8128 28.3866 26.7969C28.5191 26.781 28.6469 26.74 28.7626 26.6761C28.8782 26.6122 28.9793 26.5268 29.0599 26.4249C29.1404 26.3231 29.1989 26.2068 29.2317 26.083C29.2645 25.9592 29.2711 25.8303 29.251 25.704C29.231 25.5778 29.1847 25.4566 29.1148 25.3477ZM9.24985 11.4782C9.24985 10.1539 9.66039 8.85935 10.4296 7.75825C11.1987 6.65716 12.292 5.79896 13.5711 5.29218C14.8501 4.7854 16.2576 4.65281 17.6155 4.91116C18.9733 5.16951 20.2206 5.80721 21.1996 6.74362C22.1786 7.68002 22.8452 8.87307 23.1153 10.1719C23.3854 11.4707 23.2468 12.817 22.717 14.0405C22.1872 15.2639 21.29 16.3097 20.1388 17.0454C18.9877 17.7811 17.6343 18.1738 16.2498 18.1738C14.3939 18.1719 12.6146 17.4659 11.3023 16.2106C9.98997 14.9553 9.25184 13.2534 9.24985 11.4782Z" fill="#D5172A"/>
</g>
</svg>
