<svg width="179" height="224" viewBox="0 0 179 224" fill="none" xmlns="http://www.w3.org/2000/svg">
<path fill-rule="evenodd" clip-rule="evenodd" d="M164.577 75.4917C164.577 97.7682 154.981 117.791 139.719 131.609C132.871 110.26 112.976 94.8176 89.4999 94.8176C66.0239 94.8176 46.1288 110.26 39.2804 131.609C24.0185 117.791 14.4229 97.7682 14.4229 75.4917C14.4229 33.7988 48.036 0 89.4999 0C130.964 0 164.577 33.7988 164.577 75.4917ZM89.4999 85.1547C104.32 85.1547 116.335 72.9871 116.335 57.9777C116.335 42.9682 104.32 30.8006 89.4999 30.8006C74.6795 30.8006 62.6651 42.9682 62.6651 57.9777C62.6651 72.9871 74.6795 85.1547 89.4999 85.1547Z" fill="#E6EAEF"/>
<rect y="152" width="179" height="31" rx="15.5" fill="#E6EAEF"/>
<rect x="22" y="161" width="135" height="12" rx="6" fill="#F6F7F9"/>
<rect y="192" width="179" height="32" rx="16" fill="#E6EAEF"/>
<circle cx="27" cy="208" r="6" fill="#F6F7F9"/>
<circle cx="99" cy="208" r="6" fill="#F6F7F9"/>
<circle cx="63" cy="208" r="6" fill="#F6F7F9"/>
<circle cx="135" cy="208" r="6" fill="#F6F7F9"/>
<circle cx="45" cy="208" r="6" fill="#F6F7F9"/>
<circle cx="117" cy="208" r="6" fill="#F6F7F9"/>
<circle cx="81" cy="208" r="6" fill="#F6F7F9"/>
<circle cx="153" cy="208" r="6" fill="#F6F7F9"/>
</svg>
