<svg width="16" height="16" viewBox="0 0 16 16" fill="none" xmlns="http://www.w3.org/2000/svg">
<g id="User">
<path id="Vector" d="M14.4329 12.6704C13.481 11.0964 12.0142 9.96767 10.3023 9.43262C11.1491 8.95045 11.8069 8.21573 12.1749 7.3413C12.5429 6.46687 12.6006 5.50108 12.3392 4.59223C12.0778 3.68339 11.5117 2.88176 10.7279 2.31043C9.94408 1.73911 8.98587 1.42969 8.00041 1.42969C7.01496 1.42969 6.05674 1.73911 5.27293 2.31043C4.48911 2.88176 3.92304 3.68339 3.66163 4.59223C3.40022 5.50108 3.45793 6.46687 3.82591 7.3413C4.19388 8.21573 4.85177 8.95045 5.69854 9.43262C3.98666 9.96707 2.51979 11.0958 1.56791 12.6704C1.53301 12.7249 1.50985 12.7855 1.49982 12.8486C1.48978 12.9117 1.49307 12.9762 1.50949 13.0381C1.52591 13.1 1.55512 13.1581 1.59541 13.209C1.63569 13.26 1.68624 13.3027 1.74405 13.3346C1.80187 13.3666 1.86579 13.3871 1.93204 13.395C1.9983 13.403 2.06554 13.3981 2.1298 13.3808C2.19407 13.3635 2.25405 13.334 2.30622 13.2941C2.35838 13.2543 2.40168 13.2048 2.43354 13.1487C3.61104 11.2022 5.69229 10.04 8.00041 10.04C10.3085 10.04 12.3898 11.2022 13.5673 13.1487C13.5992 13.2048 13.6424 13.2543 13.6946 13.2941C13.7468 13.334 13.8068 13.3635 13.871 13.3808C13.9353 13.3981 14.0025 13.403 14.0688 13.395C14.135 13.3871 14.199 13.3666 14.2568 13.3346C14.3146 13.3027 14.3651 13.26 14.4054 13.209C14.4457 13.1581 14.4749 13.1 14.4913 13.0381C14.5078 12.9762 14.511 12.9117 14.501 12.8486C14.491 12.7855 14.4678 12.7249 14.4329 12.6704ZM4.50041 5.73566C4.50041 5.07352 4.70568 4.42626 5.09027 3.87571C5.47485 3.32516 6.02148 2.89606 6.66102 2.64267C7.30056 2.38928 8.0043 2.32299 8.68323 2.45216C9.36216 2.58134 9.9858 2.90019 10.4753 3.36839C10.9648 3.83659 11.2981 4.43312 11.4332 5.08253C11.5682 5.73195 11.4989 6.40508 11.234 7.01682C10.9691 7.62855 10.5205 8.15141 9.94491 8.51928C9.36934 8.88714 8.69265 9.08349 8.00041 9.08349C7.07246 9.08254 6.1828 8.72952 5.52664 8.10188C4.87047 7.47425 4.50141 6.62327 4.50041 5.73566Z" fill="#1A2736"/>
</g>
</svg>
