<svg width="27" height="27" viewBox="0 0 27 27" fill="none" xmlns="http://www.w3.org/2000/svg">
<path d="M25.6421 5.88375L25.0596 5.5475C25.128 5.1857 25.128 4.8143 25.0596 4.4525L25.6421 4.11625C25.8719 3.98364 26.0395 3.7652 26.1082 3.50898C26.1769 3.25276 26.141 2.97974 26.0084 2.75C25.8758 2.52026 25.6573 2.3526 25.4011 2.28392C25.1449 2.21523 24.8719 2.25114 24.6421 2.38375L24.0584 2.72125C23.779 2.48157 23.4578 2.29554 23.1109 2.1725V1.5C23.1109 1.23478 23.0055 0.98043 22.818 0.792893C22.6304 0.605357 22.3761 0.5 22.1109 0.5C21.8457 0.5 21.5913 0.605357 21.4038 0.792893C21.2162 0.98043 21.1109 1.23478 21.1109 1.5V2.1725C20.764 2.29554 20.4427 2.48157 20.1634 2.72125L19.5796 2.38375C19.4659 2.31809 19.3403 2.27548 19.2101 2.25835C19.0798 2.24122 18.9475 2.24991 18.8206 2.28392C18.6938 2.31792 18.5749 2.37659 18.4707 2.45656C18.3665 2.53653 18.279 2.63624 18.2134 2.75C18.1477 2.86376 18.1051 2.98933 18.088 3.11956C18.0708 3.24979 18.0795 3.38211 18.1135 3.50898C18.1475 3.63585 18.2062 3.75477 18.2862 3.85897C18.3662 3.96316 18.4659 4.05059 18.5796 4.11625L19.1621 4.4525C19.0938 4.8143 19.0938 5.1857 19.1621 5.5475L18.5796 5.88375C18.3889 5.99377 18.2398 6.16367 18.1554 6.36709C18.0711 6.57052 18.0563 6.79608 18.1133 7.00879C18.1703 7.22149 18.2959 7.40944 18.4706 7.54346C18.6453 7.67748 18.8594 7.75008 19.0796 7.75C19.2552 7.75054 19.4278 7.70438 19.5796 7.61625L20.1634 7.27875C20.4427 7.51843 20.764 7.70446 21.1109 7.8275V8.5C21.1109 8.76522 21.2162 9.01957 21.4038 9.20711C21.5913 9.39464 21.8457 9.5 22.1109 9.5C22.3761 9.5 22.6304 9.39464 22.818 9.20711C23.0055 9.01957 23.1109 8.76522 23.1109 8.5V7.8275C23.4578 7.70446 23.779 7.51843 24.0584 7.27875L24.6421 7.61625C24.794 7.70438 24.9665 7.75054 25.1421 7.75C25.3623 7.75008 25.5764 7.67748 25.7511 7.54346C25.9259 7.40944 26.0515 7.22149 26.1084 7.00879C26.1654 6.79608 26.1506 6.57052 26.0663 6.36709C25.982 6.16367 25.8329 5.99377 25.6421 5.88375ZM21.1109 5C21.1109 4.80222 21.1695 4.60888 21.2794 4.44443C21.3893 4.27998 21.5455 4.15181 21.7282 4.07612C21.9109 4.00043 22.112 3.98063 22.306 4.01921C22.4999 4.0578 22.6781 4.15304 22.818 4.29289C22.9578 4.43275 23.0531 4.61093 23.0917 4.80491C23.1302 4.99889 23.1104 5.19996 23.0348 5.38268C22.9591 5.56541 22.8309 5.72159 22.6664 5.83147C22.502 5.94135 22.3087 6 22.1109 6C21.8457 6 21.5913 5.89464 21.4038 5.70711C21.2162 5.51957 21.1109 5.26522 21.1109 5ZM24.7796 11.0137C24.5181 11.0575 24.2846 11.2034 24.1306 11.4193C23.9766 11.6352 23.9146 11.9034 23.9584 12.165C24.0599 12.7714 24.1109 13.3852 24.1109 14C24.1132 16.6927 23.1236 19.292 21.3309 21.3012C20.2156 19.6851 18.6474 18.4348 16.8234 17.7075C17.8031 16.9358 18.5181 15.878 18.8688 14.6811C19.2195 13.4843 19.1885 12.2079 18.7801 11.0294C18.3718 9.851 17.6064 8.82911 16.5903 8.10586C15.5742 7.38262 14.3581 6.99397 13.1109 6.99397C11.8637 6.99397 10.6475 7.38262 9.63145 8.10586C8.61539 8.82911 7.84996 9.851 7.44161 11.0294C7.03325 12.2079 7.00227 13.4843 7.35296 14.6811C7.70366 15.878 8.4186 16.9358 9.39837 17.7075C7.5744 18.4348 6.00616 19.6851 4.89087 21.3012C3.48427 19.7162 2.56546 17.7586 2.24493 15.6638C1.92439 13.569 2.21578 11.4262 3.08404 9.49308C3.95231 7.55995 5.36049 5.91877 7.13927 4.76688C8.91805 3.615 10.9917 3.00144 13.1109 3C13.7257 2.9999 14.3395 3.05091 14.9459 3.1525C15.2063 3.19359 15.4723 3.13019 15.6862 2.97611C15.9001 2.82203 16.0445 2.58972 16.088 2.32973C16.1315 2.06973 16.0706 1.80307 15.9185 1.58776C15.7664 1.37245 15.5355 1.22591 15.2759 1.18C12.5602 0.723144 9.76955 1.14117 7.30692 2.37372C4.84428 3.60627 2.83708 5.58956 1.5751 8.03724C0.313129 10.4849 -0.13831 13.2703 0.285968 15.9913C0.710246 18.7123 1.98828 21.228 3.93556 23.1753C5.88283 25.1226 8.39857 26.4006 11.1195 26.8249C13.8405 27.2492 16.6259 26.7977 19.0736 25.5358C21.5213 24.2738 23.5046 22.2666 24.7372 19.804C25.9697 17.3413 26.3877 14.5507 25.9309 11.835C25.8871 11.5734 25.7412 11.34 25.5253 11.186C25.3094 11.0319 25.0412 10.97 24.7796 11.0137ZM9.11087 13C9.11087 12.2089 9.34547 11.4355 9.785 10.7777C10.2245 10.1199 10.8492 9.60723 11.5801 9.30448C12.311 9.00173 13.1153 8.92252 13.8912 9.07686C14.6672 9.2312 15.3799 9.61216 15.9393 10.1716C16.4987 10.731 16.8797 11.4437 17.034 12.2196C17.1884 12.9956 17.1091 13.7998 16.8064 14.5307C16.5036 15.2616 15.991 15.8864 15.3332 16.3259C14.6754 16.7654 13.902 17 13.1109 17C12.05 17 11.0326 16.5786 10.2824 15.8284C9.5323 15.0783 9.11087 14.0609 9.11087 13ZM6.37087 22.6875C7.09429 21.5561 8.09088 20.625 9.26877 19.9801C10.4467 19.3351 11.768 18.9971 13.1109 18.9971C14.4538 18.9971 15.7751 19.3351 16.953 19.9801C18.1309 20.625 19.1275 21.5561 19.8509 22.6875C17.9238 24.1862 15.5522 24.9999 13.1109 24.9999C10.6696 24.9999 8.29795 24.1862 6.37087 22.6875Z" fill="#D5172A"/>
</svg>
