<svg width="24" height="24" viewBox="0 0 24 24" fill="none" xmlns="http://www.w3.org/2000/svg">
<path d="M22.5 17.5C22.5 18.6045 21.6045 19.5 20.5 19.5H3.5C2.3955 19.5 1.5 18.6045 1.5 17.5V6.5C1.5 5.3955 2.3955 4.5 3.5 4.5H20.5C21.6045 4.5 22.5 5.3955 22.5 6.5V17.5Z" fill="#1565C0"/>
<path d="M7.59348 9.50049L6.28048 13.4165C6.28048 13.4165 5.94698 11.76 5.91398 11.552C5.16648 9.84649 4.06348 9.94149 4.06348 9.94149L5.36348 15.0005V14.9995H6.94398L9.12948 9.50049H7.59348Z" fill="white"/>
<path d="M8.84473 15H10.2802L11.1482 9.5H9.69473L8.84473 15Z" fill="white"/>
<path d="M19.0042 9.5H17.4937L15.1387 15H16.5647L16.8587 14.2145H18.6567L18.8097 15H20.1162L19.0042 9.5ZM17.2567 13.164L18.0382 11.0855L18.4472 13.164H17.2567Z" fill="white"/>
<path d="M13.1846 11.103C13.1846 10.8 13.4336 10.5745 14.1476 10.5745C14.6116 10.5745 15.1431 10.9115 15.1431 10.9115L15.3761 9.75701C15.3761 9.75701 14.6971 9.49951 14.0306 9.49951C12.5211 9.49951 11.7426 10.2215 11.7426 11.1355C11.7426 12.7885 13.7321 12.562 13.7321 13.411C13.7321 13.5565 13.6166 13.893 12.7881 13.893C11.9571 13.893 11.4086 13.5885 11.4086 13.5885L11.1611 14.6965C11.1611 14.6965 11.6926 14.9995 12.7196 14.9995C13.7491 14.9995 15.1771 14.2295 15.1771 13.1235C15.1771 11.793 13.1846 11.697 13.1846 11.103Z" fill="white"/>
<path d="M6.10571 12.4725L5.62271 10.0985C5.62271 10.0985 5.40421 9.58398 4.83621 9.58398C4.26821 9.58398 2.61621 9.58398 2.61621 9.58398C2.61621 9.58398 5.44671 10.42 6.10571 12.4725Z" fill="#FFC107"/>
</svg>
