<svg width="22" height="17" viewBox="0 0 22 17" fill="none" xmlns="http://www.w3.org/2000/svg">
<g id="chinese 1" clip-path="url(#clip0_2580_111390)">
<path id="Vector" d="M0 0.15625H22V16.6562H0V0.15625Z" fill="#EE1C25"/>
<path id="Vector_2" d="M2.64038 6.25969L4.12536 1.80469L5.61034 6.25969L1.65039 3.53719H6.60033L2.64038 6.25969Z" fill="#FFFF00"/>
<path id="Vector_3" d="M9.08076 1.89115L7.55253 2.22982L8.57191 1.04193L8.47193 2.64067L7.62386 1.22531L9.08076 1.89115Z" fill="#FFFF00"/>
<path id="Vector_4" d="M10.6228 3.84662L9.08283 3.56606L10.4831 2.86652L9.77094 4.30134L9.53817 2.66784L10.6228 3.84662Z" fill="#FFFF00"/>
<path id="Vector_5" d="M10.3984 6.59105L9.10673 5.7068L10.6706 5.63921L9.43512 6.65879L9.8888 5.07239L10.3984 6.59105Z" fill="#FFFF00"/>
<path id="Vector_6" d="M8.45631 8.3814L7.60641 7.0669L9.07502 7.60856L7.54164 8.07186L8.57283 6.78379L8.45631 8.3814Z" fill="#FFFF00"/>
</g>
<defs>
<clipPath id="clip0_2580_111390">
<rect width="22" height="16.5" fill="white" transform="translate(0 0.15625)"/>
</clipPath>
</defs>
</svg>
