<svg width="22" height="17" viewBox="0 0 22 17" fill="none" xmlns="http://www.w3.org/2000/svg">
<g id="english 1" clip-path="url(#clip0_2580_110762)">
<path id="Vector" d="M0 0.15625H22V16.6562H0" fill="#BD3D44"/>
<path id="Vector_2" d="M0 2.05469H22H0ZM0 4.58812H22H0ZM0 7.13188H22H0ZM0 9.67562H22H0ZM0 12.2194H22H0ZM0 14.7631H22H0Z" fill="#1A2736"/>
<path id="Vector (Stroke)" fill-rule="evenodd" clip-rule="evenodd" d="M22 2.69375H0V1.42188H22V2.69375ZM22 5.22719H0V3.95531H22V5.22719ZM22 7.77094H0V6.49906H22V7.77094ZM22 10.3147H0V9.04281H22V10.3147ZM22 12.8584H0V11.5866H22V12.8584ZM22 15.4022H0V14.1303H22V15.4022Z" fill="white"/>
<path id="Vector_3" d="M0 0.15625H12.54V9.04219H0" fill="#192F5D"/>
<path id="Union" fill-rule="evenodd" clip-rule="evenodd" d="M1.2157 0.881099L1.10456 0.539062L0.993428 0.881099H0.633789L0.924743 1.09249L0.813608 1.43453L1.10456 1.22314L1.39552 1.43453L1.28438 1.09249L1.57534 0.881099H1.2157ZM1.2157 2.66198L1.10456 2.31994L0.993427 2.66198H0.633789L0.924743 2.87337L0.813608 3.21541L1.10456 3.00402L1.39552 3.21541L1.28438 2.87337L1.57533 2.66198H1.2157ZM1.10456 4.10082L1.2157 4.44286H1.57533L1.28438 4.65425L1.39552 4.99629L1.10456 4.7849L0.813608 4.99629L0.924743 4.65425L0.633789 4.44286H0.993427L1.10456 4.10082ZM1.2157 6.22374L1.10456 5.8817L0.993427 6.22374H0.633789L0.924743 6.43513L0.813608 6.77717L1.10456 6.56578L1.39552 6.77717L1.28438 6.43513L1.57533 6.22374H1.2157ZM1.10456 7.66258L1.2157 8.00462H1.57533L1.28438 8.21601L1.39552 8.55805L1.10456 8.34666L0.813608 8.55805L0.924743 8.21601L0.633789 8.00462H0.993427L1.10456 7.66258ZM2.26545 1.77132L2.15431 1.42928L2.04318 1.77132H1.68354L1.9745 1.98271L1.86336 2.32474L2.15431 2.11335L2.44527 2.32474L2.33413 1.98271L2.62509 1.77132H2.26545ZM2.15431 3.21016L2.26545 3.5522H2.62509L2.33413 3.76359L2.44527 4.10562L2.15431 3.89423L1.86336 4.10562L1.9745 3.76359L1.68354 3.5522H2.04318L2.15431 3.21016ZM2.26545 5.33308L2.15431 4.99104L2.04318 5.33308H1.68354L1.9745 5.54447L1.86336 5.8865L2.15431 5.67511L2.44527 5.8865L2.33413 5.54447L2.62509 5.33308H2.26545ZM2.15431 6.77192L2.26545 7.11396H2.62509L2.33413 7.32535L2.44527 7.66738L2.15431 7.45599L1.86336 7.66738L1.9745 7.32535L1.68354 7.11396H2.04318L2.15431 6.77192ZM3.28205 0.881099L3.17092 0.539062L3.05978 0.881099H2.70014L2.9911 1.09249L2.87996 1.43453L3.17092 1.22314L3.46187 1.43453L3.35074 1.09249L3.64169 0.881099H3.28205ZM3.1709 2.31994L3.28204 2.66198H3.64167L3.35072 2.87337L3.46186 3.21541L3.1709 3.00402L2.87995 3.21541L2.99108 2.87337L2.70013 2.66198H3.05977L3.1709 2.31994ZM3.28204 4.44286L3.1709 4.10082L3.05977 4.44286H2.70013L2.99108 4.65425L2.87995 4.99629L3.1709 4.7849L3.46186 4.99629L3.35072 4.65425L3.64167 4.44286H3.28204ZM3.1709 5.8817L3.28204 6.22374H3.64167L3.35072 6.43513L3.46186 6.77717L3.1709 6.56578L2.87995 6.77717L2.99108 6.43513L2.70013 6.22374H3.05977L3.1709 5.8817ZM3.28204 8.00462L3.1709 7.66258L3.05977 8.00462H2.70013L2.99108 8.21601L2.87995 8.55805L3.1709 8.34666L3.46186 8.55805L3.35072 8.21601L3.64167 8.00462H3.28204ZM4.22068 1.42928L4.33182 1.77132H4.69145L4.4005 1.98271L4.51164 2.32474L4.22068 2.11335L3.92973 2.32474L4.04086 1.98271L3.74991 1.77132H4.10955L4.22068 1.42928ZM4.33182 3.5522L4.22068 3.21016L4.10955 3.5522H3.74991L4.04086 3.76359L3.92973 4.10562L4.22068 3.89423L4.51164 4.10562L4.4005 3.76359L4.69145 3.5522H4.33182ZM4.22068 4.99104L4.33182 5.33308H4.69145L4.4005 5.54447L4.51164 5.8865L4.22068 5.67511L3.92973 5.8865L4.04086 5.54447L3.74991 5.33308H4.10955L4.22068 4.99104ZM4.33182 7.11396L4.22068 6.77192L4.10955 7.11396H3.74991L4.04086 7.32535L3.92973 7.66738L4.22068 7.45599L4.51164 7.66738L4.4005 7.32535L4.69145 7.11396H4.33182ZM5.23727 0.539062L5.3484 0.881099H5.70804L5.41709 1.09249L5.52822 1.43453L5.23727 1.22314L4.94632 1.43453L5.05745 1.09249L4.7665 0.881099H5.12613L5.23727 0.539062ZM5.3484 2.66198L5.23727 2.31994L5.12613 2.66198H4.7665L5.05745 2.87337L4.94632 3.21541L5.23727 3.00402L5.52822 3.21541L5.41709 2.87337L5.70804 2.66198H5.3484ZM5.23727 4.10082L5.3484 4.44286H5.70804L5.41709 4.65425L5.52822 4.99629L5.23727 4.7849L4.94632 4.99629L5.05745 4.65425L4.7665 4.44286H5.12613L5.23727 4.10082ZM5.3484 6.22374L5.23727 5.8817L5.12613 6.22374H4.7665L5.05745 6.43513L4.94632 6.77717L5.23727 6.56578L5.52822 6.77717L5.41709 6.43513L5.70804 6.22374H5.3484ZM5.23727 7.66258L5.3484 8.00462H5.70804L5.41709 8.21601L5.52822 8.55805L5.23727 8.34666L4.94632 8.55805L5.05745 8.21601L4.7665 8.00462H5.12613L5.23727 7.66258ZM6.39816 1.77132L6.28702 1.42928L6.17589 1.77132H5.81625L6.1072 1.98271L5.99607 2.32474L6.28702 2.11335L6.57798 2.32474L6.46684 1.98271L6.7578 1.77132H6.39816ZM6.28702 3.21016L6.39816 3.5522H6.7578L6.46684 3.76359L6.57798 4.10562L6.28702 3.89423L5.99607 4.10562L6.1072 3.76359L5.81625 3.5522H6.17589L6.28702 3.21016ZM6.39816 5.33308L6.28702 4.99104L6.17589 5.33308H5.81625L6.1072 5.54447L5.99607 5.8865L6.28702 5.67511L6.57798 5.8865L6.46684 5.54447L6.7578 5.33308H6.39816ZM6.28702 6.77192L6.39816 7.11396H6.7578L6.46684 7.32535L6.57798 7.66738L6.28702 7.45599L5.99607 7.66738L6.1072 7.32535L5.81625 7.11396H6.17589L6.28702 6.77192ZM7.41476 0.881099L7.30362 0.539062L7.19249 0.881099H6.83285L7.1238 1.09249L7.01267 1.43453L7.30362 1.22314L7.59458 1.43453L7.48344 1.09249L7.7744 0.881099H7.41476ZM7.30361 2.31994L7.41474 2.66198H7.77438L7.48343 2.87337L7.59456 3.21541L7.30361 3.00402L7.01266 3.21541L7.12379 2.87337L6.83284 2.66198H7.19248L7.30361 2.31994ZM7.41474 4.44286L7.30361 4.10082L7.19248 4.44286H6.83284L7.12379 4.65425L7.01266 4.99629L7.30361 4.7849L7.59456 4.99629L7.48343 4.65425L7.77438 4.44286H7.41474ZM7.30361 5.8817L7.41474 6.22374H7.77438L7.48343 6.43513L7.59456 6.77717L7.30361 6.56578L7.01266 6.77717L7.12379 6.43513L6.83284 6.22374H7.19248L7.30361 5.8817ZM7.41474 8.00462L7.30361 7.66258L7.19248 8.00462H6.83284L7.12379 8.21601L7.01266 8.55805L7.30361 8.34666L7.59456 8.55805L7.48343 8.21601L7.77438 8.00462H7.41474ZM8.35339 1.42928L8.46452 1.77132H8.82416L8.53321 1.98271L8.64434 2.32474L8.35339 2.11335L8.06244 2.32474L8.17357 1.98271L7.88262 1.77132H8.24226L8.35339 1.42928ZM8.46452 3.5522L8.35339 3.21016L8.24226 3.5522H7.88262L8.17357 3.76359L8.06244 4.10562L8.35339 3.89423L8.64434 4.10562L8.53321 3.76359L8.82416 3.5522H8.46452ZM8.35339 4.99104L8.46452 5.33308H8.82416L8.53321 5.54447L8.64434 5.8865L8.35339 5.67511L8.06244 5.8865L8.17357 5.54447L7.88262 5.33308H8.24226L8.35339 4.99104ZM8.46452 7.11396L8.35339 6.77192L8.24226 7.11396H7.88262L8.17357 7.32535L8.06244 7.66738L8.35339 7.45599L8.64434 7.66738L8.53321 7.32535L8.82416 7.11396H8.46452ZM9.36998 0.539062L9.48111 0.881099H9.84075L9.5498 1.09249L9.66093 1.43453L9.36998 1.22314L9.07902 1.43453L9.19016 1.09249L8.8992 0.881099H9.25884L9.36998 0.539062ZM9.48111 2.66198L9.36998 2.31994L9.25884 2.66198H8.8992L9.19016 2.87337L9.07902 3.21541L9.36998 3.00402L9.66093 3.21541L9.5498 2.87337L9.84075 2.66198H9.48111ZM9.36998 4.10082L9.48111 4.44286H9.84075L9.5498 4.65425L9.66093 4.99629L9.36998 4.7849L9.07902 4.99629L9.19016 4.65425L8.8992 4.44286H9.25884L9.36998 4.10082ZM9.48111 6.22374L9.36998 5.8817L9.25884 6.22374H8.8992L9.19016 6.43513L9.07902 6.77717L9.36998 6.56578L9.66093 6.77717L9.5498 6.43513L9.84075 6.22374H9.48111ZM9.36998 7.66258L9.48111 8.00462H9.84075L9.5498 8.21601L9.66093 8.55805L9.36998 8.34666L9.07902 8.55805L9.19016 8.21601L8.8992 8.00462H9.25884L9.36998 7.66258ZM10.5309 1.77132L10.4197 1.42928L10.3086 1.77132H9.94896L10.2399 1.98271L10.1288 2.32474L10.4197 2.11335L10.7107 2.32474L10.5995 1.98271L10.8905 1.77132H10.5309ZM10.4197 3.21016L10.5309 3.5522H10.8905L10.5995 3.76359L10.7107 4.10562L10.4197 3.89423L10.1288 4.10562L10.2399 3.76359L9.94896 3.5522H10.3086L10.4197 3.21016ZM10.5309 5.33308L10.4197 4.99104L10.3086 5.33308H9.94896L10.2399 5.54447L10.1288 5.8865L10.4197 5.67511L10.7107 5.8865L10.5995 5.54447L10.8905 5.33308H10.5309ZM10.4197 6.77192L10.5309 7.11396H10.8905L10.5995 7.32535L10.7107 7.66738L10.4197 7.45599L10.1288 7.66738L10.2399 7.32535L9.94896 7.11396H10.3086L10.4197 6.77192ZM11.5475 0.881099L11.4363 0.539062L11.3252 0.881099H10.9656L11.2565 1.09249L11.1454 1.43453L11.4363 1.22314L11.7273 1.43453L11.6161 1.09249L11.9071 0.881099H11.5475ZM11.4363 2.31994L11.5475 2.66198H11.9071L11.6161 2.87337L11.7273 3.21541L11.4363 3.00402L11.1454 3.21541L11.2565 2.87337L10.9655 2.66198H11.3252L11.4363 2.31994ZM11.5475 4.44286L11.4363 4.10082L11.3252 4.44286H10.9655L11.2565 4.65425L11.1454 4.99629L11.4363 4.7849L11.7273 4.99629L11.6161 4.65425L11.9071 4.44286H11.5475ZM11.4363 5.8817L11.5475 6.22374H11.9071L11.6161 6.43513L11.7273 6.77717L11.4363 6.56578L11.1454 6.77717L11.2565 6.43513L10.9655 6.22374H11.3252L11.4363 5.8817ZM11.5475 8.00462L11.4363 7.66258L11.3252 8.00462H10.9655L11.2565 8.21601L11.1454 8.55805L11.4363 8.34666L11.7273 8.55805L11.6161 8.21601L11.9071 8.00462H11.5475Z" fill="white"/>
</g>
<defs>
<clipPath id="clip0_2580_110762">
<rect width="22" height="16.5" fill="white" transform="translate(0 0.15625)"/>
</clipPath>
</defs>
</svg>
