<svg width="22" height="17" viewBox="0 0 22 17" fill="none" xmlns="http://www.w3.org/2000/svg">
<g id="korean 1" clip-path="url(#clip0_2580_112636)">
<g id="Clip path group">
<mask id="mask0_2580_112636" style="mask-type:luminance" maskUnits="userSpaceOnUse" x="0" y="0" width="23" height="17">
<g id="kr-a">
<path id="Vector" d="M0 0.15625H22.0011V16.6562H0V0.15625Z" fill="white"/>
</g>
</mask>
<g mask="url(#mask0_2580_112636)">
<g id="Group">
<path id="Vector_2" fill-rule="evenodd" clip-rule="evenodd" d="M0 0.15625H22.0043V16.6562H0V0.15625Z" fill="white"/>
<g id="Group_2">
<g id="kr-c">
<path id="kr-b" fill-rule="evenodd" clip-rule="evenodd" d="M2.41113 5.17188L4.69987 1.74006L5.27184 2.12152L2.9831 5.55333L2.41113 5.17188ZM3.26909 5.74406L5.55782 2.31225L6.12979 2.6937L3.84105 6.12551L3.26909 5.74406ZM4.12704 6.31624L6.41577 2.88443L6.98774 3.26589L4.69901 6.6977L4.12704 6.31624Z" fill="#1A2736"/>
<path id="kr-b_2" fill-rule="evenodd" clip-rule="evenodd" d="M14.9941 13.5625L17.2829 10.1307L17.8548 10.5121L15.5661 13.944L14.9941 13.5625ZM15.8521 14.1347L18.1408 10.7029L18.7128 11.0843L16.4241 14.5161L15.8521 14.1347ZM16.71 14.7069L18.9988 11.2751L19.5707 11.6565L17.282 15.0883L16.71 14.7069Z" fill="#1A2736"/>
</g>
<g id="Vector_3">
<path fill-rule="evenodd" clip-rule="evenodd" d="M15.8525 11.6562L18.7124 13.5635L15.8525 11.6562Z" fill="#1A2736"/>
<path d="M15.8525 11.6562L18.7124 13.5635" stroke="white" stroke-width="0.34375"/>
</g>
<path id="Vector_4" fill-rule="evenodd" clip-rule="evenodd" d="M7.55957 6.13281C8.16658 5.22264 9.11029 4.59088 10.1831 4.37651C11.2559 4.16214 12.3699 4.38272 13.2801 4.98973C14.1903 5.59674 14.8221 6.54046 15.0364 7.61327C15.2508 8.68608 15.0302 9.80011 14.4232 10.7103L7.55957 6.13281Z" fill="#CD2E3A"/>
<path id="Vector_5" fill-rule="evenodd" clip-rule="evenodd" d="M7.55924 6.13069C6.95223 7.04086 6.73165 8.15489 6.94602 9.2277C7.16039 10.3005 7.79215 11.2442 8.70232 11.8512C9.61249 12.4582 10.7265 12.6788 11.7993 12.4645C12.8721 12.2501 13.8159 11.6183 14.4229 10.7082C14.7264 10.2531 14.8367 9.69606 14.7295 9.15965C14.6223 8.62324 14.3064 8.15139 13.8513 7.84788C13.3962 7.54438 12.8392 7.43409 12.3028 7.54127C11.7664 7.64845 11.2946 7.96434 10.9911 8.41942L7.55924 6.13069Z" fill="#0047A0"/>
<path id="Vector_6" d="M10.9912 8.41658C11.6232 7.46891 11.3673 6.18832 10.4197 5.55631C9.47201 4.92429 8.19142 5.18018 7.55941 6.12784C6.92739 7.07551 7.18328 8.3561 8.13095 8.98812C9.07861 9.62013 10.3592 9.36425 10.9912 8.41658Z" fill="#CD2E3A"/>
</g>
<g id="Group_3">
<g id="kr-c_2">
<path id="kr-b_3" fill-rule="evenodd" clip-rule="evenodd" d="M4.70898 15.0938L2.42025 11.6619L2.99222 11.2805L5.28095 14.7123L4.70898 15.0938ZM5.56694 14.5216L3.2782 11.0898L3.85017 10.7083L6.13891 14.1401L5.56694 14.5216ZM6.42489 13.9494L4.13616 10.5176L4.70812 10.1361L6.99686 13.5679L6.42489 13.9494Z" fill="#1A2736"/>
<path id="kr-b_4" fill-rule="evenodd" clip-rule="evenodd" d="M17.292 6.70312L15.0033 3.27131L15.5752 2.88986L17.864 6.32167L17.292 6.70312ZM18.1499 6.13094L15.8612 2.69913L16.4332 2.31767L18.7219 5.74949L18.1499 6.13094ZM19.0079 5.55876L16.7192 2.12695L17.2911 1.74549L19.5799 5.1773L19.0079 5.55876Z" fill="#1A2736"/>
</g>
<g id="Vector_7">
<path fill-rule="evenodd" clip-rule="evenodd" d="M4.2793 12.8984L5.13725 12.3263L4.2793 12.8984ZM15.8617 5.17396L16.8626 4.50641L15.8617 5.17396ZM17.7206 3.93423L18.5785 3.36205L17.7206 3.93423Z" fill="#1A2736"/>
<path d="M4.2793 12.8984L5.13725 12.3263M15.8617 5.17396L16.8626 4.50641M17.7206 3.93423L18.5785 3.36205" stroke="white" stroke-width="0.34375"/>
</g>
</g>
</g>
</g>
</g>
</g>
<defs>
<clipPath id="clip0_2580_112636">
<rect width="22" height="16.5" fill="white" transform="translate(0 0.15625)"/>
</clipPath>
</defs>
</svg>
