<svg width="24" height="25" viewBox="0 0 24 25" fill="none" xmlns="http://www.w3.org/2000/svg">
<g id="icon-chevron-right">
<path id="Vector" d="M9.85403 8.0684L14.854 13.0684C14.9005 13.1148 14.9374 13.17 14.9626 13.2307C14.9877 13.2914 15.0007 13.3564 15.0007 13.4222C15.0007 13.4879 14.9877 13.5529 14.9626 13.6136C14.9374 13.6743 14.9005 13.7295 14.854 13.7759L9.85403 18.7759C9.76021 18.8697 9.63296 18.9224 9.50028 18.9224C9.3676 18.9224 9.24035 18.8697 9.14653 18.7759C9.05271 18.6821 9 18.5548 9 18.4222C9 18.2895 9.05271 18.1622 9.14653 18.0684L13.7934 13.4222L9.14653 8.7759C9.10007 8.72945 9.06322 8.6743 9.03808 8.6136C9.01294 8.55291 9 8.48785 9 8.42215C9 8.35646 9.01294 8.2914 9.03808 8.23071C9.06322 8.17001 9.10007 8.11486 9.14653 8.0684C9.19298 8.02195 9.24813 7.9851 9.30883 7.95996C9.36953 7.93482 9.43458 7.92188 9.50028 7.92188C9.56598 7.92187 9.63103 7.93482 9.69173 7.95996C9.75242 7.9851 9.80757 8.02195 9.85403 8.0684Z" fill="#D5172A"/>
</g>
</svg>
