<svg width="32" height="32" viewBox="0 0 32 32" fill="none" xmlns="http://www.w3.org/2000/svg">
<g id="icon-chevron-right">
<path id="Vector" d="M13.1387 9.53131L19.8054 16.198C19.8674 16.2599 19.9165 16.3334 19.9501 16.4143C19.9836 16.4953 20.0009 16.582 20.0009 16.6696C20.0009 16.7573 19.9836 16.844 19.9501 16.9249C19.9165 17.0059 19.8674 17.0794 19.8054 17.1413L13.1387 23.808C13.0136 23.9331 12.8439 24.0033 12.667 24.0033C12.4901 24.0033 12.3205 23.9331 12.1954 23.808C12.0703 23.6829 12 23.5132 12 23.3363C12 23.1594 12.0703 22.9897 12.1954 22.8646L18.3912 16.6696L12.1954 10.4746C12.1334 10.4127 12.0843 10.3392 12.0508 10.2582C12.0173 10.1773 12 10.0906 12 10.003C12 9.91538 12.0173 9.82864 12.0508 9.74771C12.0843 9.66678 12.1334 9.59325 12.1954 9.53131C12.2573 9.46937 12.3308 9.42024 12.4118 9.38671C12.4927 9.35319 12.5794 9.33594 12.667 9.33594C12.7546 9.33594 12.8414 9.35319 12.9223 9.38671C13.0032 9.42024 13.0768 9.46937 13.1387 9.53131Z" fill="white"/>
</g>
</svg>
