<svg width="32" height="32" viewBox="0 0 32 32" fill="none" xmlns="http://www.w3.org/2000/svg">
<g id="icon-chevron-left">
<path id="Vector" d="M18.8622 9.53131L12.1955 16.198C12.1335 16.2599 12.0844 16.3334 12.0508 16.4143C12.0173 16.4953 12 16.582 12 16.6696C12 16.7573 12.0173 16.844 12.0508 16.9249C12.0844 17.0059 12.1335 17.0794 12.1955 17.1413L18.8622 23.808C18.9873 23.9331 19.1569 24.0033 19.3339 24.0033C19.5108 24.0033 19.6804 23.9331 19.8055 23.808C19.9306 23.6829 20.0009 23.5132 20.0009 23.3363C20.0009 23.1594 19.9306 22.9897 19.8055 22.8646L13.6097 16.6696L19.8055 10.4746C19.8675 10.4127 19.9166 10.3392 19.9501 10.2582C19.9836 10.1773 20.0009 10.0906 20.0009 10.003C20.0009 9.91538 19.9836 9.82864 19.9501 9.74771C19.9166 9.66678 19.8675 9.59325 19.8055 9.53131C19.7436 9.46937 19.67 9.42024 19.5891 9.38671C19.5082 9.35319 19.4215 9.33594 19.3339 9.33594C19.2463 9.33594 19.1595 9.35319 19.0786 9.38671C18.9977 9.42024 18.9241 9.46937 18.8622 9.53131Z" fill="white"/>
</g>
</svg>
