<svg width="32" height="32" viewBox="0 0 32 32" fill="none" xmlns="http://www.w3.org/2000/svg">
<g id="icon-appliances">
<g id="Union">
<path d="M15.333 16.3359C15.333 15.9677 15.6315 15.6693 15.9997 15.6693H16.6663C17.0345 15.6693 17.333 15.9677 17.333 16.3359C17.333 16.7041 17.0345 17.0026 16.6663 17.0026H15.9997C15.6315 17.0026 15.333 16.7041 15.333 16.3359Z" fill="#1A2736"/>
<path d="M18.6663 15.6693C18.2982 15.6693 17.9997 15.9677 17.9997 16.3359C17.9997 16.7041 18.2982 17.0026 18.6663 17.0026H19.333C19.7012 17.0026 19.9997 16.7041 19.9997 16.3359C19.9997 15.9677 19.7012 15.6693 19.333 15.6693H18.6663Z" fill="#1A2736"/>
<path fill-rule="evenodd" clip-rule="evenodd" d="M19.9997 19.3359C18.5269 19.3359 17.333 20.5298 17.333 22.0026C17.333 23.4754 18.5269 24.6693 19.9997 24.6693C21.4724 24.6693 22.6663 23.4754 22.6663 22.0026C22.6663 20.5298 21.4724 19.3359 19.9997 19.3359ZM18.6663 22.0026C18.6663 21.2662 19.2633 20.6693 19.9997 20.6693C20.7361 20.6693 21.333 21.2662 21.333 22.0026C21.333 22.739 20.7361 23.3359 19.9997 23.3359C19.2633 23.3359 18.6663 22.739 18.6663 22.0026Z" fill="#1A2736"/>
<path d="M8.66634 8.66927C8.66634 8.30108 8.36786 8.0026 7.99967 8.0026C7.63148 8.0026 7.33301 8.30108 7.33301 8.66927V10.0026C7.33301 10.3708 7.63148 10.6693 7.99967 10.6693C8.36786 10.6693 8.66634 10.3708 8.66634 10.0026V8.66927Z" fill="#1A2736"/>
<path fill-rule="evenodd" clip-rule="evenodd" d="M5.33301 7.33594C5.33301 6.23137 6.22844 5.33594 7.33301 5.33594H15.9997C17.1042 5.33594 17.9997 6.23137 17.9997 7.33594V14.0026H25.9997C26.3679 14.0026 26.6663 14.3011 26.6663 14.6693V24.6693C26.6663 25.7738 25.7709 26.6693 24.6663 26.6693H7.33301C6.22844 26.6693 5.33301 25.7738 5.33301 24.6693V7.33594ZM25.333 15.3359V17.3359H14.6663V15.3359H25.333ZM25.333 24.6693V18.6693H14.6663V24.6693C14.6663 25.0375 14.9648 25.3359 15.333 25.3359H24.6663C25.0345 25.3359 25.333 25.0375 25.333 24.6693ZM16.6663 14.0026H13.9997C13.6315 14.0026 13.333 14.3011 13.333 14.6693V24.6693C13.333 24.903 13.3731 25.1274 13.4468 25.3359H7.33301C6.96482 25.3359 6.66634 25.0375 6.66634 24.6693V13.3359H7.99967C7.63148 13.3359 7.33301 13.6344 7.33301 14.0026V15.3359C7.33301 15.7041 7.63148 16.0026 7.99967 16.0026C8.36786 16.0026 8.66634 15.7041 8.66634 15.3359V14.0026C8.66634 13.6344 8.36786 13.3359 7.99967 13.3359H16.6663V14.0026ZM16.6663 7.33594V12.0026H6.66634V7.33594C6.66634 6.96775 6.96482 6.66927 7.33301 6.66927H15.9997C16.3679 6.66927 16.6663 6.96775 16.6663 7.33594Z" fill="#1A2736"/>
</g>
</g>
</svg>
