<svg width="28" height="28" viewBox="0 0 28 28" fill="none" xmlns="http://www.w3.org/2000/svg">
<path d="M0.915303 0.915425C1.07461 0.756121 1.29067 0.666626 1.51596 0.666626H20.5847C21.0538 0.666626 21.4341 1.04694 21.4341 1.51608V9.23433C21.4341 9.70346 21.0538 10.0838 20.5847 10.0838C20.1155 10.0838 19.7352 9.70346 19.7352 9.23433V2.36553H2.36541V20.9936L3.89955 21.9008L5.85077 20.747C6.11744 20.5893 6.44883 20.5893 6.7155 20.747L8.6863 21.9124L10.882 20.7303C11.295 20.5079 11.8102 20.6624 12.0326 21.0755C12.255 21.4886 12.1004 22.0037 11.6873 22.2261L9.06941 23.6356C8.80735 23.7767 8.49055 23.7703 8.23436 23.6189L6.28314 22.465L4.33191 23.6189C4.06524 23.7766 3.73385 23.7766 3.46718 23.6189L1.08359 22.2094C0.825081 22.0565 0.666504 21.7785 0.666504 21.4782V1.51608C0.666504 1.29079 0.755999 1.07473 0.915303 0.915425Z" fill="#D5172A"/>
<path d="M20.2594 17.4178C20.5486 17.3989 20.6913 17.4844 20.7673 17.5629C20.854 17.6523 20.9534 17.838 20.9534 18.1747C20.9534 18.2034 20.9391 18.2941 20.8368 18.4545C20.7381 18.6093 20.5918 18.7746 20.4214 18.9349C20.254 19.0924 20.083 19.2267 19.9522 19.3224C19.8875 19.3698 19.8344 19.4063 19.7989 19.4302C19.7812 19.4421 19.7679 19.4508 19.7599 19.4559L19.7526 19.4607L20.2039 20.1803C19.7526 19.4607 19.7528 19.4606 19.7526 19.4607L19.7517 19.4613C19.5047 19.6168 19.3544 19.8884 19.3544 20.1803V21.613C19.3544 22.0821 19.7347 22.4624 20.2039 22.4624C20.673 22.4624 21.0533 22.0821 21.0533 21.613V20.6205C21.2078 20.5034 21.3954 20.3511 21.5854 20.1724C21.8147 19.9567 22.0682 19.6833 22.2692 19.368C22.4668 19.0583 22.6523 18.6476 22.6523 18.1747C22.6523 17.5083 22.4509 16.8591 21.9875 16.3807C21.5134 15.8914 20.8567 15.6762 20.1484 15.7226C18.7853 15.8118 17.8982 16.9409 17.8982 18.232C17.8982 18.7012 18.2785 19.0815 18.7477 19.0815C19.2168 19.0815 19.5971 18.7012 19.5971 18.232C19.5971 17.7169 19.9038 17.4411 20.2594 17.4178Z" fill="#D5172A"/>
<path d="M20.2039 24.6801C19.7347 24.6801 19.3544 24.2998 19.3544 23.8307V23.7906C19.3544 23.3214 19.7347 22.9411 20.2039 22.9411C20.673 22.9411 21.0533 23.3214 21.0533 23.7906V23.8307C21.0533 24.2998 20.673 24.6801 20.2039 24.6801Z" fill="#D5172A"/>
<path fill-rule="evenodd" clip-rule="evenodd" d="M13.0442 19.7792C13.0442 15.6565 16.2019 12.2252 20.2039 12.2252C24.2058 12.2252 27.3636 15.6565 27.3636 19.7792C27.3636 23.902 24.2058 27.3333 20.2039 27.3333C16.2019 27.3333 13.0442 23.902 13.0442 19.7792ZM20.2039 13.9241C17.2358 13.9241 14.7431 16.4963 14.7431 19.7792C14.7431 23.0622 17.2358 25.6344 20.2039 25.6344C23.172 25.6344 25.6646 23.0622 25.6646 19.7792C25.6646 16.4963 23.172 13.9241 20.2039 13.9241Z" fill="#D5172A"/>
<path d="M4.91376 13.4084C4.44462 13.4084 4.06431 13.7887 4.06431 14.2578C4.06431 14.7269 4.44462 15.1073 4.91376 15.1073H10.8599C11.3291 15.1073 11.7094 14.7269 11.7094 14.2578C11.7094 13.7887 11.3291 13.4084 10.8599 13.4084H4.91376Z" fill="#D5172A"/>
<path d="M4.06431 5.76329C4.06431 5.29415 4.44462 4.91384 4.91376 4.91384H16.8061C17.2752 4.91384 17.6555 5.29415 17.6555 5.76329C17.6555 6.23243 17.2752 6.61274 16.8061 6.61274H4.91376C4.44462 6.61274 4.06431 6.23243 4.06431 5.76329Z" fill="#D5172A"/>
<path d="M4.91376 9.1611C4.44462 9.1611 4.06431 9.54141 4.06431 10.0105C4.06431 10.4797 4.44462 10.86 4.91376 10.86H16.8061C17.2752 10.86 17.6555 10.4797 17.6555 10.0105C17.6555 9.54141 17.2752 9.1611 16.8061 9.1611H4.91376Z" fill="#D5172A"/>
</svg>
