<svg width="32" height="32" viewBox="0 0 32 32" fill="none" xmlns="http://www.w3.org/2000/svg">
<g id="cardboard-box">
<path id="Vector" d="M25.6891 10.1115L17.306 5.52462C17.082 5.40086 16.8303 5.33594 16.5744 5.33594C16.3184 5.33594 16.0667 5.40086 15.8427 5.52462L7.45958 10.1134C7.22017 10.2444 7.02033 10.4373 6.88091 10.6719C6.74149 10.9065 6.66761 11.1742 6.66699 11.4471V20.5581C6.66761 20.831 6.74149 21.0987 6.88091 21.3333C7.02033 21.5679 7.22017 21.7608 7.45958 21.8918L15.8427 26.4806C16.0667 26.6044 16.3184 26.6693 16.5744 26.6693C16.8303 26.6693 17.082 26.6044 17.306 26.4806L25.6891 21.8918C25.9285 21.7608 26.1284 21.5679 26.2678 21.3333C26.4072 21.0987 26.4811 20.831 26.4817 20.5581V11.4481C26.4816 11.1747 26.408 10.9064 26.2685 10.6712C26.1291 10.4361 25.929 10.2428 25.6891 10.1115ZM16.5744 6.8583L24.2278 11.0499L21.3918 12.6027L13.7374 8.41109L16.5744 6.8583ZM16.5744 15.2415L8.92092 11.0499L12.1503 9.28179L19.8038 13.4734L16.5744 15.2415ZM8.1912 12.3836L15.8122 16.5542V24.7268L8.1912 20.559V12.3836ZM24.9575 20.5552L17.3365 24.7268V16.558L20.3849 14.8899V18.2899C20.3849 18.492 20.4652 18.6858 20.6081 18.8288C20.751 18.9717 20.9449 19.052 21.147 19.052C21.3491 19.052 21.5429 18.9717 21.6859 18.8288C21.8288 18.6858 21.9091 18.492 21.9091 18.2899V14.0554L24.9575 12.3836V20.5543V20.5552Z" fill="#1A2736"/>
</g>
</svg>
