<svg width="32" height="32" viewBox="0 0 32 32" fill="none" xmlns="http://www.w3.org/2000/svg">
<path d="M22.4717 21.5284C22.5337 21.5903 22.5828 21.6639 22.6163 21.7448C22.6498 21.8257 22.6671 21.9124 22.6671 22C22.6671 22.0876 22.6498 22.1744 22.6163 22.2553C22.5828 22.3362 22.5337 22.4098 22.4717 22.4717C22.4098 22.5337 22.3362 22.5828 22.2553 22.6163C22.1744 22.6498 22.0876 22.6671 22 22.6671C21.9124 22.6671 21.8257 22.6498 21.7448 22.6163C21.6639 22.5828 21.5903 22.5337 21.5284 22.4717L16 16.9425L10.4717 22.4717C10.3466 22.5968 10.177 22.6671 10 22.6671C9.82314 22.6671 9.65347 22.5968 9.52838 22.4717C9.40328 22.3466 9.33301 22.177 9.33301 22C9.33301 21.8231 9.40328 21.6535 9.52838 21.5284L15.0575 16L9.52838 10.4717C9.40328 10.3466 9.33301 10.177 9.33301 10C9.33301 9.82314 9.40328 9.65347 9.52838 9.52838C9.65347 9.40328 9.82314 9.33301 10 9.33301C10.177 9.33301 10.3466 9.40328 10.4717 9.52838L16 15.0575L21.5284 9.52838C21.6535 9.40328 21.8231 9.33301 22 9.33301C22.177 9.33301 22.3466 9.40328 22.4717 9.52838C22.5968 9.65347 22.6671 9.82314 22.6671 10C22.6671 10.177 22.5968 10.3466 22.4717 10.4717L16.9425 16L22.4717 21.5284Z" fill="#1A2736"/>
</svg>
