<svg width="22" height="22" viewBox="0 0 22 22" fill="none" xmlns="http://www.w3.org/2000/svg">
<path d="M17.4727 16.5313C17.5346 16.5932 17.5838 16.6668 17.6173 16.7477C17.6508 16.8286 17.6681 16.9154 17.6681 17.003C17.6681 17.0906 17.6508 17.1773 17.6173 17.2582C17.5838 17.3392 17.5346 17.4127 17.4727 17.4746C17.4107 17.5366 17.3372 17.5857 17.2563 17.6192C17.1754 17.6528 17.0886 17.67 17.001 17.67C16.9134 17.67 16.8267 17.6528 16.7458 17.6192C16.6648 17.5857 16.5913 17.5366 16.5294 17.4746L11.001 11.9455L5.47269 17.4746C5.34759 17.5997 5.17793 17.67 5.00102 17.67C4.82411 17.67 4.65445 17.5997 4.52936 17.4746C4.40426 17.3495 4.33398 17.1799 4.33398 17.003C4.33398 16.8261 4.40426 16.6564 4.52936 16.5313L10.0585 11.003L4.52936 5.47464C4.40426 5.34955 4.33398 5.17988 4.33398 5.00297C4.33398 4.82607 4.40426 4.6564 4.52936 4.53131C4.65445 4.40621 4.82411 4.33594 5.00102 4.33594C5.17793 4.33594 5.34759 4.40621 5.47269 4.53131L11.001 10.0605L16.5294 4.53131C16.6544 4.40621 16.8241 4.33594 17.001 4.33594C17.1779 4.33594 17.3476 4.40621 17.4727 4.53131C17.5978 4.6564 17.6681 4.82607 17.6681 5.00297C17.6681 5.17988 17.5978 5.34955 17.4727 5.47464L11.9435 11.003L17.4727 16.5313Z" fill="white"/>
</svg>
