<svg width="200" height="200" viewBox="0 0 200 200" fill="none" xmlns="http://www.w3.org/2000/svg">
<g id="icon">
<path id="Union" fill-rule="evenodd" clip-rule="evenodd" d="M93.8739 20.7888H152.65L152.65 20.789H164.363L164.363 178.762H35.6436L35.6437 104.87L35.6436 104.869V30.0116L35.6437 30.0116V20.789H93.8724L93.8739 20.7888ZM22.2469 20.2858C15.8638 21.2968 11.5088 27.2909 12.5198 33.674L23.9418 105.79V178.762C23.9418 185.225 29.1809 190.464 35.6436 190.464H37.3785C38.7269 196.428 44.4946 200.4 50.6205 199.43L107.228 190.464H164.363C170.555 190.464 175.625 185.654 176.037 179.566L177.755 179.294C184.138 178.283 188.493 172.288 187.482 165.905L176.064 93.8176V20.7888C176.064 14.3261 170.825 9.08706 164.363 9.08706H162.617C161.257 3.1389 155.498 -0.819034 149.381 0.149685L92.9529 9.08706H35.6436C29.4415 9.08706 24.3663 13.9122 23.9671 20.0133L22.2469 20.2858ZM47.857 120.902C47.857 119.351 48.4734 117.862 49.5706 116.765C50.6679 115.668 52.1561 115.051 53.7078 115.051L147.378 115.056C148.93 115.056 150.418 115.672 151.515 116.769C152.612 117.867 153.229 119.355 153.229 120.907C153.229 122.458 152.612 123.946 151.515 125.044C150.418 126.141 148.93 126.757 147.378 126.757L53.7078 126.753C52.1561 126.753 50.6679 126.137 49.5706 125.04C48.4734 123.942 47.857 122.454 47.857 120.902ZM108.079 58.4778C106.982 59.5751 106.366 61.0632 106.366 62.615C106.366 64.1667 106.982 65.6549 108.079 66.7522C109.177 67.8494 110.665 68.4659 112.217 68.4659H147.322C148.873 68.4659 150.362 67.8494 151.459 66.7522C152.556 65.6549 153.173 64.1667 153.173 62.615C153.173 61.0632 152.556 59.5751 151.459 58.4778C150.362 57.3806 148.873 56.7641 147.322 56.7641H112.217C110.665 56.7641 109.177 57.3806 108.079 58.4778ZM108.079 81.8813C106.982 82.9785 106.366 84.4667 106.366 86.0185C106.366 87.5702 106.982 89.0584 108.079 90.1557C109.177 91.2529 110.665 91.8693 112.217 91.8693H147.322C148.873 91.8693 150.362 91.2529 151.459 90.1557C152.556 89.0584 153.173 87.5702 153.173 86.0185C153.173 84.4667 152.556 82.9785 151.459 81.8813C150.362 80.784 148.873 80.1676 147.322 80.1676H112.217C110.665 80.1676 109.177 80.784 108.079 81.8813ZM88.813 103.571H53.7078C52.1561 103.571 50.6679 102.955 49.5706 101.857C48.4734 100.76 47.857 99.2719 47.857 97.7202V50.9132C47.857 49.3615 48.4734 47.8733 49.5706 46.7761C50.6679 45.6788 52.1561 45.0624 53.7078 45.0624H88.813C90.3648 45.0624 91.853 45.6788 92.9502 46.7761C94.0475 47.8733 94.6639 49.3615 94.6639 50.9132V97.7202C94.6639 99.2719 94.0475 100.76 92.9502 101.857C91.853 102.955 90.3648 103.571 88.813 103.571ZM82.9622 56.7641H59.5587V91.8693H82.9622V56.7641Z" fill="#F7E3E4"/>
</g>
</svg>
