<svg width="20" height="22" viewBox="0 0 20 22" fill="none" xmlns="http://www.w3.org/2000/svg">
<path d="M17.0757 3.24813C16.1643 2.32753 15.0802 1.59576 13.8856 1.0947C12.691 0.593646 11.4092 0.333148 10.1138 0.328125H10.0386C7.41164 0.328125 4.89233 1.37166 3.03483 3.22916C1.17732 5.08667 0.133789 7.60598 0.133789 10.2329V15.5662C0.133789 16.1724 0.374605 16.7538 0.803259 17.1825C1.23191 17.6111 1.81329 17.8519 2.4195 17.8519H3.94331C4.54952 17.8519 5.1309 17.6111 5.55956 17.1825C5.98821 16.7538 6.22903 16.1724 6.22903 15.5662V11.7567C6.22903 11.1505 5.98821 10.5691 5.55956 10.1405C5.1309 9.7118 4.54952 9.47098 3.94331 9.47098H1.69188C1.83882 7.88235 2.43554 6.36851 3.4121 5.10689C4.38866 3.84527 5.7046 2.88815 7.20569 2.34771C8.70678 1.80727 10.3308 1.70589 11.8875 2.05547C13.4441 2.40504 14.8689 3.19108 15.9947 4.32146C17.3708 5.7046 18.2173 7.52723 18.3862 9.47098H16.1338C15.5276 9.47098 14.9462 9.7118 14.5175 10.1405C14.0889 10.5691 13.8481 11.1505 13.8481 11.7567V15.5662C13.8481 16.1724 14.0889 16.7538 14.5175 17.1825C14.9462 17.6111 15.5276 17.8519 16.1338 17.8519H18.4195C18.4195 18.4581 18.1787 19.0395 17.75 19.4682C17.3214 19.8968 16.74 20.1377 16.1338 20.1377H10.8005C10.5984 20.1377 10.4046 20.2179 10.2617 20.3608C10.1188 20.5037 10.0386 20.6975 10.0386 20.8996C10.0386 21.1016 10.1188 21.2954 10.2617 21.4383C10.4046 21.5812 10.5984 21.6615 10.8005 21.6615H16.1338C17.1441 21.6615 18.1131 21.2601 18.8275 20.5457C19.542 19.8313 19.9433 18.8623 19.9433 17.8519V10.2329C19.9483 8.93724 19.6975 7.65335 19.2055 6.45478C18.7134 5.25621 17.9896 4.16651 17.0757 3.24813ZM3.94331 10.9948C4.14538 10.9948 4.33918 11.0751 4.48206 11.2179C4.62495 11.3608 4.70522 11.5546 4.70522 11.7567V15.5662C4.70522 15.7683 4.62495 15.9621 4.48206 16.105C4.33918 16.2479 4.14538 16.3281 3.94331 16.3281H2.4195C2.21743 16.3281 2.02364 16.2479 1.88076 16.105C1.73787 15.9621 1.6576 15.7683 1.6576 15.5662V10.9948H3.94331ZM16.1338 16.3281C15.9317 16.3281 15.7379 16.2479 15.595 16.105C15.4522 15.9621 15.3719 15.7683 15.3719 15.5662V11.7567C15.3719 11.5546 15.4522 11.3608 15.595 11.2179C15.7379 11.0751 15.9317 10.9948 16.1338 10.9948H18.4195V16.3281H16.1338Z" fill="#1A2736"/>
</svg>
