<svg width="25" height="24" viewBox="0 0 25 24" fill="none" xmlns="http://www.w3.org/2000/svg">
<path d="M20.2714 16.7202L14.0253 5.87286C13.8692 5.60711 13.6464 5.38675 13.3789 5.23365C13.1114 5.08054 12.8086 5 12.5004 5C12.1922 5 11.8893 5.08054 11.6218 5.23365C11.3543 5.38675 11.1315 5.60711 10.9754 5.87286L4.72933 16.7202C4.57915 16.9772 4.5 17.2696 4.5 17.5673C4.5 17.865 4.57915 18.1573 4.72933 18.4144C4.88341 18.6817 5.10586 18.9033 5.37384 19.0563C5.64182 19.2093 5.94568 19.2882 6.25425 19.285H18.7465C19.0548 19.288 19.3584 19.2089 19.6261 19.0559C19.8938 18.9029 20.116 18.6815 20.27 18.4144C20.4204 18.1574 20.4997 17.8652 20.5 17.5675C20.5002 17.2698 20.4214 16.9773 20.2714 16.7202ZM19.2807 17.8422C19.2263 17.9351 19.1481 18.0119 19.0542 18.0646C18.9603 18.1173 18.8541 18.1441 18.7465 18.1422H6.25425C6.14659 18.1441 6.04038 18.1173 5.9465 18.0646C5.85262 18.0119 5.77444 17.9351 5.71999 17.8422C5.67067 17.7587 5.64465 17.6635 5.64465 17.5665C5.64465 17.4696 5.67067 17.3744 5.71999 17.2908L11.9661 6.44354C12.0216 6.3511 12.1002 6.27461 12.194 6.2215C12.2879 6.16839 12.3939 6.14048 12.5018 6.14048C12.6096 6.14048 12.7157 6.16839 12.8095 6.2215C12.9034 6.27461 12.9819 6.3511 13.0375 6.44354L19.2836 17.2908C19.3325 17.3746 19.358 17.47 19.3575 17.5669C19.357 17.6639 19.3305 17.759 19.2807 17.8422ZM11.929 13.571V10.714C11.929 10.5625 11.9892 10.4172 12.0963 10.31C12.2035 10.2028 12.3488 10.1426 12.5004 10.1426C12.6519 10.1426 12.7972 10.2028 12.9044 10.31C13.0116 10.4172 13.0718 10.5625 13.0718 10.714V13.571C13.0718 13.7226 13.0116 13.8679 12.9044 13.9751C12.7972 14.0822 12.6519 14.1424 12.5004 14.1424C12.3488 14.1424 12.2035 14.0822 12.0963 13.9751C11.9892 13.8679 11.929 13.7226 11.929 13.571ZM13.3575 16.1423C13.3575 16.3119 13.3072 16.4776 13.213 16.6185C13.1188 16.7595 12.985 16.8693 12.8284 16.9342C12.6717 16.9991 12.4994 17.016 12.3331 16.983C12.1669 16.9499 12.0142 16.8683 11.8943 16.7484C11.7744 16.6285 11.6928 16.4758 11.6597 16.3095C11.6267 16.1433 11.6436 15.971 11.7085 15.8143C11.7734 15.6577 11.8832 15.5239 12.0242 15.4297C12.1651 15.3355 12.3308 15.2852 12.5004 15.2852C12.7277 15.2852 12.9457 15.3755 13.1064 15.5363C13.2672 15.697 13.3575 15.915 13.3575 16.1423Z" fill="#D5172A"/>
</svg>
