<svg width="20" height="16" viewBox="0 0 20 16" fill="none" xmlns="http://www.w3.org/2000/svg">
<path d="M19.2308 0.203125H0.769231C0.565218 0.203125 0.369561 0.284169 0.225302 0.428428C0.0810437 0.572686 0 0.768343 0 0.972356V14.0493C0 14.4573 0.162087 14.8486 0.450605 15.1371C0.739122 15.4257 1.13044 15.5877 1.53846 15.5877H18.4615C18.8696 15.5877 19.2609 15.4257 19.5494 15.1371C19.8379 14.8486 20 14.4573 20 14.0493V0.972356C20 0.768343 19.919 0.572686 19.7747 0.428428C19.6304 0.284169 19.4348 0.203125 19.2308 0.203125ZM10 8.39062L2.74712 1.74159H17.2529L10 8.39062ZM7.18365 7.89543L1.53846 13.0695V2.72139L7.18365 7.89543ZM8.32212 8.9387L9.47596 10.0012C9.61788 10.1315 9.80351 10.2038 9.99615 10.2038C10.1888 10.2038 10.3744 10.1315 10.5163 10.0012L11.6702 8.9387L17.2471 14.0493H2.74712L8.32212 8.9387ZM12.8163 7.89543L18.4615 2.72043V13.0704L12.8163 7.89543Z" fill="#1A2736"/>
</svg>
