<svg width="32" height="32" viewBox="0 0 32 32" fill="none" xmlns="http://www.w3.org/2000/svg">
<g id="icon-mattress">
<g id="Union">
<path d="M10.6663 16C10.6663 16.3682 10.3679 16.6667 9.99967 16.6667C9.63148 16.6667 9.33301 16.3682 9.33301 16C9.33301 15.6318 9.63148 15.3333 9.99967 15.3333C10.3679 15.3333 10.6663 15.6318 10.6663 16Z" fill="#1A2736"/>
<path d="M10.6663 14C11.0345 14 11.333 13.7015 11.333 13.3333C11.333 12.9651 11.0345 12.6667 10.6663 12.6667C10.2982 12.6667 9.99967 12.9651 9.99967 13.3333C9.99967 13.7015 10.2982 14 10.6663 14Z" fill="#1A2736"/>
<path d="M11.9997 10.6667C11.9997 11.0349 11.7012 11.3333 11.333 11.3333C10.9648 11.3333 10.6663 11.0349 10.6663 10.6667C10.6663 10.2985 10.9648 10 11.333 10C11.7012 10 11.9997 10.2985 11.9997 10.6667Z" fill="#1A2736"/>
<path d="M17.9997 16.6667C18.3679 16.6667 18.6663 16.3682 18.6663 16C18.6663 15.6318 18.3679 15.3333 17.9997 15.3333C17.6315 15.3333 17.333 15.6318 17.333 16C17.333 16.3682 17.6315 16.6667 17.9997 16.6667Z" fill="#1A2736"/>
<path d="M18.333 13.3333C18.333 13.7015 18.0345 14 17.6663 14C17.2982 14 16.9997 13.7015 16.9997 13.3333C16.9997 12.9651 17.2982 12.6667 17.6663 12.6667C18.0345 12.6667 18.333 12.9651 18.333 13.3333Z" fill="#1A2736"/>
<path d="M17.333 11.3333C17.7012 11.3333 17.9997 11.0349 17.9997 10.6667C17.9997 10.2985 17.7012 10 17.333 10C16.9648 10 16.6663 10.2985 16.6663 10.6667C16.6663 11.0349 16.9648 11.3333 17.333 11.3333Z" fill="#1A2736"/>
<path d="M14.6663 16C14.6663 16.3682 14.3679 16.6667 13.9997 16.6667C13.6315 16.6667 13.333 16.3682 13.333 16C13.333 15.6318 13.6315 15.3333 13.9997 15.3333C14.3679 15.3333 14.6663 15.6318 14.6663 16Z" fill="#1A2736"/>
<path d="M14.333 14C14.7012 14 14.9997 13.7015 14.9997 13.3333C14.9997 12.9651 14.7012 12.6667 14.333 12.6667C13.9648 12.6667 13.6663 12.9651 13.6663 13.3333C13.6663 13.7015 13.9648 14 14.333 14Z" fill="#1A2736"/>
<path d="M15.333 10.6667C15.333 11.0349 15.0345 11.3333 14.6663 11.3333C14.2982 11.3333 13.9997 11.0349 13.9997 10.6667C13.9997 10.2985 14.2982 10 14.6663 10C15.0345 10 15.333 10.2985 15.333 10.6667Z" fill="#1A2736"/>
<path d="M21.9997 16.6667C22.3679 16.6667 22.6663 16.3682 22.6663 16C22.6663 15.6318 22.3679 15.3333 21.9997 15.3333C21.6315 15.3333 21.333 15.6318 21.333 16C21.333 16.3682 21.6315 16.6667 21.9997 16.6667Z" fill="#1A2736"/>
<path d="M21.9997 13.3333C21.9997 13.7015 21.7012 14 21.333 14C20.9648 14 20.6663 13.7015 20.6663 13.3333C20.6663 12.9651 20.9648 12.6667 21.333 12.6667C21.7012 12.6667 21.9997 12.9651 21.9997 13.3333Z" fill="#1A2736"/>
<path d="M20.333 11.3333C20.7012 11.3333 20.9997 11.0349 20.9997 10.6667C20.9997 10.2985 20.7012 10 20.333 10C19.9648 10 19.6663 10.2985 19.6663 10.6667C19.6663 11.0349 19.9648 11.3333 20.333 11.3333Z" fill="#1A2736"/>
<path fill-rule="evenodd" clip-rule="evenodd" d="M9.38691 8.40405C9.49196 8.15893 9.73299 8 9.99967 8H21.9997C22.2664 8 22.5074 8.15893 22.6124 8.40405L26.5046 17.4858C26.6113 17.7348 26.6663 18.0028 26.6663 18.2737V22.6667C26.6663 23.7712 25.7709 24.6667 24.6663 24.6667H7.33301C6.22844 24.6667 5.33301 23.7712 5.33301 22.6667V18.2737C5.33301 18.0028 5.38802 17.7348 5.49472 17.4858L9.38691 8.40405ZM6.66634 20.6667H8.66634C9.03453 20.6667 9.33301 20.3682 9.33301 20C9.33301 19.6318 9.03453 19.3333 8.66634 19.3333H6.66634V18.6667H25.333V19.3333H10.6663C10.2982 19.3333 9.99967 19.6318 9.99967 20C9.99967 20.3682 10.2982 20.6667 10.6663 20.6667H25.333V22.6667C25.333 23.0349 25.0345 23.3333 24.6663 23.3333H7.33301C6.96482 23.3333 6.66634 23.0349 6.66634 22.6667V20.6667ZM10.4393 9.33333L7.0107 17.3333H24.9886L21.5601 9.33333H10.4393Z" fill="#1A2736"/>
</g>
</g>
</svg>
