<svg width="32" height="32" viewBox="0 0 32 32" fill="none" xmlns="http://www.w3.org/2000/svg">
<g id="icon-other">
<g id="Union">
<path d="M16.1326 5C15.0354 5 14.1353 5.20897 13.0206 5.7811C11.9286 6.34152 11.391 6.94584 10.6121 7.80019C10.3901 8.0843 10.2949 8.41197 10.3469 8.76517L10.3475 8.76912C10.4019 9.10983 10.5947 9.38224 10.8841 9.5837C11.1605 9.7762 11.4765 9.87776 11.7993 9.77662L11.8088 9.77366L11.818 9.77015C12.0719 9.67373 12.2939 9.52763 12.4804 9.33293L12.4949 9.31776L12.5074 9.3009C12.9329 8.7268 13.4645 8.26372 14.1055 7.91044C14.7383 7.56161 15.4123 7.38797 16.1326 7.38797C16.8701 7.38797 17.5177 7.57053 18.0854 7.92992L18.092 7.93386C18.6607 8.27585 19.1118 8.76273 19.4455 9.40461L19.451 9.41437C19.7965 10.0278 19.9764 10.7704 19.9764 11.6547C19.9764 12.4938 19.7895 13.2151 19.4261 13.8295C19.0576 14.4526 18.5591 14.9462 17.926 15.3135C17.2954 15.6794 16.5725 15.8938 15.7508 15.9511C15.4295 15.9544 15.1503 16.0864 14.9257 16.321C14.693 16.564 14.5774 16.8654 14.5774 17.2044V20.7245C14.5559 21.0542 14.6441 21.3563 14.8558 21.605L14.8685 21.6199L14.8828 21.6332C15.1188 21.8523 15.4098 21.9597 15.7347 21.9597C16.0596 21.9597 16.3497 21.8519 16.5722 21.6195C16.8049 21.3765 16.9206 21.075 16.9206 20.736V18.0962C17.533 18.005 18.1145 17.8278 18.6637 17.5643C19.4027 17.2097 20.0525 16.7293 20.6113 16.1249C21.1689 15.5218 21.6069 14.8353 21.9248 14.0674C22.2447 13.2949 22.4048 12.4899 22.4048 11.6547C22.4048 10.3221 22.1297 9.14628 21.5669 8.13856C21.0082 7.13828 20.2458 6.36131 19.2817 5.81557C18.3375 5.27037 17.2852 5 16.1326 5Z" fill="#1A2736"/>
<path d="M15.7535 23.0513C15.1163 23.0513 14.5997 23.5679 14.5997 24.2051V25.8462C14.5997 26.4834 15.1163 27 15.7535 27C16.3908 27 16.9074 26.4834 16.9074 25.8462V24.2051C16.9074 23.5679 16.3908 23.0513 15.7535 23.0513Z" fill="#1A2736"/>
</g>
</g>
</svg>
