<svg width="22" height="22" viewBox="0 0 22 22" fill="none" xmlns="http://www.w3.org/2000/svg">
<g id="Armchair" clip-path="url(#clip0_4308_161951)">
<path id="Vector" d="M18.8193 8.0472V6.55437C18.8193 5.61169 18.4448 4.70762 17.7782 4.04105C17.1117 3.37448 16.2076 3 15.2649 3H6.73443C5.79176 3 4.88769 3.37448 4.22112 4.04105C3.55454 4.70762 3.18007 5.61169 3.18007 6.55437V8.0472C2.37657 8.21036 1.65419 8.64628 1.13532 9.28109C0.616456 9.91591 0.333008 10.7106 0.333008 11.5305C0.333008 12.3504 0.616456 13.1451 1.13532 13.7799C1.65419 14.4147 2.37657 14.8506 3.18007 15.0138V17.9283C3.18007 18.3054 3.32986 18.667 3.59649 18.9337C3.86311 19.2003 4.22474 19.3501 4.60181 19.3501H17.3975C17.7746 19.3501 18.1362 19.2003 18.4029 18.9337C18.6695 18.667 18.8193 18.3054 18.8193 17.9283V15.0138C19.6228 14.8506 20.3452 14.4147 20.864 13.7799C21.3829 13.1451 21.6663 12.3504 21.6663 11.5305C21.6663 10.7106 21.3829 9.91591 20.864 9.28109C20.3452 8.64628 19.6228 8.21036 18.8193 8.0472ZM6.73443 4.42175H15.2649C15.8305 4.42175 16.373 4.64643 16.7729 5.04638C17.1728 5.44632 17.3975 5.98876 17.3975 6.55437V8.0472C16.5952 8.21216 15.8743 8.64869 15.3564 9.2832C14.8384 9.91771 14.555 10.7114 14.554 11.5305H7.44531C7.44431 10.7114 7.16094 9.91771 6.64297 9.2832C6.125 8.64869 5.40411 8.21216 4.60181 8.0472V6.55437C4.60181 5.98876 4.8265 5.44632 5.22644 5.04638C5.62639 4.64643 6.16883 4.42175 6.73443 4.42175ZM18.1431 13.6631H18.1084C17.9199 13.6631 17.7391 13.738 17.6057 13.8713C17.4724 14.0046 17.3975 14.1854 17.3975 14.374V17.9283H4.60181V14.374C4.60181 14.1854 4.52692 14.0046 4.3936 13.8713C4.26029 13.738 4.07947 13.6631 3.89094 13.6631H3.85628C3.43603 13.6563 3.02717 13.5254 2.68105 13.287C2.33493 13.0485 2.06699 12.7131 1.91088 12.3229C1.75477 11.9326 1.71745 11.505 1.80361 11.0936C1.88977 10.6822 2.09556 10.3055 2.39515 10.0107C2.69474 9.71587 3.07475 9.51618 3.48747 9.43666C3.90018 9.35714 4.32719 9.40135 4.71486 9.56373C5.10253 9.72611 5.43358 9.99942 5.66641 10.3493C5.89925 10.6993 6.0235 11.1102 6.02356 11.5305V15.0848C6.02356 15.2734 6.09845 15.4542 6.23177 15.5875C6.36508 15.7208 6.5459 15.7957 6.73443 15.7957C6.92297 15.7957 7.10378 15.7208 7.2371 15.5875C7.37041 15.4542 7.44531 15.2734 7.44531 15.0848V12.9522H14.554V15.0848C14.554 15.2734 14.6289 15.4542 14.7623 15.5875C14.8956 15.7208 15.0764 15.7957 15.2649 15.7957C15.4535 15.7957 15.6343 15.7208 15.7676 15.5875C15.9009 15.4542 15.9758 15.2734 15.9758 15.0848V11.5305C15.9758 11.1102 16.1001 10.6993 16.3329 10.3493C16.5658 9.99942 16.8968 9.72611 17.2845 9.56373C17.6722 9.40135 18.0992 9.35714 18.5119 9.43666C18.9246 9.51618 19.3046 9.71587 19.6042 10.0107C19.9038 10.3055 20.1096 10.6822 20.1957 11.0936C20.2819 11.505 20.2446 11.9326 20.0885 12.3229C19.9324 12.7131 19.6644 13.0485 19.3183 13.287C18.9722 13.5254 18.5633 13.6563 18.1431 13.6631Z" fill="#1A2736"/>
</g>
<defs>
<clipPath id="clip0_4308_161951">
<rect width="21.3333" height="21.3333" fill="white" transform="translate(0.333008 0.335938)"/>
</clipPath>
</defs>
</svg>
