<svg width="33" height="32" viewBox="0 0 33 32" fill="none" xmlns="http://www.w3.org/2000/svg">
<path d="M30.7094 21.5135L23.1718 18.1359L23.151 18.1262C22.7597 17.9589 22.3328 17.8917 21.909 17.9308C21.4852 17.9699 21.0778 18.1141 20.7238 18.3503C20.6821 18.3778 20.642 18.4077 20.6038 18.4399L16.7093 21.7599C14.2421 20.5615 11.6949 18.0334 10.4965 15.5982L13.8213 11.6446C13.8533 11.6046 13.8837 11.5646 13.9125 11.5214C14.1436 11.1683 14.2838 10.7635 14.3207 10.3431C14.3575 9.92269 14.2898 9.4997 14.1237 9.11176V9.09256L10.7365 1.54209C10.5169 1.03531 10.1392 0.613146 9.65998 0.338621C9.18071 0.0640959 8.62552 -0.0480668 8.07727 0.0188764C5.90921 0.30417 3.91913 1.36892 2.47872 3.01426C1.03832 4.6596 0.246094 6.77301 0.250014 8.95976C0.250014 21.6639 10.5861 32 23.2902 32C25.4769 32.0039 27.5903 31.2117 29.2357 29.7713C30.881 28.3309 31.9457 26.3408 32.231 24.1727C32.2981 23.6246 32.1862 23.0696 31.912 22.5903C31.6377 22.1111 31.2159 21.7334 30.7094 21.5135ZM23.2902 29.44C17.8603 29.434 12.6546 27.2744 8.81508 23.4349C4.97559 19.5954 2.81596 14.3896 2.81003 8.95976C2.80401 7.39733 3.36692 5.88613 4.39362 4.70837C5.42033 3.53062 6.84062 2.76685 8.38927 2.5597C8.38864 2.56609 8.38864 2.57252 8.38927 2.5789L11.7493 10.099L8.44207 14.0574C8.4085 14.096 8.37801 14.1372 8.35087 14.1806C8.11009 14.5501 7.96884 14.9755 7.94081 15.4156C7.91278 15.8557 7.99891 16.2956 8.19087 16.6926C9.64048 19.6575 12.6277 22.6223 15.6245 24.0703C16.0245 24.2605 16.4669 24.3436 16.9086 24.3117C17.3503 24.2797 17.7761 24.1337 18.1445 23.8879C18.1856 23.8602 18.2251 23.8303 18.2629 23.7983L22.1526 20.4799L29.6726 23.8479C29.6726 23.8479 29.6854 23.8479 29.6902 23.8479C29.4856 25.3987 28.723 26.8219 27.545 27.8512C26.367 28.8804 24.8544 29.4452 23.2902 29.44Z" fill="#D5172A"/>
</svg>
