<svg width="28" height="28" viewBox="0 0 28 28" fill="none" xmlns="http://www.w3.org/2000/svg">
<path d="M16.184 6.56776C16.6496 6.56776 17.027 6.19032 17.027 5.72474C17.027 5.25915 16.6496 4.88172 16.184 4.88172C15.7184 4.88172 15.341 5.25915 15.341 5.72474C15.341 6.19032 15.7184 6.56776 16.184 6.56776Z" fill="#D5172A"/>
<path d="M20.6316 5.72474C20.6316 6.19032 20.2542 6.56776 19.7886 6.56776C19.323 6.56776 18.9456 6.19032 18.9456 5.72474C18.9456 5.25915 19.323 4.88172 19.7886 4.88172C20.2542 4.88172 20.6316 5.25915 20.6316 5.72474Z" fill="#D5172A"/>
<path d="M23.3932 6.56776C23.8588 6.56776 24.2363 6.19032 24.2363 5.72474C24.2363 5.25915 23.8588 4.88172 23.3932 4.88172C22.9277 4.88172 22.5502 5.25915 22.5502 5.72474C22.5502 6.19032 22.9277 6.56776 23.3932 6.56776Z" fill="#D5172A"/>
<path fill-rule="evenodd" clip-rule="evenodd" d="M11.9689 3.19568C11.9689 1.79892 13.1012 0.666626 14.4979 0.666626H24.6142C26.0109 0.666626 27.1432 1.79892 27.1432 3.19568V7.83228C27.1432 9.22904 26.0109 10.3613 24.6142 10.3613H20.0541C19.8961 10.3613 19.7413 10.4057 19.6073 10.4895L16.4128 12.4861C16.1529 12.6485 15.8253 12.6571 15.5573 12.5086C15.2892 12.36 15.1229 12.0777 15.1229 11.7712V10.3613H14.4979C13.1012 10.3613 11.9689 9.22904 11.9689 7.83228V3.19568ZM14.4979 2.35266C14.0324 2.35266 13.6549 2.7301 13.6549 3.19568V7.83228C13.6549 8.29787 14.0324 8.6753 14.4979 8.6753H15.966C16.4315 8.6753 16.809 9.05273 16.809 9.51832V10.2502L18.7137 9.05972C19.1157 8.80851 19.5801 8.6753 20.0541 8.6753H24.6142C25.0798 8.6753 25.4572 8.29787 25.4572 7.83228V3.19568C25.4572 2.7301 25.0798 2.35266 24.6142 2.35266H14.4979Z" fill="#D5172A"/>
<path fill-rule="evenodd" clip-rule="evenodd" d="M8.59674 9.83329C5.67784 9.83329 3.31159 12.1995 3.31159 15.1184C3.31159 18.0374 5.67784 20.4036 8.59674 20.4036C11.5157 20.4036 13.8819 18.0374 13.8819 15.1184C13.8819 12.1995 11.5157 9.83329 8.59674 9.83329ZM4.99763 15.1184C4.99763 13.1307 6.60901 11.5193 8.59674 11.5193C10.5845 11.5193 12.1959 13.1307 12.1959 15.1184C12.1959 17.1062 10.5845 18.7176 8.59674 18.7176C6.60901 18.7176 4.99763 17.1062 4.99763 15.1184Z" fill="#D5172A"/>
<path d="M4.65854 24.1016C5.86119 23.426 7.2174 23.0711 8.59681 23.0711C9.97622 23.0711 11.3324 23.426 12.5351 24.1016C13.7377 24.7771 14.7464 25.7507 15.464 26.9288C15.7063 27.3264 16.225 27.4523 16.6226 27.2101C17.0202 26.9679 17.1461 26.4492 16.9039 26.0516C16.0358 24.6265 14.8156 23.4488 13.3608 22.6316C11.906 21.8144 10.2654 21.3851 8.59681 21.3851C6.92818 21.3851 5.2876 21.8144 3.83279 22.6316C2.37798 23.4488 1.15785 24.6265 0.289707 26.0516C0.0474747 26.4492 0.173434 26.9679 0.571045 27.2101C0.968655 27.4523 1.48735 27.3264 1.72958 26.9288C2.44725 25.7507 3.45589 24.7771 4.65854 24.1016Z" fill="#D5172A"/>
</svg>
