<svg width="53" height="75" viewBox="0 0 53 75" fill="none" xmlns="http://www.w3.org/2000/svg">
<g id="unknown-container" opacity="0.42">
<path id="Rectangle 24" d="M2.45605 8.5933C2.45605 5.49126 4.97076 2.97656 8.0728 2.97656H45.4263C48.5283 2.97656 51.043 5.49126 51.043 8.5933H2.45605Z" fill="#D4DBE3"/>
<path id="Rectangle 25" d="M16.8047 2.97357C16.8047 1.33131 18.136 0 19.7783 0H33.7224C35.3647 0 36.696 1.33131 36.696 2.97357H16.8047Z" fill="#D4DBE3"/>
<rect id="Rectangle 26" x="2.45605" y="56.8281" width="7.82609" height="16.5198" rx="3.91304" fill="#91A0B0"/>
<rect id="Rectangle 27" x="44.5215" y="56.8281" width="7.82609" height="16.5198" rx="3.91304" fill="#91A0B0"/>
<path id="Vector 369" d="M6.51321 69.1869L4.73926 12.7188H49.0871L47.3131 69.1869C47.2114 72.4256 44.5565 74.9985 41.3161 74.9985H12.5102C9.26989 74.9985 6.61495 72.4256 6.51321 69.1869Z" fill="#D4DBE3"/>
<path id="Vector 370" d="M13.5435 18.1714V12.5547H11.9131L13.5435 18.1714Z" fill="#91A0B0"/>
<path id="Vector 372" d="M39.9565 18.1714V12.5547H41.5869L39.9565 18.1714Z" fill="#91A0B0"/>
<path id="Vector 371" d="M26.9128 18.1714L27.565 12.5547H25.9346L26.9128 18.1714Z" fill="#91A0B0"/>
<rect id="Rectangle 23" x="0.5" y="8.59375" width="52.5" height="4.29515" rx="2.14758" fill="#E6EAEF"/>
<path id="?" d="M23.4277 45.9644C23.4277 45.3143 23.6357 44.7767 24.0516 44.3517C24.4675 43.9016 24.9935 43.6766 25.6296 43.6766C26.6327 43.6766 27.5379 43.5266 28.3452 43.2266C29.1526 42.9015 29.7887 42.389 30.2535 41.6889C30.7428 40.9888 30.9875 40.0637 30.9875 38.9136C30.9875 38.0635 30.7795 37.3134 30.3636 36.6633C29.9722 36.0132 29.4217 35.5006 28.7122 35.1256C28.0272 34.7506 27.2443 34.563 26.3635 34.563C25.6785 34.563 25.0302 34.6881 24.4186 34.9381C23.8314 35.1881 23.2932 35.5256 22.8039 35.9507C22.4124 36.3007 21.9354 36.5633 21.3727 36.7383C20.8344 36.8883 20.284 36.7508 19.7213 36.3257C19.1341 35.8757 18.8161 35.3381 18.7671 34.7131C18.7182 34.088 18.9506 33.5129 19.4644 32.9878C20.3451 32.0627 21.3727 31.3502 22.547 30.8501C23.7458 30.325 25.018 30.0625 26.3635 30.0625C28.0516 30.0625 29.5685 30.4625 30.9141 31.2626C32.2841 32.0377 33.3728 33.0879 34.1802 34.413C34.9875 35.7382 35.3912 37.2384 35.3912 38.9136C35.3912 40.1637 35.2077 41.2763 34.8407 42.2514C34.4737 43.2016 33.9477 44.0267 33.2627 44.7267C32.6022 45.4018 31.8193 45.9519 30.9141 46.3769C30.0333 46.777 29.0669 47.0645 28.0149 47.2395C27.966 47.2645 27.9171 47.2895 27.8681 47.3146C27.8437 47.3396 27.8315 47.3771 27.8315 47.4271V48.8147C27.8315 49.4648 27.6235 50.0149 27.2076 50.4649C26.7917 50.89 26.2657 51.1025 25.6296 51.1025C24.9935 51.1025 24.4675 50.89 24.0516 50.4649C23.6357 50.0149 23.4277 49.4648 23.4277 48.8147V45.9644ZM25.4461 57.8158C24.7366 57.8158 24.1861 57.6283 23.7947 57.2532C23.4277 56.8532 23.2442 56.2906 23.2442 55.5655V54.928C23.2442 54.2029 23.4277 53.6528 23.7947 53.2778C24.1861 52.8777 24.7366 52.6777 25.4461 52.6777H25.9232C26.6327 52.6777 27.1709 52.8777 27.5379 53.2778C27.9293 53.6528 28.125 54.2029 28.125 54.928V55.5655C28.125 56.2906 27.9293 56.8532 27.5379 57.2532C27.1709 57.6283 26.6327 57.8158 25.9232 57.8158H25.4461Z" fill="#91A0B0"/>
</g>
</svg>
