<svg width="36" height="37" viewBox="0 0 36 37" fill="none" xmlns="http://www.w3.org/2000/svg">
    <path
        d="M27 10.5547H9C8.60218 10.5547 8.22064 10.7127 7.93934 10.994C7.65804 11.2753 7.5 11.6569 7.5 12.0547V24.0547C7.5 24.4525 7.65804 24.834 7.93934 25.1153C8.22064 25.3967 8.60218 25.5547 9 25.5547H27C27.3978 25.5547 27.7794 25.3967 28.0607 25.1153C28.342 24.834 28.5 24.4525 28.5 24.0547V12.0547C28.5 11.6569 28.342 11.2753 28.0607 10.994C27.7794 10.7127 27.3978 10.5547 27 10.5547ZM27 12.0547V14.3047H9V12.0547H27ZM27 24.0547H9V15.8047H27V24.0547ZM25.5 21.8047C25.5 22.0036 25.421 22.1944 25.2803 22.335C25.1397 22.4757 24.9489 22.5547 24.75 22.5547H21.75C21.5511 22.5547 21.3603 22.4757 21.2197 22.335C21.079 22.1944 21 22.0036 21 21.8047C21 21.6058 21.079 21.415 21.2197 21.2744C21.3603 21.1337 21.5511 21.0547 21.75 21.0547H24.75C24.9489 21.0547 25.1397 21.1337 25.2803 21.2744C25.421 21.415 25.5 21.6058 25.5 21.8047ZM19.5 21.8047C19.5 22.0036 19.421 22.1944 19.2803 22.335C19.1397 22.4757 18.9489 22.5547 18.75 22.5547H17.25C17.0511 22.5547 16.8603 22.4757 16.7197 22.335C16.579 22.1944 16.5 22.0036 16.5 21.8047C16.5 21.6058 16.579 21.415 16.7197 21.2744C16.8603 21.1337 17.0511 21.0547 17.25 21.0547H18.75C18.9489 21.0547 19.1397 21.1337 19.2803 21.2744C19.421 21.415 19.5 21.6058 19.5 21.8047Z"
        fill="#D5172A" />
</svg>