<svg width="36" height="37" viewBox="0 0 36 37" fill="none" xmlns="http://www.w3.org/2000/svg">
<path d="M18 13.5523C17.11 13.5523 16.24 13.8162 15.4999 14.3107C14.7599 14.8051 14.1831 15.5079 13.8425 16.3302C13.5019 17.1525 13.4128 18.0573 13.5865 18.9302C13.7601 19.8031 14.1887 20.6049 14.818 21.2343C15.4474 21.8636 16.2492 22.2922 17.1221 22.4658C17.995 22.6395 18.8998 22.5503 19.7221 22.2097C20.5443 21.8692 21.2471 21.2924 21.7416 20.5524C22.2361 19.8123 22.5 18.9423 22.5 18.0523C22.4988 16.8592 22.0243 15.7153 21.1806 14.8717C20.337 14.028 19.1931 13.5535 18 13.5523ZM18 21.0523C17.4067 21.0523 16.8266 20.8763 16.3333 20.5467C15.8399 20.2171 15.4554 19.7485 15.2284 19.2003C15.0013 18.6522 14.9419 18.049 15.0576 17.467C15.1734 16.8851 15.4591 16.3505 15.8787 15.931C16.2982 15.5114 16.8328 15.2257 17.4147 15.1099C17.9967 14.9942 18.5999 15.0536 19.148 15.2807C19.6962 15.5077 20.1648 15.8922 20.4944 16.3856C20.8241 16.8789 21 17.4589 21 18.0523C21 18.8479 20.6839 19.611 20.1213 20.1736C19.5587 20.7362 18.7956 21.0523 18 21.0523ZM26.25 18.2548C26.2537 18.1198 26.2537 17.9848 26.25 17.8498L27.6487 16.1023C27.7221 16.0105 27.7729 15.9028 27.797 15.7879C27.8211 15.6729 27.8178 15.5539 27.7875 15.4404C27.5582 14.5785 27.2152 13.7509 26.7675 12.9795C26.7089 12.8785 26.6275 12.7926 26.5299 12.7287C26.4322 12.6647 26.321 12.6244 26.205 12.611L23.9812 12.3635C23.8887 12.266 23.795 12.1723 23.7 12.0823L23.4375 9.85291C23.424 9.73686 23.3836 9.62557 23.3194 9.52791C23.2553 9.43025 23.1693 9.34892 23.0681 9.29041C22.2964 8.84355 21.4689 8.50088 20.6072 8.27135C20.4936 8.24116 20.3746 8.23807 20.2596 8.26234C20.1446 8.2866 20.037 8.33754 19.9453 8.41104L18.2025 9.80229C18.0675 9.80229 17.9325 9.80229 17.7975 9.80229L16.05 8.40635C15.9582 8.33301 15.8505 8.28224 15.7356 8.25814C15.6206 8.23404 15.5016 8.23728 15.3881 8.2676C14.5263 8.49731 13.6988 8.8403 12.9272 9.2876C12.8262 9.34622 12.7404 9.42759 12.6764 9.52525C12.6124 9.6229 12.5721 9.73414 12.5587 9.8501L12.3112 12.0776C12.2137 12.1707 12.12 12.2645 12.03 12.3589L9.80062 12.6148C9.68457 12.6283 9.57328 12.6687 9.47562 12.7328C9.37796 12.797 9.29663 12.883 9.23812 12.9842C8.79126 13.7559 8.44859 14.5834 8.21906 15.4451C8.18887 15.5587 8.18578 15.6777 8.21004 15.7927C8.23431 15.9076 8.28524 16.0153 8.35875 16.107L9.75 17.8498C9.75 17.9848 9.75 18.1198 9.75 18.2548L8.35406 20.0023C8.28072 20.094 8.22995 20.2017 8.20585 20.3167C8.18175 20.4317 8.18499 20.5507 8.21531 20.6642C8.44461 21.5261 8.78762 22.3537 9.23531 23.1251C9.29393 23.2261 9.3753 23.3119 9.47296 23.3759C9.57061 23.4399 9.68184 23.4801 9.79781 23.4935L12.0216 23.741C12.1147 23.8385 12.2084 23.9323 12.3028 24.0223L12.5625 26.2517C12.576 26.3677 12.6164 26.479 12.6806 26.5767C12.7447 26.6743 12.8307 26.7557 12.9319 26.8142C13.7036 27.261 14.5311 27.6037 15.3928 27.8332C15.5064 27.8634 15.6254 27.8665 15.7404 27.8422C15.8554 27.818 15.963 27.767 16.0547 27.6935L17.7975 26.3023C17.9325 26.306 18.0675 26.306 18.2025 26.3023L19.95 27.701C20.0417 27.7744 20.1494 27.8251 20.2644 27.8492C20.3794 27.8733 20.4984 27.8701 20.6119 27.8398C21.4738 27.6105 22.3014 27.2675 23.0728 26.8198C23.1738 26.7612 23.2596 26.6798 23.3236 26.5821C23.3876 26.4845 23.4278 26.3733 23.4412 26.2573L23.6887 24.0335C23.7862 23.941 23.88 23.8473 23.97 23.7523L26.1994 23.4898C26.3154 23.4763 26.4267 23.4359 26.5244 23.3717C26.622 23.3076 26.7034 23.2215 26.7619 23.1204C27.2087 22.3487 27.5514 21.5212 27.7809 20.6595C27.8111 20.5459 27.8142 20.4269 27.79 20.3119C27.7657 20.1969 27.7148 20.0893 27.6412 19.9976L26.25 18.2548ZM24.7406 17.6454C24.7566 17.9164 24.7566 18.1881 24.7406 18.4592C24.7295 18.6447 24.7876 18.8278 24.9037 18.9729L26.2341 20.6351C26.0814 21.1202 25.886 21.5908 25.65 22.0414L23.5312 22.2814C23.3467 22.3018 23.1764 22.39 23.0531 22.5289C22.8727 22.7318 22.6805 22.924 22.4775 23.1045C22.3387 23.2277 22.2505 23.3981 22.23 23.5826L21.9947 25.6995C21.5442 25.9355 21.0736 26.131 20.5884 26.2835L18.9253 24.9532C18.7922 24.8469 18.6269 24.789 18.4566 24.7892H18.4116C18.1405 24.8051 17.8688 24.8051 17.5978 24.7892C17.4123 24.778 17.2292 24.8361 17.0841 24.9523L15.4172 26.2835C14.9321 26.1309 14.4615 25.9354 14.0109 25.6995L13.7709 23.5835C13.7505 23.399 13.6623 23.2287 13.5234 23.1054C13.3205 22.925 13.1283 22.7327 12.9478 22.5298C12.8246 22.391 12.6542 22.3028 12.4697 22.2823L10.3528 22.046C10.1167 21.5956 9.92128 21.125 9.76875 20.6398L11.0991 18.9767C11.2152 18.8315 11.2734 18.6485 11.2622 18.4629C11.2462 18.1919 11.2462 17.9202 11.2622 17.6492C11.2734 17.4636 11.2152 17.2805 11.0991 17.1354L9.76875 15.4695C9.9214 14.9844 10.1169 14.5138 10.3528 14.0632L12.4687 13.8232C12.6533 13.8027 12.8236 13.7146 12.9469 13.5757C13.1273 13.3728 13.3195 13.1806 13.5225 13.0001C13.6619 12.8768 13.7504 12.706 13.7709 12.521L14.0062 10.4051C14.4567 10.169 14.9273 9.97357 15.4125 9.82104L17.0756 11.1514C17.2207 11.2675 17.4038 11.3256 17.5894 11.3145C17.8604 11.2985 18.1321 11.2985 18.4031 11.3145C18.5887 11.3256 18.7718 11.2675 18.9169 11.1514L20.5828 9.82104C21.0679 9.97369 21.5385 10.1691 21.9891 10.4051L22.2291 12.521C22.2495 12.7056 22.3377 12.8759 22.4766 12.9992C22.6795 13.1796 22.8717 13.3718 23.0522 13.5748C23.1754 13.7136 23.3458 13.8018 23.5303 13.8223L25.6472 14.0576C25.8833 14.5081 26.0787 14.9787 26.2312 15.4639L24.9009 17.127C24.7837 17.2733 24.7255 17.4583 24.7378 17.6454H24.7406Z" fill="#A6B9DC"/>
</svg>
