<svg width="24" height="25" viewBox="0 0 24 25" fill="none" xmlns="http://www.w3.org/2000/svg">
<path d="M9.85403 7.20122L14.854 12.2012C14.9005 12.2477 14.9374 12.3028 14.9626 12.3635C14.9877 12.4242 15.0007 12.4893 15.0007 12.555C15.0007 12.6207 14.9877 12.6857 14.9626 12.7464C14.9374 12.8071 14.9005 12.8623 14.854 12.9087L9.85403 17.9087C9.76021 18.0025 9.63296 18.0552 9.50028 18.0552C9.3676 18.0552 9.24035 18.0025 9.14653 17.9087C9.05271 17.8149 9 17.6876 9 17.555C9 17.4223 9.05271 17.295 9.14653 17.2012L13.7934 12.555L9.14653 7.90872C9.10007 7.86226 9.06322 7.80711 9.03808 7.74641C9.01294 7.68572 9 7.62066 9 7.55497C9 7.48927 9.01294 7.42421 9.03808 7.36352C9.06322 7.30282 9.10007 7.24767 9.14653 7.20122C9.19298 7.15476 9.24813 7.11791 9.30883 7.09277C9.36953 7.06763 9.43458 7.05469 9.50028 7.05469C9.56598 7.05469 9.63103 7.06763 9.69173 7.09277C9.75242 7.11791 9.80757 7.15476 9.85403 7.20122Z" fill="#1A2736"/>
</svg>
