<svg width="24" height="25" viewBox="0 0 24 25" fill="none" xmlns="http://www.w3.org/2000/svg">
<path d="M14.1466 7.20122L9.14658 12.2012C9.10009 12.2477 9.06321 12.3028 9.03805 12.3635C9.01289 12.4242 8.99994 12.4893 8.99994 12.555C8.99994 12.6207 9.01289 12.6857 9.03805 12.7464C9.06321 12.8071 9.10009 12.8623 9.14658 12.9087L14.1466 17.9087C14.2404 18.0025 14.3676 18.0552 14.5003 18.0552C14.633 18.0552 14.7603 18.0025 14.8541 17.9087C14.9479 17.8149 15.0006 17.6876 15.0006 17.555C15.0006 17.4223 14.9479 17.295 14.8541 17.2012L10.2072 12.555L14.8541 7.90872C14.9005 7.86226 14.9374 7.80711 14.9625 7.74641C14.9877 7.68572 15.0006 7.62066 15.0006 7.55497C15.0006 7.48927 14.9877 7.42421 14.9625 7.36352C14.9374 7.30282 14.9005 7.24767 14.8541 7.20122C14.8076 7.15476 14.7525 7.11791 14.6918 7.09277C14.6311 7.06763 14.566 7.05469 14.5003 7.05469C14.4346 7.05469 14.3696 7.06763 14.3089 7.09277C14.2482 7.11791 14.193 7.15476 14.1466 7.20122Z" fill="#1A2736"/>
</svg>
