<svg width="36" height="37" viewBox="0 0 36 37" fill="none" xmlns="http://www.w3.org/2000/svg">
<path d="M11.5385 14.9393C11.5385 14.6945 11.6357 14.4597 11.8088 14.2866C11.9819 14.1135 12.2167 14.0162 12.4615 14.0162H23.5385C23.7833 14.0162 24.0181 14.1135 24.1912 14.2866C24.3643 14.4597 24.4615 14.6945 24.4615 14.9393C24.4615 15.1841 24.3643 15.4189 24.1912 15.592C24.0181 15.7651 23.7833 15.8624 23.5385 15.8624H12.4615C12.2167 15.8624 11.9819 15.7651 11.8088 15.592C11.6357 15.4189 11.5385 15.1841 11.5385 14.9393ZM12.4615 19.5547H23.5385C23.7833 19.5547 24.0181 19.4574 24.1912 19.2843C24.3643 19.1112 24.4615 18.8764 24.4615 18.6316C24.4615 18.3868 24.3643 18.152 24.1912 17.9789C24.0181 17.8058 23.7833 17.7085 23.5385 17.7085H12.4615C12.2167 17.7085 11.9819 17.8058 11.8088 17.9789C11.6357 18.152 11.5385 18.3868 11.5385 18.6316C11.5385 18.8764 11.6357 19.1112 11.8088 19.2843C11.9819 19.4574 12.2167 19.5547 12.4615 19.5547ZM30 9.40084V26.9393C29.9999 27.0966 29.9596 27.2513 29.8829 27.3887C29.8063 27.5261 29.6957 27.6416 29.5619 27.7242C29.428 27.8069 29.2752 27.854 29.1181 27.861C28.9609 27.868 28.8045 27.8347 28.6638 27.7643L25.3846 26.1247L22.1054 27.7643C21.9771 27.8285 21.8357 27.8619 21.6923 27.8619C21.5489 27.8619 21.4075 27.8285 21.2792 27.7643L18 26.1247L14.7208 27.7643C14.5925 27.8285 14.4511 27.8619 14.3077 27.8619C14.1643 27.8619 14.0229 27.8285 13.8946 27.7643L10.6154 26.1247L7.33615 27.7643C7.19546 27.8347 7.0391 27.868 6.88193 27.861C6.72476 27.854 6.57199 27.8069 6.43812 27.7242C6.30426 27.6416 6.19374 27.5261 6.11706 27.3887C6.04038 27.2513 6.00008 27.0966 6 26.9393V9.40084C6 8.91121 6.1945 8.44163 6.54073 8.09541C6.88695 7.74919 7.35652 7.55469 7.84615 7.55469H28.1538C28.6435 7.55469 29.1131 7.74919 29.4593 8.09541C29.8055 8.44163 30 8.91121 30 9.40084ZM28.1538 9.40084H7.84615V25.4462L10.2023 24.267C10.3306 24.2028 10.472 24.1694 10.6154 24.1694C10.7588 24.1694 10.9002 24.2028 11.0285 24.267L14.3077 25.9078L17.5869 24.267C17.7152 24.2028 17.8566 24.1694 18 24.1694C18.1434 24.1694 18.2848 24.2028 18.4131 24.267L21.6923 25.9078L24.9715 24.267C25.0998 24.2028 25.2412 24.1694 25.3846 24.1694C25.528 24.1694 25.6694 24.2028 25.7977 24.267L28.1538 25.4462V9.40084Z" fill="#A6B9DC"/>
</svg>
