<svg width="32" height="32" viewBox="0 0 32 32" fill="none" xmlns="http://www.w3.org/2000/svg">
<path d="M26.4717 16.4711L24.4717 18.4711C24.4098 18.5331 24.3363 18.5823 24.2553 18.6158C24.1744 18.6494 24.0877 18.6666 24 18.6666C23.9124 18.6666 23.8257 18.6494 23.7448 18.6158C23.6638 18.5823 23.5903 18.5331 23.5284 18.4711L21.5284 16.4711C21.4033 16.346 21.333 16.1764 21.333 15.9995C21.333 15.8225 21.4033 15.6529 21.5284 15.5278C21.6535 15.4027 21.8231 15.3324 22 15.3324C22.177 15.3324 22.3466 15.4027 22.4717 15.5278L23.3334 16.3903V15.9995C23.3341 14.4467 22.842 12.9337 21.9278 11.6785C21.0136 10.4233 19.7246 9.49072 18.2465 9.01505C16.7683 8.53939 15.1773 8.5452 13.7027 9.03166C12.228 9.51813 10.9459 10.4601 10.0409 11.722C9.93767 11.8656 9.78161 11.9624 9.60705 11.991C9.43248 12.0196 9.2537 11.9777 9.11005 11.8745C8.96639 11.7712 8.86961 11.6152 8.84101 11.4406C8.81241 11.2661 8.85433 11.0873 8.95755 10.9436C10.0271 9.45239 11.5424 8.33916 13.2852 7.76431C15.028 7.18945 16.9083 7.18264 18.6552 7.74487C20.4021 8.30709 21.9255 9.40932 23.0058 10.8928C24.0861 12.3762 24.6677 14.1643 24.6667 15.9995V16.3903L25.5284 15.5278C25.6535 15.4027 25.8231 15.3324 26 15.3324C26.177 15.3324 26.3466 15.4027 26.4717 15.5278C26.5968 15.6529 26.6671 15.8225 26.6671 15.9995C26.6671 16.1764 26.5968 16.346 26.4717 16.4711ZM23.04 21.0545C21.9702 22.5446 20.4551 23.6568 18.7128 24.231C16.9706 24.8052 15.0911 24.8117 13.3449 24.2497C11.5987 23.6877 10.0759 22.5862 8.99558 21.1036C7.9153 19.621 7.3333 17.8339 7.33338 15.9995V15.6086L6.47171 16.4711C6.34662 16.5962 6.17695 16.6665 6.00005 16.6665C5.82314 16.6665 5.65347 16.5962 5.52838 16.4711C5.40328 16.346 5.33301 16.1764 5.33301 15.9995C5.33301 15.8225 5.40328 15.6529 5.52838 15.5278L7.52838 13.5278C7.59029 13.4658 7.66382 13.4166 7.74475 13.3831C7.82568 13.3495 7.91243 13.3323 8.00005 13.3323C8.08766 13.3323 8.17441 13.3495 8.25534 13.3831C8.33627 13.4166 8.4098 13.4658 8.47171 13.5278L10.4717 15.5278C10.5968 15.6529 10.6671 15.8225 10.6671 15.9995C10.6671 16.1764 10.5968 16.346 10.4717 16.4711C10.3466 16.5962 10.177 16.6665 10 16.6665C9.82314 16.6665 9.65347 16.5962 9.52838 16.4711L8.66671 15.6086V15.9995C8.66513 17.7946 9.32492 19.5275 10.52 20.867C11.2636 19.7895 12.3091 18.956 13.525 18.4711C12.8719 17.9567 12.3952 17.2514 12.1614 16.4535C11.9276 15.6556 11.9483 14.8047 12.2205 14.0191C12.4928 13.2335 13.0031 12.5522 13.6804 12.07C14.3578 11.5879 15.1686 11.3288 16 11.3288C16.8315 11.3288 17.6423 11.5879 18.3197 12.07C18.997 12.5522 19.5073 13.2335 19.7796 14.0191C20.0518 14.8047 20.0725 15.6556 19.8387 16.4535C19.6049 17.2514 19.1282 17.9567 18.475 18.4711C19.6921 18.9561 20.7384 19.7906 21.4817 20.8695C21.6503 20.6802 21.8091 20.4824 21.9575 20.277C22.0608 20.1333 22.2168 20.0365 22.3914 20.0079C22.5659 19.9793 22.7447 20.0212 22.8884 20.1245C23.032 20.2277 23.1288 20.3837 23.1574 20.5583C23.186 20.7329 23.1441 20.9116 23.0409 21.0553L23.04 21.0545ZM16 17.9995C16.5275 17.9995 17.043 17.8431 17.4816 17.55C17.9201 17.257 18.2619 16.8406 18.4637 16.3533C18.6656 15.866 18.7184 15.3298 18.6155 14.8126C18.5126 14.2953 18.2586 13.8201 17.8857 13.4472C17.5127 13.0742 17.0376 12.8203 16.5203 12.7174C16.003 12.6145 15.4668 12.6673 14.9796 12.8691C14.4923 13.0709 14.0758 13.4127 13.7828 13.8513C13.4898 14.2898 13.3334 14.8054 13.3334 15.3328C13.3334 16.04 13.6143 16.7183 14.1144 17.2184C14.6145 17.7185 15.2928 17.9995 16 17.9995ZM16 23.3328C17.6271 23.3307 19.2074 22.7887 20.4934 21.792C20.0111 21.0377 19.3467 20.417 18.5614 19.987C17.7762 19.557 16.8953 19.3317 16 19.3317C15.1048 19.3317 14.2239 19.557 13.4386 19.987C12.6534 20.417 11.989 21.0377 11.5067 21.792C12.7907 22.7923 14.3723 23.3347 16 23.3328Z" fill="#D5172A"/>
</svg>
