<svg width="32" height="32" viewBox="0 0 32 32" fill="none" xmlns="http://www.w3.org/2000/svg">
<path fill-rule="evenodd" clip-rule="evenodd" d="M6.667 20.0026C6.667 19.6344 6.96547 19.3359 7.33366 19.3359H23.3337C23.7019 19.3359 24.0003 19.6344 24.0003 20.0026V26.0026C24.0003 26.3708 23.7019 26.6693 23.3337 26.6693H7.33366C6.96547 26.6693 6.667 26.3708 6.667 26.0026V20.0026ZM8.00033 20.6693V25.3359H22.667V20.6693H8.00033Z" fill="#1A2736"/>
<path fill-rule="evenodd" clip-rule="evenodd" d="M7.34661 16.5385C7.40893 16.2269 7.68254 16.0026 8.00033 16.0026H9.33366C9.70185 16.0026 10.0003 16.3011 10.0003 16.6693C10.0003 17.0375 9.70185 17.3359 9.33366 17.3359H8.54687L8.14687 19.3359H22.5205L22.1205 17.3359H21.3337C20.9655 17.3359 20.667 17.0375 20.667 16.6693C20.667 16.3011 20.9655 16.0026 21.3337 16.0026H22.667C22.9848 16.0026 23.2584 16.2269 23.3207 16.5385L23.9874 19.8719C24.0266 20.0677 23.9759 20.2708 23.8492 20.4253C23.7226 20.5797 23.5334 20.6693 23.3337 20.6693H7.33366C7.13394 20.6693 6.94473 20.5797 6.8181 20.4253C6.69148 20.2708 6.64077 20.0677 6.67994 19.8719L7.34661 16.5385Z" fill="#1A2736"/>
<path fill-rule="evenodd" clip-rule="evenodd" d="M11.3337 5.33594C11.7019 5.33594 12.0003 5.63441 12.0003 6.0026V9.33594H14.667V6.0026C14.667 5.63441 14.9655 5.33594 15.3337 5.33594C15.7019 5.33594 16.0003 5.63441 16.0003 6.0026V9.33594H18.667V6.0026C18.667 5.63441 18.9655 5.33594 19.3337 5.33594C19.7019 5.33594 20.0003 5.63441 20.0003 6.0026V9.33594H22.667C23.0352 9.33594 23.3337 9.63441 23.3337 10.0026C23.3337 10.3708 23.0352 10.6693 22.667 10.6693H20.0003V13.3359H22.667C23.0352 13.3359 23.3337 13.6344 23.3337 14.0026C23.3337 14.3708 23.0352 14.6693 22.667 14.6693H20.0003V18.0026C20.0003 18.3708 19.7019 18.6693 19.3337 18.6693C18.9655 18.6693 18.667 18.3708 18.667 18.0026V14.6693H16.0003V18.0026C16.0003 18.3708 15.7019 18.6693 15.3337 18.6693C14.9655 18.6693 14.667 18.3708 14.667 18.0026V14.6693H12.0003V18.0026C12.0003 18.3708 11.7019 18.6693 11.3337 18.6693C10.9655 18.6693 10.667 18.3708 10.667 18.0026V14.6693H8.00033C7.63214 14.6693 7.33366 14.3708 7.33366 14.0026C7.33366 13.6344 7.63214 13.3359 8.00033 13.3359H10.667V10.6693H8.00033C7.63214 10.6693 7.33366 10.3708 7.33366 10.0026C7.33366 9.63441 7.63214 9.33594 8.00033 9.33594H10.667V6.0026C10.667 5.63441 10.9655 5.33594 11.3337 5.33594ZM12.0003 13.3359H14.667V10.6693H12.0003V13.3359ZM16.0003 13.3359H18.667V10.6693H16.0003V13.3359Z" fill="#1A2736"/>
</svg>
