<svg width="24" height="24" viewBox="0 0 24 24" fill="none" xmlns="http://www.w3.org/2000/svg">
<g id="icon-file">
<path id="Vector" d="M17.6887 8.92673L13.9194 5.1575C13.8694 5.10751 13.81 5.06787 13.7446 5.04085C13.6792 5.01383 13.6092 4.99994 13.5385 5H7.07692C6.79131 5 6.51739 5.11346 6.31542 5.31542C6.11346 5.51739 6 5.79131 6 6.07692V17.9231C6 18.2087 6.11346 18.4826 6.31542 18.6846C6.51739 18.8865 6.79131 19 7.07692 19H16.7692C17.0548 19 17.3288 18.8865 17.5307 18.6846C17.7327 18.4826 17.8462 18.2087 17.8462 17.9231V9.30769C17.8462 9.23696 17.8323 9.16691 17.8053 9.10154C17.7783 9.03618 17.7386 8.97677 17.6887 8.92673ZM14.0769 6.83817L16.008 8.76923H14.0769V6.83817ZM16.7692 17.9231H7.07692V6.07692H13V9.30769C13 9.4505 13.0567 9.58746 13.1577 9.68844C13.2587 9.78942 13.3957 9.84615 13.5385 9.84615H16.7692V17.9231Z" fill="#D5172A"/>
</g>
</svg>
