<svg width="32" height="32" viewBox="0 0 32 32" fill="none" xmlns="http://www.w3.org/2000/svg">
<path fill-rule="evenodd" clip-rule="evenodd" d="M18.0335 5.36175C17.7975 5.29496 17.5438 5.35992 17.3689 5.53191C17.194 5.7039 17.1249 5.95649 17.1877 6.19359L18.0436 9.42302C17.8131 9.47986 17.6222 9.65502 17.5521 9.89313L16.9104 12.0721L14.4914 14.3897C14.1907 14.6778 13.9157 14.9871 13.6678 15.3139L13.6016 15.2312C13.6544 15.0875 13.658 14.9283 13.6084 14.7797L12.9975 12.9494C12.9365 12.7666 12.8037 12.6237 12.6378 12.5465L13.3092 10.3115C13.3798 10.0763 13.3188 9.82142 13.1493 9.64379C12.9799 9.46617 12.7281 9.39319 12.4899 9.45266L7.60302 10.6729C7.38373 10.7276 7.20575 10.8873 7.12769 11.0994C7.04963 11.3116 7.0816 11.5486 7.21309 11.7324L8.03464 12.8811C7.83147 13.0001 7.69656 13.2206 7.69656 13.4706V14.7198L5.62044 20.0584C5.39658 20.6341 5.30158 21.2518 5.34213 21.8681C5.48832 24.0902 7.33333 25.8178 9.56023 25.8178H12.9337C13.7825 25.8178 14.6142 25.5903 15.3429 25.1611C15.7932 25.3452 16.2752 25.4688 16.779 25.5219L19.5549 25.8141C19.5786 25.8166 19.6025 25.8178 19.6263 25.8178H20.6417C20.6479 25.8179 20.6542 25.8179 20.6604 25.8178H21.1892C23.9542 25.8178 26.283 23.7515 26.6122 21.0062L26.6275 20.8784C26.749 19.8653 26.5842 18.8385 26.1519 17.9142L23.561 12.3746V10.4927C23.561 10.1696 23.3355 9.89535 23.028 9.82655L24.1743 8.00996C24.2892 7.82788 24.3115 7.60227 24.2344 7.40124C24.1574 7.20021 23.99 7.0473 23.7828 6.98868L18.0335 5.36175ZM8.78878 15.6786L6.89305 20.5533C6.7415 20.943 6.67719 21.3612 6.70464 21.7784C6.80361 23.2828 8.05265 24.4523 9.56023 24.4523H10.1157C9.97894 24.281 9.85635 24.106 9.74693 23.9235C9.37469 23.3024 9.18342 22.6418 9.05272 21.83C8.99278 21.4577 9.24597 21.1073 9.61824 21.0474C9.9905 20.9874 10.3409 21.2406 10.4008 21.6129C10.5165 22.3314 10.6684 22.8047 10.9181 23.2215C11.1471 23.6035 11.4816 23.9771 12.0271 24.4523H12.9337C13.2736 24.4523 13.6097 24.4011 13.931 24.302C12.9194 23.4415 12.2404 22.2035 12.1071 20.8034C11.9657 19.319 12.251 17.8451 12.9028 16.5434L12.2109 15.6786H8.78878ZM9.5793 12.6937L11.2054 12.5688L11.6561 11.0682L8.90761 11.7545L9.5793 12.6937ZM21.5011 9.68751L19.4797 9.5115L18.8145 7.00182L22.532 8.0538L21.5011 9.68751ZM15.436 15.3757L17.6974 13.2091H22.4439L24.9151 18.4927C25.2393 19.1859 25.3629 19.956 25.2718 20.7158L25.2564 20.8436C25.062 22.4653 23.9373 23.771 22.4551 24.2526C23.024 23.3492 23.2846 22.2731 23.3792 21.0932C23.4093 20.7174 23.129 20.3883 22.7531 20.3582C22.3773 20.328 22.0482 20.6083 22.0181 20.9842C21.8895 22.5886 21.4447 23.7027 20.4349 24.4523H19.6622L18.7885 24.3604C18.7745 24.3434 18.7595 24.3269 18.7436 24.3109C18.4904 24.0577 18.1054 23.4652 17.7807 22.6939C17.46 21.9323 17.2368 21.087 17.2368 20.356C17.2368 19.9789 16.9311 19.6732 16.5541 19.6732C16.177 19.6732 15.8713 19.9789 15.8713 20.356C15.8713 21.3317 16.1602 22.364 16.5222 23.2238C16.6623 23.5565 16.8193 23.8774 16.9842 24.1705L16.9219 24.1639C15.0865 23.9707 13.6413 22.5111 13.4664 20.6739C13.2783 18.6996 14.004 16.7477 15.436 15.3757ZM18.7041 10.8146L18.4011 11.8437H22.1955V11.1186L18.7041 10.8146ZM12.0131 14.3131L11.871 13.8871L9.06201 14.1029V14.3131H12.0131Z" fill="#1A2736"/>
</svg>
