<svg width="32" height="32" viewBox="0 0 32 32" fill="none" xmlns="http://www.w3.org/2000/svg">
<path d="M26.2372 15.491L20.0344 9.24588C18.3778 7.59259 16.1329 6.66406 13.7925 6.66406C11.452 6.66406 9.20717 7.59259 7.55057 9.24588L7.5423 9.25416L6.27617 10.5626C6.14501 10.7035 6.07435 10.8903 6.07934 11.0828C6.08434 11.2752 6.16459 11.4581 6.30289 11.592C6.44118 11.726 6.62648 11.8004 6.81901 11.7992C7.01154 11.7981 7.19595 11.7215 7.33265 11.586L8.5951 10.2821C9.10301 9.77433 9.68262 9.34373 10.3154 9.00406L14.591 13.2842L5.76402 22.1112C5.62738 22.2479 5.51898 22.4101 5.44503 22.5886C5.37107 22.7671 5.33301 22.9584 5.33301 23.1516C5.33301 23.3449 5.37107 23.5362 5.44503 23.7147C5.51898 23.8932 5.62738 24.0554 5.76402 24.192L7.66643 26.0944C7.80304 26.2311 7.96524 26.3395 8.14375 26.4134C8.32226 26.4874 8.51359 26.5255 8.70682 26.5255C8.90004 26.5255 9.09137 26.4874 9.26989 26.4134C9.4484 26.3395 9.61059 26.2311 9.74721 26.0944L18.5742 17.2674L19.8928 18.586L21.5166 20.2079C21.6532 20.3446 21.8154 20.453 21.9939 20.5269C22.1724 20.6009 22.3637 20.6389 22.5569 20.6389C22.7502 20.6389 22.9415 20.6009 23.12 20.5269C23.2985 20.453 23.4607 20.3446 23.5973 20.2079L26.2353 17.5699C26.511 17.2943 26.666 16.9206 26.6663 16.5308C26.6667 16.1411 26.5123 15.7671 26.2372 15.491ZM8.70636 25.0536L6.80487 23.1512L13.0573 16.8987L14.9588 18.8011L8.70636 25.0536ZM18.0538 15.7043L15.9997 17.7593L14.0973 15.8588L16.1523 13.8037C16.2207 13.7354 16.275 13.6543 16.312 13.565C16.349 13.4757 16.368 13.38 16.368 13.2833C16.368 13.1867 16.349 13.0909 16.312 13.0016C16.275 12.9123 16.2207 12.8312 16.1523 12.7629L11.7995 8.411C13.0571 8.05681 14.3863 8.04397 15.6505 8.3738C16.9148 8.70363 18.0683 9.36422 18.9926 10.2877L23.0585 14.3803L20.4132 17.0228L19.0946 15.7043C19.0263 15.6359 18.9452 15.5817 18.8559 15.5446C18.7666 15.5076 18.6709 15.4886 18.5742 15.4886C18.4776 15.4886 18.3818 15.5076 18.2925 15.5446C18.2032 15.5817 18.1221 15.6359 18.0538 15.7043ZM22.5592 19.1671L21.4559 18.0637L24.0911 15.422L25.1945 16.5254L22.5592 19.1671Z" fill="#1A2736"/>
</svg>
