<svg width="32" height="32" viewBox="0 0 32 32" fill="none" xmlns="http://www.w3.org/2000/svg">
<path d="M26.6334 8.70081C26.6232 8.52681 26.5495 8.3626 26.4263 8.23936C26.303 8.11611 26.1388 8.04242 25.9648 8.03225C21.3632 7.76554 17.6683 9.16488 16.0805 11.7858C15.0315 13.5185 15.0332 15.6228 16.0663 17.6303C15.4783 18.3302 15.0486 19.1491 14.8065 20.0306L13.3601 18.5789C14.0553 17.1271 14.0286 15.6139 13.2712 14.3568C12.0977 12.4196 9.38877 11.3812 6.02556 11.5786C5.85156 11.5888 5.68735 11.6625 5.56411 11.7857C5.44087 11.909 5.36717 12.0732 5.35701 12.2472C5.15875 15.6104 6.19803 18.3193 8.13524 19.4928C8.77451 19.8834 9.5091 20.0901 10.2582 20.0902C10.9854 20.0813 11.7012 19.909 12.3528 19.5861L14.5754 21.8087V24.3576C14.5754 24.5462 14.6503 24.7271 14.7837 24.8605C14.9171 24.9939 15.098 25.0688 15.2866 25.0688C15.4752 25.0688 15.6562 24.9939 15.7895 24.8605C15.9229 24.7271 15.9978 24.5462 15.9978 24.3576V21.7358C15.9947 20.6043 16.3797 19.506 17.0887 18.6242C18.0035 19.1023 19.018 19.3581 20.0501 19.371C21.0479 19.3742 22.0272 19.1016 22.8799 18.5833C25.5007 16.9973 26.9036 13.3024 26.6334 8.70081ZM8.86869 18.2766C7.50491 17.4507 6.73323 15.4957 6.7519 12.9779C9.26964 12.9566 11.2246 13.731 12.0505 15.0947C12.4817 15.806 12.552 16.6354 12.2692 17.4898L10.0991 15.3197C9.96464 15.1919 9.78559 15.1217 9.60013 15.1241C9.41467 15.1265 9.23748 15.2012 9.10632 15.3324C8.97517 15.4635 8.90044 15.6407 8.89807 15.8262C8.89569 16.0116 8.96586 16.1907 9.09361 16.3252L11.2637 18.4953C10.4094 18.778 9.5808 18.7078 8.86869 18.2766ZM22.1428 17.368C20.9515 18.089 19.5513 18.1441 18.1289 17.5458L22.9021 12.7717C23.0298 12.6372 23.1 12.4582 23.0976 12.2727C23.0953 12.0873 23.0205 11.9101 22.8894 11.7789C22.7582 11.6478 22.581 11.573 22.3956 11.5707C22.2101 11.5683 22.031 11.6384 21.8966 11.7662L17.1225 16.5341C16.5215 15.1116 16.5757 13.7105 17.3003 12.5201C18.5396 10.4753 21.4787 9.33558 25.242 9.42359C25.3274 13.186 24.1894 16.1287 22.1428 17.368Z" fill="#1A2736"/>
</svg>
