<svg width="16" height="16" viewBox="0 0 16 16" fill="none" xmlns="http://www.w3.org/2000/svg">
<g id="Plus">
<path id="Vector" d="M15 7.5C15 7.64366 14.9429 7.78143 14.8414 7.88302C14.7398 7.9846 14.602 8.04167 14.4583 8.04167H9.04167V13.4583C9.04167 13.602 8.9846 13.7398 8.88302 13.8414C8.78143 13.9429 8.64366 14 8.5 14C8.35634 14 8.21857 13.9429 8.11698 13.8414C8.0154 13.7398 7.95833 13.602 7.95833 13.4583V8.04167H2.54167C2.39801 8.04167 2.26023 7.9846 2.15865 7.88302C2.05707 7.78143 2 7.64366 2 7.5C2 7.35634 2.05707 7.21857 2.15865 7.11698C2.26023 7.0154 2.39801 6.95833 2.54167 6.95833H7.95833V1.54167C7.95833 1.39801 8.0154 1.26023 8.11698 1.15865C8.21857 1.05707 8.35634 1 8.5 1C8.64366 1 8.78143 1.05707 8.88302 1.15865C8.9846 1.26023 9.04167 1.39801 9.04167 1.54167V6.95833H14.4583C14.602 6.95833 14.7398 7.0154 14.8414 7.11698C14.9429 7.21857 15 7.35634 15 7.5Z" fill="#1A2736"/>
</g>
</svg>
