<svg width="24" height="24" viewBox="0 0 24 24" fill="none" xmlns="http://www.w3.org/2000/svg">
<g id="icon-upload">
<path id="Vector" d="M19.9995 14.0002V18.6667C19.9995 19.0203 19.859 19.3594 19.609 19.6095C19.3589 19.8595 19.0198 20 18.6662 20H5.33329C4.97968 20 4.64055 19.8595 4.39051 19.6095C4.14047 19.3594 4 19.0203 4 18.6667V14.0002C4 13.8234 4.07024 13.6538 4.19526 13.5288C4.32028 13.4038 4.48984 13.3336 4.66664 13.3336C4.84345 13.3336 5.01301 13.4038 5.13803 13.5288C5.26305 13.6538 5.33329 13.8234 5.33329 14.0002V18.6667H18.6662V14.0002C18.6662 13.8234 18.7364 13.6538 18.8614 13.5288C18.9865 13.4038 19.156 13.3336 19.3328 13.3336C19.5096 13.3336 19.6792 13.4038 19.8042 13.5288C19.9292 13.6538 19.9995 13.8234 19.9995 14.0002ZM9.13817 8.47204L11.3331 6.27628V14.0002C11.3331 14.177 11.4033 14.3466 11.5283 14.4716C11.6534 14.5966 11.8229 14.6668 11.9997 14.6668C12.1765 14.6668 12.3461 14.5966 12.4711 14.4716C12.5961 14.3466 12.6664 14.177 12.6664 14.0002V6.27628L14.8613 8.47204C14.9864 8.59713 15.1561 8.66741 15.333 8.66741C15.5099 8.66741 15.6795 8.59713 15.8046 8.47204C15.9297 8.34696 16 8.1773 16 8.00039C16 7.82349 15.9297 7.65383 15.8046 7.52874L12.4714 4.19552C12.4095 4.13354 12.336 4.08436 12.255 4.05082C12.1741 4.01727 12.0873 4 11.9997 4C11.9121 4 11.8254 4.01727 11.7445 4.05082C11.6635 4.08436 11.59 4.13354 11.5281 4.19552L8.19486 7.52874C8.06977 7.65383 7.9995 7.82349 7.9995 8.00039C7.9995 8.1773 8.06977 8.34696 8.19486 8.47204C8.31995 8.59713 8.48961 8.66741 8.66651 8.66741C8.84342 8.66741 9.01308 8.59713 9.13817 8.47204Z" fill="#91A0B0"/>
</g>
</svg>
