<svg width="32" height="32" viewBox="0 0 32 32" fill="none" xmlns="http://www.w3.org/2000/svg">
<path fill-rule="evenodd" clip-rule="evenodd" d="M14.4036 5.57344C14.5385 5.42233 14.7314 5.33594 14.934 5.33594H23.1118C23.5045 5.33594 23.8229 5.65431 23.8229 6.04705V9.41314C23.8229 9.58576 23.7601 9.75249 23.6462 9.88223L14.7419 20.0272C14.6069 20.1811 14.4121 20.2693 14.2074 20.2693H6.04512C5.65238 20.2693 5.33401 19.9509 5.33401 19.5582V16.0026C5.33401 15.8279 5.39832 15.6593 5.51467 15.529L14.4036 5.57344ZM15.2524 6.75816L6.75623 16.2739V18.847H13.8854L22.4007 9.14533V6.75816H15.2524Z" fill="#1A2736"/>
<path fill-rule="evenodd" clip-rule="evenodd" d="M14.9495 5.33594C14.7488 5.33594 14.5575 5.4207 14.4227 5.56932L5.51837 15.3871C5.32938 15.5955 5.281 15.8957 5.39496 16.1529C5.50891 16.4101 5.76379 16.5759 6.04511 16.5759H10.6236C10.6346 16.5762 10.6455 16.5762 10.6564 16.5759H13.2109V19.2026C13.2109 19.5953 13.5293 19.9137 13.922 19.9137C14.3148 19.9137 14.6332 19.5953 14.6332 19.2026V16.4344C14.6694 16.4073 14.7033 16.3766 14.7342 16.3425L17.5993 13.1835C17.696 13.1187 17.7759 13.0309 17.8312 12.9278L23.6385 6.52478C23.8275 6.3164 23.8759 6.01619 23.7619 5.75899C23.648 5.50178 23.3931 5.33594 23.1118 5.33594H14.9495ZM21.5068 6.75816L18.16 10.4483C18.2025 10.3147 18.2517 10.1829 18.3087 10.0504C18.6308 9.30091 19.2226 8.47159 20.3642 7.1706C20.4693 7.05082 20.527 6.90567 20.5386 6.75816H21.5068ZM17.0021 9.48881C17.361 8.65367 17.9465 7.81706 18.8419 6.75816H17.2566C17.2453 6.9015 17.1905 7.04277 17.0905 7.16091C15.0736 9.54445 12.8112 12.7101 11.6964 15.1537H13.8924L16.4951 12.2839C16.5104 11.2475 16.6136 10.3925 17.0021 9.48881ZM15.5743 6.75816H15.2645L7.65008 15.1537H10.1487C11.1795 12.596 13.4981 9.2811 15.5743 6.75816Z" fill="#1A2736"/>
<path fill-rule="evenodd" clip-rule="evenodd" d="M14.4036 5.57344C14.5385 5.42233 14.7314 5.33594 14.934 5.33594H23.1118C23.5045 5.33594 23.8229 5.65431 23.8229 6.04705V9.41314C23.8229 9.58576 23.7601 9.75249 23.6462 9.88223L14.7419 20.0272C14.6069 20.1811 14.4121 20.2693 14.2074 20.2693H6.04512C5.65238 20.2693 5.33401 19.9509 5.33401 19.5582V16.0026C5.33401 15.8279 5.39832 15.6593 5.51467 15.529L14.4036 5.57344ZM15.2524 6.75816L6.75623 16.2739V18.847H13.8854L22.4007 9.14533V6.75816H15.2524Z" fill="#1A2736"/>
<path fill-rule="evenodd" clip-rule="evenodd" d="M14.9495 5.33594C14.7488 5.33594 14.5575 5.4207 14.4227 5.56932L5.51837 15.3871C5.32938 15.5955 5.281 15.8957 5.39496 16.1529C5.50891 16.4101 5.76379 16.5759 6.04511 16.5759H10.6236C10.6346 16.5762 10.6455 16.5762 10.6564 16.5759H13.2109V19.2026C13.2109 19.5953 13.5293 19.9137 13.922 19.9137C14.3148 19.9137 14.6332 19.5953 14.6332 19.2026V16.4344C14.6694 16.4073 14.7033 16.3766 14.7342 16.3425L17.5993 13.1835C17.696 13.1187 17.7759 13.0309 17.8312 12.9278L23.6385 6.52478C23.8275 6.3164 23.8759 6.01619 23.7619 5.75899C23.648 5.50178 23.3931 5.33594 23.1118 5.33594H14.9495ZM21.5068 6.75816L18.16 10.4483C18.2025 10.3147 18.2517 10.1829 18.3087 10.0504C18.6308 9.30091 19.2226 8.47159 20.3642 7.1706C20.4693 7.05082 20.527 6.90567 20.5386 6.75816H21.5068ZM17.0021 9.48881C17.361 8.65367 17.9465 7.81706 18.8419 6.75816H17.2566C17.2453 6.9015 17.1905 7.04277 17.0905 7.16091C15.0736 9.54445 12.8112 12.7101 11.6964 15.1537H13.8924L16.4951 12.2839C16.5104 11.2475 16.6136 10.3925 17.0021 9.48881ZM15.5743 6.75816H15.2645L7.65008 15.1537H10.1487C11.1795 12.596 13.4981 9.2811 15.5743 6.75816Z" fill="#1A2736"/>
<path d="M25.9562 13.1582C25.9562 12.7654 25.6379 12.447 25.2451 12.447C24.8524 12.447 24.534 12.7654 24.534 13.1582V16.1458L17.4229 23.7581V22.6901C17.4229 22.2974 17.1045 21.979 16.7118 21.979C16.319 21.979 16.0007 22.2974 16.0007 22.6901V25.2319C16.0007 25.237 16.0007 25.242 16.0008 25.247H8.88956V22.6901C8.88956 22.2973 8.57119 21.979 8.17845 21.979C7.78571 21.979 7.46734 22.2973 7.46734 22.6901V25.9582C7.46734 26.3509 7.78571 26.6693 8.17845 26.6693H16.3408C16.5378 26.6693 16.7259 26.5875 16.8604 26.4436L25.7648 16.9117C25.8878 16.78 25.9562 16.6065 25.9562 16.4262V13.1582Z" fill="#1A2736"/>
<path fill-rule="evenodd" clip-rule="evenodd" d="M20.9455 13.8693H19.9118V12.447H25.2451C25.5283 12.447 25.7846 12.6151 25.8974 12.8749C26.0102 13.1347 25.9581 13.4366 25.7648 13.6436L19.959 19.8586C19.9024 19.96 19.8218 20.0461 19.7248 20.1093L16.8604 23.1755C16.7259 23.3195 16.5378 23.4012 16.3408 23.4012H12.7915C12.7794 23.4015 12.7672 23.4015 12.7551 23.4012H8.17845C7.89083 23.4012 7.63154 23.2279 7.52147 22.9622C7.4114 22.6965 7.47224 22.3906 7.67562 22.1872L10.8075 19.0553L11.8132 20.061L9.89522 21.979H12.2873C12.7405 20.8884 13.4344 19.6714 14.2304 18.4572C14.4457 18.1287 14.8865 18.037 15.215 18.2523C15.5434 18.4677 15.6351 18.9085 15.4198 19.2369C14.7847 20.2057 14.2411 21.1403 13.8438 21.979H16.0319L18.6287 19.1992C18.6447 18.1963 18.7492 17.3639 19.1385 16.4845C19.4942 15.6811 20.0705 14.8778 20.9455 13.8693ZM22.6702 13.8693C22.6549 14.0136 22.5954 14.1546 22.4906 14.2705C21.3487 15.534 20.7592 16.3369 20.439 17.0602C20.388 17.1754 20.3432 17.29 20.3039 17.4059L23.6077 13.8693H22.6702Z" fill="#1A2736"/>
<path fill-rule="evenodd" clip-rule="evenodd" d="M14.4036 5.57344C14.5385 5.42233 14.7314 5.33594 14.934 5.33594H23.1118C23.5045 5.33594 23.8229 5.65431 23.8229 6.04705V9.41314C23.8229 9.58576 23.7601 9.75249 23.6462 9.88223L14.7419 20.0272C14.6069 20.1811 14.4121 20.2693 14.2074 20.2693H6.04512C5.65238 20.2693 5.33401 19.9509 5.33401 19.5582V16.0026C5.33401 15.8279 5.39832 15.6593 5.51467 15.529L14.4036 5.57344ZM15.2524 6.75816L6.75623 16.2739V18.847H13.8854L22.4007 9.14533V6.75816H15.2524Z" fill="#1A2736"/>
<path fill-rule="evenodd" clip-rule="evenodd" d="M14.9495 5.33594C14.7488 5.33594 14.5575 5.4207 14.4227 5.56932L5.51837 15.3871C5.32938 15.5955 5.281 15.8957 5.39496 16.1529C5.50891 16.4101 5.76379 16.5759 6.04511 16.5759H10.6236C10.6346 16.5762 10.6455 16.5762 10.6564 16.5759H13.2109V19.2026C13.2109 19.5953 13.5293 19.9137 13.922 19.9137C14.3148 19.9137 14.6332 19.5953 14.6332 19.2026V16.4344C14.6694 16.4073 14.7033 16.3766 14.7342 16.3425L17.5993 13.1835C17.696 13.1187 17.7759 13.0309 17.8312 12.9278L23.6385 6.52478C23.8275 6.3164 23.8759 6.01619 23.7619 5.75899C23.648 5.50178 23.3931 5.33594 23.1118 5.33594H14.9495ZM21.5068 6.75816L18.16 10.4483C18.2025 10.3147 18.2517 10.1829 18.3087 10.0504C18.6308 9.30091 19.2226 8.47159 20.3642 7.1706C20.4693 7.05082 20.527 6.90567 20.5386 6.75816H21.5068ZM17.0021 9.48881C17.361 8.65367 17.9465 7.81706 18.8419 6.75816H17.2566C17.2453 6.9015 17.1905 7.04277 17.0905 7.16091C15.0736 9.54445 12.8112 12.7101 11.6964 15.1537H13.8924L16.4951 12.2839C16.5104 11.2475 16.6136 10.3925 17.0021 9.48881ZM15.5743 6.75816H15.2645L7.65008 15.1537H10.1487C11.1795 12.596 13.4981 9.2811 15.5743 6.75816Z" fill="#1A2736"/>
<path fill-rule="evenodd" clip-rule="evenodd" d="M14.4036 5.57344C14.5385 5.42233 14.7314 5.33594 14.934 5.33594H23.1118C23.5045 5.33594 23.8229 5.65431 23.8229 6.04705V9.41314C23.8229 9.58576 23.7601 9.75249 23.6462 9.88223L14.7419 20.0272C14.6069 20.1811 14.4121 20.2693 14.2074 20.2693H6.04512C5.65238 20.2693 5.33401 19.9509 5.33401 19.5582V16.0026C5.33401 15.8279 5.39832 15.6593 5.51467 15.529L14.4036 5.57344ZM15.2524 6.75816L6.75623 16.2739V18.847H13.8854L22.4007 9.14533V6.75816H15.2524Z" fill="#1A2736"/>
<path fill-rule="evenodd" clip-rule="evenodd" d="M14.9495 5.33594C14.7488 5.33594 14.5575 5.4207 14.4227 5.56932L5.51837 15.3871C5.32938 15.5955 5.281 15.8957 5.39496 16.1529C5.50891 16.4101 5.76379 16.5759 6.04511 16.5759H10.6236C10.6346 16.5762 10.6455 16.5762 10.6564 16.5759H13.2109V19.2026C13.2109 19.5953 13.5293 19.9137 13.922 19.9137C14.3148 19.9137 14.6332 19.5953 14.6332 19.2026V16.4344C14.6694 16.4073 14.7033 16.3766 14.7342 16.3425L17.5993 13.1835C17.696 13.1187 17.7759 13.0309 17.8312 12.9278L23.6385 6.52478C23.8275 6.3164 23.8759 6.01619 23.7619 5.75899C23.648 5.50178 23.3931 5.33594 23.1118 5.33594H14.9495ZM21.5068 6.75816L18.16 10.4483C18.2025 10.3147 18.2517 10.1829 18.3087 10.0504C18.6308 9.30091 19.2226 8.47159 20.3642 7.1706C20.4693 7.05082 20.527 6.90567 20.5386 6.75816H21.5068ZM17.0021 9.48881C17.361 8.65367 17.9465 7.81706 18.8419 6.75816H17.2566C17.2453 6.9015 17.1905 7.04277 17.0905 7.16091C15.0736 9.54445 12.8112 12.7101 11.6964 15.1537H13.8924L16.4951 12.2839C16.5104 11.2475 16.6136 10.3925 17.0021 9.48881ZM15.5743 6.75816H15.2645L7.65008 15.1537H10.1487C11.1795 12.596 13.4981 9.2811 15.5743 6.75816Z" fill="#1A2736"/>
<path d="M25.9562 13.1582C25.9562 12.7654 25.6379 12.447 25.2451 12.447C24.8524 12.447 24.534 12.7654 24.534 13.1582V16.1458L17.4229 23.7581V22.6901C17.4229 22.2974 17.1045 21.979 16.7118 21.979C16.319 21.979 16.0007 22.2974 16.0007 22.6901V25.2319C16.0007 25.237 16.0007 25.242 16.0008 25.247H8.88956V22.6901C8.88956 22.2973 8.57119 21.979 8.17845 21.979C7.78571 21.979 7.46734 22.2973 7.46734 22.6901V25.9582C7.46734 26.3509 7.78571 26.6693 8.17845 26.6693H16.3408C16.5378 26.6693 16.7259 26.5875 16.8604 26.4436L25.7648 16.9117C25.8878 16.78 25.9562 16.6065 25.9562 16.4262V13.1582Z" fill="#1A2736"/>
<path fill-rule="evenodd" clip-rule="evenodd" d="M20.9455 13.8693H19.9118V12.447H25.2451C25.5283 12.447 25.7846 12.6151 25.8974 12.8749C26.0102 13.1347 25.9581 13.4366 25.7648 13.6436L19.959 19.8586C19.9024 19.96 19.8218 20.0461 19.7248 20.1093L16.8604 23.1755C16.7259 23.3195 16.5378 23.4012 16.3408 23.4012H12.7915C12.7794 23.4015 12.7672 23.4015 12.7551 23.4012H8.17845C7.89083 23.4012 7.63154 23.2279 7.52147 22.9622C7.4114 22.6965 7.47224 22.3906 7.67562 22.1872L10.8075 19.0553L11.8132 20.061L9.89522 21.979H12.2873C12.7405 20.8884 13.4344 19.6714 14.2304 18.4572C14.4457 18.1287 14.8865 18.037 15.215 18.2523C15.5434 18.4677 15.6351 18.9085 15.4198 19.2369C14.7847 20.2057 14.2411 21.1403 13.8438 21.979H16.0319L18.6287 19.1992C18.6447 18.1963 18.7492 17.3639 19.1385 16.4845C19.4942 15.6811 20.0705 14.8778 20.9455 13.8693ZM22.6702 13.8693C22.6549 14.0136 22.5954 14.1546 22.4906 14.2705C21.3487 15.534 20.7592 16.3369 20.439 17.0602C20.388 17.1754 20.3432 17.29 20.3039 17.4059L23.6077 13.8693H22.6702Z" fill="#1A2736"/>
</svg>
